<?xml version="1.0" encoding="utf-8" standalone="no"?>
<!DOCTYPE svg PUBLIC "-//W3C//DTD SVG 1.1//EN"
  "http://www.w3.org/Graphics/SVG/1.1/DTD/svg11.dtd">
<svg xmlns:xlink="http://www.w3.org/1999/xlink" width="438.471437pt" height="314.011812pt" viewBox="0 0 438.471437 314.011812" xmlns="http://www.w3.org/2000/svg" version="1.1">
 <metadata>
  <rdf:RDF xmlns:dc="http://purl.org/dc/elements/1.1/" xmlns:cc="http://creativecommons.org/ns#" xmlns:rdf="http://www.w3.org/1999/02/22-rdf-syntax-ns#">
   <cc:Work>
    <dc:type rdf:resource="http://purl.org/dc/dcmitype/StillImage"/>
    <dc:date>2026-05-18T13:58:59.053619</dc:date>
    <dc:format>image/svg+xml</dc:format>
    <dc:creator>
     <cc:Agent>
      <dc:title>Matplotlib v3.10.9, https://matplotlib.org/</dc:title>
     </cc:Agent>
    </dc:creator>
   </cc:Work>
  </rdf:RDF>
 </metadata>
 <defs>
  <style type="text/css">*{stroke-linejoin: round; stroke-linecap: butt}</style>
 </defs>
 <g id="figure_1">
  <g id="patch_1">
   <path d="M 0 314.011812 
L 438.471437 314.011812 
L 438.471437 0 
L 0 0 
z
" style="fill: #ffffff"/>
  </g>
  <g id="axes_1">
   <g id="patch_2">
    <path d="M 35.844688 274.519937 
L 411.822187 274.519937 
L 411.822187 23.229938 
L 35.844688 23.229938 
z
" style="fill: #ffffff"/>
   </g>
   <g id="matplotlib.axis_1">
    <g id="xtick_1">
     <g id="line2d_1">
      <path d="M 35.844688 274.519937 
L 35.844688 23.229938 
" clip-path="url(#p8da9bff733)" style="fill: none; stroke: #b0b0b0; stroke-opacity: 0.25; stroke-width: 0.8; stroke-linecap: square"/>
     </g>
     <g id="line2d_2">
      <defs>
       <path id="m0b9be33b8b" d="M 0 0 
L 0 3.5 
" style="stroke: #000000; stroke-width: 0.8"/>
      </defs>
      <g>
       <use xlink:href="#m0b9be33b8b" x="35.844688" y="274.519937" style="stroke: #000000; stroke-width: 0.8"/>
      </g>
     </g>
     <g id="text_1">
      <!-- 0 -->
      <g transform="translate(32.345313 289.878219) scale(0.11 -0.11)">
       <defs>
        <path id="DejaVuSans-30" d="M 2034 4250 
Q 1547 4250 1301 3770 
Q 1056 3291 1056 2328 
Q 1056 1369 1301 889 
Q 1547 409 2034 409 
Q 2525 409 2770 889 
Q 3016 1369 3016 2328 
Q 3016 3291 2770 3770 
Q 2525 4250 2034 4250 
z
M 2034 4750 
Q 2819 4750 3233 4129 
Q 3647 3509 3647 2328 
Q 3647 1150 3233 529 
Q 2819 -91 2034 -91 
Q 1250 -91 836 529 
Q 422 1150 422 2328 
Q 422 3509 836 4129 
Q 1250 4750 2034 4750 
z
" transform="scale(0.015625)"/>
       </defs>
       <use xlink:href="#DejaVuSans-30"/>
      </g>
     </g>
    </g>
    <g id="xtick_2">
     <g id="line2d_3">
      <path d="M 82.841875 274.519937 
L 82.841875 23.229938 
" clip-path="url(#p8da9bff733)" style="fill: none; stroke: #b0b0b0; stroke-opacity: 0.25; stroke-width: 0.8; stroke-linecap: square"/>
     </g>
     <g id="line2d_4">
      <g>
       <use xlink:href="#m0b9be33b8b" x="82.841875" y="274.519937" style="stroke: #000000; stroke-width: 0.8"/>
      </g>
     </g>
     <g id="text_2">
      <!-- 1 -->
      <g transform="translate(79.3425 289.878219) scale(0.11 -0.11)">
       <defs>
        <path id="DejaVuSans-31" d="M 794 531 
L 1825 531 
L 1825 4091 
L 703 3866 
L 703 4441 
L 1819 4666 
L 2450 4666 
L 2450 531 
L 3481 531 
L 3481 0 
L 794 0 
L 794 531 
z
" transform="scale(0.015625)"/>
       </defs>
       <use xlink:href="#DejaVuSans-31"/>
      </g>
     </g>
    </g>
    <g id="xtick_3">
     <g id="line2d_5">
      <path d="M 129.839063 274.519937 
L 129.839063 23.229938 
" clip-path="url(#p8da9bff733)" style="fill: none; stroke: #b0b0b0; stroke-opacity: 0.25; stroke-width: 0.8; stroke-linecap: square"/>
     </g>
     <g id="line2d_6">
      <g>
       <use xlink:href="#m0b9be33b8b" x="129.839063" y="274.519937" style="stroke: #000000; stroke-width: 0.8"/>
      </g>
     </g>
     <g id="text_3">
      <!-- 2 -->
      <g transform="translate(126.339688 289.878219) scale(0.11 -0.11)">
       <defs>
        <path id="DejaVuSans-32" d="M 1228 531 
L 3431 531 
L 3431 0 
L 469 0 
L 469 531 
Q 828 903 1448 1529 
Q 2069 2156 2228 2338 
Q 2531 2678 2651 2914 
Q 2772 3150 2772 3378 
Q 2772 3750 2511 3984 
Q 2250 4219 1831 4219 
Q 1534 4219 1204 4116 
Q 875 4013 500 3803 
L 500 4441 
Q 881 4594 1212 4672 
Q 1544 4750 1819 4750 
Q 2544 4750 2975 4387 
Q 3406 4025 3406 3419 
Q 3406 3131 3298 2873 
Q 3191 2616 2906 2266 
Q 2828 2175 2409 1742 
Q 1991 1309 1228 531 
z
" transform="scale(0.015625)"/>
       </defs>
       <use xlink:href="#DejaVuSans-32"/>
      </g>
     </g>
    </g>
    <g id="xtick_4">
     <g id="line2d_7">
      <path d="M 176.83625 274.519937 
L 176.83625 23.229938 
" clip-path="url(#p8da9bff733)" style="fill: none; stroke: #b0b0b0; stroke-opacity: 0.25; stroke-width: 0.8; stroke-linecap: square"/>
     </g>
     <g id="line2d_8">
      <g>
       <use xlink:href="#m0b9be33b8b" x="176.83625" y="274.519937" style="stroke: #000000; stroke-width: 0.8"/>
      </g>
     </g>
     <g id="text_4">
      <!-- 3 -->
      <g transform="translate(173.336875 289.878219) scale(0.11 -0.11)">
       <defs>
        <path id="DejaVuSans-33" d="M 2597 2516 
Q 3050 2419 3304 2112 
Q 3559 1806 3559 1356 
Q 3559 666 3084 287 
Q 2609 -91 1734 -91 
Q 1441 -91 1130 -33 
Q 819 25 488 141 
L 488 750 
Q 750 597 1062 519 
Q 1375 441 1716 441 
Q 2309 441 2620 675 
Q 2931 909 2931 1356 
Q 2931 1769 2642 2001 
Q 2353 2234 1838 2234 
L 1294 2234 
L 1294 2753 
L 1863 2753 
Q 2328 2753 2575 2939 
Q 2822 3125 2822 3475 
Q 2822 3834 2567 4026 
Q 2313 4219 1838 4219 
Q 1578 4219 1281 4162 
Q 984 4106 628 3988 
L 628 4550 
Q 988 4650 1302 4700 
Q 1616 4750 1894 4750 
Q 2613 4750 3031 4423 
Q 3450 4097 3450 3541 
Q 3450 3153 3228 2886 
Q 3006 2619 2597 2516 
z
" transform="scale(0.015625)"/>
       </defs>
       <use xlink:href="#DejaVuSans-33"/>
      </g>
     </g>
    </g>
    <g id="xtick_5">
     <g id="line2d_9">
      <path d="M 223.833438 274.519937 
L 223.833438 23.229938 
" clip-path="url(#p8da9bff733)" style="fill: none; stroke: #b0b0b0; stroke-opacity: 0.25; stroke-width: 0.8; stroke-linecap: square"/>
     </g>
     <g id="line2d_10">
      <g>
       <use xlink:href="#m0b9be33b8b" x="223.833438" y="274.519937" style="stroke: #000000; stroke-width: 0.8"/>
      </g>
     </g>
     <g id="text_5">
      <!-- 4 -->
      <g transform="translate(220.334063 289.878219) scale(0.11 -0.11)">
       <defs>
        <path id="DejaVuSans-34" d="M 2419 4116 
L 825 1625 
L 2419 1625 
L 2419 4116 
z
M 2253 4666 
L 3047 4666 
L 3047 1625 
L 3713 1625 
L 3713 1100 
L 3047 1100 
L 3047 0 
L 2419 0 
L 2419 1100 
L 313 1100 
L 313 1709 
L 2253 4666 
z
" transform="scale(0.015625)"/>
       </defs>
       <use xlink:href="#DejaVuSans-34"/>
      </g>
     </g>
    </g>
    <g id="xtick_6">
     <g id="line2d_11">
      <path d="M 270.830625 274.519937 
L 270.830625 23.229938 
" clip-path="url(#p8da9bff733)" style="fill: none; stroke: #b0b0b0; stroke-opacity: 0.25; stroke-width: 0.8; stroke-linecap: square"/>
     </g>
     <g id="line2d_12">
      <g>
       <use xlink:href="#m0b9be33b8b" x="270.830625" y="274.519937" style="stroke: #000000; stroke-width: 0.8"/>
      </g>
     </g>
     <g id="text_6">
      <!-- 5 -->
      <g transform="translate(267.33125 289.878219) scale(0.11 -0.11)">
       <defs>
        <path id="DejaVuSans-35" d="M 691 4666 
L 3169 4666 
L 3169 4134 
L 1269 4134 
L 1269 2991 
Q 1406 3038 1543 3061 
Q 1681 3084 1819 3084 
Q 2600 3084 3056 2656 
Q 3513 2228 3513 1497 
Q 3513 744 3044 326 
Q 2575 -91 1722 -91 
Q 1428 -91 1123 -41 
Q 819 9 494 109 
L 494 744 
Q 775 591 1075 516 
Q 1375 441 1709 441 
Q 2250 441 2565 725 
Q 2881 1009 2881 1497 
Q 2881 1984 2565 2268 
Q 2250 2553 1709 2553 
Q 1456 2553 1204 2497 
Q 953 2441 691 2322 
L 691 4666 
z
" transform="scale(0.015625)"/>
       </defs>
       <use xlink:href="#DejaVuSans-35"/>
      </g>
     </g>
    </g>
    <g id="xtick_7">
     <g id="line2d_13">
      <path d="M 317.827812 274.519937 
L 317.827812 23.229938 
" clip-path="url(#p8da9bff733)" style="fill: none; stroke: #b0b0b0; stroke-opacity: 0.25; stroke-width: 0.8; stroke-linecap: square"/>
     </g>
     <g id="line2d_14">
      <g>
       <use xlink:href="#m0b9be33b8b" x="317.827812" y="274.519937" style="stroke: #000000; stroke-width: 0.8"/>
      </g>
     </g>
     <g id="text_7">
      <!-- 6 -->
      <g transform="translate(314.328438 289.878219) scale(0.11 -0.11)">
       <defs>
        <path id="DejaVuSans-36" d="M 2113 2584 
Q 1688 2584 1439 2293 
Q 1191 2003 1191 1497 
Q 1191 994 1439 701 
Q 1688 409 2113 409 
Q 2538 409 2786 701 
Q 3034 994 3034 1497 
Q 3034 2003 2786 2293 
Q 2538 2584 2113 2584 
z
M 3366 4563 
L 3366 3988 
Q 3128 4100 2886 4159 
Q 2644 4219 2406 4219 
Q 1781 4219 1451 3797 
Q 1122 3375 1075 2522 
Q 1259 2794 1537 2939 
Q 1816 3084 2150 3084 
Q 2853 3084 3261 2657 
Q 3669 2231 3669 1497 
Q 3669 778 3244 343 
Q 2819 -91 2113 -91 
Q 1303 -91 875 529 
Q 447 1150 447 2328 
Q 447 3434 972 4092 
Q 1497 4750 2381 4750 
Q 2619 4750 2861 4703 
Q 3103 4656 3366 4563 
z
" transform="scale(0.015625)"/>
       </defs>
       <use xlink:href="#DejaVuSans-36"/>
      </g>
     </g>
    </g>
    <g id="xtick_8">
     <g id="line2d_15">
      <path d="M 364.825 274.519937 
L 364.825 23.229938 
" clip-path="url(#p8da9bff733)" style="fill: none; stroke: #b0b0b0; stroke-opacity: 0.25; stroke-width: 0.8; stroke-linecap: square"/>
     </g>
     <g id="line2d_16">
      <g>
       <use xlink:href="#m0b9be33b8b" x="364.825" y="274.519937" style="stroke: #000000; stroke-width: 0.8"/>
      </g>
     </g>
     <g id="text_8">
      <!-- 7 -->
      <g transform="translate(361.325625 289.878219) scale(0.11 -0.11)">
       <defs>
        <path id="DejaVuSans-37" d="M 525 4666 
L 3525 4666 
L 3525 4397 
L 1831 0 
L 1172 0 
L 2766 4134 
L 525 4134 
L 525 4666 
z
" transform="scale(0.015625)"/>
       </defs>
       <use xlink:href="#DejaVuSans-37"/>
      </g>
     </g>
    </g>
    <g id="xtick_9">
     <g id="line2d_17">
      <path d="M 411.822187 274.519937 
L 411.822187 23.229938 
" clip-path="url(#p8da9bff733)" style="fill: none; stroke: #b0b0b0; stroke-opacity: 0.25; stroke-width: 0.8; stroke-linecap: square"/>
     </g>
     <g id="line2d_18">
      <g>
       <use xlink:href="#m0b9be33b8b" x="411.822187" y="274.519937" style="stroke: #000000; stroke-width: 0.8"/>
      </g>
     </g>
     <g id="text_9">
      <!-- 8 -->
      <g transform="translate(408.322812 289.878219) scale(0.11 -0.11)">
       <defs>
        <path id="DejaVuSans-38" d="M 2034 2216 
Q 1584 2216 1326 1975 
Q 1069 1734 1069 1313 
Q 1069 891 1326 650 
Q 1584 409 2034 409 
Q 2484 409 2743 651 
Q 3003 894 3003 1313 
Q 3003 1734 2745 1975 
Q 2488 2216 2034 2216 
z
M 1403 2484 
Q 997 2584 770 2862 
Q 544 3141 544 3541 
Q 544 4100 942 4425 
Q 1341 4750 2034 4750 
Q 2731 4750 3128 4425 
Q 3525 4100 3525 3541 
Q 3525 3141 3298 2862 
Q 3072 2584 2669 2484 
Q 3125 2378 3379 2068 
Q 3634 1759 3634 1313 
Q 3634 634 3220 271 
Q 2806 -91 2034 -91 
Q 1263 -91 848 271 
Q 434 634 434 1313 
Q 434 1759 690 2068 
Q 947 2378 1403 2484 
z
M 1172 3481 
Q 1172 3119 1398 2916 
Q 1625 2713 2034 2713 
Q 2441 2713 2670 2916 
Q 2900 3119 2900 3481 
Q 2900 3844 2670 4047 
Q 2441 4250 2034 4250 
Q 1625 4250 1398 4047 
Q 1172 3844 1172 3481 
z
" transform="scale(0.015625)"/>
       </defs>
       <use xlink:href="#DejaVuSans-38"/>
      </g>
     </g>
    </g>
    <g id="text_10">
     <!-- Quantité du bien 1 -->
     <g transform="translate(172.327656 304.524156) scale(0.11 -0.11)">
      <defs>
       <path id="DejaVuSans-51" d="M 2522 4238 
Q 1834 4238 1429 3725 
Q 1025 3213 1025 2328 
Q 1025 1447 1429 934 
Q 1834 422 2522 422 
Q 3209 422 3611 934 
Q 4013 1447 4013 2328 
Q 4013 3213 3611 3725 
Q 3209 4238 2522 4238 
z
M 3406 84 
L 4238 -825 
L 3475 -825 
L 2784 -78 
Q 2681 -84 2626 -87 
Q 2572 -91 2522 -91 
Q 1538 -91 948 567 
Q 359 1225 359 2328 
Q 359 3434 948 4092 
Q 1538 4750 2522 4750 
Q 3503 4750 4090 4092 
Q 4678 3434 4678 2328 
Q 4678 1516 4351 937 
Q 4025 359 3406 84 
z
" transform="scale(0.015625)"/>
       <path id="DejaVuSans-75" d="M 544 1381 
L 544 3500 
L 1119 3500 
L 1119 1403 
Q 1119 906 1312 657 
Q 1506 409 1894 409 
Q 2359 409 2629 706 
Q 2900 1003 2900 1516 
L 2900 3500 
L 3475 3500 
L 3475 0 
L 2900 0 
L 2900 538 
Q 2691 219 2414 64 
Q 2138 -91 1772 -91 
Q 1169 -91 856 284 
Q 544 659 544 1381 
z
M 1991 3584 
L 1991 3584 
z
" transform="scale(0.015625)"/>
       <path id="DejaVuSans-61" d="M 2194 1759 
Q 1497 1759 1228 1600 
Q 959 1441 959 1056 
Q 959 750 1161 570 
Q 1363 391 1709 391 
Q 2188 391 2477 730 
Q 2766 1069 2766 1631 
L 2766 1759 
L 2194 1759 
z
M 3341 1997 
L 3341 0 
L 2766 0 
L 2766 531 
Q 2569 213 2275 61 
Q 1981 -91 1556 -91 
Q 1019 -91 701 211 
Q 384 513 384 1019 
Q 384 1609 779 1909 
Q 1175 2209 1959 2209 
L 2766 2209 
L 2766 2266 
Q 2766 2663 2505 2880 
Q 2244 3097 1772 3097 
Q 1472 3097 1187 3025 
Q 903 2953 641 2809 
L 641 3341 
Q 956 3463 1253 3523 
Q 1550 3584 1831 3584 
Q 2591 3584 2966 3190 
Q 3341 2797 3341 1997 
z
" transform="scale(0.015625)"/>
       <path id="DejaVuSans-6e" d="M 3513 2113 
L 3513 0 
L 2938 0 
L 2938 2094 
Q 2938 2591 2744 2837 
Q 2550 3084 2163 3084 
Q 1697 3084 1428 2787 
Q 1159 2491 1159 1978 
L 1159 0 
L 581 0 
L 581 3500 
L 1159 3500 
L 1159 2956 
Q 1366 3272 1645 3428 
Q 1925 3584 2291 3584 
Q 2894 3584 3203 3211 
Q 3513 2838 3513 2113 
z
" transform="scale(0.015625)"/>
       <path id="DejaVuSans-74" d="M 1172 4494 
L 1172 3500 
L 2356 3500 
L 2356 3053 
L 1172 3053 
L 1172 1153 
Q 1172 725 1289 603 
Q 1406 481 1766 481 
L 2356 481 
L 2356 0 
L 1766 0 
Q 1100 0 847 248 
Q 594 497 594 1153 
L 594 3053 
L 172 3053 
L 172 3500 
L 594 3500 
L 594 4494 
L 1172 4494 
z
" transform="scale(0.015625)"/>
       <path id="DejaVuSans-69" d="M 603 3500 
L 1178 3500 
L 1178 0 
L 603 0 
L 603 3500 
z
M 603 4863 
L 1178 4863 
L 1178 4134 
L 603 4134 
L 603 4863 
z
" transform="scale(0.015625)"/>
       <path id="DejaVuSans-e9" d="M 3597 1894 
L 3597 1613 
L 953 1613 
Q 991 1019 1311 708 
Q 1631 397 2203 397 
Q 2534 397 2845 478 
Q 3156 559 3463 722 
L 3463 178 
Q 3153 47 2828 -22 
Q 2503 -91 2169 -91 
Q 1331 -91 842 396 
Q 353 884 353 1716 
Q 353 2575 817 3079 
Q 1281 3584 2069 3584 
Q 2775 3584 3186 3129 
Q 3597 2675 3597 1894 
z
M 3022 2063 
Q 3016 2534 2758 2815 
Q 2500 3097 2075 3097 
Q 1594 3097 1305 2825 
Q 1016 2553 972 2059 
L 3022 2063 
z
M 2469 5119 
L 3091 5119 
L 2072 3944 
L 1594 3944 
L 2469 5119 
z
" transform="scale(0.015625)"/>
       <path id="DejaVuSans-20" transform="scale(0.015625)"/>
       <path id="DejaVuSans-64" d="M 2906 2969 
L 2906 4863 
L 3481 4863 
L 3481 0 
L 2906 0 
L 2906 525 
Q 2725 213 2448 61 
Q 2172 -91 1784 -91 
Q 1150 -91 751 415 
Q 353 922 353 1747 
Q 353 2572 751 3078 
Q 1150 3584 1784 3584 
Q 2172 3584 2448 3432 
Q 2725 3281 2906 2969 
z
M 947 1747 
Q 947 1113 1208 752 
Q 1469 391 1925 391 
Q 2381 391 2643 752 
Q 2906 1113 2906 1747 
Q 2906 2381 2643 2742 
Q 2381 3103 1925 3103 
Q 1469 3103 1208 2742 
Q 947 2381 947 1747 
z
" transform="scale(0.015625)"/>
       <path id="DejaVuSans-62" d="M 3116 1747 
Q 3116 2381 2855 2742 
Q 2594 3103 2138 3103 
Q 1681 3103 1420 2742 
Q 1159 2381 1159 1747 
Q 1159 1113 1420 752 
Q 1681 391 2138 391 
Q 2594 391 2855 752 
Q 3116 1113 3116 1747 
z
M 1159 2969 
Q 1341 3281 1617 3432 
Q 1894 3584 2278 3584 
Q 2916 3584 3314 3078 
Q 3713 2572 3713 1747 
Q 3713 922 3314 415 
Q 2916 -91 2278 -91 
Q 1894 -91 1617 61 
Q 1341 213 1159 525 
L 1159 0 
L 581 0 
L 581 4863 
L 1159 4863 
L 1159 2969 
z
" transform="scale(0.015625)"/>
       <path id="DejaVuSans-65" d="M 3597 1894 
L 3597 1613 
L 953 1613 
Q 991 1019 1311 708 
Q 1631 397 2203 397 
Q 2534 397 2845 478 
Q 3156 559 3463 722 
L 3463 178 
Q 3153 47 2828 -22 
Q 2503 -91 2169 -91 
Q 1331 -91 842 396 
Q 353 884 353 1716 
Q 353 2575 817 3079 
Q 1281 3584 2069 3584 
Q 2775 3584 3186 3129 
Q 3597 2675 3597 1894 
z
M 3022 2063 
Q 3016 2534 2758 2815 
Q 2500 3097 2075 3097 
Q 1594 3097 1305 2825 
Q 1016 2553 972 2059 
L 3022 2063 
z
" transform="scale(0.015625)"/>
      </defs>
      <use xlink:href="#DejaVuSans-51"/>
      <use xlink:href="#DejaVuSans-75" transform="translate(78.710938 0)"/>
      <use xlink:href="#DejaVuSans-61" transform="translate(142.089844 0)"/>
      <use xlink:href="#DejaVuSans-6e" transform="translate(203.369141 0)"/>
      <use xlink:href="#DejaVuSans-74" transform="translate(266.748047 0)"/>
      <use xlink:href="#DejaVuSans-69" transform="translate(305.957031 0)"/>
      <use xlink:href="#DejaVuSans-74" transform="translate(333.740234 0)"/>
      <use xlink:href="#DejaVuSans-e9" transform="translate(372.949219 0)"/>
      <use xlink:href="#DejaVuSans-20" transform="translate(434.472656 0)"/>
      <use xlink:href="#DejaVuSans-64" transform="translate(466.259766 0)"/>
      <use xlink:href="#DejaVuSans-75" transform="translate(529.736328 0)"/>
      <use xlink:href="#DejaVuSans-20" transform="translate(593.115234 0)"/>
      <use xlink:href="#DejaVuSans-62" transform="translate(624.902344 0)"/>
      <use xlink:href="#DejaVuSans-69" transform="translate(688.378906 0)"/>
      <use xlink:href="#DejaVuSans-65" transform="translate(716.162109 0)"/>
      <use xlink:href="#DejaVuSans-6e" transform="translate(777.685547 0)"/>
      <use xlink:href="#DejaVuSans-20" transform="translate(841.064453 0)"/>
      <use xlink:href="#DejaVuSans-31" transform="translate(872.851562 0)"/>
     </g>
    </g>
   </g>
   <g id="matplotlib.axis_2">
    <g id="ytick_1">
     <g id="line2d_19">
      <path d="M 35.844688 274.519937 
L 411.822187 274.519937 
" clip-path="url(#p8da9bff733)" style="fill: none; stroke: #b0b0b0; stroke-opacity: 0.25; stroke-width: 0.8; stroke-linecap: square"/>
     </g>
     <g id="line2d_20">
      <defs>
       <path id="ma3b63dc182" d="M 0 0 
L -3.5 0 
" style="stroke: #000000; stroke-width: 0.8"/>
      </defs>
      <g>
       <use xlink:href="#ma3b63dc182" x="35.844688" y="274.519937" style="stroke: #000000; stroke-width: 0.8"/>
      </g>
     </g>
     <g id="text_11">
      <!-- 0 -->
      <g transform="translate(21.845938 278.699078) scale(0.11 -0.11)">
       <use xlink:href="#DejaVuSans-30"/>
      </g>
     </g>
    </g>
    <g id="ytick_2">
     <g id="line2d_21">
      <path d="M 35.844688 243.108687 
L 411.822187 243.108687 
" clip-path="url(#p8da9bff733)" style="fill: none; stroke: #b0b0b0; stroke-opacity: 0.25; stroke-width: 0.8; stroke-linecap: square"/>
     </g>
     <g id="line2d_22">
      <g>
       <use xlink:href="#ma3b63dc182" x="35.844688" y="243.108687" style="stroke: #000000; stroke-width: 0.8"/>
      </g>
     </g>
     <g id="text_12">
      <!-- 1 -->
      <g transform="translate(21.845938 247.287828) scale(0.11 -0.11)">
       <use xlink:href="#DejaVuSans-31"/>
      </g>
     </g>
    </g>
    <g id="ytick_3">
     <g id="line2d_23">
      <path d="M 35.844688 211.697437 
L 411.822187 211.697437 
" clip-path="url(#p8da9bff733)" style="fill: none; stroke: #b0b0b0; stroke-opacity: 0.25; stroke-width: 0.8; stroke-linecap: square"/>
     </g>
     <g id="line2d_24">
      <g>
       <use xlink:href="#ma3b63dc182" x="35.844688" y="211.697437" style="stroke: #000000; stroke-width: 0.8"/>
      </g>
     </g>
     <g id="text_13">
      <!-- 2 -->
      <g transform="translate(21.845938 215.876578) scale(0.11 -0.11)">
       <use xlink:href="#DejaVuSans-32"/>
      </g>
     </g>
    </g>
    <g id="ytick_4">
     <g id="line2d_25">
      <path d="M 35.844688 180.286187 
L 411.822187 180.286187 
" clip-path="url(#p8da9bff733)" style="fill: none; stroke: #b0b0b0; stroke-opacity: 0.25; stroke-width: 0.8; stroke-linecap: square"/>
     </g>
     <g id="line2d_26">
      <g>
       <use xlink:href="#ma3b63dc182" x="35.844688" y="180.286187" style="stroke: #000000; stroke-width: 0.8"/>
      </g>
     </g>
     <g id="text_14">
      <!-- 3 -->
      <g transform="translate(21.845938 184.465328) scale(0.11 -0.11)">
       <use xlink:href="#DejaVuSans-33"/>
      </g>
     </g>
    </g>
    <g id="ytick_5">
     <g id="line2d_27">
      <path d="M 35.844688 148.874937 
L 411.822187 148.874937 
" clip-path="url(#p8da9bff733)" style="fill: none; stroke: #b0b0b0; stroke-opacity: 0.25; stroke-width: 0.8; stroke-linecap: square"/>
     </g>
     <g id="line2d_28">
      <g>
       <use xlink:href="#ma3b63dc182" x="35.844688" y="148.874937" style="stroke: #000000; stroke-width: 0.8"/>
      </g>
     </g>
     <g id="text_15">
      <!-- 4 -->
      <g transform="translate(21.845938 153.054078) scale(0.11 -0.11)">
       <use xlink:href="#DejaVuSans-34"/>
      </g>
     </g>
    </g>
    <g id="ytick_6">
     <g id="line2d_29">
      <path d="M 35.844688 117.463687 
L 411.822187 117.463687 
" clip-path="url(#p8da9bff733)" style="fill: none; stroke: #b0b0b0; stroke-opacity: 0.25; stroke-width: 0.8; stroke-linecap: square"/>
     </g>
     <g id="line2d_30">
      <g>
       <use xlink:href="#ma3b63dc182" x="35.844688" y="117.463687" style="stroke: #000000; stroke-width: 0.8"/>
      </g>
     </g>
     <g id="text_16">
      <!-- 5 -->
      <g transform="translate(21.845938 121.642828) scale(0.11 -0.11)">
       <use xlink:href="#DejaVuSans-35"/>
      </g>
     </g>
    </g>
    <g id="ytick_7">
     <g id="line2d_31">
      <path d="M 35.844688 86.052437 
L 411.822187 86.052437 
" clip-path="url(#p8da9bff733)" style="fill: none; stroke: #b0b0b0; stroke-opacity: 0.25; stroke-width: 0.8; stroke-linecap: square"/>
     </g>
     <g id="line2d_32">
      <g>
       <use xlink:href="#ma3b63dc182" x="35.844688" y="86.052437" style="stroke: #000000; stroke-width: 0.8"/>
      </g>
     </g>
     <g id="text_17">
      <!-- 6 -->
      <g transform="translate(21.845938 90.231578) scale(0.11 -0.11)">
       <use xlink:href="#DejaVuSans-36"/>
      </g>
     </g>
    </g>
    <g id="ytick_8">
     <g id="line2d_33">
      <path d="M 35.844688 54.641188 
L 411.822187 54.641188 
" clip-path="url(#p8da9bff733)" style="fill: none; stroke: #b0b0b0; stroke-opacity: 0.25; stroke-width: 0.8; stroke-linecap: square"/>
     </g>
     <g id="line2d_34">
      <g>
       <use xlink:href="#ma3b63dc182" x="35.844688" y="54.641188" style="stroke: #000000; stroke-width: 0.8"/>
      </g>
     </g>
     <g id="text_18">
      <!-- 7 -->
      <g transform="translate(21.845938 58.820328) scale(0.11 -0.11)">
       <use xlink:href="#DejaVuSans-37"/>
      </g>
     </g>
    </g>
    <g id="ytick_9">
     <g id="line2d_35">
      <path d="M 35.844688 23.229938 
L 411.822187 23.229938 
" clip-path="url(#p8da9bff733)" style="fill: none; stroke: #b0b0b0; stroke-opacity: 0.25; stroke-width: 0.8; stroke-linecap: square"/>
     </g>
     <g id="line2d_36">
      <g>
       <use xlink:href="#ma3b63dc182" x="35.844688" y="23.229938" style="stroke: #000000; stroke-width: 0.8"/>
      </g>
     </g>
     <g id="text_19">
      <!-- 8 -->
      <g transform="translate(21.845938 27.409078) scale(0.11 -0.11)">
       <use xlink:href="#DejaVuSans-38"/>
      </g>
     </g>
    </g>
    <g id="text_20">
     <!-- Quantité du bien 2 -->
     <g transform="translate(15.558281 200.380719) rotate(-90) scale(0.11 -0.11)">
      <use xlink:href="#DejaVuSans-51"/>
      <use xlink:href="#DejaVuSans-75" transform="translate(78.710938 0)"/>
      <use xlink:href="#DejaVuSans-61" transform="translate(142.089844 0)"/>
      <use xlink:href="#DejaVuSans-6e" transform="translate(203.369141 0)"/>
      <use xlink:href="#DejaVuSans-74" transform="translate(266.748047 0)"/>
      <use xlink:href="#DejaVuSans-69" transform="translate(305.957031 0)"/>
      <use xlink:href="#DejaVuSans-74" transform="translate(333.740234 0)"/>
      <use xlink:href="#DejaVuSans-e9" transform="translate(372.949219 0)"/>
      <use xlink:href="#DejaVuSans-20" transform="translate(434.472656 0)"/>
      <use xlink:href="#DejaVuSans-64" transform="translate(466.259766 0)"/>
      <use xlink:href="#DejaVuSans-75" transform="translate(529.736328 0)"/>
      <use xlink:href="#DejaVuSans-20" transform="translate(593.115234 0)"/>
      <use xlink:href="#DejaVuSans-62" transform="translate(624.902344 0)"/>
      <use xlink:href="#DejaVuSans-69" transform="translate(688.378906 0)"/>
      <use xlink:href="#DejaVuSans-65" transform="translate(716.162109 0)"/>
      <use xlink:href="#DejaVuSans-6e" transform="translate(777.685547 0)"/>
      <use xlink:href="#DejaVuSans-20" transform="translate(841.064453 0)"/>
      <use xlink:href="#DejaVuSans-32" transform="translate(872.851562 0)"/>
     </g>
    </g>
   </g>
   <g id="line2d_37">
    <path d="M 52.293703 5.280652 
L 54.095851 31.865751 
L 55.897999 53.672559 
L 57.700146 71.883094 
L 59.502294 87.319209 
L 61.304442 100.570059 
L 63.10659 112.069014 
L 64.908738 122.141959 
L 66.710885 131.03867 
L 68.513033 138.953807 
L 70.315181 146.041324 
L 72.117329 152.424577 
L 73.919477 158.203569 
L 75.721624 163.460223 
L 78.424846 170.510902 
L 81.128068 176.719791 
L 83.831289 182.229151 
L 86.534511 187.150898 
L 89.237733 191.574281 
L 91.940955 195.571347 
L 94.644176 199.200895 
L 97.347398 202.511384 
L 100.05062 205.543114 
L 103.654915 209.209418 
L 107.259211 212.505644 
L 110.863506 215.485134 
L 114.467802 218.191449 
L 118.072098 220.66051 
L 122.577467 223.45826 
L 127.082836 225.979702 
L 131.588206 228.263843 
L 136.994649 230.736221 
L 142.401093 232.957713 
L 148.70861 235.280461 
L 155.016127 237.357332 
L 162.224718 239.47705 
L 169.43331 241.368003 
L 177.542975 243.265352 
L 186.553714 245.134032 
L 196.465526 246.947418 
L 207.278413 248.686507 
L 218.992374 250.33879 
L 231.607408 251.897034 
L 246.024591 253.44884 
L 262.243921 254.958382 
L 280.265399 256.400682 
L 300.089024 257.75999 
L 322.615872 259.076541 
L 347.845941 260.325375 
L 376.680306 261.526222 
L 410.02004 262.683986 
L 411.822187 262.740719 
L 411.822187 262.740719 
" clip-path="url(#p8da9bff733)" style="fill: none; stroke-dasharray: 5.55,2.4; stroke-dashoffset: 0; stroke: #1f77b4; stroke-width: 1.5"/>
   </g>
   <g id="line2d_38">
    <path d="M 62.642331 -1 
L 64.007664 12.431089 
L 65.809812 28.193508 
L 67.611959 42.167532 
L 69.414107 54.641187 
L 71.216255 65.843801 
L 73.018403 75.96023 
L 74.820551 85.141141 
L 76.622698 93.510568 
L 79.32592 104.763893 
L 82.029142 114.699882 
L 84.732363 123.537059 
L 87.435585 131.448148 
L 90.138807 138.571475 
L 92.842028 145.019124 
L 95.54525 150.882878 
L 98.248472 156.238617 
L 100.951693 161.149619 
L 103.654915 165.669071 
L 106.358137 169.842006 
L 109.962432 174.932423 
L 113.566728 179.550712 
L 117.171024 183.759645 
L 120.775319 187.611341 
L 124.379615 191.149428 
L 127.98391 194.410709 
L 132.48928 198.145235 
L 136.994649 201.547077 
L 141.500019 204.658796 
L 146.005388 207.515988 
L 151.411832 210.650556 
L 156.818275 213.504949 
L 162.224718 216.115125 
L 168.532236 218.891492 
L 174.839753 221.415879 
L 182.048344 224.034182 
L 189.256935 226.406425 
L 197.3666 228.822101 
L 205.476265 231.006801 
L 214.487004 233.201608 
L 224.398817 235.373608 
L 235.211704 237.496752 
L 246.925665 239.551358 
L 259.540699 241.523363 
L 273.056808 243.403475 
L 287.47399 245.186303 
L 303.69332 246.962574 
L 321.714798 248.699812 
L 341.538424 250.374196 
L 363.164197 251.969488 
L 387.493192 253.529653 
L 411.822187 254.887906 
L 411.822187 254.887906 
" clip-path="url(#p8da9bff733)" style="fill: none; stroke-dasharray: 5.55,2.4; stroke-dashoffset: 0; stroke: #ff7f0e; stroke-width: 1.5"/>
   </g>
   <g id="line2d_39">
    <path d="M 73.355844 -1 
L 74.820551 9.389622 
L 76.622698 21.10682 
L 79.32592 36.861475 
L 82.029142 50.77186 
L 84.732363 63.143908 
L 87.435585 74.219432 
L 90.138807 84.19209 
L 92.842028 93.218798 
L 95.54525 101.428054 
L 98.248472 108.926088 
L 100.951693 115.801491 
L 103.654915 122.128725 
L 106.358137 127.970833 
L 109.061359 133.381551 
L 111.76458 138.406958 
L 115.368876 144.576042 
L 118.973171 150.210166 
L 122.577467 155.376023 
L 126.181763 160.129663 
L 129.786058 164.518532 
L 133.390354 168.583065 
L 136.994649 172.357933 
L 141.500019 176.71434 
L 146.005388 180.714408 
L 150.510758 184.400142 
L 155.016127 187.807191 
L 159.521497 190.966012 
L 164.92794 194.465534 
L 170.334383 197.683695 
L 175.740827 200.653118 
L 182.048344 203.83988 
L 188.355861 206.763047 
L 194.663379 209.454026 
L 201.87197 212.279065 
L 209.080561 214.868997 
L 217.190226 217.536551 
L 225.299891 219.975736 
L 234.31063 222.452148 
L 244.222443 224.928834 
L 254.134256 227.180603 
L 264.947143 229.414865 
L 276.661103 231.608898 
L 289.276138 233.744876 
L 302.792246 235.809402 
L 317.209428 237.792937 
L 333.428759 239.794682 
L 350.549163 241.683789 
L 369.471714 243.546179 
L 390.196414 245.357718 
L 411.822187 247.035094 
L 411.822187 247.035094 
" clip-path="url(#p8da9bff733)" style="fill: none; stroke-dasharray: 5.55,2.4; stroke-dashoffset: 0; stroke: #2ca02c; stroke-width: 1.5"/>
   </g>
   <g id="line2d_40">
    <path d="M 317.827812 258.814312 
L 59.343281 86.052437 
L 59.343281 86.052437 
" clip-path="url(#p8da9bff733)" style="fill: none; stroke: #000000; stroke-width: 2; stroke-linecap: square"/>
   </g>
   <g id="patch_3">
    <path d="M 35.844688 274.519937 
L 35.844688 23.229938 
" style="fill: none; stroke: #000000; stroke-width: 0.8; stroke-linejoin: miter; stroke-linecap: square"/>
   </g>
   <g id="patch_4">
    <path d="M 411.822187 274.519937 
L 411.822187 23.229938 
" style="fill: none; stroke: #000000; stroke-width: 0.8; stroke-linejoin: miter; stroke-linecap: square"/>
   </g>
   <g id="patch_5">
    <path d="M 35.844688 274.519937 
L 411.822187 274.519937 
" style="fill: none; stroke: #000000; stroke-width: 0.8; stroke-linejoin: miter; stroke-linecap: square"/>
   </g>
   <g id="patch_6">
    <path d="M 35.844688 23.229938 
L 411.822187 23.229938 
" style="fill: none; stroke: #000000; stroke-width: 0.8; stroke-linejoin: miter; stroke-linecap: square"/>
   </g>
   <g id="text_21">
    <!-- U3 -->
    <g transform="translate(334.276828 234.239338) scale(0.11 -0.11)">
     <defs>
      <path id="DejaVuSans-55" d="M 556 4666 
L 1191 4666 
L 1191 1831 
Q 1191 1081 1462 751 
Q 1734 422 2344 422 
Q 2950 422 3222 751 
Q 3494 1081 3494 1831 
L 3494 4666 
L 4128 4666 
L 4128 1753 
Q 4128 841 3676 375 
Q 3225 -91 2344 -91 
Q 1459 -91 1007 375 
Q 556 841 556 1753 
L 556 4666 
z
" transform="scale(0.015625)"/>
     </defs>
     <use xlink:href="#DejaVuSans-55"/>
     <use xlink:href="#DejaVuSans-33" transform="translate(73.193359 0)"/>
    </g>
   </g>
   <g id="text_22">
    <!-- U2 -->
    <g transform="translate(334.276828 244.132645) scale(0.11 -0.11)">
     <use xlink:href="#DejaVuSans-55"/>
     <use xlink:href="#DejaVuSans-32" transform="translate(73.193359 0)"/>
    </g>
   </g>
   <g id="text_23">
    <!-- U1 -->
    <g transform="translate(334.276828 254.025952) scale(0.11 -0.11)">
     <use xlink:href="#DejaVuSans-55"/>
     <use xlink:href="#DejaVuSans-31" transform="translate(73.193359 0)"/>
    </g>
   </g>
   <g id="patch_7">
    <path d="M 117.217754 236.502634 
Q 162.50901 224.359306 206.720373 212.505516 
" style="fill: none; stroke: #000000; stroke-linecap: round"/>
    <path d="M 201.900744 211.520034 
L 206.720373 212.505516 
L 203.04021 215.76993 
" style="fill: none; stroke: #000000; stroke-linecap: round"/>
   </g>
   <g id="text_24">
    <!-- utilité plus élevée -->
    <g transform="translate(38.194547 247.820375) scale(0.11 -0.11)">
     <defs>
      <path id="DejaVuSans-6c" d="M 603 4863 
L 1178 4863 
L 1178 0 
L 603 0 
L 603 4863 
z
" transform="scale(0.015625)"/>
      <path id="DejaVuSans-70" d="M 1159 525 
L 1159 -1331 
L 581 -1331 
L 581 3500 
L 1159 3500 
L 1159 2969 
Q 1341 3281 1617 3432 
Q 1894 3584 2278 3584 
Q 2916 3584 3314 3078 
Q 3713 2572 3713 1747 
Q 3713 922 3314 415 
Q 2916 -91 2278 -91 
Q 1894 -91 1617 61 
Q 1341 213 1159 525 
z
M 3116 1747 
Q 3116 2381 2855 2742 
Q 2594 3103 2138 3103 
Q 1681 3103 1420 2742 
Q 1159 2381 1159 1747 
Q 1159 1113 1420 752 
Q 1681 391 2138 391 
Q 2594 391 2855 752 
Q 3116 1113 3116 1747 
z
" transform="scale(0.015625)"/>
      <path id="DejaVuSans-73" d="M 2834 3397 
L 2834 2853 
Q 2591 2978 2328 3040 
Q 2066 3103 1784 3103 
Q 1356 3103 1142 2972 
Q 928 2841 928 2578 
Q 928 2378 1081 2264 
Q 1234 2150 1697 2047 
L 1894 2003 
Q 2506 1872 2764 1633 
Q 3022 1394 3022 966 
Q 3022 478 2636 193 
Q 2250 -91 1575 -91 
Q 1294 -91 989 -36 
Q 684 19 347 128 
L 347 722 
Q 666 556 975 473 
Q 1284 391 1588 391 
Q 1994 391 2212 530 
Q 2431 669 2431 922 
Q 2431 1156 2273 1281 
Q 2116 1406 1581 1522 
L 1381 1569 
Q 847 1681 609 1914 
Q 372 2147 372 2553 
Q 372 3047 722 3315 
Q 1072 3584 1716 3584 
Q 2034 3584 2315 3537 
Q 2597 3491 2834 3397 
z
" transform="scale(0.015625)"/>
      <path id="DejaVuSans-76" d="M 191 3500 
L 800 3500 
L 1894 563 
L 2988 3500 
L 3597 3500 
L 2284 0 
L 1503 0 
L 191 3500 
z
" transform="scale(0.015625)"/>
     </defs>
     <use xlink:href="#DejaVuSans-75"/>
     <use xlink:href="#DejaVuSans-74" transform="translate(63.378906 0)"/>
     <use xlink:href="#DejaVuSans-69" transform="translate(102.587891 0)"/>
     <use xlink:href="#DejaVuSans-6c" transform="translate(130.371094 0)"/>
     <use xlink:href="#DejaVuSans-69" transform="translate(158.154297 0)"/>
     <use xlink:href="#DejaVuSans-74" transform="translate(185.9375 0)"/>
     <use xlink:href="#DejaVuSans-e9" transform="translate(225.146484 0)"/>
     <use xlink:href="#DejaVuSans-20" transform="translate(286.669922 0)"/>
     <use xlink:href="#DejaVuSans-70" transform="translate(318.457031 0)"/>
     <use xlink:href="#DejaVuSans-6c" transform="translate(381.933594 0)"/>
     <use xlink:href="#DejaVuSans-75" transform="translate(409.716797 0)"/>
     <use xlink:href="#DejaVuSans-73" transform="translate(473.095703 0)"/>
     <use xlink:href="#DejaVuSans-20" transform="translate(525.195312 0)"/>
     <use xlink:href="#DejaVuSans-e9" transform="translate(556.982422 0)"/>
     <use xlink:href="#DejaVuSans-6c" transform="translate(618.505859 0)"/>
     <use xlink:href="#DejaVuSans-65" transform="translate(646.289062 0)"/>
     <use xlink:href="#DejaVuSans-76" transform="translate(707.8125 0)"/>
     <use xlink:href="#DejaVuSans-e9" transform="translate(766.992188 0)"/>
     <use xlink:href="#DejaVuSans-65" transform="translate(828.515625 0)"/>
    </g>
   </g>
   <g id="text_25">
    <!-- $A$ -->
    <g transform="translate(64.982944 103.328625) scale(0.11 -0.11)">
     <defs>
      <path id="DejaVuSans-Oblique-41" d="M 2356 4666 
L 3072 4666 
L 3938 0 
L 3278 0 
L 3084 1197 
L 984 1197 
L 325 0 
L -341 0 
L 2356 4666 
z
M 2584 4044 
L 1275 1722 
L 2988 1722 
L 2584 4044 
z
" transform="scale(0.015625)"/>
     </defs>
     <use xlink:href="#DejaVuSans-Oblique-41" transform="translate(0 0.09375)"/>
    </g>
   </g>
   <g id="text_26">
    <!-- $B$ -->
    <g transform="translate(291.979359 255.044962) scale(0.11 -0.11)">
     <defs>
      <path id="DejaVuSans-Oblique-42" d="M 1081 4666 
L 2694 4666 
Q 3350 4666 3675 4422 
Q 4000 4178 4000 3688 
Q 4000 3238 3720 2911 
Q 3441 2584 2988 2516 
Q 3375 2428 3569 2181 
Q 3763 1934 3763 1522 
Q 3763 819 3242 409 
Q 2722 0 1819 0 
L 172 0 
L 1081 4666 
z
M 1234 2228 
L 903 519 
L 1919 519 
Q 2491 519 2800 781 
Q 3109 1044 3109 1522 
Q 3109 1891 2904 2059 
Q 2700 2228 2247 2228 
L 1234 2228 
z
M 1606 4147 
L 1331 2741 
L 2272 2741 
Q 2775 2741 3058 2959 
Q 3341 3178 3341 3566 
Q 3341 3869 3150 4008 
Q 2959 4147 2541 4147 
L 1606 4147 
z
" transform="scale(0.015625)"/>
     </defs>
     <use xlink:href="#DejaVuSans-Oblique-42" transform="translate(0 0.09375)"/>
    </g>
   </g>
   <g id="text_27">
    <g id="patch_8">
     <path d="M 249.245133 170.028781 
L 367.611617 170.028781 
Q 370.161617 170.028781 370.161617 167.478781 
L 370.161617 130.288359 
Q 370.161617 127.738359 367.611617 127.738359 
L 249.245133 127.738359 
Q 246.695133 127.738359 246.695133 130.288359 
L 246.695133 167.478781 
Q 246.695133 170.028781 249.245133 170.028781 
z
" style="fill: #ffffff; opacity: 0.9; stroke: #808080; stroke-linejoin: miter"/>
    </g>
    <!-- Pour des courbes convexes, -->
    <g transform="translate(249.245133 136.729766) scale(0.085 -0.085)">
     <defs>
      <path id="DejaVuSans-50" d="M 1259 4147 
L 1259 2394 
L 2053 2394 
Q 2494 2394 2734 2622 
Q 2975 2850 2975 3272 
Q 2975 3691 2734 3919 
Q 2494 4147 2053 4147 
L 1259 4147 
z
M 628 4666 
L 2053 4666 
Q 2838 4666 3239 4311 
Q 3641 3956 3641 3272 
Q 3641 2581 3239 2228 
Q 2838 1875 2053 1875 
L 1259 1875 
L 1259 0 
L 628 0 
L 628 4666 
z
" transform="scale(0.015625)"/>
      <path id="DejaVuSans-6f" d="M 1959 3097 
Q 1497 3097 1228 2736 
Q 959 2375 959 1747 
Q 959 1119 1226 758 
Q 1494 397 1959 397 
Q 2419 397 2687 759 
Q 2956 1122 2956 1747 
Q 2956 2369 2687 2733 
Q 2419 3097 1959 3097 
z
M 1959 3584 
Q 2709 3584 3137 3096 
Q 3566 2609 3566 1747 
Q 3566 888 3137 398 
Q 2709 -91 1959 -91 
Q 1206 -91 779 398 
Q 353 888 353 1747 
Q 353 2609 779 3096 
Q 1206 3584 1959 3584 
z
" transform="scale(0.015625)"/>
      <path id="DejaVuSans-72" d="M 2631 2963 
Q 2534 3019 2420 3045 
Q 2306 3072 2169 3072 
Q 1681 3072 1420 2755 
Q 1159 2438 1159 1844 
L 1159 0 
L 581 0 
L 581 3500 
L 1159 3500 
L 1159 2956 
Q 1341 3275 1631 3429 
Q 1922 3584 2338 3584 
Q 2397 3584 2469 3576 
Q 2541 3569 2628 3553 
L 2631 2963 
z
" transform="scale(0.015625)"/>
      <path id="DejaVuSans-63" d="M 3122 3366 
L 3122 2828 
Q 2878 2963 2633 3030 
Q 2388 3097 2138 3097 
Q 1578 3097 1268 2742 
Q 959 2388 959 1747 
Q 959 1106 1268 751 
Q 1578 397 2138 397 
Q 2388 397 2633 464 
Q 2878 531 3122 666 
L 3122 134 
Q 2881 22 2623 -34 
Q 2366 -91 2075 -91 
Q 1284 -91 818 406 
Q 353 903 353 1747 
Q 353 2603 823 3093 
Q 1294 3584 2113 3584 
Q 2378 3584 2631 3529 
Q 2884 3475 3122 3366 
z
" transform="scale(0.015625)"/>
      <path id="DejaVuSans-78" d="M 3513 3500 
L 2247 1797 
L 3578 0 
L 2900 0 
L 1881 1375 
L 863 0 
L 184 0 
L 1544 1831 
L 300 3500 
L 978 3500 
L 1906 2253 
L 2834 3500 
L 3513 3500 
z
" transform="scale(0.015625)"/>
      <path id="DejaVuSans-2c" d="M 750 794 
L 1409 794 
L 1409 256 
L 897 -744 
L 494 -744 
L 750 256 
L 750 794 
z
" transform="scale(0.015625)"/>
     </defs>
     <use xlink:href="#DejaVuSans-50"/>
     <use xlink:href="#DejaVuSans-6f" transform="translate(56.677734 0)"/>
     <use xlink:href="#DejaVuSans-75" transform="translate(117.859375 0)"/>
     <use xlink:href="#DejaVuSans-72" transform="translate(181.238281 0)"/>
     <use xlink:href="#DejaVuSans-20" transform="translate(222.351562 0)"/>
     <use xlink:href="#DejaVuSans-64" transform="translate(254.138672 0)"/>
     <use xlink:href="#DejaVuSans-65" transform="translate(317.615234 0)"/>
     <use xlink:href="#DejaVuSans-73" transform="translate(379.138672 0)"/>
     <use xlink:href="#DejaVuSans-20" transform="translate(431.238281 0)"/>
     <use xlink:href="#DejaVuSans-63" transform="translate(463.025391 0)"/>
     <use xlink:href="#DejaVuSans-6f" transform="translate(518.005859 0)"/>
     <use xlink:href="#DejaVuSans-75" transform="translate(579.1875 0)"/>
     <use xlink:href="#DejaVuSans-72" transform="translate(642.566406 0)"/>
     <use xlink:href="#DejaVuSans-62" transform="translate(683.679688 0)"/>
     <use xlink:href="#DejaVuSans-65" transform="translate(747.15625 0)"/>
     <use xlink:href="#DejaVuSans-73" transform="translate(808.679688 0)"/>
     <use xlink:href="#DejaVuSans-20" transform="translate(860.779297 0)"/>
     <use xlink:href="#DejaVuSans-63" transform="translate(892.566406 0)"/>
     <use xlink:href="#DejaVuSans-6f" transform="translate(947.546875 0)"/>
     <use xlink:href="#DejaVuSans-6e" transform="translate(1008.728516 0)"/>
     <use xlink:href="#DejaVuSans-76" transform="translate(1072.107422 0)"/>
     <use xlink:href="#DejaVuSans-65" transform="translate(1131.287109 0)"/>
     <use xlink:href="#DejaVuSans-78" transform="translate(1191.060547 0)"/>
     <use xlink:href="#DejaVuSans-65" transform="translate(1247.115234 0)"/>
     <use xlink:href="#DejaVuSans-73" transform="translate(1308.638672 0)"/>
     <use xlink:href="#DejaVuSans-2c" transform="translate(1360.738281 0)"/>
    </g>
    <!-- les paniers moyens -->
    <g transform="translate(267.186109 146.247906) scale(0.085 -0.085)">
     <defs>
      <path id="DejaVuSans-6d" d="M 3328 2828 
Q 3544 3216 3844 3400 
Q 4144 3584 4550 3584 
Q 5097 3584 5394 3201 
Q 5691 2819 5691 2113 
L 5691 0 
L 5113 0 
L 5113 2094 
Q 5113 2597 4934 2840 
Q 4756 3084 4391 3084 
Q 3944 3084 3684 2787 
Q 3425 2491 3425 1978 
L 3425 0 
L 2847 0 
L 2847 2094 
Q 2847 2600 2669 2842 
Q 2491 3084 2119 3084 
Q 1678 3084 1418 2786 
Q 1159 2488 1159 1978 
L 1159 0 
L 581 0 
L 581 3500 
L 1159 3500 
L 1159 2956 
Q 1356 3278 1631 3431 
Q 1906 3584 2284 3584 
Q 2666 3584 2933 3390 
Q 3200 3197 3328 2828 
z
" transform="scale(0.015625)"/>
      <path id="DejaVuSans-79" d="M 2059 -325 
Q 1816 -950 1584 -1140 
Q 1353 -1331 966 -1331 
L 506 -1331 
L 506 -850 
L 844 -850 
Q 1081 -850 1212 -737 
Q 1344 -625 1503 -206 
L 1606 56 
L 191 3500 
L 800 3500 
L 1894 763 
L 2988 3500 
L 3597 3500 
L 2059 -325 
z
" transform="scale(0.015625)"/>
     </defs>
     <use xlink:href="#DejaVuSans-6c"/>
     <use xlink:href="#DejaVuSans-65" transform="translate(27.783203 0)"/>
     <use xlink:href="#DejaVuSans-73" transform="translate(89.306641 0)"/>
     <use xlink:href="#DejaVuSans-20" transform="translate(141.40625 0)"/>
     <use xlink:href="#DejaVuSans-70" transform="translate(173.193359 0)"/>
     <use xlink:href="#DejaVuSans-61" transform="translate(236.669922 0)"/>
     <use xlink:href="#DejaVuSans-6e" transform="translate(297.949219 0)"/>
     <use xlink:href="#DejaVuSans-69" transform="translate(361.328125 0)"/>
     <use xlink:href="#DejaVuSans-65" transform="translate(389.111328 0)"/>
     <use xlink:href="#DejaVuSans-72" transform="translate(450.634766 0)"/>
     <use xlink:href="#DejaVuSans-73" transform="translate(491.748047 0)"/>
     <use xlink:href="#DejaVuSans-20" transform="translate(543.847656 0)"/>
     <use xlink:href="#DejaVuSans-6d" transform="translate(575.634766 0)"/>
     <use xlink:href="#DejaVuSans-6f" transform="translate(673.046875 0)"/>
     <use xlink:href="#DejaVuSans-79" transform="translate(734.228516 0)"/>
     <use xlink:href="#DejaVuSans-65" transform="translate(793.408203 0)"/>
     <use xlink:href="#DejaVuSans-6e" transform="translate(854.931641 0)"/>
     <use xlink:href="#DejaVuSans-73" transform="translate(918.310547 0)"/>
    </g>
    <!-- $\lambda A+(1-\lambda)B,\ \lambda\in(0,1)$ -->
    <g transform="translate(258.745875 155.766047) scale(0.085 -0.085)">
     <defs>
      <path id="DejaVuSans-Oblique-3bb" d="M 2350 4316 
L 3125 0 
L 2516 0 
L 2038 2588 
L 328 0 
L -281 0 
L 1903 3356 
L 1794 3975 
Q 1725 4369 1391 4369 
L 1091 4369 
L 1184 4863 
L 1550 4856 
Q 2253 4847 2350 4316 
z
" transform="scale(0.015625)"/>
      <path id="DejaVuSans-2b" d="M 2944 4013 
L 2944 2272 
L 4684 2272 
L 4684 1741 
L 2944 1741 
L 2944 0 
L 2419 0 
L 2419 1741 
L 678 1741 
L 678 2272 
L 2419 2272 
L 2419 4013 
L 2944 4013 
z
" transform="scale(0.015625)"/>
      <path id="DejaVuSans-28" d="M 1984 4856 
Q 1566 4138 1362 3434 
Q 1159 2731 1159 2009 
Q 1159 1288 1364 580 
Q 1569 -128 1984 -844 
L 1484 -844 
Q 1016 -109 783 600 
Q 550 1309 550 2009 
Q 550 2706 781 3412 
Q 1013 4119 1484 4856 
L 1984 4856 
z
" transform="scale(0.015625)"/>
      <path id="DejaVuSans-2212" d="M 678 2272 
L 4684 2272 
L 4684 1741 
L 678 1741 
L 678 2272 
z
" transform="scale(0.015625)"/>
      <path id="DejaVuSans-29" d="M 513 4856 
L 1013 4856 
Q 1481 4119 1714 3412 
Q 1947 2706 1947 2009 
Q 1947 1309 1714 600 
Q 1481 -109 1013 -844 
L 513 -844 
Q 928 -128 1133 580 
Q 1338 1288 1338 2009 
Q 1338 2731 1133 3434 
Q 928 4138 513 4856 
z
" transform="scale(0.015625)"/>
      <path id="DejaVuSans-2208" d="M 1072 1959 
Q 1094 1728 1291 1353 
Q 1522 919 1959 675 
Q 2388 438 2850 434 
L 5028 434 
L 5028 -63 
L 2850 -63 
Q 2250 -63 1695 246 
Q 1141 556 844 1106 
Q 547 1656 547 2241 
Q 547 2819 844 3369 
Q 1141 3919 1695 4231 
Q 2250 4544 2850 4544 
L 5028 4544 
L 5028 4047 
L 2850 4047 
Q 2388 4044 1959 3803 
Q 1525 3556 1291 3125 
Q 1091 2750 1063 2459 
L 5028 2459 
L 5028 1959 
L 1072 1959 
z
" transform="scale(0.015625)"/>
     </defs>
     <use xlink:href="#DejaVuSans-Oblique-3bb" transform="translate(0 0.015625)"/>
     <use xlink:href="#DejaVuSans-Oblique-41" transform="translate(59.179688 0.015625)"/>
     <use xlink:href="#DejaVuSans-2b" transform="translate(147.070312 0.015625)"/>
     <use xlink:href="#DejaVuSans-28" transform="translate(250.341797 0.015625)"/>
     <use xlink:href="#DejaVuSans-31" transform="translate(289.355469 0.015625)"/>
     <use xlink:href="#DejaVuSans-2212" transform="translate(372.460938 0.015625)"/>
     <use xlink:href="#DejaVuSans-Oblique-3bb" transform="translate(475.732422 0.015625)"/>
     <use xlink:href="#DejaVuSans-29" transform="translate(534.912109 0.015625)"/>
     <use xlink:href="#DejaVuSans-Oblique-42" transform="translate(573.925781 0.015625)"/>
     <use xlink:href="#DejaVuSans-2c" transform="translate(642.529297 0.015625)"/>
     <use xlink:href="#DejaVuSans-Oblique-3bb" transform="translate(726.269207 0.015625)"/>
     <use xlink:href="#DejaVuSans-2208" transform="translate(804.931316 0.015625)"/>
     <use xlink:href="#DejaVuSans-28" transform="translate(911.523113 0.015625)"/>
     <use xlink:href="#DejaVuSans-30" transform="translate(950.536785 0.015625)"/>
     <use xlink:href="#DejaVuSans-2c" transform="translate(1014.159832 0.015625)"/>
     <use xlink:href="#DejaVuSans-31" transform="translate(1065.429363 0.015625)"/>
     <use xlink:href="#DejaVuSans-29" transform="translate(1129.05241 0.015625)"/>
    </g>
    <!-- sont préférés à $A$ et $B$ -->
    <g transform="translate(262.018375 165.693781) scale(0.085 -0.085)">
     <defs>
      <path id="DejaVuSans-66" d="M 2375 4863 
L 2375 4384 
L 1825 4384 
Q 1516 4384 1395 4259 
Q 1275 4134 1275 3809 
L 1275 3500 
L 2222 3500 
L 2222 3053 
L 1275 3053 
L 1275 0 
L 697 0 
L 697 3053 
L 147 3053 
L 147 3500 
L 697 3500 
L 697 3744 
Q 697 4328 969 4595 
Q 1241 4863 1831 4863 
L 2375 4863 
z
" transform="scale(0.015625)"/>
      <path id="DejaVuSans-e0" d="M 2194 1759 
Q 1497 1759 1228 1600 
Q 959 1441 959 1056 
Q 959 750 1161 570 
Q 1363 391 1709 391 
Q 2188 391 2477 730 
Q 2766 1069 2766 1631 
L 2766 1759 
L 2194 1759 
z
M 3341 1997 
L 3341 0 
L 2766 0 
L 2766 531 
Q 2569 213 2275 61 
Q 1981 -91 1556 -91 
Q 1019 -91 701 211 
Q 384 513 384 1019 
Q 384 1609 779 1909 
Q 1175 2209 1959 2209 
L 2766 2209 
L 2766 2266 
Q 2766 2663 2505 2880 
Q 2244 3097 1772 3097 
Q 1472 3097 1187 3025 
Q 903 2953 641 2809 
L 641 3341 
Q 956 3463 1253 3523 
Q 1550 3584 1831 3584 
Q 2591 3584 2966 3190 
Q 3341 2797 3341 1997 
z
M 1403 5119 
L 2284 3950 
L 1806 3950 
L 788 5119 
L 1403 5119 
z
" transform="scale(0.015625)"/>
     </defs>
     <use xlink:href="#DejaVuSans-73" transform="translate(0 0.015625)"/>
     <use xlink:href="#DejaVuSans-6f" transform="translate(52.099609 0.015625)"/>
     <use xlink:href="#DejaVuSans-6e" transform="translate(113.28125 0.015625)"/>
     <use xlink:href="#DejaVuSans-74" transform="translate(176.660156 0.015625)"/>
     <use xlink:href="#DejaVuSans-20" transform="translate(215.869141 0.015625)"/>
     <use xlink:href="#DejaVuSans-70" transform="translate(247.65625 0.015625)"/>
     <use xlink:href="#DejaVuSans-72" transform="translate(311.132812 0.015625)"/>
     <use xlink:href="#DejaVuSans-e9" transform="translate(352.246094 0.015625)"/>
     <use xlink:href="#DejaVuSans-66" transform="translate(413.769531 0.015625)"/>
     <use xlink:href="#DejaVuSans-e9" transform="translate(448.974609 0.015625)"/>
     <use xlink:href="#DejaVuSans-72" transform="translate(510.498047 0.015625)"/>
     <use xlink:href="#DejaVuSans-e9" transform="translate(551.611328 0.015625)"/>
     <use xlink:href="#DejaVuSans-73" transform="translate(613.134766 0.015625)"/>
     <use xlink:href="#DejaVuSans-20" transform="translate(665.234375 0.015625)"/>
     <use xlink:href="#DejaVuSans-e0" transform="translate(697.021484 0.015625)"/>
     <use xlink:href="#DejaVuSans-20" transform="translate(758.300781 0.015625)"/>
     <use xlink:href="#DejaVuSans-Oblique-41" transform="translate(790.087891 0.015625)"/>
     <use xlink:href="#DejaVuSans-20" transform="translate(858.496094 0.015625)"/>
     <use xlink:href="#DejaVuSans-65" transform="translate(890.283203 0.015625)"/>
     <use xlink:href="#DejaVuSans-74" transform="translate(951.806641 0.015625)"/>
     <use xlink:href="#DejaVuSans-20" transform="translate(991.015625 0.015625)"/>
     <use xlink:href="#DejaVuSans-Oblique-42" transform="translate(1022.802734 0.015625)"/>
    </g>
   </g>
   <g id="text_28">
    <!-- Courbes d'indifférence standards — décroissantes et convexes -->
    <g transform="translate(16.395437 17.229938) scale(0.132 -0.132)">
     <defs>
      <path id="DejaVuSans-43" d="M 4122 4306 
L 4122 3641 
Q 3803 3938 3442 4084 
Q 3081 4231 2675 4231 
Q 1875 4231 1450 3742 
Q 1025 3253 1025 2328 
Q 1025 1406 1450 917 
Q 1875 428 2675 428 
Q 3081 428 3442 575 
Q 3803 722 4122 1019 
L 4122 359 
Q 3791 134 3420 21 
Q 3050 -91 2638 -91 
Q 1578 -91 968 557 
Q 359 1206 359 2328 
Q 359 3453 968 4101 
Q 1578 4750 2638 4750 
Q 3056 4750 3426 4639 
Q 3797 4528 4122 4306 
z
" transform="scale(0.015625)"/>
      <path id="DejaVuSans-27" d="M 1147 4666 
L 1147 2931 
L 616 2931 
L 616 4666 
L 1147 4666 
z
" transform="scale(0.015625)"/>
      <path id="DejaVuSans-2014" d="M 313 1978 
L 6088 1978 
L 6088 1528 
L 313 1528 
L 313 1978 
z
" transform="scale(0.015625)"/>
     </defs>
     <use xlink:href="#DejaVuSans-43"/>
     <use xlink:href="#DejaVuSans-6f" transform="translate(69.824219 0)"/>
     <use xlink:href="#DejaVuSans-75" transform="translate(131.005859 0)"/>
     <use xlink:href="#DejaVuSans-72" transform="translate(194.384766 0)"/>
     <use xlink:href="#DejaVuSans-62" transform="translate(235.498047 0)"/>
     <use xlink:href="#DejaVuSans-65" transform="translate(298.974609 0)"/>
     <use xlink:href="#DejaVuSans-73" transform="translate(360.498047 0)"/>
     <use xlink:href="#DejaVuSans-20" transform="translate(412.597656 0)"/>
     <use xlink:href="#DejaVuSans-64" transform="translate(444.384766 0)"/>
     <use xlink:href="#DejaVuSans-27" transform="translate(507.861328 0)"/>
     <use xlink:href="#DejaVuSans-69" transform="translate(535.351562 0)"/>
     <use xlink:href="#DejaVuSans-6e" transform="translate(563.134766 0)"/>
     <use xlink:href="#DejaVuSans-64" transform="translate(626.513672 0)"/>
     <use xlink:href="#DejaVuSans-69" transform="translate(689.990234 0)"/>
     <use xlink:href="#DejaVuSans-66" transform="translate(717.773438 0)"/>
     <use xlink:href="#DejaVuSans-66" transform="translate(752.978516 0)"/>
     <use xlink:href="#DejaVuSans-e9" transform="translate(788.183594 0)"/>
     <use xlink:href="#DejaVuSans-72" transform="translate(849.707031 0)"/>
     <use xlink:href="#DejaVuSans-65" transform="translate(888.570312 0)"/>
     <use xlink:href="#DejaVuSans-6e" transform="translate(950.09375 0)"/>
     <use xlink:href="#DejaVuSans-63" transform="translate(1013.472656 0)"/>
     <use xlink:href="#DejaVuSans-65" transform="translate(1068.453125 0)"/>
     <use xlink:href="#DejaVuSans-20" transform="translate(1129.976562 0)"/>
     <use xlink:href="#DejaVuSans-73" transform="translate(1161.763672 0)"/>
     <use xlink:href="#DejaVuSans-74" transform="translate(1213.863281 0)"/>
     <use xlink:href="#DejaVuSans-61" transform="translate(1253.072266 0)"/>
     <use xlink:href="#DejaVuSans-6e" transform="translate(1314.351562 0)"/>
     <use xlink:href="#DejaVuSans-64" transform="translate(1377.730469 0)"/>
     <use xlink:href="#DejaVuSans-61" transform="translate(1441.207031 0)"/>
     <use xlink:href="#DejaVuSans-72" transform="translate(1502.486328 0)"/>
     <use xlink:href="#DejaVuSans-64" transform="translate(1541.849609 0)"/>
     <use xlink:href="#DejaVuSans-73" transform="translate(1605.326172 0)"/>
     <use xlink:href="#DejaVuSans-20" transform="translate(1657.425781 0)"/>
     <use xlink:href="#DejaVuSans-2014" transform="translate(1689.212891 0)"/>
     <use xlink:href="#DejaVuSans-20" transform="translate(1789.212891 0)"/>
     <use xlink:href="#DejaVuSans-64" transform="translate(1821 0)"/>
     <use xlink:href="#DejaVuSans-e9" transform="translate(1884.476562 0)"/>
     <use xlink:href="#DejaVuSans-63" transform="translate(1946 0)"/>
     <use xlink:href="#DejaVuSans-72" transform="translate(2000.980469 0)"/>
     <use xlink:href="#DejaVuSans-6f" transform="translate(2039.84375 0)"/>
     <use xlink:href="#DejaVuSans-69" transform="translate(2101.025391 0)"/>
     <use xlink:href="#DejaVuSans-73" transform="translate(2128.808594 0)"/>
     <use xlink:href="#DejaVuSans-73" transform="translate(2180.908203 0)"/>
     <use xlink:href="#DejaVuSans-61" transform="translate(2233.007812 0)"/>
     <use xlink:href="#DejaVuSans-6e" transform="translate(2294.287109 0)"/>
     <use xlink:href="#DejaVuSans-74" transform="translate(2357.666016 0)"/>
     <use xlink:href="#DejaVuSans-65" transform="translate(2396.875 0)"/>
     <use xlink:href="#DejaVuSans-73" transform="translate(2458.398438 0)"/>
     <use xlink:href="#DejaVuSans-20" transform="translate(2510.498047 0)"/>
     <use xlink:href="#DejaVuSans-65" transform="translate(2542.285156 0)"/>
     <use xlink:href="#DejaVuSans-74" transform="translate(2603.808594 0)"/>
     <use xlink:href="#DejaVuSans-20" transform="translate(2643.017578 0)"/>
     <use xlink:href="#DejaVuSans-63" transform="translate(2674.804688 0)"/>
     <use xlink:href="#DejaVuSans-6f" transform="translate(2729.785156 0)"/>
     <use xlink:href="#DejaVuSans-6e" transform="translate(2790.966797 0)"/>
     <use xlink:href="#DejaVuSans-76" transform="translate(2854.345703 0)"/>
     <use xlink:href="#DejaVuSans-65" transform="translate(2913.525391 0)"/>
     <use xlink:href="#DejaVuSans-78" transform="translate(2973.298828 0)"/>
     <use xlink:href="#DejaVuSans-65" transform="translate(3029.353516 0)"/>
     <use xlink:href="#DejaVuSans-73" transform="translate(3090.876953 0)"/>
    </g>
   </g>
   <g id="line2d_41">
    <defs>
     <path id="m455db6ae11" d="M 0 3.5 
C 0.928211 3.5 1.81853 3.131218 2.474874 2.474874 
C 3.131218 1.81853 3.5 0.928211 3.5 0 
C 3.5 -0.928211 3.131218 -1.81853 2.474874 -2.474874 
C 1.81853 -3.131218 0.928211 -3.5 0 -3.5 
C -0.928211 -3.5 -1.81853 -3.131218 -2.474874 -2.474874 
C -3.131218 -1.81853 -3.5 -0.928211 -3.5 0 
C -3.5 0.928211 -3.131218 1.81853 -2.474874 2.474874 
C -1.81853 3.131218 -0.928211 3.5 0 3.5 
z
" style="stroke: #000000"/>
    </defs>
    <g clip-path="url(#p8da9bff733)">
     <use xlink:href="#m455db6ae11" x="59.343281" y="86.052437" style="stroke: #000000"/>
    </g>
   </g>
   <g id="line2d_42">
    <g clip-path="url(#p8da9bff733)">
     <use xlink:href="#m455db6ae11" x="317.827812" y="258.814312" style="stroke: #000000"/>
    </g>
   </g>
   <g id="legend_1">
    <g id="patch_9">
     <path d="M 277.622187 98.417125 
L 405.522187 98.417125 
Q 407.322187 98.417125 407.322187 96.617125 
L 407.322187 29.529938 
Q 407.322187 27.729938 405.522187 27.729938 
L 277.622187 27.729938 
Q 275.822187 27.729938 275.822187 29.529938 
L 275.822187 96.617125 
Q 275.822187 98.417125 277.622187 98.417125 
z
" style="fill: #ffffff; opacity: 0.8; stroke: #cccccc; stroke-linejoin: miter"/>
    </g>
    <g id="text_29">
     <!-- Courbes d'indifférence -->
     <g transform="translate(279.422188 39.688219) scale(0.11 -0.11)">
      <use xlink:href="#DejaVuSans-43"/>
      <use xlink:href="#DejaVuSans-6f" transform="translate(69.824219 0)"/>
      <use xlink:href="#DejaVuSans-75" transform="translate(131.005859 0)"/>
      <use xlink:href="#DejaVuSans-72" transform="translate(194.384766 0)"/>
      <use xlink:href="#DejaVuSans-62" transform="translate(235.498047 0)"/>
      <use xlink:href="#DejaVuSans-65" transform="translate(298.974609 0)"/>
      <use xlink:href="#DejaVuSans-73" transform="translate(360.498047 0)"/>
      <use xlink:href="#DejaVuSans-20" transform="translate(412.597656 0)"/>
      <use xlink:href="#DejaVuSans-64" transform="translate(444.384766 0)"/>
      <use xlink:href="#DejaVuSans-27" transform="translate(507.861328 0)"/>
      <use xlink:href="#DejaVuSans-69" transform="translate(535.351562 0)"/>
      <use xlink:href="#DejaVuSans-6e" transform="translate(563.134766 0)"/>
      <use xlink:href="#DejaVuSans-64" transform="translate(626.513672 0)"/>
      <use xlink:href="#DejaVuSans-69" transform="translate(689.990234 0)"/>
      <use xlink:href="#DejaVuSans-66" transform="translate(717.773438 0)"/>
      <use xlink:href="#DejaVuSans-66" transform="translate(752.978516 0)"/>
      <use xlink:href="#DejaVuSans-e9" transform="translate(788.183594 0)"/>
      <use xlink:href="#DejaVuSans-72" transform="translate(849.707031 0)"/>
      <use xlink:href="#DejaVuSans-65" transform="translate(888.570312 0)"/>
      <use xlink:href="#DejaVuSans-6e" transform="translate(950.09375 0)"/>
      <use xlink:href="#DejaVuSans-63" transform="translate(1013.472656 0)"/>
      <use xlink:href="#DejaVuSans-65" transform="translate(1068.453125 0)"/>
     </g>
    </g>
    <g id="line2d_43">
     <path d="M 299.199063 50.164469 
L 308.199063 50.164469 
L 317.199063 50.164469 
" style="fill: none; stroke-dasharray: 5.55,2.4; stroke-dashoffset: 0; stroke: #1f77b4; stroke-width: 1.5"/>
    </g>
    <g id="text_30">
     <!-- courbe U = 3 -->
     <g transform="translate(324.399063 53.314469) scale(0.09 -0.09)">
      <defs>
       <path id="DejaVuSans-3d" d="M 678 2906 
L 4684 2906 
L 4684 2381 
L 678 2381 
L 678 2906 
z
M 678 1631 
L 4684 1631 
L 4684 1100 
L 678 1100 
L 678 1631 
z
" transform="scale(0.015625)"/>
      </defs>
      <use xlink:href="#DejaVuSans-63"/>
      <use xlink:href="#DejaVuSans-6f" transform="translate(54.980469 0)"/>
      <use xlink:href="#DejaVuSans-75" transform="translate(116.162109 0)"/>
      <use xlink:href="#DejaVuSans-72" transform="translate(179.541016 0)"/>
      <use xlink:href="#DejaVuSans-62" transform="translate(220.654297 0)"/>
      <use xlink:href="#DejaVuSans-65" transform="translate(284.130859 0)"/>
      <use xlink:href="#DejaVuSans-20" transform="translate(345.654297 0)"/>
      <use xlink:href="#DejaVuSans-55" transform="translate(377.441406 0)"/>
      <use xlink:href="#DejaVuSans-20" transform="translate(450.634766 0)"/>
      <use xlink:href="#DejaVuSans-3d" transform="translate(482.421875 0)"/>
      <use xlink:href="#DejaVuSans-20" transform="translate(566.210938 0)"/>
      <use xlink:href="#DejaVuSans-33" transform="translate(597.998047 0)"/>
     </g>
    </g>
    <g id="line2d_44">
     <path d="M 299.199063 63.374781 
L 308.199063 63.374781 
L 317.199063 63.374781 
" style="fill: none; stroke-dasharray: 5.55,2.4; stroke-dashoffset: 0; stroke: #ff7f0e; stroke-width: 1.5"/>
    </g>
    <g id="text_31">
     <!-- courbe U = 5 -->
     <g transform="translate(324.399063 66.524781) scale(0.09 -0.09)">
      <use xlink:href="#DejaVuSans-63"/>
      <use xlink:href="#DejaVuSans-6f" transform="translate(54.980469 0)"/>
      <use xlink:href="#DejaVuSans-75" transform="translate(116.162109 0)"/>
      <use xlink:href="#DejaVuSans-72" transform="translate(179.541016 0)"/>
      <use xlink:href="#DejaVuSans-62" transform="translate(220.654297 0)"/>
      <use xlink:href="#DejaVuSans-65" transform="translate(284.130859 0)"/>
      <use xlink:href="#DejaVuSans-20" transform="translate(345.654297 0)"/>
      <use xlink:href="#DejaVuSans-55" transform="translate(377.441406 0)"/>
      <use xlink:href="#DejaVuSans-20" transform="translate(450.634766 0)"/>
      <use xlink:href="#DejaVuSans-3d" transform="translate(482.421875 0)"/>
      <use xlink:href="#DejaVuSans-20" transform="translate(566.210938 0)"/>
      <use xlink:href="#DejaVuSans-35" transform="translate(597.998047 0)"/>
     </g>
    </g>
    <g id="line2d_45">
     <path d="M 299.199063 76.585094 
L 308.199063 76.585094 
L 317.199063 76.585094 
" style="fill: none; stroke-dasharray: 5.55,2.4; stroke-dashoffset: 0; stroke: #2ca02c; stroke-width: 1.5"/>
    </g>
    <g id="text_32">
     <!-- courbe U = 7 -->
     <g transform="translate(324.399063 79.735094) scale(0.09 -0.09)">
      <use xlink:href="#DejaVuSans-63"/>
      <use xlink:href="#DejaVuSans-6f" transform="translate(54.980469 0)"/>
      <use xlink:href="#DejaVuSans-75" transform="translate(116.162109 0)"/>
      <use xlink:href="#DejaVuSans-72" transform="translate(179.541016 0)"/>
      <use xlink:href="#DejaVuSans-62" transform="translate(220.654297 0)"/>
      <use xlink:href="#DejaVuSans-65" transform="translate(284.130859 0)"/>
      <use xlink:href="#DejaVuSans-20" transform="translate(345.654297 0)"/>
      <use xlink:href="#DejaVuSans-55" transform="translate(377.441406 0)"/>
      <use xlink:href="#DejaVuSans-20" transform="translate(450.634766 0)"/>
      <use xlink:href="#DejaVuSans-3d" transform="translate(482.421875 0)"/>
      <use xlink:href="#DejaVuSans-20" transform="translate(566.210938 0)"/>
      <use xlink:href="#DejaVuSans-37" transform="translate(597.998047 0)"/>
     </g>
    </g>
    <g id="line2d_46">
     <path d="M 299.199063 89.795406 
L 308.199063 89.795406 
L 317.199063 89.795406 
" style="fill: none; stroke: #000000; stroke-width: 2; stroke-linecap: square"/>
    </g>
    <g id="text_33">
     <!-- $\lambda A + (1-\lambda)B$ -->
     <g transform="translate(324.399063 92.945406) scale(0.09 -0.09)">
      <use xlink:href="#DejaVuSans-Oblique-3bb" transform="translate(0 0.015625)"/>
      <use xlink:href="#DejaVuSans-Oblique-41" transform="translate(59.179688 0.015625)"/>
      <use xlink:href="#DejaVuSans-2b" transform="translate(147.070312 0.015625)"/>
      <use xlink:href="#DejaVuSans-28" transform="translate(250.341797 0.015625)"/>
      <use xlink:href="#DejaVuSans-31" transform="translate(289.355469 0.015625)"/>
      <use xlink:href="#DejaVuSans-2212" transform="translate(372.460938 0.015625)"/>
      <use xlink:href="#DejaVuSans-Oblique-3bb" transform="translate(475.732422 0.015625)"/>
      <use xlink:href="#DejaVuSans-29" transform="translate(534.912109 0.015625)"/>
      <use xlink:href="#DejaVuSans-Oblique-42" transform="translate(573.925781 0.015625)"/>
     </g>
    </g>
   </g>
  </g>
 </g>
 <defs>
  <clipPath id="p8da9bff733">
   <rect x="35.844688" y="23.229938" width="375.9775" height="251.29"/>
  </clipPath>
 </defs>
</svg>
