<?xml version="1.0" encoding="utf-8" standalone="no"?>
<!DOCTYPE svg PUBLIC "-//W3C//DTD SVG 1.1//EN"
  "http://www.w3.org/Graphics/SVG/1.1/DTD/svg11.dtd">
<svg xmlns:xlink="http://www.w3.org/1999/xlink" width="235.466406pt" height="213.052656pt" viewBox="0 0 235.466406 213.052656" xmlns="http://www.w3.org/2000/svg" version="1.1">
 <metadata>
  <rdf:RDF xmlns:dc="http://purl.org/dc/elements/1.1/" xmlns:cc="http://creativecommons.org/ns#" xmlns:rdf="http://www.w3.org/1999/02/22-rdf-syntax-ns#">
   <cc:Work>
    <dc:type rdf:resource="http://purl.org/dc/dcmitype/StillImage"/>
    <dc:date>2026-05-19T12:40:07.257518</dc:date>
    <dc:format>image/svg+xml</dc:format>
    <dc:creator>
     <cc:Agent>
      <dc:title>Matplotlib v3.10.9, https://matplotlib.org/</dc:title>
     </cc:Agent>
    </dc:creator>
   </cc:Work>
  </rdf:RDF>
 </metadata>
 <defs>
  <style type="text/css">*{stroke-linejoin: round; stroke-linecap: butt}</style>
 </defs>
 <g id="figure_1">
  <g id="patch_1">
   <path d="M 0 213.052656 
L 235.466406 213.052656 
L 235.466406 0 
L 0 0 
z
" style="fill: #ffffff"/>
  </g>
  <g id="axes_1">
   <g id="patch_2">
    <path d="M 31.489531 183.238906 
L 224.767031 183.238906 
L 224.767031 18.798906 
L 31.489531 18.798906 
z
" style="fill: #ffffff"/>
   </g>
   <g id="QuadContourSet_1">
    <path d="M 123.284701 156.175648 
L 123.657284 155.858656 
L 123.284701 155.541663 
L 122.912117 155.858656 
z
M 121.794368 155.541663 
L 122.539534 155.541663 
L 122.912117 155.22467 
L 122.539534 154.907677 
L 122.166951 154.590685 
L 121.794368 154.273692 
L 121.421785 153.956699 
L 121.049202 153.639706 
L 120.676619 153.322713 
L 120.304035 153.005721 
L 119.931452 152.688728 
L 119.558869 152.371735 
L 119.186286 152.054742 
L 118.813703 151.73775 
L 118.44112 151.420757 
L 118.068537 151.103764 
L 117.695954 150.786771 
L 117.32337 150.469779 
L 116.950787 150.152786 
L 116.578204 149.835793 
L 116.205621 149.5188 
L 115.833038 149.201807 
L 115.460455 148.884815 
L 115.087872 148.567822 
L 114.715288 148.250829 
L 114.342705 147.933836 
L 113.970122 147.616844 
L 113.597539 147.299851 
L 113.224956 146.982858 
L 112.852373 146.665865 
L 112.107207 146.665865 
L 111.734623 146.348873 
L 111.36204 146.03188 
L 110.989457 145.714887 
L 110.616874 145.397894 
L 110.244291 145.080901 
L 109.871708 144.763909 
L 109.499125 144.446916 
L 109.126541 144.129923 
L 108.753958 143.81293 
L 108.381375 143.495938 
L 108.008792 143.178945 
L 107.636209 142.861952 
L 106.891043 142.861952 
L 106.51846 142.544959 
L 106.145876 142.227966 
L 105.773293 141.910974 
L 105.40071 141.593981 
L 105.028127 141.276988 
L 104.655544 140.959995 
L 104.282961 140.643003 
L 103.910378 140.32601 
L 103.165211 140.32601 
L 102.792628 140.009017 
L 102.420045 139.692024 
L 102.047462 139.375032 
L 101.674879 139.058039 
L 101.302296 138.741046 
L 100.929713 138.424053 
L 100.557129 138.10706 
L 100.184546 137.790068 
L 99.43938 137.790068 
L 99.066797 137.473075 
L 98.694214 137.156082 
L 98.321631 136.839089 
L 97.949048 136.522097 
L 97.203881 136.522097 
L 96.831298 136.205104 
L 96.458715 135.888111 
L 96.086132 135.571118 
L 95.713549 135.254126 
L 95.340966 134.937133 
L 94.968382 134.62014 
L 94.223216 134.62014 
L 93.850633 134.937133 
L 94.223216 135.254126 
L 94.595799 135.571118 
L 94.968382 135.888111 
L 95.340966 136.205104 
L 95.713549 136.522097 
L 96.086132 136.839089 
L 96.458715 137.156082 
L 96.831298 137.473075 
L 96.831298 138.10706 
L 97.203881 138.424053 
L 97.576464 138.741046 
L 97.949048 139.058039 
L 98.321631 139.375032 
L 98.694214 139.692024 
L 99.066797 140.009017 
L 99.43938 140.32601 
L 99.811963 140.643003 
L 100.184546 140.959995 
L 100.557129 141.276988 
L 100.929713 141.593981 
L 101.302296 141.910974 
L 101.674879 142.227966 
L 102.047462 142.544959 
L 102.420045 142.861952 
L 102.792628 143.178945 
L 103.165211 143.495938 
L 103.537795 143.81293 
L 103.910378 144.129923 
L 104.282961 144.446916 
L 104.655544 144.763909 
L 105.028127 145.080901 
L 105.40071 145.397894 
L 105.773293 145.714887 
L 106.145876 146.03188 
L 106.51846 146.348873 
L 106.891043 146.665865 
L 107.263626 146.982858 
L 107.636209 147.299851 
L 108.008792 147.616844 
L 108.381375 147.933836 
L 109.126541 147.933836 
L 109.499125 148.250829 
L 109.871708 148.567822 
L 110.244291 148.884815 
L 110.616874 149.201807 
L 110.989457 149.5188 
L 111.36204 149.835793 
L 112.107207 149.835793 
L 112.47979 150.152786 
L 112.852373 150.469779 
L 113.224956 150.786771 
L 113.597539 151.103764 
L 113.970122 151.420757 
L 114.342705 151.73775 
L 115.087872 151.73775 
L 115.460455 152.054742 
L 115.833038 152.371735 
L 116.578204 152.371735 
L 116.950787 152.688728 
L 117.32337 153.005721 
L 117.695954 153.322713 
L 118.068537 153.639706 
L 118.813703 153.639706 
L 119.186286 153.956699 
L 119.558869 154.273692 
L 120.304035 154.273692 
L 120.676619 154.590685 
L 121.049202 154.907677 
L 121.421785 155.22467 
z
" clip-path="url(#p096ae76a22)" style="fill: #dff3e3; fill-opacity: 0.9"/>
   </g>
   <g id="matplotlib.axis_1">
    <g id="xtick_1">
     <g id="line2d_1">
      <path d="M 31.489531 183.238906 
L 31.489531 18.798906 
" clip-path="url(#p096ae76a22)" style="fill: none; stroke: #b0b0b0; stroke-opacity: 0.2; stroke-width: 0.8; stroke-linecap: square"/>
     </g>
     <g id="line2d_2">
      <defs>
       <path id="m4236c24ab8" d="M 0 0 
L 0 3.5 
" style="stroke: #000000; stroke-width: 0.8"/>
      </defs>
      <g>
       <use xlink:href="#m4236c24ab8" x="31.489531" y="183.238906" style="stroke: #000000; stroke-width: 0.8"/>
      </g>
     </g>
     <g id="text_1">
      <!-- 0 -->
      <g transform="translate(29.739844 194.418047) scale(0.055 -0.055)">
       <defs>
        <path id="DejaVuSans-30" d="M 2034 4250 
Q 1547 4250 1301 3770 
Q 1056 3291 1056 2328 
Q 1056 1369 1301 889 
Q 1547 409 2034 409 
Q 2525 409 2770 889 
Q 3016 1369 3016 2328 
Q 3016 3291 2770 3770 
Q 2525 4250 2034 4250 
z
M 2034 4750 
Q 2819 4750 3233 4129 
Q 3647 3509 3647 2328 
Q 3647 1150 3233 529 
Q 2819 -91 2034 -91 
Q 1250 -91 836 529 
Q 422 1150 422 2328 
Q 422 3509 836 4129 
Q 1250 4750 2034 4750 
z
" transform="scale(0.015625)"/>
       </defs>
       <use xlink:href="#DejaVuSans-30"/>
      </g>
     </g>
    </g>
    <g id="xtick_2">
     <g id="line2d_3">
      <path d="M 70.145031 183.238906 
L 70.145031 18.798906 
" clip-path="url(#p096ae76a22)" style="fill: none; stroke: #b0b0b0; stroke-opacity: 0.2; stroke-width: 0.8; stroke-linecap: square"/>
     </g>
     <g id="line2d_4">
      <g>
       <use xlink:href="#m4236c24ab8" x="70.145031" y="183.238906" style="stroke: #000000; stroke-width: 0.8"/>
      </g>
     </g>
     <g id="text_2">
      <!-- 2 -->
      <g transform="translate(68.395344 194.418047) scale(0.055 -0.055)">
       <defs>
        <path id="DejaVuSans-32" d="M 1228 531 
L 3431 531 
L 3431 0 
L 469 0 
L 469 531 
Q 828 903 1448 1529 
Q 2069 2156 2228 2338 
Q 2531 2678 2651 2914 
Q 2772 3150 2772 3378 
Q 2772 3750 2511 3984 
Q 2250 4219 1831 4219 
Q 1534 4219 1204 4116 
Q 875 4013 500 3803 
L 500 4441 
Q 881 4594 1212 4672 
Q 1544 4750 1819 4750 
Q 2544 4750 2975 4387 
Q 3406 4025 3406 3419 
Q 3406 3131 3298 2873 
Q 3191 2616 2906 2266 
Q 2828 2175 2409 1742 
Q 1991 1309 1228 531 
z
" transform="scale(0.015625)"/>
       </defs>
       <use xlink:href="#DejaVuSans-32"/>
      </g>
     </g>
    </g>
    <g id="xtick_3">
     <g id="line2d_5">
      <path d="M 108.800531 183.238906 
L 108.800531 18.798906 
" clip-path="url(#p096ae76a22)" style="fill: none; stroke: #b0b0b0; stroke-opacity: 0.2; stroke-width: 0.8; stroke-linecap: square"/>
     </g>
     <g id="line2d_6">
      <g>
       <use xlink:href="#m4236c24ab8" x="108.800531" y="183.238906" style="stroke: #000000; stroke-width: 0.8"/>
      </g>
     </g>
     <g id="text_3">
      <!-- 4 -->
      <g transform="translate(107.050844 194.418047) scale(0.055 -0.055)">
       <defs>
        <path id="DejaVuSans-34" d="M 2419 4116 
L 825 1625 
L 2419 1625 
L 2419 4116 
z
M 2253 4666 
L 3047 4666 
L 3047 1625 
L 3713 1625 
L 3713 1100 
L 3047 1100 
L 3047 0 
L 2419 0 
L 2419 1100 
L 313 1100 
L 313 1709 
L 2253 4666 
z
" transform="scale(0.015625)"/>
       </defs>
       <use xlink:href="#DejaVuSans-34"/>
      </g>
     </g>
    </g>
    <g id="xtick_4">
     <g id="line2d_7">
      <path d="M 147.456031 183.238906 
L 147.456031 18.798906 
" clip-path="url(#p096ae76a22)" style="fill: none; stroke: #b0b0b0; stroke-opacity: 0.2; stroke-width: 0.8; stroke-linecap: square"/>
     </g>
     <g id="line2d_8">
      <g>
       <use xlink:href="#m4236c24ab8" x="147.456031" y="183.238906" style="stroke: #000000; stroke-width: 0.8"/>
      </g>
     </g>
     <g id="text_4">
      <!-- 6 -->
      <g transform="translate(145.706344 194.418047) scale(0.055 -0.055)">
       <defs>
        <path id="DejaVuSans-36" d="M 2113 2584 
Q 1688 2584 1439 2293 
Q 1191 2003 1191 1497 
Q 1191 994 1439 701 
Q 1688 409 2113 409 
Q 2538 409 2786 701 
Q 3034 994 3034 1497 
Q 3034 2003 2786 2293 
Q 2538 2584 2113 2584 
z
M 3366 4563 
L 3366 3988 
Q 3128 4100 2886 4159 
Q 2644 4219 2406 4219 
Q 1781 4219 1451 3797 
Q 1122 3375 1075 2522 
Q 1259 2794 1537 2939 
Q 1816 3084 2150 3084 
Q 2853 3084 3261 2657 
Q 3669 2231 3669 1497 
Q 3669 778 3244 343 
Q 2819 -91 2113 -91 
Q 1303 -91 875 529 
Q 447 1150 447 2328 
Q 447 3434 972 4092 
Q 1497 4750 2381 4750 
Q 2619 4750 2861 4703 
Q 3103 4656 3366 4563 
z
" transform="scale(0.015625)"/>
       </defs>
       <use xlink:href="#DejaVuSans-36"/>
      </g>
     </g>
    </g>
    <g id="xtick_5">
     <g id="line2d_9">
      <path d="M 186.111531 183.238906 
L 186.111531 18.798906 
" clip-path="url(#p096ae76a22)" style="fill: none; stroke: #b0b0b0; stroke-opacity: 0.2; stroke-width: 0.8; stroke-linecap: square"/>
     </g>
     <g id="line2d_10">
      <g>
       <use xlink:href="#m4236c24ab8" x="186.111531" y="183.238906" style="stroke: #000000; stroke-width: 0.8"/>
      </g>
     </g>
     <g id="text_5">
      <!-- 8 -->
      <g transform="translate(184.361844 194.418047) scale(0.055 -0.055)">
       <defs>
        <path id="DejaVuSans-38" d="M 2034 2216 
Q 1584 2216 1326 1975 
Q 1069 1734 1069 1313 
Q 1069 891 1326 650 
Q 1584 409 2034 409 
Q 2484 409 2743 651 
Q 3003 894 3003 1313 
Q 3003 1734 2745 1975 
Q 2488 2216 2034 2216 
z
M 1403 2484 
Q 997 2584 770 2862 
Q 544 3141 544 3541 
Q 544 4100 942 4425 
Q 1341 4750 2034 4750 
Q 2731 4750 3128 4425 
Q 3525 4100 3525 3541 
Q 3525 3141 3298 2862 
Q 3072 2584 2669 2484 
Q 3125 2378 3379 2068 
Q 3634 1759 3634 1313 
Q 3634 634 3220 271 
Q 2806 -91 2034 -91 
Q 1263 -91 848 271 
Q 434 634 434 1313 
Q 434 1759 690 2068 
Q 947 2378 1403 2484 
z
M 1172 3481 
Q 1172 3119 1398 2916 
Q 1625 2713 2034 2713 
Q 2441 2713 2670 2916 
Q 2900 3119 2900 3481 
Q 2900 3844 2670 4047 
Q 2441 4250 2034 4250 
Q 1625 4250 1398 4047 
Q 1172 3844 1172 3481 
z
" transform="scale(0.015625)"/>
       </defs>
       <use xlink:href="#DejaVuSans-38"/>
      </g>
     </g>
    </g>
    <g id="xtick_6">
     <g id="line2d_11">
      <path d="M 224.767031 183.238906 
L 224.767031 18.798906 
" clip-path="url(#p096ae76a22)" style="fill: none; stroke: #b0b0b0; stroke-opacity: 0.2; stroke-width: 0.8; stroke-linecap: square"/>
     </g>
     <g id="line2d_12">
      <g>
       <use xlink:href="#m4236c24ab8" x="224.767031" y="183.238906" style="stroke: #000000; stroke-width: 0.8"/>
      </g>
     </g>
     <g id="text_6">
      <!-- 10 -->
      <g transform="translate(221.267656 194.418047) scale(0.055 -0.055)">
       <defs>
        <path id="DejaVuSans-31" d="M 794 531 
L 1825 531 
L 1825 4091 
L 703 3866 
L 703 4441 
L 1819 4666 
L 2450 4666 
L 2450 531 
L 3481 531 
L 3481 0 
L 794 0 
L 794 531 
z
" transform="scale(0.015625)"/>
       </defs>
       <use xlink:href="#DejaVuSans-31"/>
       <use xlink:href="#DejaVuSans-30" transform="translate(63.623047 0)"/>
      </g>
     </g>
    </g>
    <g id="text_7">
     <!-- loisir du membre A -->
     <g transform="translate(97.3 204.500859) scale(0.065 -0.065)">
      <defs>
       <path id="DejaVuSans-6c" d="M 603 4863 
L 1178 4863 
L 1178 0 
L 603 0 
L 603 4863 
z
" transform="scale(0.015625)"/>
       <path id="DejaVuSans-6f" d="M 1959 3097 
Q 1497 3097 1228 2736 
Q 959 2375 959 1747 
Q 959 1119 1226 758 
Q 1494 397 1959 397 
Q 2419 397 2687 759 
Q 2956 1122 2956 1747 
Q 2956 2369 2687 2733 
Q 2419 3097 1959 3097 
z
M 1959 3584 
Q 2709 3584 3137 3096 
Q 3566 2609 3566 1747 
Q 3566 888 3137 398 
Q 2709 -91 1959 -91 
Q 1206 -91 779 398 
Q 353 888 353 1747 
Q 353 2609 779 3096 
Q 1206 3584 1959 3584 
z
" transform="scale(0.015625)"/>
       <path id="DejaVuSans-69" d="M 603 3500 
L 1178 3500 
L 1178 0 
L 603 0 
L 603 3500 
z
M 603 4863 
L 1178 4863 
L 1178 4134 
L 603 4134 
L 603 4863 
z
" transform="scale(0.015625)"/>
       <path id="DejaVuSans-73" d="M 2834 3397 
L 2834 2853 
Q 2591 2978 2328 3040 
Q 2066 3103 1784 3103 
Q 1356 3103 1142 2972 
Q 928 2841 928 2578 
Q 928 2378 1081 2264 
Q 1234 2150 1697 2047 
L 1894 2003 
Q 2506 1872 2764 1633 
Q 3022 1394 3022 966 
Q 3022 478 2636 193 
Q 2250 -91 1575 -91 
Q 1294 -91 989 -36 
Q 684 19 347 128 
L 347 722 
Q 666 556 975 473 
Q 1284 391 1588 391 
Q 1994 391 2212 530 
Q 2431 669 2431 922 
Q 2431 1156 2273 1281 
Q 2116 1406 1581 1522 
L 1381 1569 
Q 847 1681 609 1914 
Q 372 2147 372 2553 
Q 372 3047 722 3315 
Q 1072 3584 1716 3584 
Q 2034 3584 2315 3537 
Q 2597 3491 2834 3397 
z
" transform="scale(0.015625)"/>
       <path id="DejaVuSans-72" d="M 2631 2963 
Q 2534 3019 2420 3045 
Q 2306 3072 2169 3072 
Q 1681 3072 1420 2755 
Q 1159 2438 1159 1844 
L 1159 0 
L 581 0 
L 581 3500 
L 1159 3500 
L 1159 2956 
Q 1341 3275 1631 3429 
Q 1922 3584 2338 3584 
Q 2397 3584 2469 3576 
Q 2541 3569 2628 3553 
L 2631 2963 
z
" transform="scale(0.015625)"/>
       <path id="DejaVuSans-20" transform="scale(0.015625)"/>
       <path id="DejaVuSans-64" d="M 2906 2969 
L 2906 4863 
L 3481 4863 
L 3481 0 
L 2906 0 
L 2906 525 
Q 2725 213 2448 61 
Q 2172 -91 1784 -91 
Q 1150 -91 751 415 
Q 353 922 353 1747 
Q 353 2572 751 3078 
Q 1150 3584 1784 3584 
Q 2172 3584 2448 3432 
Q 2725 3281 2906 2969 
z
M 947 1747 
Q 947 1113 1208 752 
Q 1469 391 1925 391 
Q 2381 391 2643 752 
Q 2906 1113 2906 1747 
Q 2906 2381 2643 2742 
Q 2381 3103 1925 3103 
Q 1469 3103 1208 2742 
Q 947 2381 947 1747 
z
" transform="scale(0.015625)"/>
       <path id="DejaVuSans-75" d="M 544 1381 
L 544 3500 
L 1119 3500 
L 1119 1403 
Q 1119 906 1312 657 
Q 1506 409 1894 409 
Q 2359 409 2629 706 
Q 2900 1003 2900 1516 
L 2900 3500 
L 3475 3500 
L 3475 0 
L 2900 0 
L 2900 538 
Q 2691 219 2414 64 
Q 2138 -91 1772 -91 
Q 1169 -91 856 284 
Q 544 659 544 1381 
z
M 1991 3584 
L 1991 3584 
z
" transform="scale(0.015625)"/>
       <path id="DejaVuSans-6d" d="M 3328 2828 
Q 3544 3216 3844 3400 
Q 4144 3584 4550 3584 
Q 5097 3584 5394 3201 
Q 5691 2819 5691 2113 
L 5691 0 
L 5113 0 
L 5113 2094 
Q 5113 2597 4934 2840 
Q 4756 3084 4391 3084 
Q 3944 3084 3684 2787 
Q 3425 2491 3425 1978 
L 3425 0 
L 2847 0 
L 2847 2094 
Q 2847 2600 2669 2842 
Q 2491 3084 2119 3084 
Q 1678 3084 1418 2786 
Q 1159 2488 1159 1978 
L 1159 0 
L 581 0 
L 581 3500 
L 1159 3500 
L 1159 2956 
Q 1356 3278 1631 3431 
Q 1906 3584 2284 3584 
Q 2666 3584 2933 3390 
Q 3200 3197 3328 2828 
z
" transform="scale(0.015625)"/>
       <path id="DejaVuSans-65" d="M 3597 1894 
L 3597 1613 
L 953 1613 
Q 991 1019 1311 708 
Q 1631 397 2203 397 
Q 2534 397 2845 478 
Q 3156 559 3463 722 
L 3463 178 
Q 3153 47 2828 -22 
Q 2503 -91 2169 -91 
Q 1331 -91 842 396 
Q 353 884 353 1716 
Q 353 2575 817 3079 
Q 1281 3584 2069 3584 
Q 2775 3584 3186 3129 
Q 3597 2675 3597 1894 
z
M 3022 2063 
Q 3016 2534 2758 2815 
Q 2500 3097 2075 3097 
Q 1594 3097 1305 2825 
Q 1016 2553 972 2059 
L 3022 2063 
z
" transform="scale(0.015625)"/>
       <path id="DejaVuSans-62" d="M 3116 1747 
Q 3116 2381 2855 2742 
Q 2594 3103 2138 3103 
Q 1681 3103 1420 2742 
Q 1159 2381 1159 1747 
Q 1159 1113 1420 752 
Q 1681 391 2138 391 
Q 2594 391 2855 752 
Q 3116 1113 3116 1747 
z
M 1159 2969 
Q 1341 3281 1617 3432 
Q 1894 3584 2278 3584 
Q 2916 3584 3314 3078 
Q 3713 2572 3713 1747 
Q 3713 922 3314 415 
Q 2916 -91 2278 -91 
Q 1894 -91 1617 61 
Q 1341 213 1159 525 
L 1159 0 
L 581 0 
L 581 4863 
L 1159 4863 
L 1159 2969 
z
" transform="scale(0.015625)"/>
       <path id="DejaVuSans-41" d="M 2188 4044 
L 1331 1722 
L 3047 1722 
L 2188 4044 
z
M 1831 4666 
L 2547 4666 
L 4325 0 
L 3669 0 
L 3244 1197 
L 1141 1197 
L 716 0 
L 50 0 
L 1831 4666 
z
" transform="scale(0.015625)"/>
      </defs>
      <use xlink:href="#DejaVuSans-6c"/>
      <use xlink:href="#DejaVuSans-6f" transform="translate(27.783203 0)"/>
      <use xlink:href="#DejaVuSans-69" transform="translate(88.964844 0)"/>
      <use xlink:href="#DejaVuSans-73" transform="translate(116.748047 0)"/>
      <use xlink:href="#DejaVuSans-69" transform="translate(168.847656 0)"/>
      <use xlink:href="#DejaVuSans-72" transform="translate(196.630859 0)"/>
      <use xlink:href="#DejaVuSans-20" transform="translate(237.744141 0)"/>
      <use xlink:href="#DejaVuSans-64" transform="translate(269.53125 0)"/>
      <use xlink:href="#DejaVuSans-75" transform="translate(333.007812 0)"/>
      <use xlink:href="#DejaVuSans-20" transform="translate(396.386719 0)"/>
      <use xlink:href="#DejaVuSans-6d" transform="translate(428.173828 0)"/>
      <use xlink:href="#DejaVuSans-65" transform="translate(525.585938 0)"/>
      <use xlink:href="#DejaVuSans-6d" transform="translate(587.109375 0)"/>
      <use xlink:href="#DejaVuSans-62" transform="translate(684.521484 0)"/>
      <use xlink:href="#DejaVuSans-72" transform="translate(747.998047 0)"/>
      <use xlink:href="#DejaVuSans-65" transform="translate(786.861328 0)"/>
      <use xlink:href="#DejaVuSans-20" transform="translate(848.384766 0)"/>
      <use xlink:href="#DejaVuSans-41" transform="translate(880.171875 0)"/>
     </g>
    </g>
   </g>
   <g id="matplotlib.axis_2">
    <g id="ytick_1">
     <g id="line2d_13">
      <path d="M 31.489531 183.238906 
L 224.767031 183.238906 
" clip-path="url(#p096ae76a22)" style="fill: none; stroke: #b0b0b0; stroke-opacity: 0.2; stroke-width: 0.8; stroke-linecap: square"/>
     </g>
     <g id="line2d_14">
      <defs>
       <path id="m7771c42dd3" d="M 0 0 
L -3.5 0 
" style="stroke: #000000; stroke-width: 0.8"/>
      </defs>
      <g>
       <use xlink:href="#m7771c42dd3" x="31.489531" y="183.238906" style="stroke: #000000; stroke-width: 0.8"/>
      </g>
     </g>
     <g id="text_8">
      <!-- 0 -->
      <g transform="translate(20.990156 185.328477) scale(0.055 -0.055)">
       <use xlink:href="#DejaVuSans-30"/>
      </g>
     </g>
    </g>
    <g id="ytick_2">
     <g id="line2d_15">
      <path d="M 31.489531 150.350906 
L 224.767031 150.350906 
" clip-path="url(#p096ae76a22)" style="fill: none; stroke: #b0b0b0; stroke-opacity: 0.2; stroke-width: 0.8; stroke-linecap: square"/>
     </g>
     <g id="line2d_16">
      <g>
       <use xlink:href="#m7771c42dd3" x="31.489531" y="150.350906" style="stroke: #000000; stroke-width: 0.8"/>
      </g>
     </g>
     <g id="text_9">
      <!-- 2 -->
      <g transform="translate(20.990156 152.440477) scale(0.055 -0.055)">
       <use xlink:href="#DejaVuSans-32"/>
      </g>
     </g>
    </g>
    <g id="ytick_3">
     <g id="line2d_17">
      <path d="M 31.489531 117.462906 
L 224.767031 117.462906 
" clip-path="url(#p096ae76a22)" style="fill: none; stroke: #b0b0b0; stroke-opacity: 0.2; stroke-width: 0.8; stroke-linecap: square"/>
     </g>
     <g id="line2d_18">
      <g>
       <use xlink:href="#m7771c42dd3" x="31.489531" y="117.462906" style="stroke: #000000; stroke-width: 0.8"/>
      </g>
     </g>
     <g id="text_10">
      <!-- 4 -->
      <g transform="translate(20.990156 119.552477) scale(0.055 -0.055)">
       <use xlink:href="#DejaVuSans-34"/>
      </g>
     </g>
    </g>
    <g id="ytick_4">
     <g id="line2d_19">
      <path d="M 31.489531 84.574906 
L 224.767031 84.574906 
" clip-path="url(#p096ae76a22)" style="fill: none; stroke: #b0b0b0; stroke-opacity: 0.2; stroke-width: 0.8; stroke-linecap: square"/>
     </g>
     <g id="line2d_20">
      <g>
       <use xlink:href="#m7771c42dd3" x="31.489531" y="84.574906" style="stroke: #000000; stroke-width: 0.8"/>
      </g>
     </g>
     <g id="text_11">
      <!-- 6 -->
      <g transform="translate(20.990156 86.664477) scale(0.055 -0.055)">
       <use xlink:href="#DejaVuSans-36"/>
      </g>
     </g>
    </g>
    <g id="ytick_5">
     <g id="line2d_21">
      <path d="M 31.489531 51.686906 
L 224.767031 51.686906 
" clip-path="url(#p096ae76a22)" style="fill: none; stroke: #b0b0b0; stroke-opacity: 0.2; stroke-width: 0.8; stroke-linecap: square"/>
     </g>
     <g id="line2d_22">
      <g>
       <use xlink:href="#m7771c42dd3" x="31.489531" y="51.686906" style="stroke: #000000; stroke-width: 0.8"/>
      </g>
     </g>
     <g id="text_12">
      <!-- 8 -->
      <g transform="translate(20.990156 53.776477) scale(0.055 -0.055)">
       <use xlink:href="#DejaVuSans-38"/>
      </g>
     </g>
    </g>
    <g id="ytick_6">
     <g id="line2d_23">
      <path d="M 31.489531 18.798906 
L 224.767031 18.798906 
" clip-path="url(#p096ae76a22)" style="fill: none; stroke: #b0b0b0; stroke-opacity: 0.2; stroke-width: 0.8; stroke-linecap: square"/>
     </g>
     <g id="line2d_24">
      <g>
       <use xlink:href="#m7771c42dd3" x="31.489531" y="18.798906" style="stroke: #000000; stroke-width: 0.8"/>
      </g>
     </g>
     <g id="text_13">
      <!-- 10 -->
      <g transform="translate(17.490781 20.888477) scale(0.055 -0.055)">
       <use xlink:href="#DejaVuSans-31"/>
       <use xlink:href="#DejaVuSans-30" transform="translate(63.623047 0)"/>
      </g>
     </g>
    </g>
    <g id="text_14">
     <!-- consommation du membre A -->
     <g transform="translate(12.138984 148.186055) rotate(-90) scale(0.065 -0.065)">
      <defs>
       <path id="DejaVuSans-63" d="M 3122 3366 
L 3122 2828 
Q 2878 2963 2633 3030 
Q 2388 3097 2138 3097 
Q 1578 3097 1268 2742 
Q 959 2388 959 1747 
Q 959 1106 1268 751 
Q 1578 397 2138 397 
Q 2388 397 2633 464 
Q 2878 531 3122 666 
L 3122 134 
Q 2881 22 2623 -34 
Q 2366 -91 2075 -91 
Q 1284 -91 818 406 
Q 353 903 353 1747 
Q 353 2603 823 3093 
Q 1294 3584 2113 3584 
Q 2378 3584 2631 3529 
Q 2884 3475 3122 3366 
z
" transform="scale(0.015625)"/>
       <path id="DejaVuSans-6e" d="M 3513 2113 
L 3513 0 
L 2938 0 
L 2938 2094 
Q 2938 2591 2744 2837 
Q 2550 3084 2163 3084 
Q 1697 3084 1428 2787 
Q 1159 2491 1159 1978 
L 1159 0 
L 581 0 
L 581 3500 
L 1159 3500 
L 1159 2956 
Q 1366 3272 1645 3428 
Q 1925 3584 2291 3584 
Q 2894 3584 3203 3211 
Q 3513 2838 3513 2113 
z
" transform="scale(0.015625)"/>
       <path id="DejaVuSans-61" d="M 2194 1759 
Q 1497 1759 1228 1600 
Q 959 1441 959 1056 
Q 959 750 1161 570 
Q 1363 391 1709 391 
Q 2188 391 2477 730 
Q 2766 1069 2766 1631 
L 2766 1759 
L 2194 1759 
z
M 3341 1997 
L 3341 0 
L 2766 0 
L 2766 531 
Q 2569 213 2275 61 
Q 1981 -91 1556 -91 
Q 1019 -91 701 211 
Q 384 513 384 1019 
Q 384 1609 779 1909 
Q 1175 2209 1959 2209 
L 2766 2209 
L 2766 2266 
Q 2766 2663 2505 2880 
Q 2244 3097 1772 3097 
Q 1472 3097 1187 3025 
Q 903 2953 641 2809 
L 641 3341 
Q 956 3463 1253 3523 
Q 1550 3584 1831 3584 
Q 2591 3584 2966 3190 
Q 3341 2797 3341 1997 
z
" transform="scale(0.015625)"/>
       <path id="DejaVuSans-74" d="M 1172 4494 
L 1172 3500 
L 2356 3500 
L 2356 3053 
L 1172 3053 
L 1172 1153 
Q 1172 725 1289 603 
Q 1406 481 1766 481 
L 2356 481 
L 2356 0 
L 1766 0 
Q 1100 0 847 248 
Q 594 497 594 1153 
L 594 3053 
L 172 3053 
L 172 3500 
L 594 3500 
L 594 4494 
L 1172 4494 
z
" transform="scale(0.015625)"/>
      </defs>
      <use xlink:href="#DejaVuSans-63"/>
      <use xlink:href="#DejaVuSans-6f" transform="translate(54.980469 0)"/>
      <use xlink:href="#DejaVuSans-6e" transform="translate(116.162109 0)"/>
      <use xlink:href="#DejaVuSans-73" transform="translate(179.541016 0)"/>
      <use xlink:href="#DejaVuSans-6f" transform="translate(231.640625 0)"/>
      <use xlink:href="#DejaVuSans-6d" transform="translate(292.822266 0)"/>
      <use xlink:href="#DejaVuSans-6d" transform="translate(390.234375 0)"/>
      <use xlink:href="#DejaVuSans-61" transform="translate(487.646484 0)"/>
      <use xlink:href="#DejaVuSans-74" transform="translate(548.925781 0)"/>
      <use xlink:href="#DejaVuSans-69" transform="translate(588.134766 0)"/>
      <use xlink:href="#DejaVuSans-6f" transform="translate(615.917969 0)"/>
      <use xlink:href="#DejaVuSans-6e" transform="translate(677.099609 0)"/>
      <use xlink:href="#DejaVuSans-20" transform="translate(740.478516 0)"/>
      <use xlink:href="#DejaVuSans-64" transform="translate(772.265625 0)"/>
      <use xlink:href="#DejaVuSans-75" transform="translate(835.742188 0)"/>
      <use xlink:href="#DejaVuSans-20" transform="translate(899.121094 0)"/>
      <use xlink:href="#DejaVuSans-6d" transform="translate(930.908203 0)"/>
      <use xlink:href="#DejaVuSans-65" transform="translate(1028.320312 0)"/>
      <use xlink:href="#DejaVuSans-6d" transform="translate(1089.84375 0)"/>
      <use xlink:href="#DejaVuSans-62" transform="translate(1187.255859 0)"/>
      <use xlink:href="#DejaVuSans-72" transform="translate(1250.732422 0)"/>
      <use xlink:href="#DejaVuSans-65" transform="translate(1289.595703 0)"/>
      <use xlink:href="#DejaVuSans-20" transform="translate(1351.119141 0)"/>
      <use xlink:href="#DejaVuSans-41" transform="translate(1382.90625 0)"/>
     </g>
    </g>
   </g>
   <g id="line2d_25">
    <path d="M 59.536567 21.693286 
L 61.396681 36.527765 
L 63.256796 49.223133 
L 65.11691 60.187631 
L 66.977024 69.734515 
L 68.837138 78.107744 
L 70.697253 85.499829 
L 72.557367 92.064506 
L 74.417481 97.925867 
L 76.277596 103.18506 
L 78.602738 109.037585 
L 80.927881 114.210207 
L 83.253024 118.808588 
L 85.578167 122.918175 
L 87.90331 126.608738 
L 90.228453 129.937743 
L 93.018624 133.521911 
L 95.808796 136.721656 
L 98.598967 139.592322 
L 101.389138 142.179418 
L 104.644338 144.889262 
L 107.899538 147.313617 
L 111.619767 149.786219 
L 115.339996 151.987653 
L 119.525253 154.189501 
L 123.71051 156.144412 
L 128.360796 158.071805 
L 133.47611 159.94131 
L 139.056453 161.730535 
L 145.101824 163.424199 
L 151.612224 165.013045 
L 158.587653 166.49268 
L 166.493138 167.94186 
L 175.328681 169.329456 
L 185.094281 170.634608 
L 196.254967 171.893332 
L 208.810738 173.076779 
L 220.901481 174.034102 
L 220.901481 174.034102 
" clip-path="url(#p096ae76a22)" style="fill: none; stroke: #1f77b4; stroke-width: 1.2; stroke-linecap: square"/>
   </g>
   <g id="line2d_26">
    <path d="M 35.355081 109.017087 
L 44.190624 111.936492 
L 52.561138 114.930685 
L 60.466624 117.990124 
L 67.907081 121.102511 
L 74.88251 124.252437 
L 81.39291 127.421075 
L 87.90331 130.838989 
L 93.948681 134.264663 
L 99.529024 137.669624 
L 105.109367 141.337239 
L 110.224681 144.95888 
L 115.339996 148.860546 
L 119.990281 152.68096 
L 124.640567 156.794874 
L 128.825824 160.779459 
L 133.011081 165.064718 
L 137.196338 169.688675 
L 140.916567 174.119366 
L 144.636796 178.890319 
L 147.426967 182.717907 
L 147.426967 182.717907 
" clip-path="url(#p096ae76a22)" style="fill: none; stroke: #d62728; stroke-width: 1.2; stroke-linecap: square"/>
   </g>
   <g id="line2d_27">
    <path d="M 35.355081 181.760794 
L 45.58571 177.683598 
L 55.35131 173.551563 
L 64.651881 169.3779 
L 73.487424 165.177848 
L 82.322967 160.727954 
L 90.693481 156.261012 
L 98.598967 151.797692 
L 106.504453 147.075767 
L 113.94491 142.374675 
L 121.385367 137.402437 
L 128.360796 132.473268 
L 135.336224 127.262332 
L 141.846624 122.122677 
L 148.357024 116.693354 
L 154.402396 111.37049 
L 160.447767 105.753678 
L 166.493138 99.817877 
L 172.073481 94.031417 
L 177.653824 87.924829 
L 183.234167 81.470794 
L 188.349481 75.223366 
L 193.464796 68.632169 
L 198.58011 61.668026 
L 203.695424 54.29836 
L 208.34571 47.21615 
L 212.995996 39.738078 
L 217.646281 31.830001 
L 220.901481 26.018223 
L 220.901481 26.018223 
" clip-path="url(#p096ae76a22)" style="fill: none; stroke-dasharray: 4.44,1.92; stroke-dashoffset: 0; stroke: #000000; stroke-width: 1.2"/>
   </g>
   <g id="patch_3">
    <path d="M 31.489531 183.238906 
L 31.489531 18.798906 
" style="fill: none; stroke: #000000; stroke-width: 0.8; stroke-linejoin: miter; stroke-linecap: square"/>
   </g>
   <g id="patch_4">
    <path d="M 224.767031 183.238906 
L 224.767031 18.798906 
" style="fill: none; stroke: #000000; stroke-width: 0.8; stroke-linejoin: miter; stroke-linecap: square"/>
   </g>
   <g id="patch_5">
    <path d="M 31.489531 183.238906 
L 224.767031 183.238906 
" style="fill: none; stroke: #000000; stroke-width: 0.8; stroke-linejoin: miter; stroke-linecap: square"/>
   </g>
   <g id="patch_6">
    <path d="M 31.489531 18.798906 
L 224.767031 18.798906 
" style="fill: none; stroke: #000000; stroke-width: 0.8; stroke-linejoin: miter; stroke-linecap: square"/>
   </g>
   <g id="patch_7">
    <path d="M 87.386892 151.761445 
Q 90.046587 143.782262 92.494152 136.439476 
" style="fill: none; stroke: #000000; stroke-width: 0.6; stroke-linecap: round"/>
    <path d="M 90.596792 138.33685 
L 92.494152 136.439476 
L 92.873635 139.095788 
" style="fill: none; stroke: #000000; stroke-width: 0.6; stroke-linecap: round"/>
   </g>
   <g id="text_15">
    <!-- E : allocation initiale -->
    <g transform="translate(54.682831 160.217306) scale(0.06 -0.06)">
     <defs>
      <path id="DejaVuSans-45" d="M 628 4666 
L 3578 4666 
L 3578 4134 
L 1259 4134 
L 1259 2753 
L 3481 2753 
L 3481 2222 
L 1259 2222 
L 1259 531 
L 3634 531 
L 3634 0 
L 628 0 
L 628 4666 
z
" transform="scale(0.015625)"/>
      <path id="DejaVuSans-3a" d="M 750 794 
L 1409 794 
L 1409 0 
L 750 0 
L 750 794 
z
M 750 3309 
L 1409 3309 
L 1409 2516 
L 750 2516 
L 750 3309 
z
" transform="scale(0.015625)"/>
     </defs>
     <use xlink:href="#DejaVuSans-45"/>
     <use xlink:href="#DejaVuSans-20" transform="translate(63.183594 0)"/>
     <use xlink:href="#DejaVuSans-3a" transform="translate(94.970703 0)"/>
     <use xlink:href="#DejaVuSans-20" transform="translate(128.662109 0)"/>
     <use xlink:href="#DejaVuSans-61" transform="translate(160.449219 0)"/>
     <use xlink:href="#DejaVuSans-6c" transform="translate(221.728516 0)"/>
     <use xlink:href="#DejaVuSans-6c" transform="translate(249.511719 0)"/>
     <use xlink:href="#DejaVuSans-6f" transform="translate(277.294922 0)"/>
     <use xlink:href="#DejaVuSans-63" transform="translate(338.476562 0)"/>
     <use xlink:href="#DejaVuSans-61" transform="translate(393.457031 0)"/>
     <use xlink:href="#DejaVuSans-74" transform="translate(454.736328 0)"/>
     <use xlink:href="#DejaVuSans-69" transform="translate(493.945312 0)"/>
     <use xlink:href="#DejaVuSans-6f" transform="translate(521.728516 0)"/>
     <use xlink:href="#DejaVuSans-6e" transform="translate(582.910156 0)"/>
     <use xlink:href="#DejaVuSans-20" transform="translate(646.289062 0)"/>
     <use xlink:href="#DejaVuSans-69" transform="translate(678.076172 0)"/>
     <use xlink:href="#DejaVuSans-6e" transform="translate(705.859375 0)"/>
     <use xlink:href="#DejaVuSans-69" transform="translate(769.238281 0)"/>
     <use xlink:href="#DejaVuSans-74" transform="translate(797.021484 0)"/>
     <use xlink:href="#DejaVuSans-69" transform="translate(836.230469 0)"/>
     <use xlink:href="#DejaVuSans-61" transform="translate(864.013672 0)"/>
     <use xlink:href="#DejaVuSans-6c" transform="translate(925.292969 0)"/>
     <use xlink:href="#DejaVuSans-65" transform="translate(953.076172 0)"/>
    </g>
   </g>
   <g id="text_16">
    <g id="patch_8">
     <path d="M 143.590481 45.912719 
L 203.124544 45.912719 
Q 204.324544 45.912719 204.324544 44.712719 
L 204.324544 32.187156 
Q 204.324544 30.987156 203.124544 30.987156 
L 143.590481 30.987156 
Q 142.390481 30.987156 142.390481 32.187156 
L 142.390481 44.712719 
Q 142.390481 45.912719 143.590481 45.912719 
z
" style="fill: #ffffff; opacity: 0.9; stroke: #006400; stroke-linejoin: miter"/>
    </g>
    <!-- zone d'amélioration -->
    <g style="fill: #006400" transform="translate(143.590481 36.746219) scale(0.06 -0.06)">
     <defs>
      <path id="DejaVuSans-7a" d="M 353 3500 
L 3084 3500 
L 3084 2975 
L 922 459 
L 3084 459 
L 3084 0 
L 275 0 
L 275 525 
L 2438 3041 
L 353 3041 
L 353 3500 
z
" transform="scale(0.015625)"/>
      <path id="DejaVuSans-27" d="M 1147 4666 
L 1147 2931 
L 616 2931 
L 616 4666 
L 1147 4666 
z
" transform="scale(0.015625)"/>
      <path id="DejaVuSans-e9" d="M 3597 1894 
L 3597 1613 
L 953 1613 
Q 991 1019 1311 708 
Q 1631 397 2203 397 
Q 2534 397 2845 478 
Q 3156 559 3463 722 
L 3463 178 
Q 3153 47 2828 -22 
Q 2503 -91 2169 -91 
Q 1331 -91 842 396 
Q 353 884 353 1716 
Q 353 2575 817 3079 
Q 1281 3584 2069 3584 
Q 2775 3584 3186 3129 
Q 3597 2675 3597 1894 
z
M 3022 2063 
Q 3016 2534 2758 2815 
Q 2500 3097 2075 3097 
Q 1594 3097 1305 2825 
Q 1016 2553 972 2059 
L 3022 2063 
z
M 2469 5119 
L 3091 5119 
L 2072 3944 
L 1594 3944 
L 2469 5119 
z
" transform="scale(0.015625)"/>
     </defs>
     <use xlink:href="#DejaVuSans-7a"/>
     <use xlink:href="#DejaVuSans-6f" transform="translate(52.490234 0)"/>
     <use xlink:href="#DejaVuSans-6e" transform="translate(113.671875 0)"/>
     <use xlink:href="#DejaVuSans-65" transform="translate(177.050781 0)"/>
     <use xlink:href="#DejaVuSans-20" transform="translate(238.574219 0)"/>
     <use xlink:href="#DejaVuSans-64" transform="translate(270.361328 0)"/>
     <use xlink:href="#DejaVuSans-27" transform="translate(333.837891 0)"/>
     <use xlink:href="#DejaVuSans-61" transform="translate(361.328125 0)"/>
     <use xlink:href="#DejaVuSans-6d" transform="translate(422.607422 0)"/>
     <use xlink:href="#DejaVuSans-e9" transform="translate(520.019531 0)"/>
     <use xlink:href="#DejaVuSans-6c" transform="translate(581.542969 0)"/>
     <use xlink:href="#DejaVuSans-69" transform="translate(609.326172 0)"/>
     <use xlink:href="#DejaVuSans-6f" transform="translate(637.109375 0)"/>
     <use xlink:href="#DejaVuSans-72" transform="translate(698.291016 0)"/>
     <use xlink:href="#DejaVuSans-61" transform="translate(739.404297 0)"/>
     <use xlink:href="#DejaVuSans-74" transform="translate(800.683594 0)"/>
     <use xlink:href="#DejaVuSans-69" transform="translate(839.892578 0)"/>
     <use xlink:href="#DejaVuSans-6f" transform="translate(867.675781 0)"/>
     <use xlink:href="#DejaVuSans-6e" transform="translate(928.857422 0)"/>
    </g>
    <!-- mutuelle -->
    <g style="fill: #006400" transform="translate(143.590481 43.464906) scale(0.06 -0.06)">
     <use xlink:href="#DejaVuSans-6d"/>
     <use xlink:href="#DejaVuSans-75" transform="translate(97.412109 0)"/>
     <use xlink:href="#DejaVuSans-74" transform="translate(160.791016 0)"/>
     <use xlink:href="#DejaVuSans-75" transform="translate(200 0)"/>
     <use xlink:href="#DejaVuSans-65" transform="translate(263.378906 0)"/>
     <use xlink:href="#DejaVuSans-6c" transform="translate(324.902344 0)"/>
     <use xlink:href="#DejaVuSans-6c" transform="translate(352.685547 0)"/>
     <use xlink:href="#DejaVuSans-65" transform="translate(380.46875 0)"/>
    </g>
   </g>
   <g id="text_17">
    <!-- Boîte d'Edgeworth : ménage -->
    <g transform="translate(78.243984 12.798906) scale(0.07 -0.07)">
     <defs>
      <path id="DejaVuSans-42" d="M 1259 2228 
L 1259 519 
L 2272 519 
Q 2781 519 3026 730 
Q 3272 941 3272 1375 
Q 3272 1813 3026 2020 
Q 2781 2228 2272 2228 
L 1259 2228 
z
M 1259 4147 
L 1259 2741 
L 2194 2741 
Q 2656 2741 2882 2914 
Q 3109 3088 3109 3444 
Q 3109 3797 2882 3972 
Q 2656 4147 2194 4147 
L 1259 4147 
z
M 628 4666 
L 2241 4666 
Q 2963 4666 3353 4366 
Q 3744 4066 3744 3513 
Q 3744 3084 3544 2831 
Q 3344 2578 2956 2516 
Q 3422 2416 3680 2098 
Q 3938 1781 3938 1306 
Q 3938 681 3513 340 
Q 3088 0 2303 0 
L 628 0 
L 628 4666 
z
" transform="scale(0.015625)"/>
      <path id="DejaVuSans-ee" d="M 603 3500 
L 1178 3500 
L 1178 0 
L 603 0 
L 603 3500 
z
M 891 3584 
L 891 3584 
z
M 659 5119 
L 1122 5119 
L 1888 3944 
L 1453 3944 
L 891 4709 
L 328 3944 
L -106 3944 
L 659 5119 
z
" transform="scale(0.015625)"/>
      <path id="DejaVuSans-67" d="M 2906 1791 
Q 2906 2416 2648 2759 
Q 2391 3103 1925 3103 
Q 1463 3103 1205 2759 
Q 947 2416 947 1791 
Q 947 1169 1205 825 
Q 1463 481 1925 481 
Q 2391 481 2648 825 
Q 2906 1169 2906 1791 
z
M 3481 434 
Q 3481 -459 3084 -895 
Q 2688 -1331 1869 -1331 
Q 1566 -1331 1297 -1286 
Q 1028 -1241 775 -1147 
L 775 -588 
Q 1028 -725 1275 -790 
Q 1522 -856 1778 -856 
Q 2344 -856 2625 -561 
Q 2906 -266 2906 331 
L 2906 616 
Q 2728 306 2450 153 
Q 2172 0 1784 0 
Q 1141 0 747 490 
Q 353 981 353 1791 
Q 353 2603 747 3093 
Q 1141 3584 1784 3584 
Q 2172 3584 2450 3431 
Q 2728 3278 2906 2969 
L 2906 3500 
L 3481 3500 
L 3481 434 
z
" transform="scale(0.015625)"/>
      <path id="DejaVuSans-77" d="M 269 3500 
L 844 3500 
L 1563 769 
L 2278 3500 
L 2956 3500 
L 3675 769 
L 4391 3500 
L 4966 3500 
L 4050 0 
L 3372 0 
L 2619 2869 
L 1863 0 
L 1184 0 
L 269 3500 
z
" transform="scale(0.015625)"/>
      <path id="DejaVuSans-68" d="M 3513 2113 
L 3513 0 
L 2938 0 
L 2938 2094 
Q 2938 2591 2744 2837 
Q 2550 3084 2163 3084 
Q 1697 3084 1428 2787 
Q 1159 2491 1159 1978 
L 1159 0 
L 581 0 
L 581 4863 
L 1159 4863 
L 1159 2956 
Q 1366 3272 1645 3428 
Q 1925 3584 2291 3584 
Q 2894 3584 3203 3211 
Q 3513 2838 3513 2113 
z
" transform="scale(0.015625)"/>
     </defs>
     <use xlink:href="#DejaVuSans-42"/>
     <use xlink:href="#DejaVuSans-6f" transform="translate(68.603516 0)"/>
     <use xlink:href="#DejaVuSans-ee" transform="translate(129.785156 0)"/>
     <use xlink:href="#DejaVuSans-74" transform="translate(157.568359 0)"/>
     <use xlink:href="#DejaVuSans-65" transform="translate(196.777344 0)"/>
     <use xlink:href="#DejaVuSans-20" transform="translate(258.300781 0)"/>
     <use xlink:href="#DejaVuSans-64" transform="translate(290.087891 0)"/>
     <use xlink:href="#DejaVuSans-27" transform="translate(353.564453 0)"/>
     <use xlink:href="#DejaVuSans-45" transform="translate(381.054688 0)"/>
     <use xlink:href="#DejaVuSans-64" transform="translate(444.238281 0)"/>
     <use xlink:href="#DejaVuSans-67" transform="translate(507.714844 0)"/>
     <use xlink:href="#DejaVuSans-65" transform="translate(571.191406 0)"/>
     <use xlink:href="#DejaVuSans-77" transform="translate(632.714844 0)"/>
     <use xlink:href="#DejaVuSans-6f" transform="translate(714.501953 0)"/>
     <use xlink:href="#DejaVuSans-72" transform="translate(775.683594 0)"/>
     <use xlink:href="#DejaVuSans-74" transform="translate(816.796875 0)"/>
     <use xlink:href="#DejaVuSans-68" transform="translate(856.005859 0)"/>
     <use xlink:href="#DejaVuSans-20" transform="translate(919.384766 0)"/>
     <use xlink:href="#DejaVuSans-3a" transform="translate(951.171875 0)"/>
     <use xlink:href="#DejaVuSans-20" transform="translate(984.863281 0)"/>
     <use xlink:href="#DejaVuSans-6d" transform="translate(1016.650391 0)"/>
     <use xlink:href="#DejaVuSans-e9" transform="translate(1114.0625 0)"/>
     <use xlink:href="#DejaVuSans-6e" transform="translate(1175.585938 0)"/>
     <use xlink:href="#DejaVuSans-61" transform="translate(1238.964844 0)"/>
     <use xlink:href="#DejaVuSans-67" transform="translate(1300.244141 0)"/>
     <use xlink:href="#DejaVuSans-65" transform="translate(1363.720703 0)"/>
    </g>
   </g>
   <g id="PathCollection_1">
    <defs>
     <path id="m65a6c1af6a" d="M 0 2.12132 
C 0.562581 2.12132 1.102195 1.897805 1.5 1.5 
C 1.897805 1.102195 2.12132 0.562581 2.12132 0 
C 2.12132 -0.562581 1.897805 -1.102195 1.5 -1.5 
C 1.102195 -1.897805 0.562581 -2.12132 0 -2.12132 
C -0.562581 -2.12132 -1.102195 -1.897805 -1.5 -1.5 
C -1.897805 -1.102195 -2.12132 -0.562581 -2.12132 0 
C -2.12132 0.562581 -1.897805 1.102195 -1.5 1.5 
C -1.102195 1.897805 -0.562581 2.12132 0 2.12132 
z
" style="stroke: #000000"/>
    </defs>
    <g clip-path="url(#p096ae76a22)">
     <use xlink:href="#m65a6c1af6a" x="93.338331" y="133.906906" style="stroke: #000000"/>
    </g>
   </g>
   <g id="legend_1">
    <g id="patch_9">
     <path d="M 148.384062 180.488906 
L 220.917031 180.488906 
Q 222.017031 180.488906 222.017031 179.388906 
L 222.017031 155.72 
Q 222.017031 154.62 220.917031 154.62 
L 148.384062 154.62 
Q 147.284063 154.62 147.284063 155.72 
L 147.284063 179.388906 
Q 147.284063 180.488906 148.384062 180.488906 
z
" style="fill: #ffffff; opacity: 0.8; stroke: #cccccc; stroke-linejoin: miter"/>
    </g>
    <g id="line2d_28">
     <path d="M 149.484062 159.074141 
L 154.984062 159.074141 
L 160.484062 159.074141 
" style="fill: none; stroke: #1f77b4; stroke-width: 1.2; stroke-linecap: square"/>
    </g>
    <g id="text_18">
     <!-- indifférence de A -->
     <g transform="translate(164.884062 160.999141) scale(0.055 -0.055)">
      <defs>
       <path id="DejaVuSans-66" d="M 2375 4863 
L 2375 4384 
L 1825 4384 
Q 1516 4384 1395 4259 
Q 1275 4134 1275 3809 
L 1275 3500 
L 2222 3500 
L 2222 3053 
L 1275 3053 
L 1275 0 
L 697 0 
L 697 3053 
L 147 3053 
L 147 3500 
L 697 3500 
L 697 3744 
Q 697 4328 969 4595 
Q 1241 4863 1831 4863 
L 2375 4863 
z
" transform="scale(0.015625)"/>
      </defs>
      <use xlink:href="#DejaVuSans-69"/>
      <use xlink:href="#DejaVuSans-6e" transform="translate(27.783203 0)"/>
      <use xlink:href="#DejaVuSans-64" transform="translate(91.162109 0)"/>
      <use xlink:href="#DejaVuSans-69" transform="translate(154.638672 0)"/>
      <use xlink:href="#DejaVuSans-66" transform="translate(182.421875 0)"/>
      <use xlink:href="#DejaVuSans-66" transform="translate(217.626953 0)"/>
      <use xlink:href="#DejaVuSans-e9" transform="translate(252.832031 0)"/>
      <use xlink:href="#DejaVuSans-72" transform="translate(314.355469 0)"/>
      <use xlink:href="#DejaVuSans-65" transform="translate(353.21875 0)"/>
      <use xlink:href="#DejaVuSans-6e" transform="translate(414.742188 0)"/>
      <use xlink:href="#DejaVuSans-63" transform="translate(478.121094 0)"/>
      <use xlink:href="#DejaVuSans-65" transform="translate(533.101562 0)"/>
      <use xlink:href="#DejaVuSans-20" transform="translate(594.625 0)"/>
      <use xlink:href="#DejaVuSans-64" transform="translate(626.412109 0)"/>
      <use xlink:href="#DejaVuSans-65" transform="translate(689.888672 0)"/>
      <use xlink:href="#DejaVuSans-20" transform="translate(751.412109 0)"/>
      <use xlink:href="#DejaVuSans-41" transform="translate(783.199219 0)"/>
     </g>
    </g>
    <g id="line2d_29">
     <path d="M 149.484062 167.147109 
L 154.984062 167.147109 
L 160.484062 167.147109 
" style="fill: none; stroke: #d62728; stroke-width: 1.2; stroke-linecap: square"/>
    </g>
    <g id="text_19">
     <!-- indifférence de B -->
     <g transform="translate(164.884062 169.072109) scale(0.055 -0.055)">
      <use xlink:href="#DejaVuSans-69"/>
      <use xlink:href="#DejaVuSans-6e" transform="translate(27.783203 0)"/>
      <use xlink:href="#DejaVuSans-64" transform="translate(91.162109 0)"/>
      <use xlink:href="#DejaVuSans-69" transform="translate(154.638672 0)"/>
      <use xlink:href="#DejaVuSans-66" transform="translate(182.421875 0)"/>
      <use xlink:href="#DejaVuSans-66" transform="translate(217.626953 0)"/>
      <use xlink:href="#DejaVuSans-e9" transform="translate(252.832031 0)"/>
      <use xlink:href="#DejaVuSans-72" transform="translate(314.355469 0)"/>
      <use xlink:href="#DejaVuSans-65" transform="translate(353.21875 0)"/>
      <use xlink:href="#DejaVuSans-6e" transform="translate(414.742188 0)"/>
      <use xlink:href="#DejaVuSans-63" transform="translate(478.121094 0)"/>
      <use xlink:href="#DejaVuSans-65" transform="translate(533.101562 0)"/>
      <use xlink:href="#DejaVuSans-20" transform="translate(594.625 0)"/>
      <use xlink:href="#DejaVuSans-64" transform="translate(626.412109 0)"/>
      <use xlink:href="#DejaVuSans-65" transform="translate(689.888672 0)"/>
      <use xlink:href="#DejaVuSans-20" transform="translate(751.412109 0)"/>
      <use xlink:href="#DejaVuSans-42" transform="translate(783.199219 0)"/>
     </g>
    </g>
    <g id="line2d_30">
     <path d="M 149.484062 175.220078 
L 154.984062 175.220078 
L 160.484062 175.220078 
" style="fill: none; stroke-dasharray: 4.44,1.92; stroke-dashoffset: 0; stroke: #000000; stroke-width: 1.2"/>
    </g>
    <g id="text_20">
     <!-- courbe des contrats -->
     <g transform="translate(164.884062 177.145078) scale(0.055 -0.055)">
      <use xlink:href="#DejaVuSans-63"/>
      <use xlink:href="#DejaVuSans-6f" transform="translate(54.980469 0)"/>
      <use xlink:href="#DejaVuSans-75" transform="translate(116.162109 0)"/>
      <use xlink:href="#DejaVuSans-72" transform="translate(179.541016 0)"/>
      <use xlink:href="#DejaVuSans-62" transform="translate(220.654297 0)"/>
      <use xlink:href="#DejaVuSans-65" transform="translate(284.130859 0)"/>
      <use xlink:href="#DejaVuSans-20" transform="translate(345.654297 0)"/>
      <use xlink:href="#DejaVuSans-64" transform="translate(377.441406 0)"/>
      <use xlink:href="#DejaVuSans-65" transform="translate(440.917969 0)"/>
      <use xlink:href="#DejaVuSans-73" transform="translate(502.441406 0)"/>
      <use xlink:href="#DejaVuSans-20" transform="translate(554.541016 0)"/>
      <use xlink:href="#DejaVuSans-63" transform="translate(586.328125 0)"/>
      <use xlink:href="#DejaVuSans-6f" transform="translate(641.308594 0)"/>
      <use xlink:href="#DejaVuSans-6e" transform="translate(702.490234 0)"/>
      <use xlink:href="#DejaVuSans-74" transform="translate(765.869141 0)"/>
      <use xlink:href="#DejaVuSans-72" transform="translate(805.078125 0)"/>
      <use xlink:href="#DejaVuSans-61" transform="translate(846.191406 0)"/>
      <use xlink:href="#DejaVuSans-74" transform="translate(907.470703 0)"/>
      <use xlink:href="#DejaVuSans-73" transform="translate(946.679688 0)"/>
     </g>
    </g>
   </g>
  </g>
 </g>
 <defs>
  <clipPath id="p096ae76a22">
   <rect x="31.489531" y="18.798906" width="193.2775" height="164.44"/>
  </clipPath>
 </defs>
</svg>
