<?xml version="1.0" encoding="utf-8" standalone="no"?>
<!DOCTYPE svg PUBLIC "-//W3C//DTD SVG 1.1//EN"
  "http://www.w3.org/Graphics/SVG/1.1/DTD/svg11.dtd">
<svg xmlns:xlink="http://www.w3.org/1999/xlink" width="480.157187pt" height="421.864813pt" viewBox="0 0 480.157187 421.864813" xmlns="http://www.w3.org/2000/svg" version="1.1">
 <metadata>
  <rdf:RDF xmlns:dc="http://purl.org/dc/elements/1.1/" xmlns:cc="http://creativecommons.org/ns#" xmlns:rdf="http://www.w3.org/1999/02/22-rdf-syntax-ns#">
   <cc:Work>
    <dc:type rdf:resource="http://purl.org/dc/dcmitype/StillImage"/>
    <dc:date>2026-05-17T21:59:07.357489</dc:date>
    <dc:format>image/svg+xml</dc:format>
    <dc:creator>
     <cc:Agent>
      <dc:title>Matplotlib v3.10.9, https://matplotlib.org/</dc:title>
     </cc:Agent>
    </dc:creator>
   </cc:Work>
  </rdf:RDF>
 </metadata>
 <defs>
  <style type="text/css">*{stroke-linejoin: round; stroke-linecap: butt}</style>
 </defs>
 <g id="figure_1">
  <g id="patch_1">
   <path d="M 0 421.864813 
L 480.157187 421.864813 
L 480.157187 0 
L 0 0 
z
" style="fill: #ffffff"/>
  </g>
  <g id="axes_1">
   <g id="patch_2">
    <path d="M 42.843438 382.372938 
L 465.958437 382.372938 
L 465.958437 23.757937 
L 42.843438 23.757937 
z
" style="fill: #ffffff"/>
   </g>
   <g id="QuadContourSet_1">
    <path d="M 243.797574 323.352686 
L 244.613217 322.66138 
L 243.797574 321.970074 
L 242.98193 322.66138 
z
M 240.535 321.970074 
L 242.166287 321.970074 
L 242.98193 321.278768 
L 242.166287 320.587462 
L 241.350644 319.896156 
L 240.535 319.20485 
L 239.719357 318.513544 
L 238.903713 317.822238 
L 238.08807 317.130931 
L 237.272427 316.439625 
L 236.456783 315.748319 
L 235.64114 315.057013 
L 234.825497 314.365707 
L 234.009853 313.674401 
L 233.19421 312.983095 
L 232.378566 312.291789 
L 231.562923 311.600483 
L 230.74728 310.909177 
L 229.931636 310.217871 
L 229.115993 309.526565 
L 228.30035 308.835259 
L 227.484706 308.143953 
L 226.669063 307.452647 
L 225.853419 306.761341 
L 225.037776 306.070035 
L 224.222133 305.378729 
L 223.406489 304.687423 
L 222.590846 303.996117 
L 221.775203 303.304811 
L 220.959559 302.613505 
L 219.328272 302.613505 
L 218.512629 301.922199 
L 217.696986 301.230893 
L 216.881342 300.539587 
L 216.065699 299.848281 
L 215.250056 299.156975 
L 214.434412 298.465669 
L 213.618769 297.774363 
L 212.803125 297.083057 
L 211.987482 296.391751 
L 211.171839 295.700445 
L 210.356195 295.009139 
L 209.540552 294.317833 
L 207.909265 294.317833 
L 207.093622 293.626527 
L 206.277978 292.935221 
L 205.462335 292.243915 
L 204.646692 291.552609 
L 203.831048 290.861303 
L 203.015405 290.169997 
L 202.199762 289.478691 
L 201.384118 288.787384 
L 199.752831 288.787384 
L 198.937188 288.096078 
L 198.121545 287.404772 
L 197.305901 286.713466 
L 196.490258 286.02216 
L 195.674615 285.330854 
L 194.858971 284.639548 
L 194.043328 283.948242 
L 193.227684 283.256936 
L 191.596398 283.256936 
L 190.780754 282.56563 
L 189.965111 281.874324 
L 189.149468 281.183018 
L 188.333824 280.491712 
L 186.702538 280.491712 
L 185.886894 279.800406 
L 185.071251 279.1091 
L 184.255607 278.417794 
L 183.439964 277.726488 
L 182.624321 277.035182 
L 181.808677 276.343876 
L 180.177391 276.343876 
L 179.361747 277.035182 
L 180.177391 277.726488 
L 180.993034 278.417794 
L 181.808677 279.1091 
L 182.624321 279.800406 
L 183.439964 280.491712 
L 184.255607 281.183018 
L 185.071251 281.874324 
L 185.886894 282.56563 
L 185.886894 283.948242 
L 186.702538 284.639548 
L 187.518181 285.330854 
L 188.333824 286.02216 
L 189.149468 286.713466 
L 189.965111 287.404772 
L 190.780754 288.096078 
L 191.596398 288.787384 
L 192.412041 289.478691 
L 193.227684 290.169997 
L 194.043328 290.861303 
L 194.858971 291.552609 
L 195.674615 292.243915 
L 196.490258 292.935221 
L 197.305901 293.626527 
L 198.121545 294.317833 
L 198.937188 295.009139 
L 199.752831 295.700445 
L 200.568475 296.391751 
L 201.384118 297.083057 
L 202.199762 297.774363 
L 203.015405 298.465669 
L 203.831048 299.156975 
L 204.646692 299.848281 
L 205.462335 300.539587 
L 206.277978 301.230893 
L 207.093622 301.922199 
L 207.909265 302.613505 
L 208.724909 303.304811 
L 209.540552 303.996117 
L 210.356195 304.687423 
L 211.171839 305.378729 
L 212.803125 305.378729 
L 213.618769 306.070035 
L 214.434412 306.761341 
L 215.250056 307.452647 
L 216.065699 308.143953 
L 216.881342 308.835259 
L 217.696986 309.526565 
L 219.328272 309.526565 
L 220.143916 310.217871 
L 220.959559 310.909177 
L 221.775203 311.600483 
L 222.590846 312.291789 
L 223.406489 312.983095 
L 224.222133 313.674401 
L 225.853419 313.674401 
L 226.669063 314.365707 
L 227.484706 315.057013 
L 229.115993 315.057013 
L 229.931636 315.748319 
L 230.74728 316.439625 
L 231.562923 317.130931 
L 232.378566 317.822238 
L 234.009853 317.822238 
L 234.825497 318.513544 
L 235.64114 319.20485 
L 237.272427 319.20485 
L 238.08807 319.896156 
L 238.903713 320.587462 
L 239.719357 321.278768 
z
" clip-path="url(#p451c966916)" style="fill: #dff3e3; fill-opacity: 0.9"/>
   </g>
   <g id="matplotlib.axis_1">
    <g id="xtick_1">
     <g id="line2d_1">
      <path d="M 42.843438 382.372938 
L 42.843438 23.757937 
" clip-path="url(#p451c966916)" style="fill: none; stroke: #b0b0b0; stroke-opacity: 0.2; stroke-width: 0.8; stroke-linecap: square"/>
     </g>
     <g id="line2d_2">
      <defs>
       <path id="mc7f47fc863" d="M 0 0 
L 0 3.5 
" style="stroke: #000000; stroke-width: 0.8"/>
      </defs>
      <g>
       <use xlink:href="#mc7f47fc863" x="42.843438" y="382.372938" style="stroke: #000000; stroke-width: 0.8"/>
      </g>
     </g>
     <g id="text_1">
      <!-- 0 -->
      <g transform="translate(39.344063 397.731219) scale(0.11 -0.11)">
       <defs>
        <path id="DejaVuSans-30" d="M 2034 4250 
Q 1547 4250 1301 3770 
Q 1056 3291 1056 2328 
Q 1056 1369 1301 889 
Q 1547 409 2034 409 
Q 2525 409 2770 889 
Q 3016 1369 3016 2328 
Q 3016 3291 2770 3770 
Q 2525 4250 2034 4250 
z
M 2034 4750 
Q 2819 4750 3233 4129 
Q 3647 3509 3647 2328 
Q 3647 1150 3233 529 
Q 2819 -91 2034 -91 
Q 1250 -91 836 529 
Q 422 1150 422 2328 
Q 422 3509 836 4129 
Q 1250 4750 2034 4750 
z
" transform="scale(0.015625)"/>
       </defs>
       <use xlink:href="#DejaVuSans-30"/>
      </g>
     </g>
    </g>
    <g id="xtick_2">
     <g id="line2d_3">
      <path d="M 127.466437 382.372938 
L 127.466437 23.757937 
" clip-path="url(#p451c966916)" style="fill: none; stroke: #b0b0b0; stroke-opacity: 0.2; stroke-width: 0.8; stroke-linecap: square"/>
     </g>
     <g id="line2d_4">
      <g>
       <use xlink:href="#mc7f47fc863" x="127.466437" y="382.372938" style="stroke: #000000; stroke-width: 0.8"/>
      </g>
     </g>
     <g id="text_2">
      <!-- 2 -->
      <g transform="translate(123.967062 397.731219) scale(0.11 -0.11)">
       <defs>
        <path id="DejaVuSans-32" d="M 1228 531 
L 3431 531 
L 3431 0 
L 469 0 
L 469 531 
Q 828 903 1448 1529 
Q 2069 2156 2228 2338 
Q 2531 2678 2651 2914 
Q 2772 3150 2772 3378 
Q 2772 3750 2511 3984 
Q 2250 4219 1831 4219 
Q 1534 4219 1204 4116 
Q 875 4013 500 3803 
L 500 4441 
Q 881 4594 1212 4672 
Q 1544 4750 1819 4750 
Q 2544 4750 2975 4387 
Q 3406 4025 3406 3419 
Q 3406 3131 3298 2873 
Q 3191 2616 2906 2266 
Q 2828 2175 2409 1742 
Q 1991 1309 1228 531 
z
" transform="scale(0.015625)"/>
       </defs>
       <use xlink:href="#DejaVuSans-32"/>
      </g>
     </g>
    </g>
    <g id="xtick_3">
     <g id="line2d_5">
      <path d="M 212.089437 382.372938 
L 212.089437 23.757937 
" clip-path="url(#p451c966916)" style="fill: none; stroke: #b0b0b0; stroke-opacity: 0.2; stroke-width: 0.8; stroke-linecap: square"/>
     </g>
     <g id="line2d_6">
      <g>
       <use xlink:href="#mc7f47fc863" x="212.089437" y="382.372938" style="stroke: #000000; stroke-width: 0.8"/>
      </g>
     </g>
     <g id="text_3">
      <!-- 4 -->
      <g transform="translate(208.590062 397.731219) scale(0.11 -0.11)">
       <defs>
        <path id="DejaVuSans-34" d="M 2419 4116 
L 825 1625 
L 2419 1625 
L 2419 4116 
z
M 2253 4666 
L 3047 4666 
L 3047 1625 
L 3713 1625 
L 3713 1100 
L 3047 1100 
L 3047 0 
L 2419 0 
L 2419 1100 
L 313 1100 
L 313 1709 
L 2253 4666 
z
" transform="scale(0.015625)"/>
       </defs>
       <use xlink:href="#DejaVuSans-34"/>
      </g>
     </g>
    </g>
    <g id="xtick_4">
     <g id="line2d_7">
      <path d="M 296.712437 382.372938 
L 296.712437 23.757937 
" clip-path="url(#p451c966916)" style="fill: none; stroke: #b0b0b0; stroke-opacity: 0.2; stroke-width: 0.8; stroke-linecap: square"/>
     </g>
     <g id="line2d_8">
      <g>
       <use xlink:href="#mc7f47fc863" x="296.712437" y="382.372938" style="stroke: #000000; stroke-width: 0.8"/>
      </g>
     </g>
     <g id="text_4">
      <!-- 6 -->
      <g transform="translate(293.213062 397.731219) scale(0.11 -0.11)">
       <defs>
        <path id="DejaVuSans-36" d="M 2113 2584 
Q 1688 2584 1439 2293 
Q 1191 2003 1191 1497 
Q 1191 994 1439 701 
Q 1688 409 2113 409 
Q 2538 409 2786 701 
Q 3034 994 3034 1497 
Q 3034 2003 2786 2293 
Q 2538 2584 2113 2584 
z
M 3366 4563 
L 3366 3988 
Q 3128 4100 2886 4159 
Q 2644 4219 2406 4219 
Q 1781 4219 1451 3797 
Q 1122 3375 1075 2522 
Q 1259 2794 1537 2939 
Q 1816 3084 2150 3084 
Q 2853 3084 3261 2657 
Q 3669 2231 3669 1497 
Q 3669 778 3244 343 
Q 2819 -91 2113 -91 
Q 1303 -91 875 529 
Q 447 1150 447 2328 
Q 447 3434 972 4092 
Q 1497 4750 2381 4750 
Q 2619 4750 2861 4703 
Q 3103 4656 3366 4563 
z
" transform="scale(0.015625)"/>
       </defs>
       <use xlink:href="#DejaVuSans-36"/>
      </g>
     </g>
    </g>
    <g id="xtick_5">
     <g id="line2d_9">
      <path d="M 381.335437 382.372938 
L 381.335437 23.757937 
" clip-path="url(#p451c966916)" style="fill: none; stroke: #b0b0b0; stroke-opacity: 0.2; stroke-width: 0.8; stroke-linecap: square"/>
     </g>
     <g id="line2d_10">
      <g>
       <use xlink:href="#mc7f47fc863" x="381.335437" y="382.372938" style="stroke: #000000; stroke-width: 0.8"/>
      </g>
     </g>
     <g id="text_5">
      <!-- 8 -->
      <g transform="translate(377.836062 397.731219) scale(0.11 -0.11)">
       <defs>
        <path id="DejaVuSans-38" d="M 2034 2216 
Q 1584 2216 1326 1975 
Q 1069 1734 1069 1313 
Q 1069 891 1326 650 
Q 1584 409 2034 409 
Q 2484 409 2743 651 
Q 3003 894 3003 1313 
Q 3003 1734 2745 1975 
Q 2488 2216 2034 2216 
z
M 1403 2484 
Q 997 2584 770 2862 
Q 544 3141 544 3541 
Q 544 4100 942 4425 
Q 1341 4750 2034 4750 
Q 2731 4750 3128 4425 
Q 3525 4100 3525 3541 
Q 3525 3141 3298 2862 
Q 3072 2584 2669 2484 
Q 3125 2378 3379 2068 
Q 3634 1759 3634 1313 
Q 3634 634 3220 271 
Q 2806 -91 2034 -91 
Q 1263 -91 848 271 
Q 434 634 434 1313 
Q 434 1759 690 2068 
Q 947 2378 1403 2484 
z
M 1172 3481 
Q 1172 3119 1398 2916 
Q 1625 2713 2034 2713 
Q 2441 2713 2670 2916 
Q 2900 3119 2900 3481 
Q 2900 3844 2670 4047 
Q 2441 4250 2034 4250 
Q 1625 4250 1398 4047 
Q 1172 3844 1172 3481 
z
" transform="scale(0.015625)"/>
       </defs>
       <use xlink:href="#DejaVuSans-38"/>
      </g>
     </g>
    </g>
    <g id="xtick_6">
     <g id="line2d_11">
      <path d="M 465.958437 382.372938 
L 465.958437 23.757937 
" clip-path="url(#p451c966916)" style="fill: none; stroke: #b0b0b0; stroke-opacity: 0.2; stroke-width: 0.8; stroke-linecap: square"/>
     </g>
     <g id="line2d_12">
      <g>
       <use xlink:href="#mc7f47fc863" x="465.958437" y="382.372938" style="stroke: #000000; stroke-width: 0.8"/>
      </g>
     </g>
     <g id="text_6">
      <!-- 10 -->
      <g transform="translate(458.959687 397.731219) scale(0.11 -0.11)">
       <defs>
        <path id="DejaVuSans-31" d="M 794 531 
L 1825 531 
L 1825 4091 
L 703 3866 
L 703 4441 
L 1819 4666 
L 2450 4666 
L 2450 531 
L 3481 531 
L 3481 0 
L 794 0 
L 794 531 
z
" transform="scale(0.015625)"/>
       </defs>
       <use xlink:href="#DejaVuSans-31"/>
       <use xlink:href="#DejaVuSans-30" transform="translate(63.623047 0)"/>
      </g>
     </g>
    </g>
    <g id="text_7">
     <!-- loisir du membre A -->
     <g transform="translate(202.23 412.377156) scale(0.11 -0.11)">
      <defs>
       <path id="DejaVuSans-6c" d="M 603 4863 
L 1178 4863 
L 1178 0 
L 603 0 
L 603 4863 
z
" transform="scale(0.015625)"/>
       <path id="DejaVuSans-6f" d="M 1959 3097 
Q 1497 3097 1228 2736 
Q 959 2375 959 1747 
Q 959 1119 1226 758 
Q 1494 397 1959 397 
Q 2419 397 2687 759 
Q 2956 1122 2956 1747 
Q 2956 2369 2687 2733 
Q 2419 3097 1959 3097 
z
M 1959 3584 
Q 2709 3584 3137 3096 
Q 3566 2609 3566 1747 
Q 3566 888 3137 398 
Q 2709 -91 1959 -91 
Q 1206 -91 779 398 
Q 353 888 353 1747 
Q 353 2609 779 3096 
Q 1206 3584 1959 3584 
z
" transform="scale(0.015625)"/>
       <path id="DejaVuSans-69" d="M 603 3500 
L 1178 3500 
L 1178 0 
L 603 0 
L 603 3500 
z
M 603 4863 
L 1178 4863 
L 1178 4134 
L 603 4134 
L 603 4863 
z
" transform="scale(0.015625)"/>
       <path id="DejaVuSans-73" d="M 2834 3397 
L 2834 2853 
Q 2591 2978 2328 3040 
Q 2066 3103 1784 3103 
Q 1356 3103 1142 2972 
Q 928 2841 928 2578 
Q 928 2378 1081 2264 
Q 1234 2150 1697 2047 
L 1894 2003 
Q 2506 1872 2764 1633 
Q 3022 1394 3022 966 
Q 3022 478 2636 193 
Q 2250 -91 1575 -91 
Q 1294 -91 989 -36 
Q 684 19 347 128 
L 347 722 
Q 666 556 975 473 
Q 1284 391 1588 391 
Q 1994 391 2212 530 
Q 2431 669 2431 922 
Q 2431 1156 2273 1281 
Q 2116 1406 1581 1522 
L 1381 1569 
Q 847 1681 609 1914 
Q 372 2147 372 2553 
Q 372 3047 722 3315 
Q 1072 3584 1716 3584 
Q 2034 3584 2315 3537 
Q 2597 3491 2834 3397 
z
" transform="scale(0.015625)"/>
       <path id="DejaVuSans-72" d="M 2631 2963 
Q 2534 3019 2420 3045 
Q 2306 3072 2169 3072 
Q 1681 3072 1420 2755 
Q 1159 2438 1159 1844 
L 1159 0 
L 581 0 
L 581 3500 
L 1159 3500 
L 1159 2956 
Q 1341 3275 1631 3429 
Q 1922 3584 2338 3584 
Q 2397 3584 2469 3576 
Q 2541 3569 2628 3553 
L 2631 2963 
z
" transform="scale(0.015625)"/>
       <path id="DejaVuSans-20" transform="scale(0.015625)"/>
       <path id="DejaVuSans-64" d="M 2906 2969 
L 2906 4863 
L 3481 4863 
L 3481 0 
L 2906 0 
L 2906 525 
Q 2725 213 2448 61 
Q 2172 -91 1784 -91 
Q 1150 -91 751 415 
Q 353 922 353 1747 
Q 353 2572 751 3078 
Q 1150 3584 1784 3584 
Q 2172 3584 2448 3432 
Q 2725 3281 2906 2969 
z
M 947 1747 
Q 947 1113 1208 752 
Q 1469 391 1925 391 
Q 2381 391 2643 752 
Q 2906 1113 2906 1747 
Q 2906 2381 2643 2742 
Q 2381 3103 1925 3103 
Q 1469 3103 1208 2742 
Q 947 2381 947 1747 
z
" transform="scale(0.015625)"/>
       <path id="DejaVuSans-75" d="M 544 1381 
L 544 3500 
L 1119 3500 
L 1119 1403 
Q 1119 906 1312 657 
Q 1506 409 1894 409 
Q 2359 409 2629 706 
Q 2900 1003 2900 1516 
L 2900 3500 
L 3475 3500 
L 3475 0 
L 2900 0 
L 2900 538 
Q 2691 219 2414 64 
Q 2138 -91 1772 -91 
Q 1169 -91 856 284 
Q 544 659 544 1381 
z
M 1991 3584 
L 1991 3584 
z
" transform="scale(0.015625)"/>
       <path id="DejaVuSans-6d" d="M 3328 2828 
Q 3544 3216 3844 3400 
Q 4144 3584 4550 3584 
Q 5097 3584 5394 3201 
Q 5691 2819 5691 2113 
L 5691 0 
L 5113 0 
L 5113 2094 
Q 5113 2597 4934 2840 
Q 4756 3084 4391 3084 
Q 3944 3084 3684 2787 
Q 3425 2491 3425 1978 
L 3425 0 
L 2847 0 
L 2847 2094 
Q 2847 2600 2669 2842 
Q 2491 3084 2119 3084 
Q 1678 3084 1418 2786 
Q 1159 2488 1159 1978 
L 1159 0 
L 581 0 
L 581 3500 
L 1159 3500 
L 1159 2956 
Q 1356 3278 1631 3431 
Q 1906 3584 2284 3584 
Q 2666 3584 2933 3390 
Q 3200 3197 3328 2828 
z
" transform="scale(0.015625)"/>
       <path id="DejaVuSans-65" d="M 3597 1894 
L 3597 1613 
L 953 1613 
Q 991 1019 1311 708 
Q 1631 397 2203 397 
Q 2534 397 2845 478 
Q 3156 559 3463 722 
L 3463 178 
Q 3153 47 2828 -22 
Q 2503 -91 2169 -91 
Q 1331 -91 842 396 
Q 353 884 353 1716 
Q 353 2575 817 3079 
Q 1281 3584 2069 3584 
Q 2775 3584 3186 3129 
Q 3597 2675 3597 1894 
z
M 3022 2063 
Q 3016 2534 2758 2815 
Q 2500 3097 2075 3097 
Q 1594 3097 1305 2825 
Q 1016 2553 972 2059 
L 3022 2063 
z
" transform="scale(0.015625)"/>
       <path id="DejaVuSans-62" d="M 3116 1747 
Q 3116 2381 2855 2742 
Q 2594 3103 2138 3103 
Q 1681 3103 1420 2742 
Q 1159 2381 1159 1747 
Q 1159 1113 1420 752 
Q 1681 391 2138 391 
Q 2594 391 2855 752 
Q 3116 1113 3116 1747 
z
M 1159 2969 
Q 1341 3281 1617 3432 
Q 1894 3584 2278 3584 
Q 2916 3584 3314 3078 
Q 3713 2572 3713 1747 
Q 3713 922 3314 415 
Q 2916 -91 2278 -91 
Q 1894 -91 1617 61 
Q 1341 213 1159 525 
L 1159 0 
L 581 0 
L 581 4863 
L 1159 4863 
L 1159 2969 
z
" transform="scale(0.015625)"/>
       <path id="DejaVuSans-41" d="M 2188 4044 
L 1331 1722 
L 3047 1722 
L 2188 4044 
z
M 1831 4666 
L 2547 4666 
L 4325 0 
L 3669 0 
L 3244 1197 
L 1141 1197 
L 716 0 
L 50 0 
L 1831 4666 
z
" transform="scale(0.015625)"/>
      </defs>
      <use xlink:href="#DejaVuSans-6c"/>
      <use xlink:href="#DejaVuSans-6f" transform="translate(27.783203 0)"/>
      <use xlink:href="#DejaVuSans-69" transform="translate(88.964844 0)"/>
      <use xlink:href="#DejaVuSans-73" transform="translate(116.748047 0)"/>
      <use xlink:href="#DejaVuSans-69" transform="translate(168.847656 0)"/>
      <use xlink:href="#DejaVuSans-72" transform="translate(196.630859 0)"/>
      <use xlink:href="#DejaVuSans-20" transform="translate(237.744141 0)"/>
      <use xlink:href="#DejaVuSans-64" transform="translate(269.53125 0)"/>
      <use xlink:href="#DejaVuSans-75" transform="translate(333.007812 0)"/>
      <use xlink:href="#DejaVuSans-20" transform="translate(396.386719 0)"/>
      <use xlink:href="#DejaVuSans-6d" transform="translate(428.173828 0)"/>
      <use xlink:href="#DejaVuSans-65" transform="translate(525.585938 0)"/>
      <use xlink:href="#DejaVuSans-6d" transform="translate(587.109375 0)"/>
      <use xlink:href="#DejaVuSans-62" transform="translate(684.521484 0)"/>
      <use xlink:href="#DejaVuSans-72" transform="translate(747.998047 0)"/>
      <use xlink:href="#DejaVuSans-65" transform="translate(786.861328 0)"/>
      <use xlink:href="#DejaVuSans-20" transform="translate(848.384766 0)"/>
      <use xlink:href="#DejaVuSans-41" transform="translate(880.171875 0)"/>
     </g>
    </g>
   </g>
   <g id="matplotlib.axis_2">
    <g id="ytick_1">
     <g id="line2d_13">
      <path d="M 42.843438 382.372938 
L 465.958437 382.372938 
" clip-path="url(#p451c966916)" style="fill: none; stroke: #b0b0b0; stroke-opacity: 0.2; stroke-width: 0.8; stroke-linecap: square"/>
     </g>
     <g id="line2d_14">
      <defs>
       <path id="mb070f9259f" d="M 0 0 
L -3.5 0 
" style="stroke: #000000; stroke-width: 0.8"/>
      </defs>
      <g>
       <use xlink:href="#mb070f9259f" x="42.843438" y="382.372938" style="stroke: #000000; stroke-width: 0.8"/>
      </g>
     </g>
     <g id="text_8">
      <!-- 0 -->
      <g transform="translate(28.844688 386.552078) scale(0.11 -0.11)">
       <use xlink:href="#DejaVuSans-30"/>
      </g>
     </g>
    </g>
    <g id="ytick_2">
     <g id="line2d_15">
      <path d="M 42.843438 310.649938 
L 465.958437 310.649938 
" clip-path="url(#p451c966916)" style="fill: none; stroke: #b0b0b0; stroke-opacity: 0.2; stroke-width: 0.8; stroke-linecap: square"/>
     </g>
     <g id="line2d_16">
      <g>
       <use xlink:href="#mb070f9259f" x="42.843438" y="310.649938" style="stroke: #000000; stroke-width: 0.8"/>
      </g>
     </g>
     <g id="text_9">
      <!-- 2 -->
      <g transform="translate(28.844688 314.829078) scale(0.11 -0.11)">
       <use xlink:href="#DejaVuSans-32"/>
      </g>
     </g>
    </g>
    <g id="ytick_3">
     <g id="line2d_17">
      <path d="M 42.843438 238.926938 
L 465.958437 238.926938 
" clip-path="url(#p451c966916)" style="fill: none; stroke: #b0b0b0; stroke-opacity: 0.2; stroke-width: 0.8; stroke-linecap: square"/>
     </g>
     <g id="line2d_18">
      <g>
       <use xlink:href="#mb070f9259f" x="42.843438" y="238.926938" style="stroke: #000000; stroke-width: 0.8"/>
      </g>
     </g>
     <g id="text_10">
      <!-- 4 -->
      <g transform="translate(28.844688 243.106078) scale(0.11 -0.11)">
       <use xlink:href="#DejaVuSans-34"/>
      </g>
     </g>
    </g>
    <g id="ytick_4">
     <g id="line2d_19">
      <path d="M 42.843438 167.203937 
L 465.958437 167.203937 
" clip-path="url(#p451c966916)" style="fill: none; stroke: #b0b0b0; stroke-opacity: 0.2; stroke-width: 0.8; stroke-linecap: square"/>
     </g>
     <g id="line2d_20">
      <g>
       <use xlink:href="#mb070f9259f" x="42.843438" y="167.203937" style="stroke: #000000; stroke-width: 0.8"/>
      </g>
     </g>
     <g id="text_11">
      <!-- 6 -->
      <g transform="translate(28.844688 171.383078) scale(0.11 -0.11)">
       <use xlink:href="#DejaVuSans-36"/>
      </g>
     </g>
    </g>
    <g id="ytick_5">
     <g id="line2d_21">
      <path d="M 42.843438 95.480937 
L 465.958437 95.480937 
" clip-path="url(#p451c966916)" style="fill: none; stroke: #b0b0b0; stroke-opacity: 0.2; stroke-width: 0.8; stroke-linecap: square"/>
     </g>
     <g id="line2d_22">
      <g>
       <use xlink:href="#mb070f9259f" x="42.843438" y="95.480937" style="stroke: #000000; stroke-width: 0.8"/>
      </g>
     </g>
     <g id="text_12">
      <!-- 8 -->
      <g transform="translate(28.844688 99.660078) scale(0.11 -0.11)">
       <use xlink:href="#DejaVuSans-38"/>
      </g>
     </g>
    </g>
    <g id="ytick_6">
     <g id="line2d_23">
      <path d="M 42.843438 23.757937 
L 465.958437 23.757937 
" clip-path="url(#p451c966916)" style="fill: none; stroke: #b0b0b0; stroke-opacity: 0.2; stroke-width: 0.8; stroke-linecap: square"/>
     </g>
     <g id="line2d_24">
      <g>
       <use xlink:href="#mb070f9259f" x="42.843438" y="23.757937" style="stroke: #000000; stroke-width: 0.8"/>
      </g>
     </g>
     <g id="text_13">
      <!-- 10 -->
      <g transform="translate(21.845938 27.937078) scale(0.11 -0.11)">
       <use xlink:href="#DejaVuSans-31"/>
       <use xlink:href="#DejaVuSans-30" transform="translate(63.623047 0)"/>
      </g>
     </g>
    </g>
    <g id="text_14">
     <!-- consommation du membre A -->
     <g transform="translate(15.558281 282.886766) rotate(-90) scale(0.11 -0.11)">
      <defs>
       <path id="DejaVuSans-63" d="M 3122 3366 
L 3122 2828 
Q 2878 2963 2633 3030 
Q 2388 3097 2138 3097 
Q 1578 3097 1268 2742 
Q 959 2388 959 1747 
Q 959 1106 1268 751 
Q 1578 397 2138 397 
Q 2388 397 2633 464 
Q 2878 531 3122 666 
L 3122 134 
Q 2881 22 2623 -34 
Q 2366 -91 2075 -91 
Q 1284 -91 818 406 
Q 353 903 353 1747 
Q 353 2603 823 3093 
Q 1294 3584 2113 3584 
Q 2378 3584 2631 3529 
Q 2884 3475 3122 3366 
z
" transform="scale(0.015625)"/>
       <path id="DejaVuSans-6e" d="M 3513 2113 
L 3513 0 
L 2938 0 
L 2938 2094 
Q 2938 2591 2744 2837 
Q 2550 3084 2163 3084 
Q 1697 3084 1428 2787 
Q 1159 2491 1159 1978 
L 1159 0 
L 581 0 
L 581 3500 
L 1159 3500 
L 1159 2956 
Q 1366 3272 1645 3428 
Q 1925 3584 2291 3584 
Q 2894 3584 3203 3211 
Q 3513 2838 3513 2113 
z
" transform="scale(0.015625)"/>
       <path id="DejaVuSans-61" d="M 2194 1759 
Q 1497 1759 1228 1600 
Q 959 1441 959 1056 
Q 959 750 1161 570 
Q 1363 391 1709 391 
Q 2188 391 2477 730 
Q 2766 1069 2766 1631 
L 2766 1759 
L 2194 1759 
z
M 3341 1997 
L 3341 0 
L 2766 0 
L 2766 531 
Q 2569 213 2275 61 
Q 1981 -91 1556 -91 
Q 1019 -91 701 211 
Q 384 513 384 1019 
Q 384 1609 779 1909 
Q 1175 2209 1959 2209 
L 2766 2209 
L 2766 2266 
Q 2766 2663 2505 2880 
Q 2244 3097 1772 3097 
Q 1472 3097 1187 3025 
Q 903 2953 641 2809 
L 641 3341 
Q 956 3463 1253 3523 
Q 1550 3584 1831 3584 
Q 2591 3584 2966 3190 
Q 3341 2797 3341 1997 
z
" transform="scale(0.015625)"/>
       <path id="DejaVuSans-74" d="M 1172 4494 
L 1172 3500 
L 2356 3500 
L 2356 3053 
L 1172 3053 
L 1172 1153 
Q 1172 725 1289 603 
Q 1406 481 1766 481 
L 2356 481 
L 2356 0 
L 1766 0 
Q 1100 0 847 248 
Q 594 497 594 1153 
L 594 3053 
L 172 3053 
L 172 3500 
L 594 3500 
L 594 4494 
L 1172 4494 
z
" transform="scale(0.015625)"/>
      </defs>
      <use xlink:href="#DejaVuSans-63"/>
      <use xlink:href="#DejaVuSans-6f" transform="translate(54.980469 0)"/>
      <use xlink:href="#DejaVuSans-6e" transform="translate(116.162109 0)"/>
      <use xlink:href="#DejaVuSans-73" transform="translate(179.541016 0)"/>
      <use xlink:href="#DejaVuSans-6f" transform="translate(231.640625 0)"/>
      <use xlink:href="#DejaVuSans-6d" transform="translate(292.822266 0)"/>
      <use xlink:href="#DejaVuSans-6d" transform="translate(390.234375 0)"/>
      <use xlink:href="#DejaVuSans-61" transform="translate(487.646484 0)"/>
      <use xlink:href="#DejaVuSans-74" transform="translate(548.925781 0)"/>
      <use xlink:href="#DejaVuSans-69" transform="translate(588.134766 0)"/>
      <use xlink:href="#DejaVuSans-6f" transform="translate(615.917969 0)"/>
      <use xlink:href="#DejaVuSans-6e" transform="translate(677.099609 0)"/>
      <use xlink:href="#DejaVuSans-20" transform="translate(740.478516 0)"/>
      <use xlink:href="#DejaVuSans-64" transform="translate(772.265625 0)"/>
      <use xlink:href="#DejaVuSans-75" transform="translate(835.742188 0)"/>
      <use xlink:href="#DejaVuSans-20" transform="translate(899.121094 0)"/>
      <use xlink:href="#DejaVuSans-6d" transform="translate(930.908203 0)"/>
      <use xlink:href="#DejaVuSans-65" transform="translate(1028.320312 0)"/>
      <use xlink:href="#DejaVuSans-6d" transform="translate(1089.84375 0)"/>
      <use xlink:href="#DejaVuSans-62" transform="translate(1187.255859 0)"/>
      <use xlink:href="#DejaVuSans-72" transform="translate(1250.732422 0)"/>
      <use xlink:href="#DejaVuSans-65" transform="translate(1289.595703 0)"/>
      <use xlink:href="#DejaVuSans-20" transform="translate(1351.119141 0)"/>
      <use xlink:href="#DejaVuSans-41" transform="translate(1382.90625 0)"/>
     </g>
    </g>
   </g>
   <g id="line2d_25">
    <path d="M 104.242832 30.070076 
L 106.278874 46.894661 
L 108.314916 62.42149 
L 110.350959 76.786507 
L 113.405022 96.409952 
L 116.459085 114.019537 
L 119.513148 129.893176 
L 122.567211 144.261348 
L 125.621274 157.316626 
L 128.675338 169.221033 
L 131.729401 180.11176 
L 134.783464 190.105663 
L 137.837527 199.302833 
L 140.89159 207.789443 
L 143.945653 215.640041 
L 146.999716 222.919413 
L 150.05378 229.684102 
L 153.107843 235.98365 
L 156.161906 241.861634 
L 159.215969 247.356519 
L 163.288053 254.145424 
L 167.360138 260.383872 
L 171.432222 266.132384 
L 175.504306 271.443183 
L 179.57639 276.36155 
L 183.648474 280.926916 
L 187.720559 285.173759 
L 191.792643 289.132346 
L 195.864727 292.829344 
L 200.954832 297.11839 
L 206.044938 301.075644 
L 211.135043 304.735959 
L 216.225148 308.129618 
L 221.315253 311.283047 
L 227.42338 314.782455 
L 233.531506 318.003898 
L 239.639632 320.977336 
L 245.747759 323.728698 
L 252.873906 326.687857 
L 260.000053 329.406263 
L 268.144222 332.252108 
L 276.28839 334.851937 
L 285.45058 337.518343 
L 294.612769 339.9444 
L 304.79298 342.393577 
L 314.97319 344.615869 
L 326.171422 346.832064 
L 338.387674 349.012744 
L 351.621948 351.134327 
L 365.874243 353.17875 
L 381.144559 355.132935 
L 397.432895 356.988147 
L 414.739253 358.739311 
L 434.081653 360.470099 
L 455.460095 362.150096 
L 457.496137 362.298862 
L 457.496137 362.298862 
" clip-path="url(#p451c966916)" style="fill: none; stroke: #1f77b4; stroke-width: 2; stroke-linecap: square"/>
   </g>
   <g id="line2d_26">
    <path d="M 51.305738 220.508077 
L 64.540011 224.809064 
L 77.774285 229.353079 
L 89.990538 233.782878 
L 102.20679 238.459268 
L 113.405022 242.981937 
L 124.603253 247.750559 
L 134.783464 252.317664 
L 144.963674 257.124923 
L 155.143885 262.1932 
L 164.306074 266.997134 
L 173.468264 272.050586 
L 182.630453 277.37496 
L 190.774622 282.354524 
L 198.91879 287.585937 
L 207.062959 293.090215 
L 215.207127 298.890868 
L 222.333274 304.230222 
L 229.459422 309.836395 
L 236.585569 315.73138 
L 243.711716 321.939743 
L 249.819843 327.5314 
L 255.927969 333.392796 
L 262.036095 339.545369 
L 268.144222 346.012975 
L 274.252348 352.822243 
L 280.360474 360.002996 
L 286.468601 367.58876 
L 291.558706 374.24676 
L 296.648811 381.236728 
L 296.648811 381.236728 
" clip-path="url(#p451c966916)" style="fill: none; stroke: #d62728; stroke-width: 2; stroke-linecap: square"/>
   </g>
   <g id="line2d_27">
    <path d="M 51.305738 379.149432 
L 66.576053 373.145489 
L 80.828348 367.313189 
L 95.080643 361.246529 
L 109.332938 354.931094 
L 122.567211 348.830372 
L 135.801485 342.488152 
L 149.035759 335.889805 
L 161.252011 329.558019 
L 173.468264 322.981057 
L 185.684516 316.144399 
L 196.882748 309.635946 
L 208.08098 302.88307 
L 219.279211 295.87174 
L 230.477443 288.586826 
L 240.657653 281.713054 
L 250.837864 274.586482 
L 261.018074 267.192904 
L 271.198285 259.517027 
L 281.378495 251.542368 
L 290.540685 244.095043 
L 299.702874 236.377349 
L 308.865064 228.374292 
L 318.027253 220.069746 
L 327.189443 211.446348 
L 336.351632 202.485375 
L 344.495801 194.220361 
L 352.639969 185.657384 
L 360.784138 176.780033 
L 368.928306 167.570673 
L 377.072474 158.010324 
L 385.216643 148.07853 
L 393.360811 137.753215 
L 400.486959 128.377043 
L 407.613106 118.664129 
L 414.739253 108.596 
L 421.865401 98.152807 
L 428.991548 87.313194 
L 436.117695 76.054152 
L 443.243843 64.350856 
L 450.36999 52.176485 
L 457.496137 39.502011 
L 457.496137 39.502011 
" clip-path="url(#p451c966916)" style="fill: none; stroke-dasharray: 7.4,3.2; stroke-dashoffset: 0; stroke: #000000; stroke-width: 2"/>
   </g>
   <g id="patch_3">
    <path d="M 42.843438 382.372938 
L 42.843438 23.757937 
" style="fill: none; stroke: #000000; stroke-width: 0.8; stroke-linejoin: miter; stroke-linecap: square"/>
   </g>
   <g id="patch_4">
    <path d="M 465.958437 382.372938 
L 465.958437 23.757937 
" style="fill: none; stroke: #000000; stroke-width: 0.8; stroke-linejoin: miter; stroke-linecap: square"/>
   </g>
   <g id="patch_5">
    <path d="M 42.843438 382.372938 
L 465.958437 382.372938 
" style="fill: none; stroke: #000000; stroke-width: 0.8; stroke-linejoin: miter; stroke-linecap: square"/>
   </g>
   <g id="patch_6">
    <path d="M 42.843438 23.757937 
L 465.958437 23.757937 
" style="fill: none; stroke: #000000; stroke-width: 0.8; stroke-linejoin: miter; stroke-linecap: square"/>
   </g>
   <g id="patch_7">
    <path d="M 144.943737 321.695073 
Q 161.01381 299.056266 176.436722 277.32915 
" style="fill: none; stroke: #000000; stroke-linecap: round"/>
    <path d="M 172.885107 279.222833 
L 176.436722 277.32915 
L 175.820699 281.306651 
" style="fill: none; stroke: #000000; stroke-linecap: round"/>
   </g>
   <g id="text_15">
    <!-- E : allocation initiale -->
    <g transform="translate(93.617238 332.166838) scale(0.09 -0.09)">
     <defs>
      <path id="DejaVuSans-45" d="M 628 4666 
L 3578 4666 
L 3578 4134 
L 1259 4134 
L 1259 2753 
L 3481 2753 
L 3481 2222 
L 1259 2222 
L 1259 531 
L 3634 531 
L 3634 0 
L 628 0 
L 628 4666 
z
" transform="scale(0.015625)"/>
      <path id="DejaVuSans-3a" d="M 750 794 
L 1409 794 
L 1409 0 
L 750 0 
L 750 794 
z
M 750 3309 
L 1409 3309 
L 1409 2516 
L 750 2516 
L 750 3309 
z
" transform="scale(0.015625)"/>
     </defs>
     <use xlink:href="#DejaVuSans-45"/>
     <use xlink:href="#DejaVuSans-20" transform="translate(63.183594 0)"/>
     <use xlink:href="#DejaVuSans-3a" transform="translate(94.970703 0)"/>
     <use xlink:href="#DejaVuSans-20" transform="translate(128.662109 0)"/>
     <use xlink:href="#DejaVuSans-61" transform="translate(160.449219 0)"/>
     <use xlink:href="#DejaVuSans-6c" transform="translate(221.728516 0)"/>
     <use xlink:href="#DejaVuSans-6c" transform="translate(249.511719 0)"/>
     <use xlink:href="#DejaVuSans-6f" transform="translate(277.294922 0)"/>
     <use xlink:href="#DejaVuSans-63" transform="translate(338.476562 0)"/>
     <use xlink:href="#DejaVuSans-61" transform="translate(393.457031 0)"/>
     <use xlink:href="#DejaVuSans-74" transform="translate(454.736328 0)"/>
     <use xlink:href="#DejaVuSans-69" transform="translate(493.945312 0)"/>
     <use xlink:href="#DejaVuSans-6f" transform="translate(521.728516 0)"/>
     <use xlink:href="#DejaVuSans-6e" transform="translate(582.910156 0)"/>
     <use xlink:href="#DejaVuSans-20" transform="translate(646.289062 0)"/>
     <use xlink:href="#DejaVuSans-69" transform="translate(678.076172 0)"/>
     <use xlink:href="#DejaVuSans-6e" transform="translate(705.859375 0)"/>
     <use xlink:href="#DejaVuSans-69" transform="translate(769.238281 0)"/>
     <use xlink:href="#DejaVuSans-74" transform="translate(797.021484 0)"/>
     <use xlink:href="#DejaVuSans-69" transform="translate(836.230469 0)"/>
     <use xlink:href="#DejaVuSans-61" transform="translate(864.013672 0)"/>
     <use xlink:href="#DejaVuSans-6c" transform="translate(925.292969 0)"/>
     <use xlink:href="#DejaVuSans-65" transform="translate(953.076172 0)"/>
    </g>
   </g>
   <g id="text_16">
    <g id="patch_8">
     <path d="M 296.712437 78.085756 
L 386.013531 78.085756 
Q 388.263531 78.085756 388.263531 75.835756 
L 388.263531 57.047412 
Q 388.263531 54.797412 386.013531 54.797412 
L 296.712437 54.797412 
Q 294.462437 54.797412 294.462437 57.047412 
L 294.462437 75.835756 
Q 294.462437 78.085756 296.712437 78.085756 
z
" style="fill: #ffffff; opacity: 0.9; stroke: #006400; stroke-linejoin: miter"/>
    </g>
    <!-- zone d'amélioration -->
    <g style="fill: #006400" transform="translate(296.712437 63.886006) scale(0.09 -0.09)">
     <defs>
      <path id="DejaVuSans-7a" d="M 353 3500 
L 3084 3500 
L 3084 2975 
L 922 459 
L 3084 459 
L 3084 0 
L 275 0 
L 275 525 
L 2438 3041 
L 353 3041 
L 353 3500 
z
" transform="scale(0.015625)"/>
      <path id="DejaVuSans-27" d="M 1147 4666 
L 1147 2931 
L 616 2931 
L 616 4666 
L 1147 4666 
z
" transform="scale(0.015625)"/>
      <path id="DejaVuSans-e9" d="M 3597 1894 
L 3597 1613 
L 953 1613 
Q 991 1019 1311 708 
Q 1631 397 2203 397 
Q 2534 397 2845 478 
Q 3156 559 3463 722 
L 3463 178 
Q 3153 47 2828 -22 
Q 2503 -91 2169 -91 
Q 1331 -91 842 396 
Q 353 884 353 1716 
Q 353 2575 817 3079 
Q 1281 3584 2069 3584 
Q 2775 3584 3186 3129 
Q 3597 2675 3597 1894 
z
M 3022 2063 
Q 3016 2534 2758 2815 
Q 2500 3097 2075 3097 
Q 1594 3097 1305 2825 
Q 1016 2553 972 2059 
L 3022 2063 
z
M 2469 5119 
L 3091 5119 
L 2072 3944 
L 1594 3944 
L 2469 5119 
z
" transform="scale(0.015625)"/>
     </defs>
     <use xlink:href="#DejaVuSans-7a"/>
     <use xlink:href="#DejaVuSans-6f" transform="translate(52.490234 0)"/>
     <use xlink:href="#DejaVuSans-6e" transform="translate(113.671875 0)"/>
     <use xlink:href="#DejaVuSans-65" transform="translate(177.050781 0)"/>
     <use xlink:href="#DejaVuSans-20" transform="translate(238.574219 0)"/>
     <use xlink:href="#DejaVuSans-64" transform="translate(270.361328 0)"/>
     <use xlink:href="#DejaVuSans-27" transform="translate(333.837891 0)"/>
     <use xlink:href="#DejaVuSans-61" transform="translate(361.328125 0)"/>
     <use xlink:href="#DejaVuSans-6d" transform="translate(422.607422 0)"/>
     <use xlink:href="#DejaVuSans-e9" transform="translate(520.019531 0)"/>
     <use xlink:href="#DejaVuSans-6c" transform="translate(581.542969 0)"/>
     <use xlink:href="#DejaVuSans-69" transform="translate(609.326172 0)"/>
     <use xlink:href="#DejaVuSans-6f" transform="translate(637.109375 0)"/>
     <use xlink:href="#DejaVuSans-72" transform="translate(698.291016 0)"/>
     <use xlink:href="#DejaVuSans-61" transform="translate(739.404297 0)"/>
     <use xlink:href="#DejaVuSans-74" transform="translate(800.683594 0)"/>
     <use xlink:href="#DejaVuSans-69" transform="translate(839.892578 0)"/>
     <use xlink:href="#DejaVuSans-6f" transform="translate(867.675781 0)"/>
     <use xlink:href="#DejaVuSans-6e" transform="translate(928.857422 0)"/>
    </g>
    <!-- mutuelle -->
    <g style="fill: #006400" transform="translate(296.712437 73.964037) scale(0.09 -0.09)">
     <use xlink:href="#DejaVuSans-6d"/>
     <use xlink:href="#DejaVuSans-75" transform="translate(97.412109 0)"/>
     <use xlink:href="#DejaVuSans-74" transform="translate(160.791016 0)"/>
     <use xlink:href="#DejaVuSans-75" transform="translate(200 0)"/>
     <use xlink:href="#DejaVuSans-65" transform="translate(263.378906 0)"/>
     <use xlink:href="#DejaVuSans-6c" transform="translate(324.902344 0)"/>
     <use xlink:href="#DejaVuSans-6c" transform="translate(352.685547 0)"/>
     <use xlink:href="#DejaVuSans-65" transform="translate(380.46875 0)"/>
    </g>
   </g>
   <g id="text_17">
    <!-- Boîte d'Edgeworth : gains mutuels et efficacité dans le ménage -->
    <g transform="translate(44.619937 17.757937) scale(0.132 -0.132)">
     <defs>
      <path id="DejaVuSans-42" d="M 1259 2228 
L 1259 519 
L 2272 519 
Q 2781 519 3026 730 
Q 3272 941 3272 1375 
Q 3272 1813 3026 2020 
Q 2781 2228 2272 2228 
L 1259 2228 
z
M 1259 4147 
L 1259 2741 
L 2194 2741 
Q 2656 2741 2882 2914 
Q 3109 3088 3109 3444 
Q 3109 3797 2882 3972 
Q 2656 4147 2194 4147 
L 1259 4147 
z
M 628 4666 
L 2241 4666 
Q 2963 4666 3353 4366 
Q 3744 4066 3744 3513 
Q 3744 3084 3544 2831 
Q 3344 2578 2956 2516 
Q 3422 2416 3680 2098 
Q 3938 1781 3938 1306 
Q 3938 681 3513 340 
Q 3088 0 2303 0 
L 628 0 
L 628 4666 
z
" transform="scale(0.015625)"/>
      <path id="DejaVuSans-ee" d="M 603 3500 
L 1178 3500 
L 1178 0 
L 603 0 
L 603 3500 
z
M 891 3584 
L 891 3584 
z
M 659 5119 
L 1122 5119 
L 1888 3944 
L 1453 3944 
L 891 4709 
L 328 3944 
L -106 3944 
L 659 5119 
z
" transform="scale(0.015625)"/>
      <path id="DejaVuSans-67" d="M 2906 1791 
Q 2906 2416 2648 2759 
Q 2391 3103 1925 3103 
Q 1463 3103 1205 2759 
Q 947 2416 947 1791 
Q 947 1169 1205 825 
Q 1463 481 1925 481 
Q 2391 481 2648 825 
Q 2906 1169 2906 1791 
z
M 3481 434 
Q 3481 -459 3084 -895 
Q 2688 -1331 1869 -1331 
Q 1566 -1331 1297 -1286 
Q 1028 -1241 775 -1147 
L 775 -588 
Q 1028 -725 1275 -790 
Q 1522 -856 1778 -856 
Q 2344 -856 2625 -561 
Q 2906 -266 2906 331 
L 2906 616 
Q 2728 306 2450 153 
Q 2172 0 1784 0 
Q 1141 0 747 490 
Q 353 981 353 1791 
Q 353 2603 747 3093 
Q 1141 3584 1784 3584 
Q 2172 3584 2450 3431 
Q 2728 3278 2906 2969 
L 2906 3500 
L 3481 3500 
L 3481 434 
z
" transform="scale(0.015625)"/>
      <path id="DejaVuSans-77" d="M 269 3500 
L 844 3500 
L 1563 769 
L 2278 3500 
L 2956 3500 
L 3675 769 
L 4391 3500 
L 4966 3500 
L 4050 0 
L 3372 0 
L 2619 2869 
L 1863 0 
L 1184 0 
L 269 3500 
z
" transform="scale(0.015625)"/>
      <path id="DejaVuSans-68" d="M 3513 2113 
L 3513 0 
L 2938 0 
L 2938 2094 
Q 2938 2591 2744 2837 
Q 2550 3084 2163 3084 
Q 1697 3084 1428 2787 
Q 1159 2491 1159 1978 
L 1159 0 
L 581 0 
L 581 4863 
L 1159 4863 
L 1159 2956 
Q 1366 3272 1645 3428 
Q 1925 3584 2291 3584 
Q 2894 3584 3203 3211 
Q 3513 2838 3513 2113 
z
" transform="scale(0.015625)"/>
      <path id="DejaVuSans-66" d="M 2375 4863 
L 2375 4384 
L 1825 4384 
Q 1516 4384 1395 4259 
Q 1275 4134 1275 3809 
L 1275 3500 
L 2222 3500 
L 2222 3053 
L 1275 3053 
L 1275 0 
L 697 0 
L 697 3053 
L 147 3053 
L 147 3500 
L 697 3500 
L 697 3744 
Q 697 4328 969 4595 
Q 1241 4863 1831 4863 
L 2375 4863 
z
" transform="scale(0.015625)"/>
     </defs>
     <use xlink:href="#DejaVuSans-42"/>
     <use xlink:href="#DejaVuSans-6f" transform="translate(68.603516 0)"/>
     <use xlink:href="#DejaVuSans-ee" transform="translate(129.785156 0)"/>
     <use xlink:href="#DejaVuSans-74" transform="translate(157.568359 0)"/>
     <use xlink:href="#DejaVuSans-65" transform="translate(196.777344 0)"/>
     <use xlink:href="#DejaVuSans-20" transform="translate(258.300781 0)"/>
     <use xlink:href="#DejaVuSans-64" transform="translate(290.087891 0)"/>
     <use xlink:href="#DejaVuSans-27" transform="translate(353.564453 0)"/>
     <use xlink:href="#DejaVuSans-45" transform="translate(381.054688 0)"/>
     <use xlink:href="#DejaVuSans-64" transform="translate(444.238281 0)"/>
     <use xlink:href="#DejaVuSans-67" transform="translate(507.714844 0)"/>
     <use xlink:href="#DejaVuSans-65" transform="translate(571.191406 0)"/>
     <use xlink:href="#DejaVuSans-77" transform="translate(632.714844 0)"/>
     <use xlink:href="#DejaVuSans-6f" transform="translate(714.501953 0)"/>
     <use xlink:href="#DejaVuSans-72" transform="translate(775.683594 0)"/>
     <use xlink:href="#DejaVuSans-74" transform="translate(816.796875 0)"/>
     <use xlink:href="#DejaVuSans-68" transform="translate(856.005859 0)"/>
     <use xlink:href="#DejaVuSans-20" transform="translate(919.384766 0)"/>
     <use xlink:href="#DejaVuSans-3a" transform="translate(951.171875 0)"/>
     <use xlink:href="#DejaVuSans-20" transform="translate(984.863281 0)"/>
     <use xlink:href="#DejaVuSans-67" transform="translate(1016.650391 0)"/>
     <use xlink:href="#DejaVuSans-61" transform="translate(1080.126953 0)"/>
     <use xlink:href="#DejaVuSans-69" transform="translate(1141.40625 0)"/>
     <use xlink:href="#DejaVuSans-6e" transform="translate(1169.189453 0)"/>
     <use xlink:href="#DejaVuSans-73" transform="translate(1232.568359 0)"/>
     <use xlink:href="#DejaVuSans-20" transform="translate(1284.667969 0)"/>
     <use xlink:href="#DejaVuSans-6d" transform="translate(1316.455078 0)"/>
     <use xlink:href="#DejaVuSans-75" transform="translate(1413.867188 0)"/>
     <use xlink:href="#DejaVuSans-74" transform="translate(1477.246094 0)"/>
     <use xlink:href="#DejaVuSans-75" transform="translate(1516.455078 0)"/>
     <use xlink:href="#DejaVuSans-65" transform="translate(1579.833984 0)"/>
     <use xlink:href="#DejaVuSans-6c" transform="translate(1641.357422 0)"/>
     <use xlink:href="#DejaVuSans-73" transform="translate(1669.140625 0)"/>
     <use xlink:href="#DejaVuSans-20" transform="translate(1721.240234 0)"/>
     <use xlink:href="#DejaVuSans-65" transform="translate(1753.027344 0)"/>
     <use xlink:href="#DejaVuSans-74" transform="translate(1814.550781 0)"/>
     <use xlink:href="#DejaVuSans-20" transform="translate(1853.759766 0)"/>
     <use xlink:href="#DejaVuSans-65" transform="translate(1885.546875 0)"/>
     <use xlink:href="#DejaVuSans-66" transform="translate(1947.070312 0)"/>
     <use xlink:href="#DejaVuSans-66" transform="translate(1982.275391 0)"/>
     <use xlink:href="#DejaVuSans-69" transform="translate(2017.480469 0)"/>
     <use xlink:href="#DejaVuSans-63" transform="translate(2045.263672 0)"/>
     <use xlink:href="#DejaVuSans-61" transform="translate(2100.244141 0)"/>
     <use xlink:href="#DejaVuSans-63" transform="translate(2161.523438 0)"/>
     <use xlink:href="#DejaVuSans-69" transform="translate(2216.503906 0)"/>
     <use xlink:href="#DejaVuSans-74" transform="translate(2244.287109 0)"/>
     <use xlink:href="#DejaVuSans-e9" transform="translate(2283.496094 0)"/>
     <use xlink:href="#DejaVuSans-20" transform="translate(2345.019531 0)"/>
     <use xlink:href="#DejaVuSans-64" transform="translate(2376.806641 0)"/>
     <use xlink:href="#DejaVuSans-61" transform="translate(2440.283203 0)"/>
     <use xlink:href="#DejaVuSans-6e" transform="translate(2501.5625 0)"/>
     <use xlink:href="#DejaVuSans-73" transform="translate(2564.941406 0)"/>
     <use xlink:href="#DejaVuSans-20" transform="translate(2617.041016 0)"/>
     <use xlink:href="#DejaVuSans-6c" transform="translate(2648.828125 0)"/>
     <use xlink:href="#DejaVuSans-65" transform="translate(2676.611328 0)"/>
     <use xlink:href="#DejaVuSans-20" transform="translate(2738.134766 0)"/>
     <use xlink:href="#DejaVuSans-6d" transform="translate(2769.921875 0)"/>
     <use xlink:href="#DejaVuSans-e9" transform="translate(2867.333984 0)"/>
     <use xlink:href="#DejaVuSans-6e" transform="translate(2928.857422 0)"/>
     <use xlink:href="#DejaVuSans-61" transform="translate(2992.236328 0)"/>
     <use xlink:href="#DejaVuSans-67" transform="translate(3053.515625 0)"/>
     <use xlink:href="#DejaVuSans-65" transform="translate(3116.992188 0)"/>
    </g>
   </g>
   <g id="PathCollection_1">
    <defs>
     <path id="m4ab95f86cc" d="M 0 3.354102 
C 0.889518 3.354102 1.742724 3.000693 2.371708 2.371708 
C 3.000693 1.742724 3.354102 0.889518 3.354102 0 
C 3.354102 -0.889518 3.000693 -1.742724 2.371708 -2.371708 
C 1.742724 -3.000693 0.889518 -3.354102 0 -3.354102 
C -0.889518 -3.354102 -1.742724 -3.000693 -2.371708 -2.371708 
C -3.000693 -1.742724 -3.354102 -0.889518 -3.354102 0 
C -3.354102 0.889518 -3.000693 1.742724 -2.371708 2.371708 
C -1.742724 3.000693 -0.889518 3.354102 0 3.354102 
z
" style="stroke: #000000"/>
    </defs>
    <g clip-path="url(#p451c966916)">
     <use xlink:href="#m4ab95f86cc" x="178.240237" y="274.788438" style="stroke: #000000"/>
    </g>
   </g>
   <g id="legend_1">
    <g id="patch_9">
     <path d="M 354.855937 378.372938 
L 460.358437 378.372938 
Q 461.958437 378.372938 461.958437 376.772938 
L 461.958437 342.345438 
Q 461.958437 340.745438 460.358437 340.745438 
L 354.855937 340.745438 
Q 353.255937 340.745438 353.255937 342.345438 
L 353.255937 376.772938 
Q 353.255937 378.372938 354.855937 378.372938 
z
" style="fill: #ffffff; opacity: 0.8; stroke: #cccccc; stroke-linejoin: miter"/>
    </g>
    <g id="line2d_28">
     <path d="M 356.455937 347.224188 
L 364.455937 347.224188 
L 372.455937 347.224188 
" style="fill: none; stroke: #1f77b4; stroke-width: 2; stroke-linecap: square"/>
    </g>
    <g id="text_18">
     <!-- indifférence de A -->
     <g transform="translate(378.855937 350.024188) scale(0.08 -0.08)">
      <use xlink:href="#DejaVuSans-69"/>
      <use xlink:href="#DejaVuSans-6e" transform="translate(27.783203 0)"/>
      <use xlink:href="#DejaVuSans-64" transform="translate(91.162109 0)"/>
      <use xlink:href="#DejaVuSans-69" transform="translate(154.638672 0)"/>
      <use xlink:href="#DejaVuSans-66" transform="translate(182.421875 0)"/>
      <use xlink:href="#DejaVuSans-66" transform="translate(217.626953 0)"/>
      <use xlink:href="#DejaVuSans-e9" transform="translate(252.832031 0)"/>
      <use xlink:href="#DejaVuSans-72" transform="translate(314.355469 0)"/>
      <use xlink:href="#DejaVuSans-65" transform="translate(353.21875 0)"/>
      <use xlink:href="#DejaVuSans-6e" transform="translate(414.742188 0)"/>
      <use xlink:href="#DejaVuSans-63" transform="translate(478.121094 0)"/>
      <use xlink:href="#DejaVuSans-65" transform="translate(533.101562 0)"/>
      <use xlink:href="#DejaVuSans-20" transform="translate(594.625 0)"/>
      <use xlink:href="#DejaVuSans-64" transform="translate(626.412109 0)"/>
      <use xlink:href="#DejaVuSans-65" transform="translate(689.888672 0)"/>
      <use xlink:href="#DejaVuSans-20" transform="translate(751.412109 0)"/>
      <use xlink:href="#DejaVuSans-41" transform="translate(783.199219 0)"/>
     </g>
    </g>
    <g id="line2d_29">
     <path d="M 356.455937 358.966688 
L 364.455937 358.966688 
L 372.455937 358.966688 
" style="fill: none; stroke: #d62728; stroke-width: 2; stroke-linecap: square"/>
    </g>
    <g id="text_19">
     <!-- indifférence de B -->
     <g transform="translate(378.855937 361.766688) scale(0.08 -0.08)">
      <use xlink:href="#DejaVuSans-69"/>
      <use xlink:href="#DejaVuSans-6e" transform="translate(27.783203 0)"/>
      <use xlink:href="#DejaVuSans-64" transform="translate(91.162109 0)"/>
      <use xlink:href="#DejaVuSans-69" transform="translate(154.638672 0)"/>
      <use xlink:href="#DejaVuSans-66" transform="translate(182.421875 0)"/>
      <use xlink:href="#DejaVuSans-66" transform="translate(217.626953 0)"/>
      <use xlink:href="#DejaVuSans-e9" transform="translate(252.832031 0)"/>
      <use xlink:href="#DejaVuSans-72" transform="translate(314.355469 0)"/>
      <use xlink:href="#DejaVuSans-65" transform="translate(353.21875 0)"/>
      <use xlink:href="#DejaVuSans-6e" transform="translate(414.742188 0)"/>
      <use xlink:href="#DejaVuSans-63" transform="translate(478.121094 0)"/>
      <use xlink:href="#DejaVuSans-65" transform="translate(533.101562 0)"/>
      <use xlink:href="#DejaVuSans-20" transform="translate(594.625 0)"/>
      <use xlink:href="#DejaVuSans-64" transform="translate(626.412109 0)"/>
      <use xlink:href="#DejaVuSans-65" transform="translate(689.888672 0)"/>
      <use xlink:href="#DejaVuSans-20" transform="translate(751.412109 0)"/>
      <use xlink:href="#DejaVuSans-42" transform="translate(783.199219 0)"/>
     </g>
    </g>
    <g id="line2d_30">
     <path d="M 356.455937 370.709188 
L 364.455937 370.709188 
L 372.455937 370.709188 
" style="fill: none; stroke-dasharray: 7.4,3.2; stroke-dashoffset: 0; stroke: #000000; stroke-width: 2"/>
    </g>
    <g id="text_20">
     <!-- courbe des contrats -->
     <g transform="translate(378.855937 373.509188) scale(0.08 -0.08)">
      <use xlink:href="#DejaVuSans-63"/>
      <use xlink:href="#DejaVuSans-6f" transform="translate(54.980469 0)"/>
      <use xlink:href="#DejaVuSans-75" transform="translate(116.162109 0)"/>
      <use xlink:href="#DejaVuSans-72" transform="translate(179.541016 0)"/>
      <use xlink:href="#DejaVuSans-62" transform="translate(220.654297 0)"/>
      <use xlink:href="#DejaVuSans-65" transform="translate(284.130859 0)"/>
      <use xlink:href="#DejaVuSans-20" transform="translate(345.654297 0)"/>
      <use xlink:href="#DejaVuSans-64" transform="translate(377.441406 0)"/>
      <use xlink:href="#DejaVuSans-65" transform="translate(440.917969 0)"/>
      <use xlink:href="#DejaVuSans-73" transform="translate(502.441406 0)"/>
      <use xlink:href="#DejaVuSans-20" transform="translate(554.541016 0)"/>
      <use xlink:href="#DejaVuSans-63" transform="translate(586.328125 0)"/>
      <use xlink:href="#DejaVuSans-6f" transform="translate(641.308594 0)"/>
      <use xlink:href="#DejaVuSans-6e" transform="translate(702.490234 0)"/>
      <use xlink:href="#DejaVuSans-74" transform="translate(765.869141 0)"/>
      <use xlink:href="#DejaVuSans-72" transform="translate(805.078125 0)"/>
      <use xlink:href="#DejaVuSans-61" transform="translate(846.191406 0)"/>
      <use xlink:href="#DejaVuSans-74" transform="translate(907.470703 0)"/>
      <use xlink:href="#DejaVuSans-73" transform="translate(946.679688 0)"/>
     </g>
    </g>
   </g>
  </g>
 </g>
 <defs>
  <clipPath id="p451c966916">
   <rect x="42.843438" y="23.757937" width="423.115" height="358.615"/>
  </clipPath>
 </defs>
</svg>
