<?xml version="1.0" encoding="utf-8" standalone="no"?>
<!DOCTYPE svg PUBLIC "-//W3C//DTD SVG 1.1//EN"
  "http://www.w3.org/Graphics/SVG/1.1/DTD/svg11.dtd">
<svg xmlns:xlink="http://www.w3.org/1999/xlink" width="521.917187pt" height="419.669219pt" viewBox="0 0 521.917187 419.669219" xmlns="http://www.w3.org/2000/svg" version="1.1">
 <metadata>
  <rdf:RDF xmlns:dc="http://purl.org/dc/elements/1.1/" xmlns:cc="http://creativecommons.org/ns#" xmlns:rdf="http://www.w3.org/1999/02/22-rdf-syntax-ns#">
   <cc:Work>
    <dc:type rdf:resource="http://purl.org/dc/dcmitype/StillImage"/>
    <dc:date>2026-05-18T02:22:06.647061</dc:date>
    <dc:format>image/svg+xml</dc:format>
    <dc:creator>
     <cc:Agent>
      <dc:title>Matplotlib v3.10.9, https://matplotlib.org/</dc:title>
     </cc:Agent>
    </dc:creator>
   </cc:Work>
  </rdf:RDF>
 </metadata>
 <defs>
  <style type="text/css">*{stroke-linejoin: round; stroke-linecap: butt}</style>
 </defs>
 <g id="figure_1">
  <g id="patch_1">
   <path d="M 0 419.669219 
L 521.917187 419.669219 
L 521.917187 0 
L 0 0 
z
" style="fill: #ffffff"/>
  </g>
  <g id="axes_1">
   <g id="patch_2">
    <path d="M 49.842188 379.713281 
L 514.717187 379.713281 
L 514.717187 21.998281 
L 49.842188 21.998281 
z
" style="fill: #ffffff"/>
   </g>
   <g id="matplotlib.axis_1">
    <g id="xtick_1">
     <g id="line2d_1">
      <path d="M 49.842188 379.713281 
L 49.842188 21.998281 
" clip-path="url(#p95ca387cea)" style="fill: none; stroke: #b0b0b0; stroke-opacity: 0.22; stroke-width: 0.8; stroke-linecap: square"/>
     </g>
     <g id="line2d_2">
      <defs>
       <path id="m88e4e1315b" d="M 0 0 
L 0 3.5 
" style="stroke: #000000; stroke-width: 0.8"/>
      </defs>
      <g>
       <use xlink:href="#m88e4e1315b" x="49.842188" y="379.713281" style="stroke: #000000; stroke-width: 0.8"/>
      </g>
     </g>
     <g id="text_1">
      <!-- 0 -->
      <g transform="translate(46.342813 395.071563) scale(0.11 -0.11)">
       <defs>
        <path id="DejaVuSans-30" d="M 2034 4250 
Q 1547 4250 1301 3770 
Q 1056 3291 1056 2328 
Q 1056 1369 1301 889 
Q 1547 409 2034 409 
Q 2525 409 2770 889 
Q 3016 1369 3016 2328 
Q 3016 3291 2770 3770 
Q 2525 4250 2034 4250 
z
M 2034 4750 
Q 2819 4750 3233 4129 
Q 3647 3509 3647 2328 
Q 3647 1150 3233 529 
Q 2819 -91 2034 -91 
Q 1250 -91 836 529 
Q 422 1150 422 2328 
Q 422 3509 836 4129 
Q 1250 4750 2034 4750 
z
" transform="scale(0.015625)"/>
       </defs>
       <use xlink:href="#DejaVuSans-30"/>
      </g>
     </g>
    </g>
    <g id="xtick_2">
     <g id="line2d_3">
      <path d="M 134.364915 379.713281 
L 134.364915 21.998281 
" clip-path="url(#p95ca387cea)" style="fill: none; stroke: #b0b0b0; stroke-opacity: 0.22; stroke-width: 0.8; stroke-linecap: square"/>
     </g>
     <g id="line2d_4">
      <g>
       <use xlink:href="#m88e4e1315b" x="134.364915" y="379.713281" style="stroke: #000000; stroke-width: 0.8"/>
      </g>
     </g>
     <g id="text_2">
      <!-- 20 -->
      <g transform="translate(127.366165 395.071563) scale(0.11 -0.11)">
       <defs>
        <path id="DejaVuSans-32" d="M 1228 531 
L 3431 531 
L 3431 0 
L 469 0 
L 469 531 
Q 828 903 1448 1529 
Q 2069 2156 2228 2338 
Q 2531 2678 2651 2914 
Q 2772 3150 2772 3378 
Q 2772 3750 2511 3984 
Q 2250 4219 1831 4219 
Q 1534 4219 1204 4116 
Q 875 4013 500 3803 
L 500 4441 
Q 881 4594 1212 4672 
Q 1544 4750 1819 4750 
Q 2544 4750 2975 4387 
Q 3406 4025 3406 3419 
Q 3406 3131 3298 2873 
Q 3191 2616 2906 2266 
Q 2828 2175 2409 1742 
Q 1991 1309 1228 531 
z
" transform="scale(0.015625)"/>
       </defs>
       <use xlink:href="#DejaVuSans-32"/>
       <use xlink:href="#DejaVuSans-30" transform="translate(63.623047 0)"/>
      </g>
     </g>
    </g>
    <g id="xtick_3">
     <g id="line2d_5">
      <path d="M 218.887642 379.713281 
L 218.887642 21.998281 
" clip-path="url(#p95ca387cea)" style="fill: none; stroke: #b0b0b0; stroke-opacity: 0.22; stroke-width: 0.8; stroke-linecap: square"/>
     </g>
     <g id="line2d_6">
      <g>
       <use xlink:href="#m88e4e1315b" x="218.887642" y="379.713281" style="stroke: #000000; stroke-width: 0.8"/>
      </g>
     </g>
     <g id="text_3">
      <!-- 40 -->
      <g transform="translate(211.888892 395.071563) scale(0.11 -0.11)">
       <defs>
        <path id="DejaVuSans-34" d="M 2419 4116 
L 825 1625 
L 2419 1625 
L 2419 4116 
z
M 2253 4666 
L 3047 4666 
L 3047 1625 
L 3713 1625 
L 3713 1100 
L 3047 1100 
L 3047 0 
L 2419 0 
L 2419 1100 
L 313 1100 
L 313 1709 
L 2253 4666 
z
" transform="scale(0.015625)"/>
       </defs>
       <use xlink:href="#DejaVuSans-34"/>
       <use xlink:href="#DejaVuSans-30" transform="translate(63.623047 0)"/>
      </g>
     </g>
    </g>
    <g id="xtick_4">
     <g id="line2d_7">
      <path d="M 303.410369 379.713281 
L 303.410369 21.998281 
" clip-path="url(#p95ca387cea)" style="fill: none; stroke: #b0b0b0; stroke-opacity: 0.22; stroke-width: 0.8; stroke-linecap: square"/>
     </g>
     <g id="line2d_8">
      <g>
       <use xlink:href="#m88e4e1315b" x="303.410369" y="379.713281" style="stroke: #000000; stroke-width: 0.8"/>
      </g>
     </g>
     <g id="text_4">
      <!-- 60 -->
      <g transform="translate(296.411619 395.071563) scale(0.11 -0.11)">
       <defs>
        <path id="DejaVuSans-36" d="M 2113 2584 
Q 1688 2584 1439 2293 
Q 1191 2003 1191 1497 
Q 1191 994 1439 701 
Q 1688 409 2113 409 
Q 2538 409 2786 701 
Q 3034 994 3034 1497 
Q 3034 2003 2786 2293 
Q 2538 2584 2113 2584 
z
M 3366 4563 
L 3366 3988 
Q 3128 4100 2886 4159 
Q 2644 4219 2406 4219 
Q 1781 4219 1451 3797 
Q 1122 3375 1075 2522 
Q 1259 2794 1537 2939 
Q 1816 3084 2150 3084 
Q 2853 3084 3261 2657 
Q 3669 2231 3669 1497 
Q 3669 778 3244 343 
Q 2819 -91 2113 -91 
Q 1303 -91 875 529 
Q 447 1150 447 2328 
Q 447 3434 972 4092 
Q 1497 4750 2381 4750 
Q 2619 4750 2861 4703 
Q 3103 4656 3366 4563 
z
" transform="scale(0.015625)"/>
       </defs>
       <use xlink:href="#DejaVuSans-36"/>
       <use xlink:href="#DejaVuSans-30" transform="translate(63.623047 0)"/>
      </g>
     </g>
    </g>
    <g id="xtick_5">
     <g id="line2d_9">
      <path d="M 387.933097 379.713281 
L 387.933097 21.998281 
" clip-path="url(#p95ca387cea)" style="fill: none; stroke: #b0b0b0; stroke-opacity: 0.22; stroke-width: 0.8; stroke-linecap: square"/>
     </g>
     <g id="line2d_10">
      <g>
       <use xlink:href="#m88e4e1315b" x="387.933097" y="379.713281" style="stroke: #000000; stroke-width: 0.8"/>
      </g>
     </g>
     <g id="text_5">
      <!-- 80 -->
      <g transform="translate(380.934347 395.071563) scale(0.11 -0.11)">
       <defs>
        <path id="DejaVuSans-38" d="M 2034 2216 
Q 1584 2216 1326 1975 
Q 1069 1734 1069 1313 
Q 1069 891 1326 650 
Q 1584 409 2034 409 
Q 2484 409 2743 651 
Q 3003 894 3003 1313 
Q 3003 1734 2745 1975 
Q 2488 2216 2034 2216 
z
M 1403 2484 
Q 997 2584 770 2862 
Q 544 3141 544 3541 
Q 544 4100 942 4425 
Q 1341 4750 2034 4750 
Q 2731 4750 3128 4425 
Q 3525 4100 3525 3541 
Q 3525 3141 3298 2862 
Q 3072 2584 2669 2484 
Q 3125 2378 3379 2068 
Q 3634 1759 3634 1313 
Q 3634 634 3220 271 
Q 2806 -91 2034 -91 
Q 1263 -91 848 271 
Q 434 634 434 1313 
Q 434 1759 690 2068 
Q 947 2378 1403 2484 
z
M 1172 3481 
Q 1172 3119 1398 2916 
Q 1625 2713 2034 2713 
Q 2441 2713 2670 2916 
Q 2900 3119 2900 3481 
Q 2900 3844 2670 4047 
Q 2441 4250 2034 4250 
Q 1625 4250 1398 4047 
Q 1172 3844 1172 3481 
z
" transform="scale(0.015625)"/>
       </defs>
       <use xlink:href="#DejaVuSans-38"/>
       <use xlink:href="#DejaVuSans-30" transform="translate(63.623047 0)"/>
      </g>
     </g>
    </g>
    <g id="xtick_6">
     <g id="line2d_11">
      <path d="M 472.455824 379.713281 
L 472.455824 21.998281 
" clip-path="url(#p95ca387cea)" style="fill: none; stroke: #b0b0b0; stroke-opacity: 0.22; stroke-width: 0.8; stroke-linecap: square"/>
     </g>
     <g id="line2d_12">
      <g>
       <use xlink:href="#m88e4e1315b" x="472.455824" y="379.713281" style="stroke: #000000; stroke-width: 0.8"/>
      </g>
     </g>
     <g id="text_6">
      <!-- 100 -->
      <g transform="translate(461.957699 395.071563) scale(0.11 -0.11)">
       <defs>
        <path id="DejaVuSans-31" d="M 794 531 
L 1825 531 
L 1825 4091 
L 703 3866 
L 703 4441 
L 1819 4666 
L 2450 4666 
L 2450 531 
L 3481 531 
L 3481 0 
L 794 0 
L 794 531 
z
" transform="scale(0.015625)"/>
       </defs>
       <use xlink:href="#DejaVuSans-31"/>
       <use xlink:href="#DejaVuSans-30" transform="translate(63.623047 0)"/>
       <use xlink:href="#DejaVuSans-30" transform="translate(127.246094 0)"/>
      </g>
     </g>
    </g>
    <g id="text_7">
     <!-- consommation présente $C_1$ -->
     <g transform="translate(207.204687 410.159219) scale(0.11 -0.11)">
      <defs>
       <path id="DejaVuSans-63" d="M 3122 3366 
L 3122 2828 
Q 2878 2963 2633 3030 
Q 2388 3097 2138 3097 
Q 1578 3097 1268 2742 
Q 959 2388 959 1747 
Q 959 1106 1268 751 
Q 1578 397 2138 397 
Q 2388 397 2633 464 
Q 2878 531 3122 666 
L 3122 134 
Q 2881 22 2623 -34 
Q 2366 -91 2075 -91 
Q 1284 -91 818 406 
Q 353 903 353 1747 
Q 353 2603 823 3093 
Q 1294 3584 2113 3584 
Q 2378 3584 2631 3529 
Q 2884 3475 3122 3366 
z
" transform="scale(0.015625)"/>
       <path id="DejaVuSans-6f" d="M 1959 3097 
Q 1497 3097 1228 2736 
Q 959 2375 959 1747 
Q 959 1119 1226 758 
Q 1494 397 1959 397 
Q 2419 397 2687 759 
Q 2956 1122 2956 1747 
Q 2956 2369 2687 2733 
Q 2419 3097 1959 3097 
z
M 1959 3584 
Q 2709 3584 3137 3096 
Q 3566 2609 3566 1747 
Q 3566 888 3137 398 
Q 2709 -91 1959 -91 
Q 1206 -91 779 398 
Q 353 888 353 1747 
Q 353 2609 779 3096 
Q 1206 3584 1959 3584 
z
" transform="scale(0.015625)"/>
       <path id="DejaVuSans-6e" d="M 3513 2113 
L 3513 0 
L 2938 0 
L 2938 2094 
Q 2938 2591 2744 2837 
Q 2550 3084 2163 3084 
Q 1697 3084 1428 2787 
Q 1159 2491 1159 1978 
L 1159 0 
L 581 0 
L 581 3500 
L 1159 3500 
L 1159 2956 
Q 1366 3272 1645 3428 
Q 1925 3584 2291 3584 
Q 2894 3584 3203 3211 
Q 3513 2838 3513 2113 
z
" transform="scale(0.015625)"/>
       <path id="DejaVuSans-73" d="M 2834 3397 
L 2834 2853 
Q 2591 2978 2328 3040 
Q 2066 3103 1784 3103 
Q 1356 3103 1142 2972 
Q 928 2841 928 2578 
Q 928 2378 1081 2264 
Q 1234 2150 1697 2047 
L 1894 2003 
Q 2506 1872 2764 1633 
Q 3022 1394 3022 966 
Q 3022 478 2636 193 
Q 2250 -91 1575 -91 
Q 1294 -91 989 -36 
Q 684 19 347 128 
L 347 722 
Q 666 556 975 473 
Q 1284 391 1588 391 
Q 1994 391 2212 530 
Q 2431 669 2431 922 
Q 2431 1156 2273 1281 
Q 2116 1406 1581 1522 
L 1381 1569 
Q 847 1681 609 1914 
Q 372 2147 372 2553 
Q 372 3047 722 3315 
Q 1072 3584 1716 3584 
Q 2034 3584 2315 3537 
Q 2597 3491 2834 3397 
z
" transform="scale(0.015625)"/>
       <path id="DejaVuSans-6d" d="M 3328 2828 
Q 3544 3216 3844 3400 
Q 4144 3584 4550 3584 
Q 5097 3584 5394 3201 
Q 5691 2819 5691 2113 
L 5691 0 
L 5113 0 
L 5113 2094 
Q 5113 2597 4934 2840 
Q 4756 3084 4391 3084 
Q 3944 3084 3684 2787 
Q 3425 2491 3425 1978 
L 3425 0 
L 2847 0 
L 2847 2094 
Q 2847 2600 2669 2842 
Q 2491 3084 2119 3084 
Q 1678 3084 1418 2786 
Q 1159 2488 1159 1978 
L 1159 0 
L 581 0 
L 581 3500 
L 1159 3500 
L 1159 2956 
Q 1356 3278 1631 3431 
Q 1906 3584 2284 3584 
Q 2666 3584 2933 3390 
Q 3200 3197 3328 2828 
z
" transform="scale(0.015625)"/>
       <path id="DejaVuSans-61" d="M 2194 1759 
Q 1497 1759 1228 1600 
Q 959 1441 959 1056 
Q 959 750 1161 570 
Q 1363 391 1709 391 
Q 2188 391 2477 730 
Q 2766 1069 2766 1631 
L 2766 1759 
L 2194 1759 
z
M 3341 1997 
L 3341 0 
L 2766 0 
L 2766 531 
Q 2569 213 2275 61 
Q 1981 -91 1556 -91 
Q 1019 -91 701 211 
Q 384 513 384 1019 
Q 384 1609 779 1909 
Q 1175 2209 1959 2209 
L 2766 2209 
L 2766 2266 
Q 2766 2663 2505 2880 
Q 2244 3097 1772 3097 
Q 1472 3097 1187 3025 
Q 903 2953 641 2809 
L 641 3341 
Q 956 3463 1253 3523 
Q 1550 3584 1831 3584 
Q 2591 3584 2966 3190 
Q 3341 2797 3341 1997 
z
" transform="scale(0.015625)"/>
       <path id="DejaVuSans-74" d="M 1172 4494 
L 1172 3500 
L 2356 3500 
L 2356 3053 
L 1172 3053 
L 1172 1153 
Q 1172 725 1289 603 
Q 1406 481 1766 481 
L 2356 481 
L 2356 0 
L 1766 0 
Q 1100 0 847 248 
Q 594 497 594 1153 
L 594 3053 
L 172 3053 
L 172 3500 
L 594 3500 
L 594 4494 
L 1172 4494 
z
" transform="scale(0.015625)"/>
       <path id="DejaVuSans-69" d="M 603 3500 
L 1178 3500 
L 1178 0 
L 603 0 
L 603 3500 
z
M 603 4863 
L 1178 4863 
L 1178 4134 
L 603 4134 
L 603 4863 
z
" transform="scale(0.015625)"/>
       <path id="DejaVuSans-20" transform="scale(0.015625)"/>
       <path id="DejaVuSans-70" d="M 1159 525 
L 1159 -1331 
L 581 -1331 
L 581 3500 
L 1159 3500 
L 1159 2969 
Q 1341 3281 1617 3432 
Q 1894 3584 2278 3584 
Q 2916 3584 3314 3078 
Q 3713 2572 3713 1747 
Q 3713 922 3314 415 
Q 2916 -91 2278 -91 
Q 1894 -91 1617 61 
Q 1341 213 1159 525 
z
M 3116 1747 
Q 3116 2381 2855 2742 
Q 2594 3103 2138 3103 
Q 1681 3103 1420 2742 
Q 1159 2381 1159 1747 
Q 1159 1113 1420 752 
Q 1681 391 2138 391 
Q 2594 391 2855 752 
Q 3116 1113 3116 1747 
z
" transform="scale(0.015625)"/>
       <path id="DejaVuSans-72" d="M 2631 2963 
Q 2534 3019 2420 3045 
Q 2306 3072 2169 3072 
Q 1681 3072 1420 2755 
Q 1159 2438 1159 1844 
L 1159 0 
L 581 0 
L 581 3500 
L 1159 3500 
L 1159 2956 
Q 1341 3275 1631 3429 
Q 1922 3584 2338 3584 
Q 2397 3584 2469 3576 
Q 2541 3569 2628 3553 
L 2631 2963 
z
" transform="scale(0.015625)"/>
       <path id="DejaVuSans-e9" d="M 3597 1894 
L 3597 1613 
L 953 1613 
Q 991 1019 1311 708 
Q 1631 397 2203 397 
Q 2534 397 2845 478 
Q 3156 559 3463 722 
L 3463 178 
Q 3153 47 2828 -22 
Q 2503 -91 2169 -91 
Q 1331 -91 842 396 
Q 353 884 353 1716 
Q 353 2575 817 3079 
Q 1281 3584 2069 3584 
Q 2775 3584 3186 3129 
Q 3597 2675 3597 1894 
z
M 3022 2063 
Q 3016 2534 2758 2815 
Q 2500 3097 2075 3097 
Q 1594 3097 1305 2825 
Q 1016 2553 972 2059 
L 3022 2063 
z
M 2469 5119 
L 3091 5119 
L 2072 3944 
L 1594 3944 
L 2469 5119 
z
" transform="scale(0.015625)"/>
       <path id="DejaVuSans-65" d="M 3597 1894 
L 3597 1613 
L 953 1613 
Q 991 1019 1311 708 
Q 1631 397 2203 397 
Q 2534 397 2845 478 
Q 3156 559 3463 722 
L 3463 178 
Q 3153 47 2828 -22 
Q 2503 -91 2169 -91 
Q 1331 -91 842 396 
Q 353 884 353 1716 
Q 353 2575 817 3079 
Q 1281 3584 2069 3584 
Q 2775 3584 3186 3129 
Q 3597 2675 3597 1894 
z
M 3022 2063 
Q 3016 2534 2758 2815 
Q 2500 3097 2075 3097 
Q 1594 3097 1305 2825 
Q 1016 2553 972 2059 
L 3022 2063 
z
" transform="scale(0.015625)"/>
       <path id="DejaVuSans-Oblique-43" d="M 4447 4306 
L 4319 3641 
Q 4019 3944 3683 4091 
Q 3347 4238 2956 4238 
Q 2422 4238 2017 3981 
Q 1613 3725 1319 3200 
Q 1131 2863 1032 2486 
Q 934 2109 934 1728 
Q 934 1091 1264 756 
Q 1594 422 2222 422 
Q 2656 422 3056 561 
Q 3456 700 3834 978 
L 3688 231 
Q 3316 72 2936 -9 
Q 2556 -91 2175 -91 
Q 1278 -91 773 396 
Q 269 884 269 1753 
Q 269 2309 461 2846 
Q 653 3384 1013 3828 
Q 1394 4300 1883 4525 
Q 2372 4750 3022 4750 
Q 3422 4750 3780 4639 
Q 4138 4528 4447 4306 
z
" transform="scale(0.015625)"/>
      </defs>
      <use xlink:href="#DejaVuSans-63" transform="translate(0 0.015625)"/>
      <use xlink:href="#DejaVuSans-6f" transform="translate(54.980469 0.015625)"/>
      <use xlink:href="#DejaVuSans-6e" transform="translate(116.162109 0.015625)"/>
      <use xlink:href="#DejaVuSans-73" transform="translate(179.541016 0.015625)"/>
      <use xlink:href="#DejaVuSans-6f" transform="translate(231.640625 0.015625)"/>
      <use xlink:href="#DejaVuSans-6d" transform="translate(292.822266 0.015625)"/>
      <use xlink:href="#DejaVuSans-6d" transform="translate(390.234375 0.015625)"/>
      <use xlink:href="#DejaVuSans-61" transform="translate(487.646484 0.015625)"/>
      <use xlink:href="#DejaVuSans-74" transform="translate(548.925781 0.015625)"/>
      <use xlink:href="#DejaVuSans-69" transform="translate(588.134766 0.015625)"/>
      <use xlink:href="#DejaVuSans-6f" transform="translate(615.917969 0.015625)"/>
      <use xlink:href="#DejaVuSans-6e" transform="translate(677.099609 0.015625)"/>
      <use xlink:href="#DejaVuSans-20" transform="translate(740.478516 0.015625)"/>
      <use xlink:href="#DejaVuSans-70" transform="translate(772.265625 0.015625)"/>
      <use xlink:href="#DejaVuSans-72" transform="translate(835.742188 0.015625)"/>
      <use xlink:href="#DejaVuSans-e9" transform="translate(876.855469 0.015625)"/>
      <use xlink:href="#DejaVuSans-73" transform="translate(938.378906 0.015625)"/>
      <use xlink:href="#DejaVuSans-65" transform="translate(990.478516 0.015625)"/>
      <use xlink:href="#DejaVuSans-6e" transform="translate(1052.001953 0.015625)"/>
      <use xlink:href="#DejaVuSans-74" transform="translate(1115.380859 0.015625)"/>
      <use xlink:href="#DejaVuSans-65" transform="translate(1154.589844 0.015625)"/>
      <use xlink:href="#DejaVuSans-20" transform="translate(1216.113281 0.015625)"/>
      <use xlink:href="#DejaVuSans-Oblique-43" transform="translate(1247.900391 0.015625)"/>
      <use xlink:href="#DejaVuSans-31" transform="translate(1317.724609 -16.390625) scale(0.7)"/>
     </g>
    </g>
   </g>
   <g id="matplotlib.axis_2">
    <g id="ytick_1">
     <g id="line2d_13">
      <path d="M 49.842188 379.713281 
L 514.717187 379.713281 
" clip-path="url(#p95ca387cea)" style="fill: none; stroke: #b0b0b0; stroke-opacity: 0.22; stroke-width: 0.8; stroke-linecap: square"/>
     </g>
     <g id="line2d_14">
      <defs>
       <path id="ma36a32a5e1" d="M 0 0 
L -3.5 0 
" style="stroke: #000000; stroke-width: 0.8"/>
      </defs>
      <g>
       <use xlink:href="#ma36a32a5e1" x="49.842188" y="379.713281" style="stroke: #000000; stroke-width: 0.8"/>
      </g>
     </g>
     <g id="text_8">
      <!-- 0 -->
      <g transform="translate(35.843438 383.892422) scale(0.11 -0.11)">
       <use xlink:href="#DejaVuSans-30"/>
      </g>
     </g>
    </g>
    <g id="ytick_2">
     <g id="line2d_15">
      <path d="M 49.842188 337.629164 
L 514.717187 337.629164 
" clip-path="url(#p95ca387cea)" style="fill: none; stroke: #b0b0b0; stroke-opacity: 0.22; stroke-width: 0.8; stroke-linecap: square"/>
     </g>
     <g id="line2d_16">
      <g>
       <use xlink:href="#ma36a32a5e1" x="49.842188" y="337.629164" style="stroke: #000000; stroke-width: 0.8"/>
      </g>
     </g>
     <g id="text_9">
      <!-- 20 -->
      <g transform="translate(28.844688 341.808304) scale(0.11 -0.11)">
       <use xlink:href="#DejaVuSans-32"/>
       <use xlink:href="#DejaVuSans-30" transform="translate(63.623047 0)"/>
      </g>
     </g>
    </g>
    <g id="ytick_3">
     <g id="line2d_17">
      <path d="M 49.842188 295.545046 
L 514.717187 295.545046 
" clip-path="url(#p95ca387cea)" style="fill: none; stroke: #b0b0b0; stroke-opacity: 0.22; stroke-width: 0.8; stroke-linecap: square"/>
     </g>
     <g id="line2d_18">
      <g>
       <use xlink:href="#ma36a32a5e1" x="49.842188" y="295.545046" style="stroke: #000000; stroke-width: 0.8"/>
      </g>
     </g>
     <g id="text_10">
      <!-- 40 -->
      <g transform="translate(28.844688 299.724187) scale(0.11 -0.11)">
       <use xlink:href="#DejaVuSans-34"/>
       <use xlink:href="#DejaVuSans-30" transform="translate(63.623047 0)"/>
      </g>
     </g>
    </g>
    <g id="ytick_4">
     <g id="line2d_19">
      <path d="M 49.842188 253.460928 
L 514.717187 253.460928 
" clip-path="url(#p95ca387cea)" style="fill: none; stroke: #b0b0b0; stroke-opacity: 0.22; stroke-width: 0.8; stroke-linecap: square"/>
     </g>
     <g id="line2d_20">
      <g>
       <use xlink:href="#ma36a32a5e1" x="49.842188" y="253.460928" style="stroke: #000000; stroke-width: 0.8"/>
      </g>
     </g>
     <g id="text_11">
      <!-- 60 -->
      <g transform="translate(28.844688 257.640069) scale(0.11 -0.11)">
       <use xlink:href="#DejaVuSans-36"/>
       <use xlink:href="#DejaVuSans-30" transform="translate(63.623047 0)"/>
      </g>
     </g>
    </g>
    <g id="ytick_5">
     <g id="line2d_21">
      <path d="M 49.842188 211.376811 
L 514.717187 211.376811 
" clip-path="url(#p95ca387cea)" style="fill: none; stroke: #b0b0b0; stroke-opacity: 0.22; stroke-width: 0.8; stroke-linecap: square"/>
     </g>
     <g id="line2d_22">
      <g>
       <use xlink:href="#ma36a32a5e1" x="49.842188" y="211.376811" style="stroke: #000000; stroke-width: 0.8"/>
      </g>
     </g>
     <g id="text_12">
      <!-- 80 -->
      <g transform="translate(28.844688 215.555951) scale(0.11 -0.11)">
       <use xlink:href="#DejaVuSans-38"/>
       <use xlink:href="#DejaVuSans-30" transform="translate(63.623047 0)"/>
      </g>
     </g>
    </g>
    <g id="ytick_6">
     <g id="line2d_23">
      <path d="M 49.842188 169.292693 
L 514.717187 169.292693 
" clip-path="url(#p95ca387cea)" style="fill: none; stroke: #b0b0b0; stroke-opacity: 0.22; stroke-width: 0.8; stroke-linecap: square"/>
     </g>
     <g id="line2d_24">
      <g>
       <use xlink:href="#ma36a32a5e1" x="49.842188" y="169.292693" style="stroke: #000000; stroke-width: 0.8"/>
      </g>
     </g>
     <g id="text_13">
      <!-- 100 -->
      <g transform="translate(21.845938 173.471834) scale(0.11 -0.11)">
       <use xlink:href="#DejaVuSans-31"/>
       <use xlink:href="#DejaVuSans-30" transform="translate(63.623047 0)"/>
       <use xlink:href="#DejaVuSans-30" transform="translate(127.246094 0)"/>
      </g>
     </g>
    </g>
    <g id="ytick_7">
     <g id="line2d_25">
      <path d="M 49.842188 127.208575 
L 514.717187 127.208575 
" clip-path="url(#p95ca387cea)" style="fill: none; stroke: #b0b0b0; stroke-opacity: 0.22; stroke-width: 0.8; stroke-linecap: square"/>
     </g>
     <g id="line2d_26">
      <g>
       <use xlink:href="#ma36a32a5e1" x="49.842188" y="127.208575" style="stroke: #000000; stroke-width: 0.8"/>
      </g>
     </g>
     <g id="text_14">
      <!-- 120 -->
      <g transform="translate(21.845938 131.387716) scale(0.11 -0.11)">
       <use xlink:href="#DejaVuSans-31"/>
       <use xlink:href="#DejaVuSans-32" transform="translate(63.623047 0)"/>
       <use xlink:href="#DejaVuSans-30" transform="translate(127.246094 0)"/>
      </g>
     </g>
    </g>
    <g id="ytick_8">
     <g id="line2d_27">
      <path d="M 49.842188 85.124458 
L 514.717187 85.124458 
" clip-path="url(#p95ca387cea)" style="fill: none; stroke: #b0b0b0; stroke-opacity: 0.22; stroke-width: 0.8; stroke-linecap: square"/>
     </g>
     <g id="line2d_28">
      <g>
       <use xlink:href="#ma36a32a5e1" x="49.842188" y="85.124458" style="stroke: #000000; stroke-width: 0.8"/>
      </g>
     </g>
     <g id="text_15">
      <!-- 140 -->
      <g transform="translate(21.845938 89.303598) scale(0.11 -0.11)">
       <use xlink:href="#DejaVuSans-31"/>
       <use xlink:href="#DejaVuSans-34" transform="translate(63.623047 0)"/>
       <use xlink:href="#DejaVuSans-30" transform="translate(127.246094 0)"/>
      </g>
     </g>
    </g>
    <g id="ytick_9">
     <g id="line2d_29">
      <path d="M 49.842188 43.04034 
L 514.717187 43.04034 
" clip-path="url(#p95ca387cea)" style="fill: none; stroke: #b0b0b0; stroke-opacity: 0.22; stroke-width: 0.8; stroke-linecap: square"/>
     </g>
     <g id="line2d_30">
      <g>
       <use xlink:href="#ma36a32a5e1" x="49.842188" y="43.04034" style="stroke: #000000; stroke-width: 0.8"/>
      </g>
     </g>
     <g id="text_16">
      <!-- 160 -->
      <g transform="translate(21.845938 47.219481) scale(0.11 -0.11)">
       <use xlink:href="#DejaVuSans-31"/>
       <use xlink:href="#DejaVuSans-36" transform="translate(63.623047 0)"/>
       <use xlink:href="#DejaVuSans-30" transform="translate(127.246094 0)"/>
      </g>
     </g>
    </g>
    <g id="text_17">
     <!-- consommation future $C_2$ -->
     <g transform="translate(15.558281 268.230781) rotate(-90) scale(0.11 -0.11)">
      <defs>
       <path id="DejaVuSans-66" d="M 2375 4863 
L 2375 4384 
L 1825 4384 
Q 1516 4384 1395 4259 
Q 1275 4134 1275 3809 
L 1275 3500 
L 2222 3500 
L 2222 3053 
L 1275 3053 
L 1275 0 
L 697 0 
L 697 3053 
L 147 3053 
L 147 3500 
L 697 3500 
L 697 3744 
Q 697 4328 969 4595 
Q 1241 4863 1831 4863 
L 2375 4863 
z
" transform="scale(0.015625)"/>
       <path id="DejaVuSans-75" d="M 544 1381 
L 544 3500 
L 1119 3500 
L 1119 1403 
Q 1119 906 1312 657 
Q 1506 409 1894 409 
Q 2359 409 2629 706 
Q 2900 1003 2900 1516 
L 2900 3500 
L 3475 3500 
L 3475 0 
L 2900 0 
L 2900 538 
Q 2691 219 2414 64 
Q 2138 -91 1772 -91 
Q 1169 -91 856 284 
Q 544 659 544 1381 
z
M 1991 3584 
L 1991 3584 
z
" transform="scale(0.015625)"/>
      </defs>
      <use xlink:href="#DejaVuSans-63" transform="translate(0 0.015625)"/>
      <use xlink:href="#DejaVuSans-6f" transform="translate(54.980469 0.015625)"/>
      <use xlink:href="#DejaVuSans-6e" transform="translate(116.162109 0.015625)"/>
      <use xlink:href="#DejaVuSans-73" transform="translate(179.541016 0.015625)"/>
      <use xlink:href="#DejaVuSans-6f" transform="translate(231.640625 0.015625)"/>
      <use xlink:href="#DejaVuSans-6d" transform="translate(292.822266 0.015625)"/>
      <use xlink:href="#DejaVuSans-6d" transform="translate(390.234375 0.015625)"/>
      <use xlink:href="#DejaVuSans-61" transform="translate(487.646484 0.015625)"/>
      <use xlink:href="#DejaVuSans-74" transform="translate(548.925781 0.015625)"/>
      <use xlink:href="#DejaVuSans-69" transform="translate(588.134766 0.015625)"/>
      <use xlink:href="#DejaVuSans-6f" transform="translate(615.917969 0.015625)"/>
      <use xlink:href="#DejaVuSans-6e" transform="translate(677.099609 0.015625)"/>
      <use xlink:href="#DejaVuSans-20" transform="translate(740.478516 0.015625)"/>
      <use xlink:href="#DejaVuSans-66" transform="translate(772.265625 0.015625)"/>
      <use xlink:href="#DejaVuSans-75" transform="translate(807.470703 0.015625)"/>
      <use xlink:href="#DejaVuSans-74" transform="translate(870.849609 0.015625)"/>
      <use xlink:href="#DejaVuSans-75" transform="translate(910.058594 0.015625)"/>
      <use xlink:href="#DejaVuSans-72" transform="translate(973.4375 0.015625)"/>
      <use xlink:href="#DejaVuSans-65" transform="translate(1014.550781 0.015625)"/>
      <use xlink:href="#DejaVuSans-20" transform="translate(1076.074219 0.015625)"/>
      <use xlink:href="#DejaVuSans-Oblique-43" transform="translate(1107.861328 0.015625)"/>
      <use xlink:href="#DejaVuSans-32" transform="translate(1177.685547 -16.390625) scale(0.7)"/>
     </g>
    </g>
   </g>
   <g id="line2d_31">
    <path d="M 51.955256 168.293195 
L 456.350818 379.710438 
L 456.350818 379.710438 
" clip-path="url(#p95ca387cea)" style="fill: none; stroke-dasharray: 8.88,3.84; stroke-dashoffset: 0; stroke: #595959; stroke-width: 2.4"/>
   </g>
   <g id="line2d_32">
    <path d="M 51.955256 88.280767 
L 246.973047 379.580584 
L 246.973047 379.580584 
" clip-path="url(#p95ca387cea)" style="fill: none; stroke: #d62728; stroke-width: 3.2; stroke-linecap: square"/>
   </g>
   <g id="line2d_33">
    <path d="M 77.895864 22.621093 
L 316.920045 379.653648 
L 316.920045 379.653648 
" clip-path="url(#p95ca387cea)" style="fill: none; stroke-dasharray: 7.4,3.2; stroke-dashoffset: 0; stroke: #2ca02c; stroke-width: 2"/>
   </g>
   <g id="line2d_34">
    <path d="M 143.673837 23.437897 
L 146.453188 38.701035 
L 149.695764 55.17614 
L 152.93834 70.366105 
L 156.180916 84.407025 
L 159.423492 97.417009 
L 162.666068 109.499004 
L 165.908644 120.743105 
L 169.15122 131.228466 
L 172.393796 141.02488 
L 175.636373 150.194096 
L 179.342174 159.975235 
L 183.047975 169.08087 
L 186.753776 177.574554 
L 190.459578 185.512357 
L 194.165379 192.94391 
L 197.87118 199.91329 
L 202.040207 207.25012 
L 206.209233 214.101207 
L 210.378259 220.510411 
L 214.547286 226.516628 
L 218.716312 232.15446 
L 223.348564 238.024102 
L 227.980815 243.514667 
L 232.613067 248.659565 
L 237.245318 253.488514 
L 242.340795 258.466993 
L 247.436272 263.126601 
L 252.531749 267.495218 
L 258.090451 271.958199 
L 263.649152 276.133004 
L 269.207854 280.045026 
L 275.229781 284.012644 
L 281.251708 287.723834 
L 287.736861 291.459613 
L 294.222013 294.949208 
L 301.17039 298.439961 
L 308.581993 301.906944 
L 315.993595 305.134258 
L 323.868423 308.325871 
L 332.206476 311.464455 
L 341.007754 314.535462 
L 350.272257 317.526977 
L 359.999985 320.429515 
L 370.190939 323.235804 
L 380.845117 325.940551 
L 392.425746 328.643962 
L 404.4696 331.22337 
L 417.439905 333.766972 
L 430.873434 336.175233 
L 445.233414 338.525414 
L 460.519844 340.80355 
L 477.19595 343.058676 
L 494.798506 345.212115 
L 513.790737 347.308797 
L 514.717187 347.405617 
L 514.717187 347.405617 
" clip-path="url(#p95ca387cea)" style="fill: none; stroke-dasharray: 14.08,3.52,2.2,3.52; stroke-dashoffset: 0; stroke: #616161; stroke-width: 2.2"/>
   </g>
   <g id="line2d_35">
    <path d="M 106.615824 25.137971 
L 108.93195 45.779621 
L 111.248076 64.493447 
L 113.564202 81.522425 
L 115.880327 97.071529 
L 118.196453 111.314752 
L 120.975804 126.890486 
L 123.755155 141.015927 
L 126.534506 153.873334 
L 129.313857 165.616539 
L 132.093208 176.376183 
L 134.872559 186.263853 
L 137.65191 195.375371 
L 140.431261 203.793434 
L 143.210612 211.589743 
L 146.453188 219.98247 
L 149.695764 227.699442 
L 152.93834 234.814452 
L 156.180916 241.391246 
L 159.423492 247.485149 
L 162.666068 253.144379 
L 166.371869 259.133714 
L 170.077671 264.665146 
L 173.783472 269.786231 
L 177.489273 274.538357 
L 181.195074 278.957696 
L 185.364101 283.571032 
L 189.533127 287.842755 
L 193.702154 291.807258 
L 198.334405 295.888385 
L 202.966657 299.66322 
L 207.598908 303.163006 
L 212.694385 306.727522 
L 217.789862 310.023745 
L 223.348564 313.34579 
L 228.907266 316.412041 
L 234.929193 319.476096 
L 241.414345 322.50881 
L 247.899497 325.295322 
L 254.847874 328.038375 
L 262.259477 330.719183 
L 270.134305 333.322666 
L 278.472357 335.837157 
L 287.273635 338.254054 
L 296.538139 340.567449 
L 306.729092 342.873621 
L 317.383271 345.052141 
L 328.9639 347.186721 
L 341.470979 349.256573 
L 354.904508 351.246019 
L 369.264488 353.143944 
L 385.014144 354.9945 
L 402.153474 356.77617 
L 420.682481 358.47359 
L 441.064388 360.1116 
L 463.299195 361.67135 
L 487.850128 363.166802 
L 514.717187 364.580308 
L 514.717187 364.580308 
" clip-path="url(#p95ca387cea)" style="fill: none; stroke-dasharray: 2.8,4.62; stroke-dashoffset: 0; stroke: #d62728; stroke-width: 2.8"/>
   </g>
   <g id="patch_3">
    <path d="M 49.842188 379.713281 
L 49.842188 21.998281 
" style="fill: none; stroke: #000000; stroke-width: 0.8; stroke-linejoin: miter; stroke-linecap: square"/>
   </g>
   <g id="patch_4">
    <path d="M 49.842188 379.713281 
L 514.717187 379.713281 
" style="fill: none; stroke: #000000; stroke-width: 0.8; stroke-linejoin: miter; stroke-linecap: square"/>
   </g>
   <g id="patch_5">
    <path d="M 82.07027 200.877258 
Q 107.23611 205.929975 130.867329 210.674576 
" style="fill: none; stroke: #000000; stroke-width: 1.4; stroke-linecap: round"/>
    <path d="M 127.762654 208.256106 
L 130.867329 210.674576 
L 127.069748 211.707234 
" style="fill: none; stroke: #000000; stroke-width: 1.4; stroke-linecap: round"/>
   </g>
   <g id="text_18">
    <g id="patch_6">
     <path d="M 26.364915 201.142936 
L 78.71804 201.142936 
Q 80.65404 201.142936 80.65404 199.206936 
L 80.65404 190.690186 
Q 80.65404 188.754186 78.71804 188.754186 
L 26.364915 188.754186 
Q 24.428915 188.754186 24.428915 190.690186 
L 24.428915 199.206936 
Q 24.428915 201.142936 26.364915 201.142936 
z
" style="fill: #ffffff; opacity: 0.9"/>
    </g>
    <!-- A (dotation) -->
    <g transform="translate(26.364915 197.376811) scale(0.088 -0.088)">
     <defs>
      <path id="DejaVuSans-41" d="M 2188 4044 
L 1331 1722 
L 3047 1722 
L 2188 4044 
z
M 1831 4666 
L 2547 4666 
L 4325 0 
L 3669 0 
L 3244 1197 
L 1141 1197 
L 716 0 
L 50 0 
L 1831 4666 
z
" transform="scale(0.015625)"/>
      <path id="DejaVuSans-28" d="M 1984 4856 
Q 1566 4138 1362 3434 
Q 1159 2731 1159 2009 
Q 1159 1288 1364 580 
Q 1569 -128 1984 -844 
L 1484 -844 
Q 1016 -109 783 600 
Q 550 1309 550 2009 
Q 550 2706 781 3412 
Q 1013 4119 1484 4856 
L 1984 4856 
z
" transform="scale(0.015625)"/>
      <path id="DejaVuSans-64" d="M 2906 2969 
L 2906 4863 
L 3481 4863 
L 3481 0 
L 2906 0 
L 2906 525 
Q 2725 213 2448 61 
Q 2172 -91 1784 -91 
Q 1150 -91 751 415 
Q 353 922 353 1747 
Q 353 2572 751 3078 
Q 1150 3584 1784 3584 
Q 2172 3584 2448 3432 
Q 2725 3281 2906 2969 
z
M 947 1747 
Q 947 1113 1208 752 
Q 1469 391 1925 391 
Q 2381 391 2643 752 
Q 2906 1113 2906 1747 
Q 2906 2381 2643 2742 
Q 2381 3103 1925 3103 
Q 1469 3103 1208 2742 
Q 947 2381 947 1747 
z
" transform="scale(0.015625)"/>
      <path id="DejaVuSans-29" d="M 513 4856 
L 1013 4856 
Q 1481 4119 1714 3412 
Q 1947 2706 1947 2009 
Q 1947 1309 1714 600 
Q 1481 -109 1013 -844 
L 513 -844 
Q 928 -128 1133 580 
Q 1338 1288 1338 2009 
Q 1338 2731 1133 3434 
Q 928 4138 513 4856 
z
" transform="scale(0.015625)"/>
     </defs>
     <use xlink:href="#DejaVuSans-41"/>
     <use xlink:href="#DejaVuSans-20" transform="translate(68.408203 0)"/>
     <use xlink:href="#DejaVuSans-28" transform="translate(100.195312 0)"/>
     <use xlink:href="#DejaVuSans-64" transform="translate(139.208984 0)"/>
     <use xlink:href="#DejaVuSans-6f" transform="translate(202.685547 0)"/>
     <use xlink:href="#DejaVuSans-74" transform="translate(263.867188 0)"/>
     <use xlink:href="#DejaVuSans-61" transform="translate(303.076172 0)"/>
     <use xlink:href="#DejaVuSans-74" transform="translate(364.355469 0)"/>
     <use xlink:href="#DejaVuSans-69" transform="translate(403.564453 0)"/>
     <use xlink:href="#DejaVuSans-6f" transform="translate(431.347656 0)"/>
     <use xlink:href="#DejaVuSans-6e" transform="translate(492.529297 0)"/>
     <use xlink:href="#DejaVuSans-29" transform="translate(555.908203 0)"/>
    </g>
   </g>
   <g id="patch_7">
    <path d="M 323.29067 309.199998 
Q 309.416731 302.391429 296.947955 296.272436 
" style="fill: none; stroke: #404040; stroke-width: 1.4; stroke-linecap: round"/>
    <path d="M 299.332574 299.403186 
L 296.947955 296.272436 
L 300.883326 296.243191 
" style="fill: none; stroke: #404040; stroke-width: 1.4; stroke-linecap: round"/>
   </g>
   <g id="text_19">
    <g id="patch_8">
     <path d="M 307.750629 322.469489 
L 367.664879 322.469489 
Q 369.600879 322.469489 369.600879 320.533489 
L 369.600879 312.016739 
Q 369.600879 310.080739 367.664879 310.080739 
L 307.750629 310.080739 
Q 305.814629 310.080739 305.814629 312.016739 
L 305.814629 320.533489 
Q 305.814629 322.469489 307.750629 322.469489 
z
" style="fill: #ffffff; opacity: 0.9"/>
    </g>
    <!-- B (opt. initial) -->
    <g style="fill: #404040" transform="translate(307.750629 318.703364) scale(0.088 -0.088)">
     <defs>
      <path id="DejaVuSans-42" d="M 1259 2228 
L 1259 519 
L 2272 519 
Q 2781 519 3026 730 
Q 3272 941 3272 1375 
Q 3272 1813 3026 2020 
Q 2781 2228 2272 2228 
L 1259 2228 
z
M 1259 4147 
L 1259 2741 
L 2194 2741 
Q 2656 2741 2882 2914 
Q 3109 3088 3109 3444 
Q 3109 3797 2882 3972 
Q 2656 4147 2194 4147 
L 1259 4147 
z
M 628 4666 
L 2241 4666 
Q 2963 4666 3353 4366 
Q 3744 4066 3744 3513 
Q 3744 3084 3544 2831 
Q 3344 2578 2956 2516 
Q 3422 2416 3680 2098 
Q 3938 1781 3938 1306 
Q 3938 681 3513 340 
Q 3088 0 2303 0 
L 628 0 
L 628 4666 
z
" transform="scale(0.015625)"/>
      <path id="DejaVuSans-2e" d="M 684 794 
L 1344 794 
L 1344 0 
L 684 0 
L 684 794 
z
" transform="scale(0.015625)"/>
      <path id="DejaVuSans-6c" d="M 603 4863 
L 1178 4863 
L 1178 0 
L 603 0 
L 603 4863 
z
" transform="scale(0.015625)"/>
     </defs>
     <use xlink:href="#DejaVuSans-42"/>
     <use xlink:href="#DejaVuSans-20" transform="translate(68.603516 0)"/>
     <use xlink:href="#DejaVuSans-28" transform="translate(100.390625 0)"/>
     <use xlink:href="#DejaVuSans-6f" transform="translate(139.404297 0)"/>
     <use xlink:href="#DejaVuSans-70" transform="translate(200.585938 0)"/>
     <use xlink:href="#DejaVuSans-74" transform="translate(264.0625 0)"/>
     <use xlink:href="#DejaVuSans-2e" transform="translate(303.271484 0)"/>
     <use xlink:href="#DejaVuSans-20" transform="translate(335.058594 0)"/>
     <use xlink:href="#DejaVuSans-69" transform="translate(366.845703 0)"/>
     <use xlink:href="#DejaVuSans-6e" transform="translate(394.628906 0)"/>
     <use xlink:href="#DejaVuSans-69" transform="translate(458.007812 0)"/>
     <use xlink:href="#DejaVuSans-74" transform="translate(485.791016 0)"/>
     <use xlink:href="#DejaVuSans-69" transform="translate(525 0)"/>
     <use xlink:href="#DejaVuSans-61" transform="translate(552.783203 0)"/>
     <use xlink:href="#DejaVuSans-6c" transform="translate(614.0625 0)"/>
     <use xlink:href="#DejaVuSans-29" transform="translate(641.845703 0)"/>
    </g>
   </g>
   <g id="patch_9">
    <path d="M 248.682172 202.704734 
Q 230.309722 210.997997 213.363908 218.647281 
" style="fill: none; stroke: #2ca02c; stroke-width: 1.4; stroke-linecap: round"/>
    <path d="M 217.296297 218.803214 
L 213.363908 218.647281 
L 215.848088 215.594929 
" style="fill: none; stroke: #2ca02c; stroke-width: 1.4; stroke-linecap: round"/>
   </g>
   <g id="text_20">
    <g id="patch_10">
     <path d="M 228.112856 201.88092 
L 301.126731 201.88092 
Q 303.062731 201.88092 303.062731 199.94492 
L 303.062731 191.07617 
Q 303.062731 189.14017 301.126731 189.14017 
L 228.112856 189.14017 
Q 226.176856 189.14017 226.176856 191.07617 
L 226.176856 199.94492 
Q 226.176856 201.88092 228.112856 201.88092 
z
" style="fill: #ffffff; opacity: 0.9"/>
    </g>
    <!-- C (pt compensé) -->
    <g style="fill: #2ca02c" transform="translate(228.112856 198.114795) scale(0.088 -0.088)">
     <defs>
      <path id="DejaVuSans-43" d="M 4122 4306 
L 4122 3641 
Q 3803 3938 3442 4084 
Q 3081 4231 2675 4231 
Q 1875 4231 1450 3742 
Q 1025 3253 1025 2328 
Q 1025 1406 1450 917 
Q 1875 428 2675 428 
Q 3081 428 3442 575 
Q 3803 722 4122 1019 
L 4122 359 
Q 3791 134 3420 21 
Q 3050 -91 2638 -91 
Q 1578 -91 968 557 
Q 359 1206 359 2328 
Q 359 3453 968 4101 
Q 1578 4750 2638 4750 
Q 3056 4750 3426 4639 
Q 3797 4528 4122 4306 
z
" transform="scale(0.015625)"/>
     </defs>
     <use xlink:href="#DejaVuSans-43"/>
     <use xlink:href="#DejaVuSans-20" transform="translate(69.824219 0)"/>
     <use xlink:href="#DejaVuSans-28" transform="translate(101.611328 0)"/>
     <use xlink:href="#DejaVuSans-70" transform="translate(140.625 0)"/>
     <use xlink:href="#DejaVuSans-74" transform="translate(204.101562 0)"/>
     <use xlink:href="#DejaVuSans-20" transform="translate(243.310547 0)"/>
     <use xlink:href="#DejaVuSans-63" transform="translate(275.097656 0)"/>
     <use xlink:href="#DejaVuSans-6f" transform="translate(330.078125 0)"/>
     <use xlink:href="#DejaVuSans-6d" transform="translate(391.259766 0)"/>
     <use xlink:href="#DejaVuSans-70" transform="translate(488.671875 0)"/>
     <use xlink:href="#DejaVuSans-65" transform="translate(552.148438 0)"/>
     <use xlink:href="#DejaVuSans-6e" transform="translate(613.671875 0)"/>
     <use xlink:href="#DejaVuSans-73" transform="translate(677.050781 0)"/>
     <use xlink:href="#DejaVuSans-e9" transform="translate(729.150391 0)"/>
     <use xlink:href="#DejaVuSans-29" transform="translate(790.673828 0)"/>
    </g>
   </g>
   <g id="patch_11">
    <path d="M 117.902788 272.879177 
Q 142.06114 267.592329 164.69043 262.640103 
" style="fill: none; stroke: #d62728; stroke-width: 1.4; stroke-linecap: round"/>
    <path d="M 160.875551 261.673304 
L 164.69043 262.640103 
L 161.628064 265.111927 
" style="fill: none; stroke: #d62728; stroke-width: 1.4; stroke-linecap: round"/>
   </g>
   <g id="text_21">
    <g id="patch_12">
     <path d="M 60.174006 285.643877 
L 115.585131 285.643877 
Q 117.521131 285.643877 117.521131 283.707877 
L 117.521131 275.191127 
Q 117.521131 273.255127 115.585131 273.255127 
L 60.174006 273.255127 
Q 58.238006 273.255127 58.238006 275.191127 
L 58.238006 283.707877 
Q 58.238006 285.643877 60.174006 285.643877 
z
" style="fill: #ffffff; opacity: 0.9"/>
    </g>
    <!-- D (opt. final) -->
    <g style="fill: #d62728" transform="translate(60.174006 281.877752) scale(0.088 -0.088)">
     <defs>
      <path id="DejaVuSans-44" d="M 1259 4147 
L 1259 519 
L 2022 519 
Q 2988 519 3436 956 
Q 3884 1394 3884 2338 
Q 3884 3275 3436 3711 
Q 2988 4147 2022 4147 
L 1259 4147 
z
M 628 4666 
L 1925 4666 
Q 3281 4666 3915 4102 
Q 4550 3538 4550 2338 
Q 4550 1131 3912 565 
Q 3275 0 1925 0 
L 628 0 
L 628 4666 
z
" transform="scale(0.015625)"/>
     </defs>
     <use xlink:href="#DejaVuSans-44"/>
     <use xlink:href="#DejaVuSans-20" transform="translate(77.001953 0)"/>
     <use xlink:href="#DejaVuSans-28" transform="translate(108.789062 0)"/>
     <use xlink:href="#DejaVuSans-6f" transform="translate(147.802734 0)"/>
     <use xlink:href="#DejaVuSans-70" transform="translate(208.984375 0)"/>
     <use xlink:href="#DejaVuSans-74" transform="translate(272.460938 0)"/>
     <use xlink:href="#DejaVuSans-2e" transform="translate(311.669922 0)"/>
     <use xlink:href="#DejaVuSans-20" transform="translate(343.457031 0)"/>
     <use xlink:href="#DejaVuSans-66" transform="translate(375.244141 0)"/>
     <use xlink:href="#DejaVuSans-69" transform="translate(410.449219 0)"/>
     <use xlink:href="#DejaVuSans-6e" transform="translate(438.232422 0)"/>
     <use xlink:href="#DejaVuSans-61" transform="translate(501.611328 0)"/>
     <use xlink:href="#DejaVuSans-6c" transform="translate(562.890625 0)"/>
     <use xlink:href="#DejaVuSans-29" transform="translate(590.673828 0)"/>
    </g>
   </g>
   <g id="patch_13">
    <path d="M 292.257462 293.37175 
Q 251.930948 257.408371 213.273274 222.933271 
" style="fill: none; stroke: #2ca02c; stroke-width: 2; stroke-linecap: round"/>
    <path d="M 215.092843 227.503738 
L 213.273274 222.933271 
L 218.021389 224.219896 
" style="fill: none; stroke: #2ca02c; stroke-width: 2; stroke-linecap: round"/>
   </g>
   <g id="patch_14">
    <path d="M 208.697318 221.524396 
Q 189.144275 240.995432 171.175691 258.888655 
" style="fill: none; stroke: #d62728; stroke-width: 2; stroke-linecap: round"/>
    <path d="M 175.845855 257.342831 
L 171.175691 258.888655 
L 172.74113 254.22503 
" style="fill: none; stroke: #d62728; stroke-width: 2; stroke-linecap: round"/>
   </g>
   <g id="text_22">
    <g id="patch_15">
     <path d="M 235.027197 246.559325 
L 249.06001 246.559325 
Q 250.86001 246.559325 250.86001 244.759325 
L 250.86001 235.0812 
Q 250.86001 233.2812 249.06001 233.2812 
L 235.027197 233.2812 
Q 233.227197 233.2812 233.227197 235.0812 
L 233.227197 244.759325 
Q 233.227197 246.559325 235.027197 246.559325 
z
" style="fill: #ffffff; opacity: 0.82"/>
    </g>
    <!-- ES -->
    <g style="fill: #2ca02c" transform="translate(235.027197 242.679638) scale(0.1 -0.1)">
     <defs>
      <path id="DejaVuSans-Bold-45" d="M 588 4666 
L 3834 4666 
L 3834 3756 
L 1791 3756 
L 1791 2888 
L 3713 2888 
L 3713 1978 
L 1791 1978 
L 1791 909 
L 3903 909 
L 3903 0 
L 588 0 
L 588 4666 
z
" transform="scale(0.015625)"/>
      <path id="DejaVuSans-Bold-53" d="M 3834 4519 
L 3834 3531 
Q 3450 3703 3084 3790 
Q 2719 3878 2394 3878 
Q 1963 3878 1756 3759 
Q 1550 3641 1550 3391 
Q 1550 3203 1689 3098 
Q 1828 2994 2194 2919 
L 2706 2816 
Q 3484 2659 3812 2340 
Q 4141 2022 4141 1434 
Q 4141 663 3683 286 
Q 3225 -91 2284 -91 
Q 1841 -91 1394 -6 
Q 947 78 500 244 
L 500 1259 
Q 947 1022 1364 901 
Q 1781 781 2169 781 
Q 2563 781 2772 912 
Q 2981 1044 2981 1288 
Q 2981 1506 2839 1625 
Q 2697 1744 2272 1838 
L 1806 1941 
Q 1106 2091 782 2419 
Q 459 2747 459 3303 
Q 459 4000 909 4375 
Q 1359 4750 2203 4750 
Q 2588 4750 2994 4692 
Q 3400 4634 3834 4519 
z
" transform="scale(0.015625)"/>
     </defs>
     <use xlink:href="#DejaVuSans-Bold-45"/>
     <use xlink:href="#DejaVuSans-Bold-53" transform="translate(68.310547 0)"/>
    </g>
   </g>
   <g id="text_23">
    <g id="patch_16">
     <path d="M 201.82184 230.14652 
L 216.35309 230.14652 
Q 218.15309 230.14652 218.15309 228.34652 
L 218.15309 218.668395 
Q 218.15309 216.868395 216.35309 216.868395 
L 201.82184 216.868395 
Q 200.02184 216.868395 200.02184 218.668395 
L 200.02184 228.34652 
Q 200.02184 230.14652 201.82184 230.14652 
z
" style="fill: #ffffff; opacity: 0.82"/>
    </g>
    <!-- ER -->
    <g style="fill: #d62728" transform="translate(201.82184 226.266832) scale(0.1 -0.1)">
     <defs>
      <path id="DejaVuSans-Bold-52" d="M 2297 2597 
Q 2675 2597 2839 2737 
Q 3003 2878 3003 3200 
Q 3003 3519 2839 3656 
Q 2675 3794 2297 3794 
L 1791 3794 
L 1791 2597 
L 2297 2597 
z
M 1791 1766 
L 1791 0 
L 588 0 
L 588 4666 
L 2425 4666 
Q 3347 4666 3776 4356 
Q 4206 4047 4206 3378 
Q 4206 2916 3982 2619 
Q 3759 2322 3309 2181 
Q 3556 2125 3751 1926 
Q 3947 1728 4147 1325 
L 4800 0 
L 3519 0 
L 2950 1159 
Q 2778 1509 2601 1637 
Q 2425 1766 2131 1766 
L 1791 1766 
z
" transform="scale(0.015625)"/>
     </defs>
     <use xlink:href="#DejaVuSans-Bold-45"/>
     <use xlink:href="#DejaVuSans-Bold-52" transform="translate(68.310547 0)"/>
    </g>
   </g>
   <g id="text_24">
    <g id="patch_17">
     <path d="M 63.788438 365.720266 
L 151.253438 365.720266 
Q 153.378438 365.720266 153.378438 363.595266 
L 153.378438 355.368859 
Q 153.378438 353.243859 151.253438 353.243859 
L 63.788438 353.243859 
Q 61.663438 353.243859 61.663438 355.368859 
L 61.663438 363.595266 
Q 61.663438 365.720266 63.788438 365.720266 
z
" style="fill: #ffffff; opacity: 0.95; stroke: #666666; stroke-linejoin: miter"/>
    </g>
    <!-- $r_0 = 0.05$  ;  $r_1 = 2.00$ -->
    <g transform="translate(63.788438 361.827531) scale(0.085 -0.085)">
     <defs>
      <path id="DejaVuSans-Oblique-72" d="M 2853 2969 
Q 2766 3016 2653 3041 
Q 2541 3066 2413 3066 
Q 1953 3066 1609 2717 
Q 1266 2369 1153 1784 
L 800 0 
L 225 0 
L 909 3500 
L 1484 3500 
L 1375 2956 
Q 1603 3259 1920 3421 
Q 2238 3584 2597 3584 
Q 2691 3584 2781 3573 
Q 2872 3563 2963 3538 
L 2853 2969 
z
" transform="scale(0.015625)"/>
      <path id="DejaVuSans-3d" d="M 678 2906 
L 4684 2906 
L 4684 2381 
L 678 2381 
L 678 2906 
z
M 678 1631 
L 4684 1631 
L 4684 1100 
L 678 1100 
L 678 1631 
z
" transform="scale(0.015625)"/>
      <path id="DejaVuSans-35" d="M 691 4666 
L 3169 4666 
L 3169 4134 
L 1269 4134 
L 1269 2991 
Q 1406 3038 1543 3061 
Q 1681 3084 1819 3084 
Q 2600 3084 3056 2656 
Q 3513 2228 3513 1497 
Q 3513 744 3044 326 
Q 2575 -91 1722 -91 
Q 1428 -91 1123 -41 
Q 819 9 494 109 
L 494 744 
Q 775 591 1075 516 
Q 1375 441 1709 441 
Q 2250 441 2565 725 
Q 2881 1009 2881 1497 
Q 2881 1984 2565 2268 
Q 2250 2553 1709 2553 
Q 1456 2553 1204 2497 
Q 953 2441 691 2322 
L 691 4666 
z
" transform="scale(0.015625)"/>
      <path id="DejaVuSans-3b" d="M 750 3309 
L 1409 3309 
L 1409 2516 
L 750 2516 
L 750 3309 
z
M 750 794 
L 1409 794 
L 1409 256 
L 897 -744 
L 494 -744 
L 750 256 
L 750 794 
z
" transform="scale(0.015625)"/>
     </defs>
     <use xlink:href="#DejaVuSans-Oblique-72" transform="translate(0 0.78125)"/>
     <use xlink:href="#DejaVuSans-30" transform="translate(41.113281 -15.625) scale(0.7)"/>
     <use xlink:href="#DejaVuSans-3d" transform="translate(107.866211 0.78125)"/>
     <use xlink:href="#DejaVuSans-30" transform="translate(211.137695 0.78125)"/>
     <use xlink:href="#DejaVuSans-2e" transform="translate(274.760742 0.78125)"/>
     <use xlink:href="#DejaVuSans-30" transform="translate(306.547852 0.78125)"/>
     <use xlink:href="#DejaVuSans-35" transform="translate(370.170898 0.78125)"/>
     <use xlink:href="#DejaVuSans-20" transform="translate(433.793945 0.78125)"/>
     <use xlink:href="#DejaVuSans-20" transform="translate(465.581055 0.78125)"/>
     <use xlink:href="#DejaVuSans-3b" transform="translate(497.368164 0.78125)"/>
     <use xlink:href="#DejaVuSans-20" transform="translate(531.05957 0.78125)"/>
     <use xlink:href="#DejaVuSans-20" transform="translate(562.84668 0.78125)"/>
     <use xlink:href="#DejaVuSans-Oblique-72" transform="translate(594.633789 0.78125)"/>
     <use xlink:href="#DejaVuSans-31" transform="translate(635.74707 -15.625) scale(0.7)"/>
     <use xlink:href="#DejaVuSans-3d" transform="translate(702.5 0.78125)"/>
     <use xlink:href="#DejaVuSans-32" transform="translate(805.771484 0.78125)"/>
     <use xlink:href="#DejaVuSans-2e" transform="translate(869.394531 0.78125)"/>
     <use xlink:href="#DejaVuSans-30" transform="translate(901.181641 0.78125)"/>
     <use xlink:href="#DejaVuSans-30" transform="translate(964.804688 0.78125)"/>
    </g>
   </g>
   <g id="text_25">
    <!-- Emprunteur initial : décomposition ES / ER -->
    <g transform="translate(165.446797 15.998281) scale(0.11 -0.11)">
     <defs>
      <path id="DejaVuSans-45" d="M 628 4666 
L 3578 4666 
L 3578 4134 
L 1259 4134 
L 1259 2753 
L 3481 2753 
L 3481 2222 
L 1259 2222 
L 1259 531 
L 3634 531 
L 3634 0 
L 628 0 
L 628 4666 
z
" transform="scale(0.015625)"/>
      <path id="DejaVuSans-3a" d="M 750 794 
L 1409 794 
L 1409 0 
L 750 0 
L 750 794 
z
M 750 3309 
L 1409 3309 
L 1409 2516 
L 750 2516 
L 750 3309 
z
" transform="scale(0.015625)"/>
      <path id="DejaVuSans-53" d="M 3425 4513 
L 3425 3897 
Q 3066 4069 2747 4153 
Q 2428 4238 2131 4238 
Q 1616 4238 1336 4038 
Q 1056 3838 1056 3469 
Q 1056 3159 1242 3001 
Q 1428 2844 1947 2747 
L 2328 2669 
Q 3034 2534 3370 2195 
Q 3706 1856 3706 1288 
Q 3706 609 3251 259 
Q 2797 -91 1919 -91 
Q 1588 -91 1214 -16 
Q 841 59 441 206 
L 441 856 
Q 825 641 1194 531 
Q 1563 422 1919 422 
Q 2459 422 2753 634 
Q 3047 847 3047 1241 
Q 3047 1584 2836 1778 
Q 2625 1972 2144 2069 
L 1759 2144 
Q 1053 2284 737 2584 
Q 422 2884 422 3419 
Q 422 4038 858 4394 
Q 1294 4750 2059 4750 
Q 2388 4750 2728 4690 
Q 3069 4631 3425 4513 
z
" transform="scale(0.015625)"/>
      <path id="DejaVuSans-2f" d="M 1625 4666 
L 2156 4666 
L 531 -594 
L 0 -594 
L 1625 4666 
z
" transform="scale(0.015625)"/>
      <path id="DejaVuSans-52" d="M 2841 2188 
Q 3044 2119 3236 1894 
Q 3428 1669 3622 1275 
L 4263 0 
L 3584 0 
L 2988 1197 
Q 2756 1666 2539 1819 
Q 2322 1972 1947 1972 
L 1259 1972 
L 1259 0 
L 628 0 
L 628 4666 
L 2053 4666 
Q 2853 4666 3247 4331 
Q 3641 3997 3641 3322 
Q 3641 2881 3436 2590 
Q 3231 2300 2841 2188 
z
M 1259 4147 
L 1259 2491 
L 2053 2491 
Q 2509 2491 2742 2702 
Q 2975 2913 2975 3322 
Q 2975 3731 2742 3939 
Q 2509 4147 2053 4147 
L 1259 4147 
z
" transform="scale(0.015625)"/>
     </defs>
     <use xlink:href="#DejaVuSans-45"/>
     <use xlink:href="#DejaVuSans-6d" transform="translate(63.183594 0)"/>
     <use xlink:href="#DejaVuSans-70" transform="translate(160.595703 0)"/>
     <use xlink:href="#DejaVuSans-72" transform="translate(224.072266 0)"/>
     <use xlink:href="#DejaVuSans-75" transform="translate(265.185547 0)"/>
     <use xlink:href="#DejaVuSans-6e" transform="translate(328.564453 0)"/>
     <use xlink:href="#DejaVuSans-74" transform="translate(391.943359 0)"/>
     <use xlink:href="#DejaVuSans-65" transform="translate(431.152344 0)"/>
     <use xlink:href="#DejaVuSans-75" transform="translate(492.675781 0)"/>
     <use xlink:href="#DejaVuSans-72" transform="translate(556.054688 0)"/>
     <use xlink:href="#DejaVuSans-20" transform="translate(597.167969 0)"/>
     <use xlink:href="#DejaVuSans-69" transform="translate(628.955078 0)"/>
     <use xlink:href="#DejaVuSans-6e" transform="translate(656.738281 0)"/>
     <use xlink:href="#DejaVuSans-69" transform="translate(720.117188 0)"/>
     <use xlink:href="#DejaVuSans-74" transform="translate(747.900391 0)"/>
     <use xlink:href="#DejaVuSans-69" transform="translate(787.109375 0)"/>
     <use xlink:href="#DejaVuSans-61" transform="translate(814.892578 0)"/>
     <use xlink:href="#DejaVuSans-6c" transform="translate(876.171875 0)"/>
     <use xlink:href="#DejaVuSans-20" transform="translate(903.955078 0)"/>
     <use xlink:href="#DejaVuSans-3a" transform="translate(935.742188 0)"/>
     <use xlink:href="#DejaVuSans-20" transform="translate(969.433594 0)"/>
     <use xlink:href="#DejaVuSans-64" transform="translate(1001.220703 0)"/>
     <use xlink:href="#DejaVuSans-e9" transform="translate(1064.697266 0)"/>
     <use xlink:href="#DejaVuSans-63" transform="translate(1126.220703 0)"/>
     <use xlink:href="#DejaVuSans-6f" transform="translate(1181.201172 0)"/>
     <use xlink:href="#DejaVuSans-6d" transform="translate(1242.382812 0)"/>
     <use xlink:href="#DejaVuSans-70" transform="translate(1339.794922 0)"/>
     <use xlink:href="#DejaVuSans-6f" transform="translate(1403.271484 0)"/>
     <use xlink:href="#DejaVuSans-73" transform="translate(1464.453125 0)"/>
     <use xlink:href="#DejaVuSans-69" transform="translate(1516.552734 0)"/>
     <use xlink:href="#DejaVuSans-74" transform="translate(1544.335938 0)"/>
     <use xlink:href="#DejaVuSans-69" transform="translate(1583.544922 0)"/>
     <use xlink:href="#DejaVuSans-6f" transform="translate(1611.328125 0)"/>
     <use xlink:href="#DejaVuSans-6e" transform="translate(1672.509766 0)"/>
     <use xlink:href="#DejaVuSans-20" transform="translate(1735.888672 0)"/>
     <use xlink:href="#DejaVuSans-45" transform="translate(1767.675781 0)"/>
     <use xlink:href="#DejaVuSans-53" transform="translate(1830.859375 0)"/>
     <use xlink:href="#DejaVuSans-20" transform="translate(1894.335938 0)"/>
     <use xlink:href="#DejaVuSans-2f" transform="translate(1926.123047 0)"/>
     <use xlink:href="#DejaVuSans-20" transform="translate(1959.814453 0)"/>
     <use xlink:href="#DejaVuSans-45" transform="translate(1991.601562 0)"/>
     <use xlink:href="#DejaVuSans-52" transform="translate(2054.785156 0)"/>
    </g>
   </g>
   <g id="legend_1">
    <g id="patch_18">
     <path d="M 380.957187 87.883281 
L 509.117187 87.883281 
Q 510.717187 87.883281 510.717187 86.283281 
L 510.717187 27.598281 
Q 510.717187 25.998281 509.117187 25.998281 
L 380.957187 25.998281 
Q 379.357187 25.998281 379.357187 27.598281 
L 379.357187 86.283281 
Q 379.357187 87.883281 380.957187 87.883281 
z
" style="fill: #ffffff; opacity: 0.8; stroke: #cccccc; stroke-linejoin: miter"/>
    </g>
    <g id="line2d_36">
     <path d="M 382.557187 32.477031 
L 390.557187 32.477031 
L 398.557187 32.477031 
" style="fill: none; stroke-dasharray: 8.88,3.84; stroke-dashoffset: 0; stroke: #595959; stroke-width: 2.4"/>
    </g>
    <g id="text_26">
     <!-- budget initial -->
     <g transform="translate(404.957187 35.277031) scale(0.08 -0.08)">
      <defs>
       <path id="DejaVuSans-62" d="M 3116 1747 
Q 3116 2381 2855 2742 
Q 2594 3103 2138 3103 
Q 1681 3103 1420 2742 
Q 1159 2381 1159 1747 
Q 1159 1113 1420 752 
Q 1681 391 2138 391 
Q 2594 391 2855 752 
Q 3116 1113 3116 1747 
z
M 1159 2969 
Q 1341 3281 1617 3432 
Q 1894 3584 2278 3584 
Q 2916 3584 3314 3078 
Q 3713 2572 3713 1747 
Q 3713 922 3314 415 
Q 2916 -91 2278 -91 
Q 1894 -91 1617 61 
Q 1341 213 1159 525 
L 1159 0 
L 581 0 
L 581 4863 
L 1159 4863 
L 1159 2969 
z
" transform="scale(0.015625)"/>
       <path id="DejaVuSans-67" d="M 2906 1791 
Q 2906 2416 2648 2759 
Q 2391 3103 1925 3103 
Q 1463 3103 1205 2759 
Q 947 2416 947 1791 
Q 947 1169 1205 825 
Q 1463 481 1925 481 
Q 2391 481 2648 825 
Q 2906 1169 2906 1791 
z
M 3481 434 
Q 3481 -459 3084 -895 
Q 2688 -1331 1869 -1331 
Q 1566 -1331 1297 -1286 
Q 1028 -1241 775 -1147 
L 775 -588 
Q 1028 -725 1275 -790 
Q 1522 -856 1778 -856 
Q 2344 -856 2625 -561 
Q 2906 -266 2906 331 
L 2906 616 
Q 2728 306 2450 153 
Q 2172 0 1784 0 
Q 1141 0 747 490 
Q 353 981 353 1791 
Q 353 2603 747 3093 
Q 1141 3584 1784 3584 
Q 2172 3584 2450 3431 
Q 2728 3278 2906 2969 
L 2906 3500 
L 3481 3500 
L 3481 434 
z
" transform="scale(0.015625)"/>
      </defs>
      <use xlink:href="#DejaVuSans-62"/>
      <use xlink:href="#DejaVuSans-75" transform="translate(63.476562 0)"/>
      <use xlink:href="#DejaVuSans-64" transform="translate(126.855469 0)"/>
      <use xlink:href="#DejaVuSans-67" transform="translate(190.332031 0)"/>
      <use xlink:href="#DejaVuSans-65" transform="translate(253.808594 0)"/>
      <use xlink:href="#DejaVuSans-74" transform="translate(315.332031 0)"/>
      <use xlink:href="#DejaVuSans-20" transform="translate(354.541016 0)"/>
      <use xlink:href="#DejaVuSans-69" transform="translate(386.328125 0)"/>
      <use xlink:href="#DejaVuSans-6e" transform="translate(414.111328 0)"/>
      <use xlink:href="#DejaVuSans-69" transform="translate(477.490234 0)"/>
      <use xlink:href="#DejaVuSans-74" transform="translate(505.273438 0)"/>
      <use xlink:href="#DejaVuSans-69" transform="translate(544.482422 0)"/>
      <use xlink:href="#DejaVuSans-61" transform="translate(572.265625 0)"/>
      <use xlink:href="#DejaVuSans-6c" transform="translate(633.544922 0)"/>
     </g>
    </g>
    <g id="line2d_37">
     <path d="M 382.557187 44.540781 
L 390.557187 44.540781 
L 398.557187 44.540781 
" style="fill: none; stroke: #d62728; stroke-width: 3.2; stroke-linecap: square"/>
    </g>
    <g id="text_27">
     <!-- budget après hausse de $r$ -->
     <g transform="translate(404.957187 47.340781) scale(0.08 -0.08)">
      <defs>
       <path id="DejaVuSans-e8" d="M 3597 1894 
L 3597 1613 
L 953 1613 
Q 991 1019 1311 708 
Q 1631 397 2203 397 
Q 2534 397 2845 478 
Q 3156 559 3463 722 
L 3463 178 
Q 3153 47 2828 -22 
Q 2503 -91 2169 -91 
Q 1331 -91 842 396 
Q 353 884 353 1716 
Q 353 2575 817 3079 
Q 1281 3584 2069 3584 
Q 2775 3584 3186 3129 
Q 3597 2675 3597 1894 
z
M 3022 2063 
Q 3016 2534 2758 2815 
Q 2500 3097 2075 3097 
Q 1594 3097 1305 2825 
Q 1016 2553 972 2059 
L 3022 2063 
z
M 1581 5119 
L 2463 3950 
L 1984 3950 
L 966 5119 
L 1581 5119 
z
" transform="scale(0.015625)"/>
       <path id="DejaVuSans-68" d="M 3513 2113 
L 3513 0 
L 2938 0 
L 2938 2094 
Q 2938 2591 2744 2837 
Q 2550 3084 2163 3084 
Q 1697 3084 1428 2787 
Q 1159 2491 1159 1978 
L 1159 0 
L 581 0 
L 581 4863 
L 1159 4863 
L 1159 2956 
Q 1366 3272 1645 3428 
Q 1925 3584 2291 3584 
Q 2894 3584 3203 3211 
Q 3513 2838 3513 2113 
z
" transform="scale(0.015625)"/>
      </defs>
      <use xlink:href="#DejaVuSans-62" transform="translate(0 0.015625)"/>
      <use xlink:href="#DejaVuSans-75" transform="translate(63.476562 0.015625)"/>
      <use xlink:href="#DejaVuSans-64" transform="translate(126.855469 0.015625)"/>
      <use xlink:href="#DejaVuSans-67" transform="translate(190.332031 0.015625)"/>
      <use xlink:href="#DejaVuSans-65" transform="translate(253.808594 0.015625)"/>
      <use xlink:href="#DejaVuSans-74" transform="translate(315.332031 0.015625)"/>
      <use xlink:href="#DejaVuSans-20" transform="translate(354.541016 0.015625)"/>
      <use xlink:href="#DejaVuSans-61" transform="translate(386.328125 0.015625)"/>
      <use xlink:href="#DejaVuSans-70" transform="translate(447.607422 0.015625)"/>
      <use xlink:href="#DejaVuSans-72" transform="translate(511.083984 0.015625)"/>
      <use xlink:href="#DejaVuSans-e8" transform="translate(552.197266 0.015625)"/>
      <use xlink:href="#DejaVuSans-73" transform="translate(613.720703 0.015625)"/>
      <use xlink:href="#DejaVuSans-20" transform="translate(665.820312 0.015625)"/>
      <use xlink:href="#DejaVuSans-68" transform="translate(697.607422 0.015625)"/>
      <use xlink:href="#DejaVuSans-61" transform="translate(760.986328 0.015625)"/>
      <use xlink:href="#DejaVuSans-75" transform="translate(822.265625 0.015625)"/>
      <use xlink:href="#DejaVuSans-73" transform="translate(885.644531 0.015625)"/>
      <use xlink:href="#DejaVuSans-73" transform="translate(937.744141 0.015625)"/>
      <use xlink:href="#DejaVuSans-65" transform="translate(989.84375 0.015625)"/>
      <use xlink:href="#DejaVuSans-20" transform="translate(1051.367188 0.015625)"/>
      <use xlink:href="#DejaVuSans-64" transform="translate(1083.154297 0.015625)"/>
      <use xlink:href="#DejaVuSans-65" transform="translate(1146.630859 0.015625)"/>
      <use xlink:href="#DejaVuSans-20" transform="translate(1208.154297 0.015625)"/>
      <use xlink:href="#DejaVuSans-Oblique-72" transform="translate(1239.941406 0.015625)"/>
     </g>
    </g>
    <g id="line2d_38">
     <path d="M 382.557187 56.619531 
L 390.557187 56.619531 
L 398.557187 56.619531 
" style="fill: none; stroke-dasharray: 7.4,3.2; stroke-dashoffset: 0; stroke: #2ca02c; stroke-width: 2"/>
    </g>
    <g id="text_28">
     <!-- droite compensée -->
     <g transform="translate(404.957187 59.419531) scale(0.08 -0.08)">
      <use xlink:href="#DejaVuSans-64"/>
      <use xlink:href="#DejaVuSans-72" transform="translate(63.476562 0)"/>
      <use xlink:href="#DejaVuSans-6f" transform="translate(102.339844 0)"/>
      <use xlink:href="#DejaVuSans-69" transform="translate(163.521484 0)"/>
      <use xlink:href="#DejaVuSans-74" transform="translate(191.304688 0)"/>
      <use xlink:href="#DejaVuSans-65" transform="translate(230.513672 0)"/>
      <use xlink:href="#DejaVuSans-20" transform="translate(292.037109 0)"/>
      <use xlink:href="#DejaVuSans-63" transform="translate(323.824219 0)"/>
      <use xlink:href="#DejaVuSans-6f" transform="translate(378.804688 0)"/>
      <use xlink:href="#DejaVuSans-6d" transform="translate(439.986328 0)"/>
      <use xlink:href="#DejaVuSans-70" transform="translate(537.398438 0)"/>
      <use xlink:href="#DejaVuSans-65" transform="translate(600.875 0)"/>
      <use xlink:href="#DejaVuSans-6e" transform="translate(662.398438 0)"/>
      <use xlink:href="#DejaVuSans-73" transform="translate(725.777344 0)"/>
      <use xlink:href="#DejaVuSans-e9" transform="translate(777.876953 0)"/>
      <use xlink:href="#DejaVuSans-65" transform="translate(839.400391 0)"/>
     </g>
    </g>
    <g id="line2d_39">
     <path d="M 382.557187 68.459531 
L 390.557187 68.459531 
L 398.557187 68.459531 
" style="fill: none; stroke-dasharray: 14.08,3.52,2.2,3.52; stroke-dashoffset: 0; stroke: #616161; stroke-width: 2.2"/>
    </g>
    <g id="text_29">
     <!-- utilité initiale $U_0$ -->
     <g transform="translate(404.957187 71.259531) scale(0.08 -0.08)">
      <defs>
       <path id="DejaVuSans-Oblique-55" d="M 991 4666 
L 1625 4666 
L 1075 1831 
Q 1041 1641 1027 1517 
Q 1013 1394 1013 1300 
Q 1013 869 1253 645 
Q 1494 422 1959 422 
Q 2563 422 2898 753 
Q 3234 1084 3378 1831 
L 3928 4666 
L 4563 4666 
L 4000 1753 
Q 3816 809 3300 359 
Q 2784 -91 1888 -91 
Q 1188 -91 780 261 
Q 372 613 372 1216 
Q 372 1325 387 1461 
Q 403 1597 434 1753 
L 991 4666 
z
" transform="scale(0.015625)"/>
      </defs>
      <use xlink:href="#DejaVuSans-75" transform="translate(0 0.015625)"/>
      <use xlink:href="#DejaVuSans-74" transform="translate(63.378906 0.015625)"/>
      <use xlink:href="#DejaVuSans-69" transform="translate(102.587891 0.015625)"/>
      <use xlink:href="#DejaVuSans-6c" transform="translate(130.371094 0.015625)"/>
      <use xlink:href="#DejaVuSans-69" transform="translate(158.154297 0.015625)"/>
      <use xlink:href="#DejaVuSans-74" transform="translate(185.9375 0.015625)"/>
      <use xlink:href="#DejaVuSans-e9" transform="translate(225.146484 0.015625)"/>
      <use xlink:href="#DejaVuSans-20" transform="translate(286.669922 0.015625)"/>
      <use xlink:href="#DejaVuSans-69" transform="translate(318.457031 0.015625)"/>
      <use xlink:href="#DejaVuSans-6e" transform="translate(346.240234 0.015625)"/>
      <use xlink:href="#DejaVuSans-69" transform="translate(409.619141 0.015625)"/>
      <use xlink:href="#DejaVuSans-74" transform="translate(437.402344 0.015625)"/>
      <use xlink:href="#DejaVuSans-69" transform="translate(476.611328 0.015625)"/>
      <use xlink:href="#DejaVuSans-61" transform="translate(504.394531 0.015625)"/>
      <use xlink:href="#DejaVuSans-6c" transform="translate(565.673828 0.015625)"/>
      <use xlink:href="#DejaVuSans-65" transform="translate(593.457031 0.015625)"/>
      <use xlink:href="#DejaVuSans-20" transform="translate(654.980469 0.015625)"/>
      <use xlink:href="#DejaVuSans-Oblique-55" transform="translate(686.767578 0.015625)"/>
      <use xlink:href="#DejaVuSans-30" transform="translate(759.960938 -16.390625) scale(0.7)"/>
     </g>
    </g>
    <g id="line2d_40">
     <path d="M 382.557187 80.219531 
L 390.557187 80.219531 
L 398.557187 80.219531 
" style="fill: none; stroke-dasharray: 2.8,4.62; stroke-dashoffset: 0; stroke: #d62728; stroke-width: 2.8"/>
    </g>
    <g id="text_30">
     <!-- utilité finale $U_1$ -->
     <g transform="translate(404.957187 83.019531) scale(0.08 -0.08)">
      <use xlink:href="#DejaVuSans-75" transform="translate(0 0.015625)"/>
      <use xlink:href="#DejaVuSans-74" transform="translate(63.378906 0.015625)"/>
      <use xlink:href="#DejaVuSans-69" transform="translate(102.587891 0.015625)"/>
      <use xlink:href="#DejaVuSans-6c" transform="translate(130.371094 0.015625)"/>
      <use xlink:href="#DejaVuSans-69" transform="translate(158.154297 0.015625)"/>
      <use xlink:href="#DejaVuSans-74" transform="translate(185.9375 0.015625)"/>
      <use xlink:href="#DejaVuSans-e9" transform="translate(225.146484 0.015625)"/>
      <use xlink:href="#DejaVuSans-20" transform="translate(286.669922 0.015625)"/>
      <use xlink:href="#DejaVuSans-66" transform="translate(318.457031 0.015625)"/>
      <use xlink:href="#DejaVuSans-69" transform="translate(353.662109 0.015625)"/>
      <use xlink:href="#DejaVuSans-6e" transform="translate(381.445312 0.015625)"/>
      <use xlink:href="#DejaVuSans-61" transform="translate(444.824219 0.015625)"/>
      <use xlink:href="#DejaVuSans-6c" transform="translate(506.103516 0.015625)"/>
      <use xlink:href="#DejaVuSans-65" transform="translate(533.886719 0.015625)"/>
      <use xlink:href="#DejaVuSans-20" transform="translate(595.410156 0.015625)"/>
      <use xlink:href="#DejaVuSans-Oblique-55" transform="translate(627.197266 0.015625)"/>
      <use xlink:href="#DejaVuSans-31" transform="translate(700.390625 -16.390625) scale(0.7)"/>
     </g>
    </g>
   </g>
   <g id="PathCollection_1">
    <defs>
     <path id="m0d1c387d8a" d="M 0 5 
C 1.326016 5 2.597899 4.473168 3.535534 3.535534 
C 4.473168 2.597899 5 1.326016 5 0 
C 5 -1.326016 4.473168 -2.597899 3.535534 -3.535534 
C 2.597899 -4.473168 1.326016 -5 0 -5 
C -1.326016 -5 -2.597899 -4.473168 -3.535534 -3.535534 
C -4.473168 -2.597899 -5 -1.326016 -5 0 
C -5 1.326016 -4.473168 2.597899 -3.535534 3.535534 
C -2.597899 4.473168 -1.326016 5 0 5 
z
" style="stroke: #ffffff; stroke-width: 1.4"/>
    </defs>
    <g clip-path="url(#p95ca387cea)">
     <use xlink:href="#m0d1c387d8a" x="134.364915" y="211.376811" style="stroke: #ffffff; stroke-width: 1.4"/>
    </g>
   </g>
   <g id="PathCollection_2">
    <defs>
     <path id="m159ad0781f" d="M 0 7.071068 
L 7.071068 0 
L 0 -7.071068 
L -7.071068 0 
z
" style="stroke: #ffffff; stroke-width: 1.4"/>
    </defs>
    <g clip-path="url(#p95ca387cea)">
     <use xlink:href="#m159ad0781f" x="293.750629" y="294.703364" style="fill: #404040; stroke: #ffffff; stroke-width: 1.4"/>
    </g>
   </g>
   <g id="PathCollection_3">
    <defs>
     <path id="mdd6fbe1d38" d="M -5 5 
L 5 5 
L 5 -5 
L -5 -5 
z
" style="stroke: #ffffff; stroke-width: 1.4"/>
    </defs>
    <g clip-path="url(#p95ca387cea)">
     <use xlink:href="#mdd6fbe1d38" x="210.112856" y="220.114795" style="fill: #2ca02c; stroke: #ffffff; stroke-width: 1.4"/>
    </g>
   </g>
   <g id="PathCollection_4">
    <defs>
     <path id="m584fa5872b" d="M 0 -5 
L -5 5 
L 5 5 
z
" style="stroke: #ffffff; stroke-width: 1.4"/>
    </defs>
    <g clip-path="url(#p95ca387cea)">
     <use xlink:href="#m584fa5872b" x="168.174006" y="261.877752" style="fill: #d62728; stroke: #ffffff; stroke-width: 1.4"/>
    </g>
   </g>
  </g>
 </g>
 <defs>
  <clipPath id="p95ca387cea">
   <rect x="49.842188" y="21.998281" width="464.875" height="357.715"/>
  </clipPath>
 </defs>
</svg>
