<?xml version="1.0" encoding="utf-8" standalone="no"?>
<!DOCTYPE svg PUBLIC "-//W3C//DTD SVG 1.1//EN"
  "http://www.w3.org/Graphics/SVG/1.1/DTD/svg11.dtd">
<svg xmlns:xlink="http://www.w3.org/1999/xlink" width="521.917187pt" height="419.946719pt" viewBox="0 0 521.917187 419.946719" xmlns="http://www.w3.org/2000/svg" version="1.1">
 <metadata>
  <rdf:RDF xmlns:dc="http://purl.org/dc/elements/1.1/" xmlns:cc="http://creativecommons.org/ns#" xmlns:rdf="http://www.w3.org/1999/02/22-rdf-syntax-ns#">
   <cc:Work>
    <dc:type rdf:resource="http://purl.org/dc/dcmitype/StillImage"/>
    <dc:date>2026-05-18T02:22:04.744163</dc:date>
    <dc:format>image/svg+xml</dc:format>
    <dc:creator>
     <cc:Agent>
      <dc:title>Matplotlib v3.10.9, https://matplotlib.org/</dc:title>
     </cc:Agent>
    </dc:creator>
   </cc:Work>
  </rdf:RDF>
 </metadata>
 <defs>
  <style type="text/css">*{stroke-linejoin: round; stroke-linecap: butt}</style>
 </defs>
 <g id="figure_1">
  <g id="patch_1">
   <path d="M 0 419.946719 
L 521.917187 419.946719 
L 521.917187 0 
L 0 0 
z
" style="fill: #ffffff"/>
  </g>
  <g id="axes_1">
   <g id="patch_2">
    <path d="M 49.842188 379.990781 
L 514.717187 379.990781 
L 514.717187 23.400781 
L 49.842188 23.400781 
z
" style="fill: #ffffff"/>
   </g>
   <g id="matplotlib.axis_1">
    <g id="xtick_1">
     <g id="line2d_1">
      <path d="M 49.842188 379.990781 
L 49.842188 23.400781 
" clip-path="url(#p37b98cfa0d)" style="fill: none; stroke: #b0b0b0; stroke-opacity: 0.22; stroke-width: 0.8; stroke-linecap: square"/>
     </g>
     <g id="line2d_2">
      <defs>
       <path id="me08e20e7f4" d="M 0 0 
L 0 3.5 
" style="stroke: #000000; stroke-width: 0.8"/>
      </defs>
      <g>
       <use xlink:href="#me08e20e7f4" x="49.842188" y="379.990781" style="stroke: #000000; stroke-width: 0.8"/>
      </g>
     </g>
     <g id="text_1">
      <!-- 0 -->
      <g transform="translate(46.342813 395.349063) scale(0.11 -0.11)">
       <defs>
        <path id="DejaVuSans-30" d="M 2034 4250 
Q 1547 4250 1301 3770 
Q 1056 3291 1056 2328 
Q 1056 1369 1301 889 
Q 1547 409 2034 409 
Q 2525 409 2770 889 
Q 3016 1369 3016 2328 
Q 3016 3291 2770 3770 
Q 2525 4250 2034 4250 
z
M 2034 4750 
Q 2819 4750 3233 4129 
Q 3647 3509 3647 2328 
Q 3647 1150 3233 529 
Q 2819 -91 2034 -91 
Q 1250 -91 836 529 
Q 422 1150 422 2328 
Q 422 3509 836 4129 
Q 1250 4750 2034 4750 
z
" transform="scale(0.015625)"/>
       </defs>
       <use xlink:href="#DejaVuSans-30"/>
      </g>
     </g>
    </g>
    <g id="xtick_2">
     <g id="line2d_3">
      <path d="M 134.364915 379.990781 
L 134.364915 23.400781 
" clip-path="url(#p37b98cfa0d)" style="fill: none; stroke: #b0b0b0; stroke-opacity: 0.22; stroke-width: 0.8; stroke-linecap: square"/>
     </g>
     <g id="line2d_4">
      <g>
       <use xlink:href="#me08e20e7f4" x="134.364915" y="379.990781" style="stroke: #000000; stroke-width: 0.8"/>
      </g>
     </g>
     <g id="text_2">
      <!-- 20 -->
      <g transform="translate(127.366165 395.349063) scale(0.11 -0.11)">
       <defs>
        <path id="DejaVuSans-32" d="M 1228 531 
L 3431 531 
L 3431 0 
L 469 0 
L 469 531 
Q 828 903 1448 1529 
Q 2069 2156 2228 2338 
Q 2531 2678 2651 2914 
Q 2772 3150 2772 3378 
Q 2772 3750 2511 3984 
Q 2250 4219 1831 4219 
Q 1534 4219 1204 4116 
Q 875 4013 500 3803 
L 500 4441 
Q 881 4594 1212 4672 
Q 1544 4750 1819 4750 
Q 2544 4750 2975 4387 
Q 3406 4025 3406 3419 
Q 3406 3131 3298 2873 
Q 3191 2616 2906 2266 
Q 2828 2175 2409 1742 
Q 1991 1309 1228 531 
z
" transform="scale(0.015625)"/>
       </defs>
       <use xlink:href="#DejaVuSans-32"/>
       <use xlink:href="#DejaVuSans-30" transform="translate(63.623047 0)"/>
      </g>
     </g>
    </g>
    <g id="xtick_3">
     <g id="line2d_5">
      <path d="M 218.887642 379.990781 
L 218.887642 23.400781 
" clip-path="url(#p37b98cfa0d)" style="fill: none; stroke: #b0b0b0; stroke-opacity: 0.22; stroke-width: 0.8; stroke-linecap: square"/>
     </g>
     <g id="line2d_6">
      <g>
       <use xlink:href="#me08e20e7f4" x="218.887642" y="379.990781" style="stroke: #000000; stroke-width: 0.8"/>
      </g>
     </g>
     <g id="text_3">
      <!-- 40 -->
      <g transform="translate(211.888892 395.349063) scale(0.11 -0.11)">
       <defs>
        <path id="DejaVuSans-34" d="M 2419 4116 
L 825 1625 
L 2419 1625 
L 2419 4116 
z
M 2253 4666 
L 3047 4666 
L 3047 1625 
L 3713 1625 
L 3713 1100 
L 3047 1100 
L 3047 0 
L 2419 0 
L 2419 1100 
L 313 1100 
L 313 1709 
L 2253 4666 
z
" transform="scale(0.015625)"/>
       </defs>
       <use xlink:href="#DejaVuSans-34"/>
       <use xlink:href="#DejaVuSans-30" transform="translate(63.623047 0)"/>
      </g>
     </g>
    </g>
    <g id="xtick_4">
     <g id="line2d_7">
      <path d="M 303.410369 379.990781 
L 303.410369 23.400781 
" clip-path="url(#p37b98cfa0d)" style="fill: none; stroke: #b0b0b0; stroke-opacity: 0.22; stroke-width: 0.8; stroke-linecap: square"/>
     </g>
     <g id="line2d_8">
      <g>
       <use xlink:href="#me08e20e7f4" x="303.410369" y="379.990781" style="stroke: #000000; stroke-width: 0.8"/>
      </g>
     </g>
     <g id="text_4">
      <!-- 60 -->
      <g transform="translate(296.411619 395.349063) scale(0.11 -0.11)">
       <defs>
        <path id="DejaVuSans-36" d="M 2113 2584 
Q 1688 2584 1439 2293 
Q 1191 2003 1191 1497 
Q 1191 994 1439 701 
Q 1688 409 2113 409 
Q 2538 409 2786 701 
Q 3034 994 3034 1497 
Q 3034 2003 2786 2293 
Q 2538 2584 2113 2584 
z
M 3366 4563 
L 3366 3988 
Q 3128 4100 2886 4159 
Q 2644 4219 2406 4219 
Q 1781 4219 1451 3797 
Q 1122 3375 1075 2522 
Q 1259 2794 1537 2939 
Q 1816 3084 2150 3084 
Q 2853 3084 3261 2657 
Q 3669 2231 3669 1497 
Q 3669 778 3244 343 
Q 2819 -91 2113 -91 
Q 1303 -91 875 529 
Q 447 1150 447 2328 
Q 447 3434 972 4092 
Q 1497 4750 2381 4750 
Q 2619 4750 2861 4703 
Q 3103 4656 3366 4563 
z
" transform="scale(0.015625)"/>
       </defs>
       <use xlink:href="#DejaVuSans-36"/>
       <use xlink:href="#DejaVuSans-30" transform="translate(63.623047 0)"/>
      </g>
     </g>
    </g>
    <g id="xtick_5">
     <g id="line2d_9">
      <path d="M 387.933097 379.990781 
L 387.933097 23.400781 
" clip-path="url(#p37b98cfa0d)" style="fill: none; stroke: #b0b0b0; stroke-opacity: 0.22; stroke-width: 0.8; stroke-linecap: square"/>
     </g>
     <g id="line2d_10">
      <g>
       <use xlink:href="#me08e20e7f4" x="387.933097" y="379.990781" style="stroke: #000000; stroke-width: 0.8"/>
      </g>
     </g>
     <g id="text_5">
      <!-- 80 -->
      <g transform="translate(380.934347 395.349063) scale(0.11 -0.11)">
       <defs>
        <path id="DejaVuSans-38" d="M 2034 2216 
Q 1584 2216 1326 1975 
Q 1069 1734 1069 1313 
Q 1069 891 1326 650 
Q 1584 409 2034 409 
Q 2484 409 2743 651 
Q 3003 894 3003 1313 
Q 3003 1734 2745 1975 
Q 2488 2216 2034 2216 
z
M 1403 2484 
Q 997 2584 770 2862 
Q 544 3141 544 3541 
Q 544 4100 942 4425 
Q 1341 4750 2034 4750 
Q 2731 4750 3128 4425 
Q 3525 4100 3525 3541 
Q 3525 3141 3298 2862 
Q 3072 2584 2669 2484 
Q 3125 2378 3379 2068 
Q 3634 1759 3634 1313 
Q 3634 634 3220 271 
Q 2806 -91 2034 -91 
Q 1263 -91 848 271 
Q 434 634 434 1313 
Q 434 1759 690 2068 
Q 947 2378 1403 2484 
z
M 1172 3481 
Q 1172 3119 1398 2916 
Q 1625 2713 2034 2713 
Q 2441 2713 2670 2916 
Q 2900 3119 2900 3481 
Q 2900 3844 2670 4047 
Q 2441 4250 2034 4250 
Q 1625 4250 1398 4047 
Q 1172 3844 1172 3481 
z
" transform="scale(0.015625)"/>
       </defs>
       <use xlink:href="#DejaVuSans-38"/>
       <use xlink:href="#DejaVuSans-30" transform="translate(63.623047 0)"/>
      </g>
     </g>
    </g>
    <g id="xtick_6">
     <g id="line2d_11">
      <path d="M 472.455824 379.990781 
L 472.455824 23.400781 
" clip-path="url(#p37b98cfa0d)" style="fill: none; stroke: #b0b0b0; stroke-opacity: 0.22; stroke-width: 0.8; stroke-linecap: square"/>
     </g>
     <g id="line2d_12">
      <g>
       <use xlink:href="#me08e20e7f4" x="472.455824" y="379.990781" style="stroke: #000000; stroke-width: 0.8"/>
      </g>
     </g>
     <g id="text_6">
      <!-- 100 -->
      <g transform="translate(461.957699 395.349063) scale(0.11 -0.11)">
       <defs>
        <path id="DejaVuSans-31" d="M 794 531 
L 1825 531 
L 1825 4091 
L 703 3866 
L 703 4441 
L 1819 4666 
L 2450 4666 
L 2450 531 
L 3481 531 
L 3481 0 
L 794 0 
L 794 531 
z
" transform="scale(0.015625)"/>
       </defs>
       <use xlink:href="#DejaVuSans-31"/>
       <use xlink:href="#DejaVuSans-30" transform="translate(63.623047 0)"/>
       <use xlink:href="#DejaVuSans-30" transform="translate(127.246094 0)"/>
      </g>
     </g>
    </g>
    <g id="text_7">
     <!-- consommation présente $C_1$ -->
     <g transform="translate(207.204687 410.436719) scale(0.11 -0.11)">
      <defs>
       <path id="DejaVuSans-63" d="M 3122 3366 
L 3122 2828 
Q 2878 2963 2633 3030 
Q 2388 3097 2138 3097 
Q 1578 3097 1268 2742 
Q 959 2388 959 1747 
Q 959 1106 1268 751 
Q 1578 397 2138 397 
Q 2388 397 2633 464 
Q 2878 531 3122 666 
L 3122 134 
Q 2881 22 2623 -34 
Q 2366 -91 2075 -91 
Q 1284 -91 818 406 
Q 353 903 353 1747 
Q 353 2603 823 3093 
Q 1294 3584 2113 3584 
Q 2378 3584 2631 3529 
Q 2884 3475 3122 3366 
z
" transform="scale(0.015625)"/>
       <path id="DejaVuSans-6f" d="M 1959 3097 
Q 1497 3097 1228 2736 
Q 959 2375 959 1747 
Q 959 1119 1226 758 
Q 1494 397 1959 397 
Q 2419 397 2687 759 
Q 2956 1122 2956 1747 
Q 2956 2369 2687 2733 
Q 2419 3097 1959 3097 
z
M 1959 3584 
Q 2709 3584 3137 3096 
Q 3566 2609 3566 1747 
Q 3566 888 3137 398 
Q 2709 -91 1959 -91 
Q 1206 -91 779 398 
Q 353 888 353 1747 
Q 353 2609 779 3096 
Q 1206 3584 1959 3584 
z
" transform="scale(0.015625)"/>
       <path id="DejaVuSans-6e" d="M 3513 2113 
L 3513 0 
L 2938 0 
L 2938 2094 
Q 2938 2591 2744 2837 
Q 2550 3084 2163 3084 
Q 1697 3084 1428 2787 
Q 1159 2491 1159 1978 
L 1159 0 
L 581 0 
L 581 3500 
L 1159 3500 
L 1159 2956 
Q 1366 3272 1645 3428 
Q 1925 3584 2291 3584 
Q 2894 3584 3203 3211 
Q 3513 2838 3513 2113 
z
" transform="scale(0.015625)"/>
       <path id="DejaVuSans-73" d="M 2834 3397 
L 2834 2853 
Q 2591 2978 2328 3040 
Q 2066 3103 1784 3103 
Q 1356 3103 1142 2972 
Q 928 2841 928 2578 
Q 928 2378 1081 2264 
Q 1234 2150 1697 2047 
L 1894 2003 
Q 2506 1872 2764 1633 
Q 3022 1394 3022 966 
Q 3022 478 2636 193 
Q 2250 -91 1575 -91 
Q 1294 -91 989 -36 
Q 684 19 347 128 
L 347 722 
Q 666 556 975 473 
Q 1284 391 1588 391 
Q 1994 391 2212 530 
Q 2431 669 2431 922 
Q 2431 1156 2273 1281 
Q 2116 1406 1581 1522 
L 1381 1569 
Q 847 1681 609 1914 
Q 372 2147 372 2553 
Q 372 3047 722 3315 
Q 1072 3584 1716 3584 
Q 2034 3584 2315 3537 
Q 2597 3491 2834 3397 
z
" transform="scale(0.015625)"/>
       <path id="DejaVuSans-6d" d="M 3328 2828 
Q 3544 3216 3844 3400 
Q 4144 3584 4550 3584 
Q 5097 3584 5394 3201 
Q 5691 2819 5691 2113 
L 5691 0 
L 5113 0 
L 5113 2094 
Q 5113 2597 4934 2840 
Q 4756 3084 4391 3084 
Q 3944 3084 3684 2787 
Q 3425 2491 3425 1978 
L 3425 0 
L 2847 0 
L 2847 2094 
Q 2847 2600 2669 2842 
Q 2491 3084 2119 3084 
Q 1678 3084 1418 2786 
Q 1159 2488 1159 1978 
L 1159 0 
L 581 0 
L 581 3500 
L 1159 3500 
L 1159 2956 
Q 1356 3278 1631 3431 
Q 1906 3584 2284 3584 
Q 2666 3584 2933 3390 
Q 3200 3197 3328 2828 
z
" transform="scale(0.015625)"/>
       <path id="DejaVuSans-61" d="M 2194 1759 
Q 1497 1759 1228 1600 
Q 959 1441 959 1056 
Q 959 750 1161 570 
Q 1363 391 1709 391 
Q 2188 391 2477 730 
Q 2766 1069 2766 1631 
L 2766 1759 
L 2194 1759 
z
M 3341 1997 
L 3341 0 
L 2766 0 
L 2766 531 
Q 2569 213 2275 61 
Q 1981 -91 1556 -91 
Q 1019 -91 701 211 
Q 384 513 384 1019 
Q 384 1609 779 1909 
Q 1175 2209 1959 2209 
L 2766 2209 
L 2766 2266 
Q 2766 2663 2505 2880 
Q 2244 3097 1772 3097 
Q 1472 3097 1187 3025 
Q 903 2953 641 2809 
L 641 3341 
Q 956 3463 1253 3523 
Q 1550 3584 1831 3584 
Q 2591 3584 2966 3190 
Q 3341 2797 3341 1997 
z
" transform="scale(0.015625)"/>
       <path id="DejaVuSans-74" d="M 1172 4494 
L 1172 3500 
L 2356 3500 
L 2356 3053 
L 1172 3053 
L 1172 1153 
Q 1172 725 1289 603 
Q 1406 481 1766 481 
L 2356 481 
L 2356 0 
L 1766 0 
Q 1100 0 847 248 
Q 594 497 594 1153 
L 594 3053 
L 172 3053 
L 172 3500 
L 594 3500 
L 594 4494 
L 1172 4494 
z
" transform="scale(0.015625)"/>
       <path id="DejaVuSans-69" d="M 603 3500 
L 1178 3500 
L 1178 0 
L 603 0 
L 603 3500 
z
M 603 4863 
L 1178 4863 
L 1178 4134 
L 603 4134 
L 603 4863 
z
" transform="scale(0.015625)"/>
       <path id="DejaVuSans-20" transform="scale(0.015625)"/>
       <path id="DejaVuSans-70" d="M 1159 525 
L 1159 -1331 
L 581 -1331 
L 581 3500 
L 1159 3500 
L 1159 2969 
Q 1341 3281 1617 3432 
Q 1894 3584 2278 3584 
Q 2916 3584 3314 3078 
Q 3713 2572 3713 1747 
Q 3713 922 3314 415 
Q 2916 -91 2278 -91 
Q 1894 -91 1617 61 
Q 1341 213 1159 525 
z
M 3116 1747 
Q 3116 2381 2855 2742 
Q 2594 3103 2138 3103 
Q 1681 3103 1420 2742 
Q 1159 2381 1159 1747 
Q 1159 1113 1420 752 
Q 1681 391 2138 391 
Q 2594 391 2855 752 
Q 3116 1113 3116 1747 
z
" transform="scale(0.015625)"/>
       <path id="DejaVuSans-72" d="M 2631 2963 
Q 2534 3019 2420 3045 
Q 2306 3072 2169 3072 
Q 1681 3072 1420 2755 
Q 1159 2438 1159 1844 
L 1159 0 
L 581 0 
L 581 3500 
L 1159 3500 
L 1159 2956 
Q 1341 3275 1631 3429 
Q 1922 3584 2338 3584 
Q 2397 3584 2469 3576 
Q 2541 3569 2628 3553 
L 2631 2963 
z
" transform="scale(0.015625)"/>
       <path id="DejaVuSans-e9" d="M 3597 1894 
L 3597 1613 
L 953 1613 
Q 991 1019 1311 708 
Q 1631 397 2203 397 
Q 2534 397 2845 478 
Q 3156 559 3463 722 
L 3463 178 
Q 3153 47 2828 -22 
Q 2503 -91 2169 -91 
Q 1331 -91 842 396 
Q 353 884 353 1716 
Q 353 2575 817 3079 
Q 1281 3584 2069 3584 
Q 2775 3584 3186 3129 
Q 3597 2675 3597 1894 
z
M 3022 2063 
Q 3016 2534 2758 2815 
Q 2500 3097 2075 3097 
Q 1594 3097 1305 2825 
Q 1016 2553 972 2059 
L 3022 2063 
z
M 2469 5119 
L 3091 5119 
L 2072 3944 
L 1594 3944 
L 2469 5119 
z
" transform="scale(0.015625)"/>
       <path id="DejaVuSans-65" d="M 3597 1894 
L 3597 1613 
L 953 1613 
Q 991 1019 1311 708 
Q 1631 397 2203 397 
Q 2534 397 2845 478 
Q 3156 559 3463 722 
L 3463 178 
Q 3153 47 2828 -22 
Q 2503 -91 2169 -91 
Q 1331 -91 842 396 
Q 353 884 353 1716 
Q 353 2575 817 3079 
Q 1281 3584 2069 3584 
Q 2775 3584 3186 3129 
Q 3597 2675 3597 1894 
z
M 3022 2063 
Q 3016 2534 2758 2815 
Q 2500 3097 2075 3097 
Q 1594 3097 1305 2825 
Q 1016 2553 972 2059 
L 3022 2063 
z
" transform="scale(0.015625)"/>
       <path id="DejaVuSans-Oblique-43" d="M 4447 4306 
L 4319 3641 
Q 4019 3944 3683 4091 
Q 3347 4238 2956 4238 
Q 2422 4238 2017 3981 
Q 1613 3725 1319 3200 
Q 1131 2863 1032 2486 
Q 934 2109 934 1728 
Q 934 1091 1264 756 
Q 1594 422 2222 422 
Q 2656 422 3056 561 
Q 3456 700 3834 978 
L 3688 231 
Q 3316 72 2936 -9 
Q 2556 -91 2175 -91 
Q 1278 -91 773 396 
Q 269 884 269 1753 
Q 269 2309 461 2846 
Q 653 3384 1013 3828 
Q 1394 4300 1883 4525 
Q 2372 4750 3022 4750 
Q 3422 4750 3780 4639 
Q 4138 4528 4447 4306 
z
" transform="scale(0.015625)"/>
      </defs>
      <use xlink:href="#DejaVuSans-63" transform="translate(0 0.015625)"/>
      <use xlink:href="#DejaVuSans-6f" transform="translate(54.980469 0.015625)"/>
      <use xlink:href="#DejaVuSans-6e" transform="translate(116.162109 0.015625)"/>
      <use xlink:href="#DejaVuSans-73" transform="translate(179.541016 0.015625)"/>
      <use xlink:href="#DejaVuSans-6f" transform="translate(231.640625 0.015625)"/>
      <use xlink:href="#DejaVuSans-6d" transform="translate(292.822266 0.015625)"/>
      <use xlink:href="#DejaVuSans-6d" transform="translate(390.234375 0.015625)"/>
      <use xlink:href="#DejaVuSans-61" transform="translate(487.646484 0.015625)"/>
      <use xlink:href="#DejaVuSans-74" transform="translate(548.925781 0.015625)"/>
      <use xlink:href="#DejaVuSans-69" transform="translate(588.134766 0.015625)"/>
      <use xlink:href="#DejaVuSans-6f" transform="translate(615.917969 0.015625)"/>
      <use xlink:href="#DejaVuSans-6e" transform="translate(677.099609 0.015625)"/>
      <use xlink:href="#DejaVuSans-20" transform="translate(740.478516 0.015625)"/>
      <use xlink:href="#DejaVuSans-70" transform="translate(772.265625 0.015625)"/>
      <use xlink:href="#DejaVuSans-72" transform="translate(835.742188 0.015625)"/>
      <use xlink:href="#DejaVuSans-e9" transform="translate(876.855469 0.015625)"/>
      <use xlink:href="#DejaVuSans-73" transform="translate(938.378906 0.015625)"/>
      <use xlink:href="#DejaVuSans-65" transform="translate(990.478516 0.015625)"/>
      <use xlink:href="#DejaVuSans-6e" transform="translate(1052.001953 0.015625)"/>
      <use xlink:href="#DejaVuSans-74" transform="translate(1115.380859 0.015625)"/>
      <use xlink:href="#DejaVuSans-65" transform="translate(1154.589844 0.015625)"/>
      <use xlink:href="#DejaVuSans-20" transform="translate(1216.113281 0.015625)"/>
      <use xlink:href="#DejaVuSans-Oblique-43" transform="translate(1247.900391 0.015625)"/>
      <use xlink:href="#DejaVuSans-31" transform="translate(1317.724609 -16.390625) scale(0.7)"/>
     </g>
    </g>
   </g>
   <g id="matplotlib.axis_2">
    <g id="ytick_1">
     <g id="line2d_13">
      <path d="M 49.842188 379.990781 
L 514.717187 379.990781 
" clip-path="url(#p37b98cfa0d)" style="fill: none; stroke: #b0b0b0; stroke-opacity: 0.22; stroke-width: 0.8; stroke-linecap: square"/>
     </g>
     <g id="line2d_14">
      <defs>
       <path id="meddfc554dc" d="M 0 0 
L -3.5 0 
" style="stroke: #000000; stroke-width: 0.8"/>
      </defs>
      <g>
       <use xlink:href="#meddfc554dc" x="49.842188" y="379.990781" style="stroke: #000000; stroke-width: 0.8"/>
      </g>
     </g>
     <g id="text_8">
      <!-- 0 -->
      <g transform="translate(35.843438 384.169922) scale(0.11 -0.11)">
       <use xlink:href="#DejaVuSans-30"/>
      </g>
     </g>
    </g>
    <g id="ytick_2">
     <g id="line2d_15">
      <path d="M 49.842188 338.039017 
L 514.717187 338.039017 
" clip-path="url(#p37b98cfa0d)" style="fill: none; stroke: #b0b0b0; stroke-opacity: 0.22; stroke-width: 0.8; stroke-linecap: square"/>
     </g>
     <g id="line2d_16">
      <g>
       <use xlink:href="#meddfc554dc" x="49.842188" y="338.039017" style="stroke: #000000; stroke-width: 0.8"/>
      </g>
     </g>
     <g id="text_9">
      <!-- 20 -->
      <g transform="translate(28.844688 342.218157) scale(0.11 -0.11)">
       <use xlink:href="#DejaVuSans-32"/>
       <use xlink:href="#DejaVuSans-30" transform="translate(63.623047 0)"/>
      </g>
     </g>
    </g>
    <g id="ytick_3">
     <g id="line2d_17">
      <path d="M 49.842188 296.087252 
L 514.717187 296.087252 
" clip-path="url(#p37b98cfa0d)" style="fill: none; stroke: #b0b0b0; stroke-opacity: 0.22; stroke-width: 0.8; stroke-linecap: square"/>
     </g>
     <g id="line2d_18">
      <g>
       <use xlink:href="#meddfc554dc" x="49.842188" y="296.087252" style="stroke: #000000; stroke-width: 0.8"/>
      </g>
     </g>
     <g id="text_10">
      <!-- 40 -->
      <g transform="translate(28.844688 300.266392) scale(0.11 -0.11)">
       <use xlink:href="#DejaVuSans-34"/>
       <use xlink:href="#DejaVuSans-30" transform="translate(63.623047 0)"/>
      </g>
     </g>
    </g>
    <g id="ytick_4">
     <g id="line2d_19">
      <path d="M 49.842188 254.135487 
L 514.717187 254.135487 
" clip-path="url(#p37b98cfa0d)" style="fill: none; stroke: #b0b0b0; stroke-opacity: 0.22; stroke-width: 0.8; stroke-linecap: square"/>
     </g>
     <g id="line2d_20">
      <g>
       <use xlink:href="#meddfc554dc" x="49.842188" y="254.135487" style="stroke: #000000; stroke-width: 0.8"/>
      </g>
     </g>
     <g id="text_11">
      <!-- 60 -->
      <g transform="translate(28.844688 258.314628) scale(0.11 -0.11)">
       <use xlink:href="#DejaVuSans-36"/>
       <use xlink:href="#DejaVuSans-30" transform="translate(63.623047 0)"/>
      </g>
     </g>
    </g>
    <g id="ytick_5">
     <g id="line2d_21">
      <path d="M 49.842188 212.183722 
L 514.717187 212.183722 
" clip-path="url(#p37b98cfa0d)" style="fill: none; stroke: #b0b0b0; stroke-opacity: 0.22; stroke-width: 0.8; stroke-linecap: square"/>
     </g>
     <g id="line2d_22">
      <g>
       <use xlink:href="#meddfc554dc" x="49.842188" y="212.183722" style="stroke: #000000; stroke-width: 0.8"/>
      </g>
     </g>
     <g id="text_12">
      <!-- 80 -->
      <g transform="translate(28.844688 216.362863) scale(0.11 -0.11)">
       <use xlink:href="#DejaVuSans-38"/>
       <use xlink:href="#DejaVuSans-30" transform="translate(63.623047 0)"/>
      </g>
     </g>
    </g>
    <g id="ytick_6">
     <g id="line2d_23">
      <path d="M 49.842188 170.231958 
L 514.717187 170.231958 
" clip-path="url(#p37b98cfa0d)" style="fill: none; stroke: #b0b0b0; stroke-opacity: 0.22; stroke-width: 0.8; stroke-linecap: square"/>
     </g>
     <g id="line2d_24">
      <g>
       <use xlink:href="#meddfc554dc" x="49.842188" y="170.231958" style="stroke: #000000; stroke-width: 0.8"/>
      </g>
     </g>
     <g id="text_13">
      <!-- 100 -->
      <g transform="translate(21.845938 174.411098) scale(0.11 -0.11)">
       <use xlink:href="#DejaVuSans-31"/>
       <use xlink:href="#DejaVuSans-30" transform="translate(63.623047 0)"/>
       <use xlink:href="#DejaVuSans-30" transform="translate(127.246094 0)"/>
      </g>
     </g>
    </g>
    <g id="ytick_7">
     <g id="line2d_25">
      <path d="M 49.842188 128.280193 
L 514.717187 128.280193 
" clip-path="url(#p37b98cfa0d)" style="fill: none; stroke: #b0b0b0; stroke-opacity: 0.22; stroke-width: 0.8; stroke-linecap: square"/>
     </g>
     <g id="line2d_26">
      <g>
       <use xlink:href="#meddfc554dc" x="49.842188" y="128.280193" style="stroke: #000000; stroke-width: 0.8"/>
      </g>
     </g>
     <g id="text_14">
      <!-- 120 -->
      <g transform="translate(21.845938 132.459334) scale(0.11 -0.11)">
       <use xlink:href="#DejaVuSans-31"/>
       <use xlink:href="#DejaVuSans-32" transform="translate(63.623047 0)"/>
       <use xlink:href="#DejaVuSans-30" transform="translate(127.246094 0)"/>
      </g>
     </g>
    </g>
    <g id="ytick_8">
     <g id="line2d_27">
      <path d="M 49.842188 86.328428 
L 514.717187 86.328428 
" clip-path="url(#p37b98cfa0d)" style="fill: none; stroke: #b0b0b0; stroke-opacity: 0.22; stroke-width: 0.8; stroke-linecap: square"/>
     </g>
     <g id="line2d_28">
      <g>
       <use xlink:href="#meddfc554dc" x="49.842188" y="86.328428" style="stroke: #000000; stroke-width: 0.8"/>
      </g>
     </g>
     <g id="text_15">
      <!-- 140 -->
      <g transform="translate(21.845938 90.507569) scale(0.11 -0.11)">
       <use xlink:href="#DejaVuSans-31"/>
       <use xlink:href="#DejaVuSans-34" transform="translate(63.623047 0)"/>
       <use xlink:href="#DejaVuSans-30" transform="translate(127.246094 0)"/>
      </g>
     </g>
    </g>
    <g id="ytick_9">
     <g id="line2d_29">
      <path d="M 49.842188 44.376664 
L 514.717187 44.376664 
" clip-path="url(#p37b98cfa0d)" style="fill: none; stroke: #b0b0b0; stroke-opacity: 0.22; stroke-width: 0.8; stroke-linecap: square"/>
     </g>
     <g id="line2d_30">
      <g>
       <use xlink:href="#meddfc554dc" x="49.842188" y="44.376664" style="stroke: #000000; stroke-width: 0.8"/>
      </g>
     </g>
     <g id="text_16">
      <!-- 160 -->
      <g transform="translate(21.845938 48.555804) scale(0.11 -0.11)">
       <use xlink:href="#DejaVuSans-31"/>
       <use xlink:href="#DejaVuSans-36" transform="translate(63.623047 0)"/>
       <use xlink:href="#DejaVuSans-30" transform="translate(127.246094 0)"/>
      </g>
     </g>
    </g>
    <g id="text_17">
     <!-- consommation future $C_2$ -->
     <g transform="translate(15.558281 269.070781) rotate(-90) scale(0.11 -0.11)">
      <defs>
       <path id="DejaVuSans-66" d="M 2375 4863 
L 2375 4384 
L 1825 4384 
Q 1516 4384 1395 4259 
Q 1275 4134 1275 3809 
L 1275 3500 
L 2222 3500 
L 2222 3053 
L 1275 3053 
L 1275 0 
L 697 0 
L 697 3053 
L 147 3053 
L 147 3500 
L 697 3500 
L 697 3744 
Q 697 4328 969 4595 
Q 1241 4863 1831 4863 
L 2375 4863 
z
" transform="scale(0.015625)"/>
       <path id="DejaVuSans-75" d="M 544 1381 
L 544 3500 
L 1119 3500 
L 1119 1403 
Q 1119 906 1312 657 
Q 1506 409 1894 409 
Q 2359 409 2629 706 
Q 2900 1003 2900 1516 
L 2900 3500 
L 3475 3500 
L 3475 0 
L 2900 0 
L 2900 538 
Q 2691 219 2414 64 
Q 2138 -91 1772 -91 
Q 1169 -91 856 284 
Q 544 659 544 1381 
z
M 1991 3584 
L 1991 3584 
z
" transform="scale(0.015625)"/>
      </defs>
      <use xlink:href="#DejaVuSans-63" transform="translate(0 0.015625)"/>
      <use xlink:href="#DejaVuSans-6f" transform="translate(54.980469 0.015625)"/>
      <use xlink:href="#DejaVuSans-6e" transform="translate(116.162109 0.015625)"/>
      <use xlink:href="#DejaVuSans-73" transform="translate(179.541016 0.015625)"/>
      <use xlink:href="#DejaVuSans-6f" transform="translate(231.640625 0.015625)"/>
      <use xlink:href="#DejaVuSans-6d" transform="translate(292.822266 0.015625)"/>
      <use xlink:href="#DejaVuSans-6d" transform="translate(390.234375 0.015625)"/>
      <use xlink:href="#DejaVuSans-61" transform="translate(487.646484 0.015625)"/>
      <use xlink:href="#DejaVuSans-74" transform="translate(548.925781 0.015625)"/>
      <use xlink:href="#DejaVuSans-69" transform="translate(588.134766 0.015625)"/>
      <use xlink:href="#DejaVuSans-6f" transform="translate(615.917969 0.015625)"/>
      <use xlink:href="#DejaVuSans-6e" transform="translate(677.099609 0.015625)"/>
      <use xlink:href="#DejaVuSans-20" transform="translate(740.478516 0.015625)"/>
      <use xlink:href="#DejaVuSans-66" transform="translate(772.265625 0.015625)"/>
      <use xlink:href="#DejaVuSans-75" transform="translate(807.470703 0.015625)"/>
      <use xlink:href="#DejaVuSans-74" transform="translate(870.849609 0.015625)"/>
      <use xlink:href="#DejaVuSans-75" transform="translate(910.058594 0.015625)"/>
      <use xlink:href="#DejaVuSans-72" transform="translate(973.4375 0.015625)"/>
      <use xlink:href="#DejaVuSans-65" transform="translate(1014.550781 0.015625)"/>
      <use xlink:href="#DejaVuSans-20" transform="translate(1076.074219 0.015625)"/>
      <use xlink:href="#DejaVuSans-Oblique-43" transform="translate(1107.861328 0.015625)"/>
      <use xlink:href="#DejaVuSans-32" transform="translate(1177.685547 -16.390625) scale(0.7)"/>
     </g>
    </g>
   </g>
   <g id="line2d_31">
    <path d="M 51.955256 162.942839 
L 468.394672 379.971884 
L 468.394672 379.971884 
" clip-path="url(#p37b98cfa0d)" style="fill: none; stroke-dasharray: 8.88,3.84; stroke-dashoffset: 0; stroke: #595959; stroke-width: 2.4"/>
   </g>
   <g id="line2d_32">
    <path d="M 177.026048 23.996043 
L 416.050229 379.905744 
L 416.050229 379.905744 
" clip-path="url(#p37b98cfa0d)" style="fill: none; stroke: #1f77b4; stroke-width: 3.2; stroke-linecap: square"/>
   </g>
   <g id="line2d_33">
    <path d="M 85.770692 23.933241 
L 324.794873 379.842942 
L 324.794873 379.842942 
" clip-path="url(#p37b98cfa0d)" style="fill: none; stroke-dasharray: 7.4,3.2; stroke-dashoffset: 0; stroke: #2ca02c; stroke-width: 2"/>
   </g>
   <g id="line2d_34">
    <path d="M 148.306088 24.518117 
L 151.548664 41.381508 
L 154.791241 56.95251 
L 158.033817 71.36566 
L 161.276393 84.738009 
L 164.518969 97.171821 
L 167.761545 108.756794 
L 171.004121 119.571898 
L 174.246697 129.686903 
L 177.952498 140.468656 
L 181.6583 150.498006 
L 185.364101 159.846465 
L 189.069902 168.577035 
L 192.775703 176.745417 
L 196.481505 184.401018 
L 200.187306 191.587802 
L 204.356332 199.161232 
L 208.525359 206.240523 
L 212.694385 212.869665 
L 216.863412 219.087733 
L 221.032438 224.929552 
L 225.66469 231.016918 
L 230.296941 236.716158 
L 234.929193 242.061056 
L 239.561444 247.081704 
L 244.656921 252.261912 
L 249.752398 257.114149 
L 254.847874 261.666765 
L 260.406576 266.321169 
L 265.965278 270.678235 
L 271.52398 274.763893 
L 277.545907 278.910469 
L 283.567834 282.791689 
L 290.052986 286.701237 
L 296.538139 290.355552 
L 303.486516 294.013436 
L 310.898118 297.64878 
L 318.309721 301.034969 
L 326.184549 304.385772 
L 334.522601 307.682942 
L 343.323879 310.911113 
L 352.125157 313.906032 
L 361.389661 316.831757 
L 371.117389 319.678472 
L 381.771567 322.558876 
L 392.888971 325.327999 
L 404.4696 327.983601 
L 416.976679 330.61841 
L 429.946984 333.123826 
L 443.843738 335.581385 
L 458.666944 337.974657 
L 474.416599 340.290732 
L 491.092704 342.519899 
L 509.158486 344.708717 
L 514.717187 345.339645 
L 514.717187 345.339645 
" clip-path="url(#p37b98cfa0d)" style="fill: none; stroke-dasharray: 14.08,3.52,2.2,3.52; stroke-dashoffset: 0; stroke: #616161; stroke-width: 2.2"/>
   </g>
   <g id="line2d_35">
    <path d="M 208.525359 24.459723 
L 212.23116 36.560131 
L 216.400186 49.373454 
L 220.569213 61.409362 
L 224.738239 72.732325 
L 228.907266 83.400096 
L 233.076292 93.46455 
L 237.245318 102.972399 
L 241.414345 111.965804 
L 246.046596 121.401387 
L 250.678848 130.296057 
L 255.3111 138.692254 
L 259.943351 146.628229 
L 264.575603 154.13854 
L 269.207854 161.254478 
L 274.303331 168.660322 
L 279.398808 175.657495 
L 284.494284 182.276886 
L 289.589761 188.546445 
L 295.148463 195.016706 
L 300.707165 201.130545 
L 306.265867 206.914856 
L 311.824569 212.39398 
L 317.846496 218.010858 
L 323.868423 223.320856 
L 329.89035 228.346945 
L 336.375502 233.465971 
L 342.860654 238.303337 
L 349.809032 243.197751 
L 356.757409 247.816727 
L 364.169011 252.463916 
L 371.580614 256.845024 
L 379.455442 261.231694 
L 387.330269 265.363975 
L 395.668322 269.484456 
L 404.006375 273.363856 
L 412.807653 277.218524 
L 422.072156 281.031428 
L 431.799884 284.787711 
L 441.990838 288.474626 
L 452.645016 292.081428 
L 463.76242 295.59925 
L 475.343049 299.020959 
L 487.386903 302.341009 
L 499.893982 305.555282 
L 512.864287 308.660937 
L 514.717187 309.086972 
L 514.717187 309.086972 
" clip-path="url(#p37b98cfa0d)" style="fill: none; stroke-dasharray: 2.8,4.62; stroke-dashoffset: 0; stroke: #1f77b4; stroke-width: 2.8"/>
   </g>
   <g id="patch_3">
    <path d="M 49.842188 379.990781 
L 49.842188 23.400781 
" style="fill: none; stroke: #000000; stroke-width: 0.8; stroke-linejoin: miter; stroke-linecap: square"/>
   </g>
   <g id="patch_4">
    <path d="M 49.842188 379.990781 
L 514.717187 379.990781 
" style="fill: none; stroke: #000000; stroke-width: 0.8; stroke-linejoin: miter; stroke-linecap: square"/>
   </g>
   <g id="patch_5">
    <path d="M 412.005207 352.392993 
Q 400.82866 345.728522 390.996497 339.865694 
" style="fill: none; stroke: #000000; stroke-width: 1.4; stroke-linecap: round"/>
    <path d="M 393.118422 343.180122 
L 390.996497 339.865694 
L 394.921195 340.156811 
" style="fill: none; stroke: #000000; stroke-width: 1.4; stroke-linecap: round"/>
   </g>
   <g id="text_18">
    <g id="patch_6">
     <path d="M 397.933097 365.805142 
L 450.286222 365.805142 
Q 452.222222 365.805142 452.222222 363.869142 
L 452.222222 355.352392 
Q 452.222222 353.416392 450.286222 353.416392 
L 397.933097 353.416392 
Q 395.997097 353.416392 395.997097 355.352392 
L 395.997097 363.869142 
Q 395.997097 365.805142 397.933097 365.805142 
z
" style="fill: #ffffff; opacity: 0.9"/>
    </g>
    <!-- A (dotation) -->
    <g transform="translate(397.933097 362.039017) scale(0.088 -0.088)">
     <defs>
      <path id="DejaVuSans-41" d="M 2188 4044 
L 1331 1722 
L 3047 1722 
L 2188 4044 
z
M 1831 4666 
L 2547 4666 
L 4325 0 
L 3669 0 
L 3244 1197 
L 1141 1197 
L 716 0 
L 50 0 
L 1831 4666 
z
" transform="scale(0.015625)"/>
      <path id="DejaVuSans-28" d="M 1984 4856 
Q 1566 4138 1362 3434 
Q 1159 2731 1159 2009 
Q 1159 1288 1364 580 
Q 1569 -128 1984 -844 
L 1484 -844 
Q 1016 -109 783 600 
Q 550 1309 550 2009 
Q 550 2706 781 3412 
Q 1013 4119 1484 4856 
L 1984 4856 
z
" transform="scale(0.015625)"/>
      <path id="DejaVuSans-64" d="M 2906 2969 
L 2906 4863 
L 3481 4863 
L 3481 0 
L 2906 0 
L 2906 525 
Q 2725 213 2448 61 
Q 2172 -91 1784 -91 
Q 1150 -91 751 415 
Q 353 922 353 1747 
Q 353 2572 751 3078 
Q 1150 3584 1784 3584 
Q 2172 3584 2448 3432 
Q 2725 3281 2906 2969 
z
M 947 1747 
Q 947 1113 1208 752 
Q 1469 391 1925 391 
Q 2381 391 2643 752 
Q 2906 1113 2906 1747 
Q 2906 2381 2643 2742 
Q 2381 3103 1925 3103 
Q 1469 3103 1208 2742 
Q 947 2381 947 1747 
z
" transform="scale(0.015625)"/>
      <path id="DejaVuSans-29" d="M 513 4856 
L 1013 4856 
Q 1481 4119 1714 3412 
Q 1947 2706 1947 2009 
Q 1947 1309 1714 600 
Q 1481 -109 1013 -844 
L 513 -844 
Q 928 -128 1133 580 
Q 1338 1288 1338 2009 
Q 1338 2731 1133 3434 
Q 928 4138 513 4856 
z
" transform="scale(0.015625)"/>
     </defs>
     <use xlink:href="#DejaVuSans-41"/>
     <use xlink:href="#DejaVuSans-20" transform="translate(68.408203 0)"/>
     <use xlink:href="#DejaVuSans-28" transform="translate(100.195312 0)"/>
     <use xlink:href="#DejaVuSans-64" transform="translate(139.208984 0)"/>
     <use xlink:href="#DejaVuSans-6f" transform="translate(202.685547 0)"/>
     <use xlink:href="#DejaVuSans-74" transform="translate(263.867188 0)"/>
     <use xlink:href="#DejaVuSans-61" transform="translate(303.076172 0)"/>
     <use xlink:href="#DejaVuSans-74" transform="translate(364.355469 0)"/>
     <use xlink:href="#DejaVuSans-69" transform="translate(403.564453 0)"/>
     <use xlink:href="#DejaVuSans-6f" transform="translate(431.347656 0)"/>
     <use xlink:href="#DejaVuSans-6e" transform="translate(492.529297 0)"/>
     <use xlink:href="#DejaVuSans-29" transform="translate(555.908203 0)"/>
    </g>
   </g>
   <g id="patch_7">
    <path d="M 330.57185 305.326812 
Q 316.70249 299.420271 304.273224 294.127022 
" style="fill: none; stroke: #404040; stroke-width: 1.4; stroke-linecap: round"/>
    <path d="M 306.822173 297.125498 
L 304.273224 294.127022 
L 308.201374 293.886948 
" style="fill: none; stroke: #404040; stroke-width: 1.4; stroke-linecap: round"/>
   </g>
   <g id="text_19">
    <g id="patch_8">
     <path d="M 316.995434 318.497236 
L 376.909684 318.497236 
Q 378.845684 318.497236 378.845684 316.561236 
L 378.845684 308.044486 
Q 378.845684 306.108486 376.909684 306.108486 
L 316.995434 306.108486 
Q 315.059434 306.108486 315.059434 308.044486 
L 315.059434 316.561236 
Q 315.059434 318.497236 316.995434 318.497236 
z
" style="fill: #ffffff; opacity: 0.9"/>
    </g>
    <!-- B (opt. initial) -->
    <g style="fill: #404040" transform="translate(316.995434 314.731111) scale(0.088 -0.088)">
     <defs>
      <path id="DejaVuSans-42" d="M 1259 2228 
L 1259 519 
L 2272 519 
Q 2781 519 3026 730 
Q 3272 941 3272 1375 
Q 3272 1813 3026 2020 
Q 2781 2228 2272 2228 
L 1259 2228 
z
M 1259 4147 
L 1259 2741 
L 2194 2741 
Q 2656 2741 2882 2914 
Q 3109 3088 3109 3444 
Q 3109 3797 2882 3972 
Q 2656 4147 2194 4147 
L 1259 4147 
z
M 628 4666 
L 2241 4666 
Q 2963 4666 3353 4366 
Q 3744 4066 3744 3513 
Q 3744 3084 3544 2831 
Q 3344 2578 2956 2516 
Q 3422 2416 3680 2098 
Q 3938 1781 3938 1306 
Q 3938 681 3513 340 
Q 3088 0 2303 0 
L 628 0 
L 628 4666 
z
" transform="scale(0.015625)"/>
      <path id="DejaVuSans-2e" d="M 684 794 
L 1344 794 
L 1344 0 
L 684 0 
L 684 794 
z
" transform="scale(0.015625)"/>
      <path id="DejaVuSans-6c" d="M 603 4863 
L 1178 4863 
L 1178 0 
L 603 0 
L 603 4863 
z
" transform="scale(0.015625)"/>
     </defs>
     <use xlink:href="#DejaVuSans-42"/>
     <use xlink:href="#DejaVuSans-20" transform="translate(68.603516 0)"/>
     <use xlink:href="#DejaVuSans-28" transform="translate(100.390625 0)"/>
     <use xlink:href="#DejaVuSans-6f" transform="translate(139.404297 0)"/>
     <use xlink:href="#DejaVuSans-70" transform="translate(200.585938 0)"/>
     <use xlink:href="#DejaVuSans-74" transform="translate(264.0625 0)"/>
     <use xlink:href="#DejaVuSans-2e" transform="translate(303.271484 0)"/>
     <use xlink:href="#DejaVuSans-20" transform="translate(335.058594 0)"/>
     <use xlink:href="#DejaVuSans-69" transform="translate(366.845703 0)"/>
     <use xlink:href="#DejaVuSans-6e" transform="translate(394.628906 0)"/>
     <use xlink:href="#DejaVuSans-69" transform="translate(458.007812 0)"/>
     <use xlink:href="#DejaVuSans-74" transform="translate(485.791016 0)"/>
     <use xlink:href="#DejaVuSans-69" transform="translate(525 0)"/>
     <use xlink:href="#DejaVuSans-61" transform="translate(552.783203 0)"/>
     <use xlink:href="#DejaVuSans-6c" transform="translate(614.0625 0)"/>
     <use xlink:href="#DejaVuSans-29" transform="translate(641.845703 0)"/>
    </g>
   </g>
   <g id="patch_9">
    <path d="M 185.430511 210.323771 
Q 199.172549 213.051755 211.379298 215.474964 
" style="fill: none; stroke: #2ca02c; stroke-width: 1.4; stroke-linecap: round"/>
    <path d="M 208.269368 213.063256 
L 211.379298 215.474964 
L 207.583974 216.515883 
" style="fill: none; stroke: #2ca02c; stroke-width: 1.4; stroke-linecap: round"/>
   </g>
   <g id="text_20">
    <g id="patch_10">
     <path d="M 114.873371 209.934711 
L 187.887246 209.934711 
Q 189.823246 209.934711 189.823246 207.998711 
L 189.823246 199.129961 
Q 189.823246 197.193961 187.887246 197.193961 
L 114.873371 197.193961 
Q 112.937371 197.193961 112.937371 199.129961 
L 112.937371 207.998711 
Q 112.937371 209.934711 114.873371 209.934711 
z
" style="fill: #ffffff; opacity: 0.9"/>
    </g>
    <!-- C (pt compensé) -->
    <g style="fill: #2ca02c" transform="translate(114.873371 206.168586) scale(0.088 -0.088)">
     <defs>
      <path id="DejaVuSans-43" d="M 4122 4306 
L 4122 3641 
Q 3803 3938 3442 4084 
Q 3081 4231 2675 4231 
Q 1875 4231 1450 3742 
Q 1025 3253 1025 2328 
Q 1025 1406 1450 917 
Q 1875 428 2675 428 
Q 3081 428 3442 575 
Q 3803 722 4122 1019 
L 4122 359 
Q 3791 134 3420 21 
Q 3050 -91 2638 -91 
Q 1578 -91 968 557 
Q 359 1206 359 2328 
Q 359 3453 968 4101 
Q 1578 4750 2638 4750 
Q 3056 4750 3426 4639 
Q 3797 4528 4122 4306 
z
" transform="scale(0.015625)"/>
     </defs>
     <use xlink:href="#DejaVuSans-43"/>
     <use xlink:href="#DejaVuSans-20" transform="translate(69.824219 0)"/>
     <use xlink:href="#DejaVuSans-28" transform="translate(101.611328 0)"/>
     <use xlink:href="#DejaVuSans-70" transform="translate(140.625 0)"/>
     <use xlink:href="#DejaVuSans-74" transform="translate(204.101562 0)"/>
     <use xlink:href="#DejaVuSans-20" transform="translate(243.310547 0)"/>
     <use xlink:href="#DejaVuSans-63" transform="translate(275.097656 0)"/>
     <use xlink:href="#DejaVuSans-6f" transform="translate(330.078125 0)"/>
     <use xlink:href="#DejaVuSans-6d" transform="translate(391.259766 0)"/>
     <use xlink:href="#DejaVuSans-70" transform="translate(488.671875 0)"/>
     <use xlink:href="#DejaVuSans-65" transform="translate(552.148438 0)"/>
     <use xlink:href="#DejaVuSans-6e" transform="translate(613.671875 0)"/>
     <use xlink:href="#DejaVuSans-73" transform="translate(677.050781 0)"/>
     <use xlink:href="#DejaVuSans-e9" transform="translate(729.150391 0)"/>
     <use xlink:href="#DejaVuSans-29" transform="translate(790.673828 0)"/>
    </g>
   </g>
   <g id="patch_11">
    <path d="M 292.486309 152.372881 
Q 281.967073 156.725235 272.894173 160.479164 
" style="fill: none; stroke: #1f77b4; stroke-width: 1.4; stroke-linecap: round"/>
    <path d="M 276.819641 160.759693 
L 272.894173 160.479164 
L 275.473878 157.507107 
" style="fill: none; stroke: #1f77b4; stroke-width: 1.4; stroke-linecap: round"/>
   </g>
   <g id="text_21">
    <g id="patch_12">
     <path d="M 281.601278 151.60773 
L 337.012403 151.60773 
Q 338.948403 151.60773 338.948403 149.67173 
L 338.948403 141.15498 
Q 338.948403 139.21898 337.012403 139.21898 
L 281.601278 139.21898 
Q 279.665278 139.21898 279.665278 141.15498 
L 279.665278 149.67173 
Q 279.665278 151.60773 281.601278 151.60773 
z
" style="fill: #ffffff; opacity: 0.9"/>
    </g>
    <!-- D (opt. final) -->
    <g style="fill: #1f77b4" transform="translate(281.601278 147.841605) scale(0.088 -0.088)">
     <defs>
      <path id="DejaVuSans-44" d="M 1259 4147 
L 1259 519 
L 2022 519 
Q 2988 519 3436 956 
Q 3884 1394 3884 2338 
Q 3884 3275 3436 3711 
Q 2988 4147 2022 4147 
L 1259 4147 
z
M 628 4666 
L 1925 4666 
Q 3281 4666 3915 4102 
Q 4550 3538 4550 2338 
Q 4550 1131 3912 565 
Q 3275 0 1925 0 
L 628 0 
L 628 4666 
z
" transform="scale(0.015625)"/>
     </defs>
     <use xlink:href="#DejaVuSans-44"/>
     <use xlink:href="#DejaVuSans-20" transform="translate(77.001953 0)"/>
     <use xlink:href="#DejaVuSans-28" transform="translate(108.789062 0)"/>
     <use xlink:href="#DejaVuSans-6f" transform="translate(147.802734 0)"/>
     <use xlink:href="#DejaVuSans-70" transform="translate(208.984375 0)"/>
     <use xlink:href="#DejaVuSans-74" transform="translate(272.460938 0)"/>
     <use xlink:href="#DejaVuSans-2e" transform="translate(311.669922 0)"/>
     <use xlink:href="#DejaVuSans-20" transform="translate(343.457031 0)"/>
     <use xlink:href="#DejaVuSans-66" transform="translate(375.244141 0)"/>
     <use xlink:href="#DejaVuSans-69" transform="translate(410.449219 0)"/>
     <use xlink:href="#DejaVuSans-6e" transform="translate(438.232422 0)"/>
     <use xlink:href="#DejaVuSans-61" transform="translate(501.611328 0)"/>
     <use xlink:href="#DejaVuSans-6c" transform="translate(562.890625 0)"/>
     <use xlink:href="#DejaVuSans-29" transform="translate(590.673828 0)"/>
    </g>
   </g>
   <g id="patch_13">
    <path d="M 299.499968 291.401641 
Q 257.934332 254.449785 218.039862 218.983596 
" style="fill: none; stroke: #2ca02c; stroke-width: 2; stroke-linecap: round"/>
    <path d="M 219.866578 223.551211 
L 218.039862 218.983596 
L 222.789984 220.262791 
" style="fill: none; stroke: #2ca02c; stroke-width: 2; stroke-linecap: round"/>
   </g>
   <g id="patch_14">
    <path d="M 216.29301 214.759347 
Q 242.236215 189.006196 266.59248 164.828361 
" style="fill: none; stroke: #1f77b4; stroke-width: 2; stroke-linecap: round"/>
    <path d="M 261.919888 166.366829 
L 266.59248 164.828361 
L 265.019698 169.489516 
" style="fill: none; stroke: #1f77b4; stroke-width: 2; stroke-linecap: round"/>
   </g>
   <g id="text_22">
    <g id="patch_15">
     <path d="M 241.029857 243.646418 
L 255.06267 243.646418 
Q 256.86267 243.646418 256.86267 241.846418 
L 256.86267 232.168293 
Q 256.86267 230.368293 255.06267 230.368293 
L 241.029857 230.368293 
Q 239.229857 230.368293 239.229857 232.168293 
L 239.229857 241.846418 
Q 239.229857 243.646418 241.029857 243.646418 
z
" style="fill: #ffffff; opacity: 0.82"/>
    </g>
    <!-- ES -->
    <g style="fill: #2ca02c" transform="translate(241.029857 239.76673) scale(0.1 -0.1)">
     <defs>
      <path id="DejaVuSans-Bold-45" d="M 588 4666 
L 3834 4666 
L 3834 3756 
L 1791 3756 
L 1791 2888 
L 3713 2888 
L 3713 1978 
L 1791 1978 
L 1791 909 
L 3903 909 
L 3903 0 
L 588 0 
L 588 4666 
z
" transform="scale(0.015625)"/>
      <path id="DejaVuSans-Bold-53" d="M 3834 4519 
L 3834 3531 
Q 3450 3703 3084 3790 
Q 2719 3878 2394 3878 
Q 1963 3878 1756 3759 
Q 1550 3641 1550 3391 
Q 1550 3203 1689 3098 
Q 1828 2994 2194 2919 
L 2706 2816 
Q 3484 2659 3812 2340 
Q 4141 2022 4141 1434 
Q 4141 663 3683 286 
Q 3225 -91 2284 -91 
Q 1841 -91 1394 -6 
Q 947 78 500 244 
L 500 1259 
Q 947 1022 1364 901 
Q 1781 781 2169 781 
Q 2563 781 2772 912 
Q 2981 1044 2981 1288 
Q 2981 1506 2839 1625 
Q 2697 1744 2272 1838 
L 1806 1941 
Q 1106 2091 782 2419 
Q 459 2747 459 3303 
Q 459 4000 909 4375 
Q 1359 4750 2203 4750 
Q 2588 4750 2994 4692 
Q 3400 4634 3834 4519 
z
" transform="scale(0.015625)"/>
     </defs>
     <use xlink:href="#DejaVuSans-Bold-45"/>
     <use xlink:href="#DejaVuSans-Bold-53" transform="translate(68.310547 0)"/>
    </g>
   </g>
   <g id="text_23">
    <g id="patch_16">
     <path d="M 254.915734 178.201665 
L 269.446984 178.201665 
Q 271.246984 178.201665 271.246984 176.401665 
L 271.246984 166.72354 
Q 271.246984 164.92354 269.446984 164.92354 
L 254.915734 164.92354 
Q 253.115734 164.92354 253.115734 166.72354 
L 253.115734 176.401665 
Q 253.115734 178.201665 254.915734 178.201665 
z
" style="fill: #ffffff; opacity: 0.82"/>
    </g>
    <!-- ER -->
    <g style="fill: #1f77b4" transform="translate(254.915734 174.321978) scale(0.1 -0.1)">
     <defs>
      <path id="DejaVuSans-Bold-52" d="M 2297 2597 
Q 2675 2597 2839 2737 
Q 3003 2878 3003 3200 
Q 3003 3519 2839 3656 
Q 2675 3794 2297 3794 
L 1791 3794 
L 1791 2597 
L 2297 2597 
z
M 1791 1766 
L 1791 0 
L 588 0 
L 588 4666 
L 2425 4666 
Q 3347 4666 3776 4356 
Q 4206 4047 4206 3378 
Q 4206 2916 3982 2619 
Q 3759 2322 3309 2181 
Q 3556 2125 3751 1926 
Q 3947 1728 4147 1325 
L 4800 0 
L 3519 0 
L 2950 1159 
Q 2778 1509 2601 1637 
Q 2425 1766 2131 1766 
L 1791 1766 
z
" transform="scale(0.015625)"/>
     </defs>
     <use xlink:href="#DejaVuSans-Bold-45"/>
     <use xlink:href="#DejaVuSans-Bold-52" transform="translate(68.310547 0)"/>
    </g>
   </g>
   <g id="text_24">
    <g id="patch_17">
     <path d="M 63.788438 366.054016 
L 151.253438 366.054016 
Q 153.378438 366.054016 153.378438 363.929016 
L 153.378438 355.702609 
Q 153.378438 353.577609 151.253438 353.577609 
L 63.788438 353.577609 
Q 61.663438 353.577609 61.663438 355.702609 
L 61.663438 363.929016 
Q 61.663438 366.054016 63.788438 366.054016 
z
" style="fill: #ffffff; opacity: 0.95; stroke: #666666; stroke-linejoin: miter"/>
    </g>
    <!-- $r_0 = 0.05$  ;  $r_1 = 2.00$ -->
    <g transform="translate(63.788438 362.161281) scale(0.085 -0.085)">
     <defs>
      <path id="DejaVuSans-Oblique-72" d="M 2853 2969 
Q 2766 3016 2653 3041 
Q 2541 3066 2413 3066 
Q 1953 3066 1609 2717 
Q 1266 2369 1153 1784 
L 800 0 
L 225 0 
L 909 3500 
L 1484 3500 
L 1375 2956 
Q 1603 3259 1920 3421 
Q 2238 3584 2597 3584 
Q 2691 3584 2781 3573 
Q 2872 3563 2963 3538 
L 2853 2969 
z
" transform="scale(0.015625)"/>
      <path id="DejaVuSans-3d" d="M 678 2906 
L 4684 2906 
L 4684 2381 
L 678 2381 
L 678 2906 
z
M 678 1631 
L 4684 1631 
L 4684 1100 
L 678 1100 
L 678 1631 
z
" transform="scale(0.015625)"/>
      <path id="DejaVuSans-35" d="M 691 4666 
L 3169 4666 
L 3169 4134 
L 1269 4134 
L 1269 2991 
Q 1406 3038 1543 3061 
Q 1681 3084 1819 3084 
Q 2600 3084 3056 2656 
Q 3513 2228 3513 1497 
Q 3513 744 3044 326 
Q 2575 -91 1722 -91 
Q 1428 -91 1123 -41 
Q 819 9 494 109 
L 494 744 
Q 775 591 1075 516 
Q 1375 441 1709 441 
Q 2250 441 2565 725 
Q 2881 1009 2881 1497 
Q 2881 1984 2565 2268 
Q 2250 2553 1709 2553 
Q 1456 2553 1204 2497 
Q 953 2441 691 2322 
L 691 4666 
z
" transform="scale(0.015625)"/>
      <path id="DejaVuSans-3b" d="M 750 3309 
L 1409 3309 
L 1409 2516 
L 750 2516 
L 750 3309 
z
M 750 794 
L 1409 794 
L 1409 256 
L 897 -744 
L 494 -744 
L 750 256 
L 750 794 
z
" transform="scale(0.015625)"/>
     </defs>
     <use xlink:href="#DejaVuSans-Oblique-72" transform="translate(0 0.78125)"/>
     <use xlink:href="#DejaVuSans-30" transform="translate(41.113281 -15.625) scale(0.7)"/>
     <use xlink:href="#DejaVuSans-3d" transform="translate(107.866211 0.78125)"/>
     <use xlink:href="#DejaVuSans-30" transform="translate(211.137695 0.78125)"/>
     <use xlink:href="#DejaVuSans-2e" transform="translate(274.760742 0.78125)"/>
     <use xlink:href="#DejaVuSans-30" transform="translate(306.547852 0.78125)"/>
     <use xlink:href="#DejaVuSans-35" transform="translate(370.170898 0.78125)"/>
     <use xlink:href="#DejaVuSans-20" transform="translate(433.793945 0.78125)"/>
     <use xlink:href="#DejaVuSans-20" transform="translate(465.581055 0.78125)"/>
     <use xlink:href="#DejaVuSans-3b" transform="translate(497.368164 0.78125)"/>
     <use xlink:href="#DejaVuSans-20" transform="translate(531.05957 0.78125)"/>
     <use xlink:href="#DejaVuSans-20" transform="translate(562.84668 0.78125)"/>
     <use xlink:href="#DejaVuSans-Oblique-72" transform="translate(594.633789 0.78125)"/>
     <use xlink:href="#DejaVuSans-31" transform="translate(635.74707 -15.625) scale(0.7)"/>
     <use xlink:href="#DejaVuSans-3d" transform="translate(702.5 0.78125)"/>
     <use xlink:href="#DejaVuSans-32" transform="translate(805.771484 0.78125)"/>
     <use xlink:href="#DejaVuSans-2e" transform="translate(869.394531 0.78125)"/>
     <use xlink:href="#DejaVuSans-30" transform="translate(901.181641 0.78125)"/>
     <use xlink:href="#DejaVuSans-30" transform="translate(964.804688 0.78125)"/>
    </g>
   </g>
   <g id="text_25">
    <!-- Épargnant initial : décomposition ES / ER -->
    <g transform="translate(169.798672 17.400781) scale(0.11 -0.11)">
     <defs>
      <path id="DejaVuSans-c9" d="M 628 4666 
L 3578 4666 
L 3578 4134 
L 1259 4134 
L 1259 2753 
L 3481 2753 
L 3481 2222 
L 1259 2222 
L 1259 531 
L 3634 531 
L 3634 0 
L 628 0 
L 628 4666 
z
M 2266 5935 
L 2844 5935 
L 2131 5110 
L 1653 5110 
L 2266 5935 
z
" transform="scale(0.015625)"/>
      <path id="DejaVuSans-67" d="M 2906 1791 
Q 2906 2416 2648 2759 
Q 2391 3103 1925 3103 
Q 1463 3103 1205 2759 
Q 947 2416 947 1791 
Q 947 1169 1205 825 
Q 1463 481 1925 481 
Q 2391 481 2648 825 
Q 2906 1169 2906 1791 
z
M 3481 434 
Q 3481 -459 3084 -895 
Q 2688 -1331 1869 -1331 
Q 1566 -1331 1297 -1286 
Q 1028 -1241 775 -1147 
L 775 -588 
Q 1028 -725 1275 -790 
Q 1522 -856 1778 -856 
Q 2344 -856 2625 -561 
Q 2906 -266 2906 331 
L 2906 616 
Q 2728 306 2450 153 
Q 2172 0 1784 0 
Q 1141 0 747 490 
Q 353 981 353 1791 
Q 353 2603 747 3093 
Q 1141 3584 1784 3584 
Q 2172 3584 2450 3431 
Q 2728 3278 2906 2969 
L 2906 3500 
L 3481 3500 
L 3481 434 
z
" transform="scale(0.015625)"/>
      <path id="DejaVuSans-3a" d="M 750 794 
L 1409 794 
L 1409 0 
L 750 0 
L 750 794 
z
M 750 3309 
L 1409 3309 
L 1409 2516 
L 750 2516 
L 750 3309 
z
" transform="scale(0.015625)"/>
      <path id="DejaVuSans-45" d="M 628 4666 
L 3578 4666 
L 3578 4134 
L 1259 4134 
L 1259 2753 
L 3481 2753 
L 3481 2222 
L 1259 2222 
L 1259 531 
L 3634 531 
L 3634 0 
L 628 0 
L 628 4666 
z
" transform="scale(0.015625)"/>
      <path id="DejaVuSans-53" d="M 3425 4513 
L 3425 3897 
Q 3066 4069 2747 4153 
Q 2428 4238 2131 4238 
Q 1616 4238 1336 4038 
Q 1056 3838 1056 3469 
Q 1056 3159 1242 3001 
Q 1428 2844 1947 2747 
L 2328 2669 
Q 3034 2534 3370 2195 
Q 3706 1856 3706 1288 
Q 3706 609 3251 259 
Q 2797 -91 1919 -91 
Q 1588 -91 1214 -16 
Q 841 59 441 206 
L 441 856 
Q 825 641 1194 531 
Q 1563 422 1919 422 
Q 2459 422 2753 634 
Q 3047 847 3047 1241 
Q 3047 1584 2836 1778 
Q 2625 1972 2144 2069 
L 1759 2144 
Q 1053 2284 737 2584 
Q 422 2884 422 3419 
Q 422 4038 858 4394 
Q 1294 4750 2059 4750 
Q 2388 4750 2728 4690 
Q 3069 4631 3425 4513 
z
" transform="scale(0.015625)"/>
      <path id="DejaVuSans-2f" d="M 1625 4666 
L 2156 4666 
L 531 -594 
L 0 -594 
L 1625 4666 
z
" transform="scale(0.015625)"/>
      <path id="DejaVuSans-52" d="M 2841 2188 
Q 3044 2119 3236 1894 
Q 3428 1669 3622 1275 
L 4263 0 
L 3584 0 
L 2988 1197 
Q 2756 1666 2539 1819 
Q 2322 1972 1947 1972 
L 1259 1972 
L 1259 0 
L 628 0 
L 628 4666 
L 2053 4666 
Q 2853 4666 3247 4331 
Q 3641 3997 3641 3322 
Q 3641 2881 3436 2590 
Q 3231 2300 2841 2188 
z
M 1259 4147 
L 1259 2491 
L 2053 2491 
Q 2509 2491 2742 2702 
Q 2975 2913 2975 3322 
Q 2975 3731 2742 3939 
Q 2509 4147 2053 4147 
L 1259 4147 
z
" transform="scale(0.015625)"/>
     </defs>
     <use xlink:href="#DejaVuSans-c9"/>
     <use xlink:href="#DejaVuSans-70" transform="translate(63.183594 0)"/>
     <use xlink:href="#DejaVuSans-61" transform="translate(126.660156 0)"/>
     <use xlink:href="#DejaVuSans-72" transform="translate(187.939453 0)"/>
     <use xlink:href="#DejaVuSans-67" transform="translate(227.302734 0)"/>
     <use xlink:href="#DejaVuSans-6e" transform="translate(290.779297 0)"/>
     <use xlink:href="#DejaVuSans-61" transform="translate(354.158203 0)"/>
     <use xlink:href="#DejaVuSans-6e" transform="translate(415.4375 0)"/>
     <use xlink:href="#DejaVuSans-74" transform="translate(478.816406 0)"/>
     <use xlink:href="#DejaVuSans-20" transform="translate(518.025391 0)"/>
     <use xlink:href="#DejaVuSans-69" transform="translate(549.8125 0)"/>
     <use xlink:href="#DejaVuSans-6e" transform="translate(577.595703 0)"/>
     <use xlink:href="#DejaVuSans-69" transform="translate(640.974609 0)"/>
     <use xlink:href="#DejaVuSans-74" transform="translate(668.757812 0)"/>
     <use xlink:href="#DejaVuSans-69" transform="translate(707.966797 0)"/>
     <use xlink:href="#DejaVuSans-61" transform="translate(735.75 0)"/>
     <use xlink:href="#DejaVuSans-6c" transform="translate(797.029297 0)"/>
     <use xlink:href="#DejaVuSans-20" transform="translate(824.8125 0)"/>
     <use xlink:href="#DejaVuSans-3a" transform="translate(856.599609 0)"/>
     <use xlink:href="#DejaVuSans-20" transform="translate(890.291016 0)"/>
     <use xlink:href="#DejaVuSans-64" transform="translate(922.078125 0)"/>
     <use xlink:href="#DejaVuSans-e9" transform="translate(985.554688 0)"/>
     <use xlink:href="#DejaVuSans-63" transform="translate(1047.078125 0)"/>
     <use xlink:href="#DejaVuSans-6f" transform="translate(1102.058594 0)"/>
     <use xlink:href="#DejaVuSans-6d" transform="translate(1163.240234 0)"/>
     <use xlink:href="#DejaVuSans-70" transform="translate(1260.652344 0)"/>
     <use xlink:href="#DejaVuSans-6f" transform="translate(1324.128906 0)"/>
     <use xlink:href="#DejaVuSans-73" transform="translate(1385.310547 0)"/>
     <use xlink:href="#DejaVuSans-69" transform="translate(1437.410156 0)"/>
     <use xlink:href="#DejaVuSans-74" transform="translate(1465.193359 0)"/>
     <use xlink:href="#DejaVuSans-69" transform="translate(1504.402344 0)"/>
     <use xlink:href="#DejaVuSans-6f" transform="translate(1532.185547 0)"/>
     <use xlink:href="#DejaVuSans-6e" transform="translate(1593.367188 0)"/>
     <use xlink:href="#DejaVuSans-20" transform="translate(1656.746094 0)"/>
     <use xlink:href="#DejaVuSans-45" transform="translate(1688.533203 0)"/>
     <use xlink:href="#DejaVuSans-53" transform="translate(1751.716797 0)"/>
     <use xlink:href="#DejaVuSans-20" transform="translate(1815.193359 0)"/>
     <use xlink:href="#DejaVuSans-2f" transform="translate(1846.980469 0)"/>
     <use xlink:href="#DejaVuSans-20" transform="translate(1880.671875 0)"/>
     <use xlink:href="#DejaVuSans-45" transform="translate(1912.458984 0)"/>
     <use xlink:href="#DejaVuSans-52" transform="translate(1975.642578 0)"/>
    </g>
   </g>
   <g id="legend_1">
    <g id="patch_18">
     <path d="M 380.957187 89.285781 
L 509.117187 89.285781 
Q 510.717187 89.285781 510.717187 87.685781 
L 510.717187 29.000781 
Q 510.717187 27.400781 509.117187 27.400781 
L 380.957187 27.400781 
Q 379.357187 27.400781 379.357187 29.000781 
L 379.357187 87.685781 
Q 379.357187 89.285781 380.957187 89.285781 
z
" style="fill: #ffffff; opacity: 0.8; stroke: #cccccc; stroke-linejoin: miter"/>
    </g>
    <g id="line2d_36">
     <path d="M 382.557187 33.879531 
L 390.557187 33.879531 
L 398.557187 33.879531 
" style="fill: none; stroke-dasharray: 8.88,3.84; stroke-dashoffset: 0; stroke: #595959; stroke-width: 2.4"/>
    </g>
    <g id="text_26">
     <!-- budget initial -->
     <g transform="translate(404.957187 36.679531) scale(0.08 -0.08)">
      <defs>
       <path id="DejaVuSans-62" d="M 3116 1747 
Q 3116 2381 2855 2742 
Q 2594 3103 2138 3103 
Q 1681 3103 1420 2742 
Q 1159 2381 1159 1747 
Q 1159 1113 1420 752 
Q 1681 391 2138 391 
Q 2594 391 2855 752 
Q 3116 1113 3116 1747 
z
M 1159 2969 
Q 1341 3281 1617 3432 
Q 1894 3584 2278 3584 
Q 2916 3584 3314 3078 
Q 3713 2572 3713 1747 
Q 3713 922 3314 415 
Q 2916 -91 2278 -91 
Q 1894 -91 1617 61 
Q 1341 213 1159 525 
L 1159 0 
L 581 0 
L 581 4863 
L 1159 4863 
L 1159 2969 
z
" transform="scale(0.015625)"/>
      </defs>
      <use xlink:href="#DejaVuSans-62"/>
      <use xlink:href="#DejaVuSans-75" transform="translate(63.476562 0)"/>
      <use xlink:href="#DejaVuSans-64" transform="translate(126.855469 0)"/>
      <use xlink:href="#DejaVuSans-67" transform="translate(190.332031 0)"/>
      <use xlink:href="#DejaVuSans-65" transform="translate(253.808594 0)"/>
      <use xlink:href="#DejaVuSans-74" transform="translate(315.332031 0)"/>
      <use xlink:href="#DejaVuSans-20" transform="translate(354.541016 0)"/>
      <use xlink:href="#DejaVuSans-69" transform="translate(386.328125 0)"/>
      <use xlink:href="#DejaVuSans-6e" transform="translate(414.111328 0)"/>
      <use xlink:href="#DejaVuSans-69" transform="translate(477.490234 0)"/>
      <use xlink:href="#DejaVuSans-74" transform="translate(505.273438 0)"/>
      <use xlink:href="#DejaVuSans-69" transform="translate(544.482422 0)"/>
      <use xlink:href="#DejaVuSans-61" transform="translate(572.265625 0)"/>
      <use xlink:href="#DejaVuSans-6c" transform="translate(633.544922 0)"/>
     </g>
    </g>
    <g id="line2d_37">
     <path d="M 382.557187 45.943281 
L 390.557187 45.943281 
L 398.557187 45.943281 
" style="fill: none; stroke: #1f77b4; stroke-width: 3.2; stroke-linecap: square"/>
    </g>
    <g id="text_27">
     <!-- budget après hausse de $r$ -->
     <g transform="translate(404.957187 48.743281) scale(0.08 -0.08)">
      <defs>
       <path id="DejaVuSans-e8" d="M 3597 1894 
L 3597 1613 
L 953 1613 
Q 991 1019 1311 708 
Q 1631 397 2203 397 
Q 2534 397 2845 478 
Q 3156 559 3463 722 
L 3463 178 
Q 3153 47 2828 -22 
Q 2503 -91 2169 -91 
Q 1331 -91 842 396 
Q 353 884 353 1716 
Q 353 2575 817 3079 
Q 1281 3584 2069 3584 
Q 2775 3584 3186 3129 
Q 3597 2675 3597 1894 
z
M 3022 2063 
Q 3016 2534 2758 2815 
Q 2500 3097 2075 3097 
Q 1594 3097 1305 2825 
Q 1016 2553 972 2059 
L 3022 2063 
z
M 1581 5119 
L 2463 3950 
L 1984 3950 
L 966 5119 
L 1581 5119 
z
" transform="scale(0.015625)"/>
       <path id="DejaVuSans-68" d="M 3513 2113 
L 3513 0 
L 2938 0 
L 2938 2094 
Q 2938 2591 2744 2837 
Q 2550 3084 2163 3084 
Q 1697 3084 1428 2787 
Q 1159 2491 1159 1978 
L 1159 0 
L 581 0 
L 581 4863 
L 1159 4863 
L 1159 2956 
Q 1366 3272 1645 3428 
Q 1925 3584 2291 3584 
Q 2894 3584 3203 3211 
Q 3513 2838 3513 2113 
z
" transform="scale(0.015625)"/>
      </defs>
      <use xlink:href="#DejaVuSans-62" transform="translate(0 0.015625)"/>
      <use xlink:href="#DejaVuSans-75" transform="translate(63.476562 0.015625)"/>
      <use xlink:href="#DejaVuSans-64" transform="translate(126.855469 0.015625)"/>
      <use xlink:href="#DejaVuSans-67" transform="translate(190.332031 0.015625)"/>
      <use xlink:href="#DejaVuSans-65" transform="translate(253.808594 0.015625)"/>
      <use xlink:href="#DejaVuSans-74" transform="translate(315.332031 0.015625)"/>
      <use xlink:href="#DejaVuSans-20" transform="translate(354.541016 0.015625)"/>
      <use xlink:href="#DejaVuSans-61" transform="translate(386.328125 0.015625)"/>
      <use xlink:href="#DejaVuSans-70" transform="translate(447.607422 0.015625)"/>
      <use xlink:href="#DejaVuSans-72" transform="translate(511.083984 0.015625)"/>
      <use xlink:href="#DejaVuSans-e8" transform="translate(552.197266 0.015625)"/>
      <use xlink:href="#DejaVuSans-73" transform="translate(613.720703 0.015625)"/>
      <use xlink:href="#DejaVuSans-20" transform="translate(665.820312 0.015625)"/>
      <use xlink:href="#DejaVuSans-68" transform="translate(697.607422 0.015625)"/>
      <use xlink:href="#DejaVuSans-61" transform="translate(760.986328 0.015625)"/>
      <use xlink:href="#DejaVuSans-75" transform="translate(822.265625 0.015625)"/>
      <use xlink:href="#DejaVuSans-73" transform="translate(885.644531 0.015625)"/>
      <use xlink:href="#DejaVuSans-73" transform="translate(937.744141 0.015625)"/>
      <use xlink:href="#DejaVuSans-65" transform="translate(989.84375 0.015625)"/>
      <use xlink:href="#DejaVuSans-20" transform="translate(1051.367188 0.015625)"/>
      <use xlink:href="#DejaVuSans-64" transform="translate(1083.154297 0.015625)"/>
      <use xlink:href="#DejaVuSans-65" transform="translate(1146.630859 0.015625)"/>
      <use xlink:href="#DejaVuSans-20" transform="translate(1208.154297 0.015625)"/>
      <use xlink:href="#DejaVuSans-Oblique-72" transform="translate(1239.941406 0.015625)"/>
     </g>
    </g>
    <g id="line2d_38">
     <path d="M 382.557187 58.022031 
L 390.557187 58.022031 
L 398.557187 58.022031 
" style="fill: none; stroke-dasharray: 7.4,3.2; stroke-dashoffset: 0; stroke: #2ca02c; stroke-width: 2"/>
    </g>
    <g id="text_28">
     <!-- droite compensée -->
     <g transform="translate(404.957187 60.822031) scale(0.08 -0.08)">
      <use xlink:href="#DejaVuSans-64"/>
      <use xlink:href="#DejaVuSans-72" transform="translate(63.476562 0)"/>
      <use xlink:href="#DejaVuSans-6f" transform="translate(102.339844 0)"/>
      <use xlink:href="#DejaVuSans-69" transform="translate(163.521484 0)"/>
      <use xlink:href="#DejaVuSans-74" transform="translate(191.304688 0)"/>
      <use xlink:href="#DejaVuSans-65" transform="translate(230.513672 0)"/>
      <use xlink:href="#DejaVuSans-20" transform="translate(292.037109 0)"/>
      <use xlink:href="#DejaVuSans-63" transform="translate(323.824219 0)"/>
      <use xlink:href="#DejaVuSans-6f" transform="translate(378.804688 0)"/>
      <use xlink:href="#DejaVuSans-6d" transform="translate(439.986328 0)"/>
      <use xlink:href="#DejaVuSans-70" transform="translate(537.398438 0)"/>
      <use xlink:href="#DejaVuSans-65" transform="translate(600.875 0)"/>
      <use xlink:href="#DejaVuSans-6e" transform="translate(662.398438 0)"/>
      <use xlink:href="#DejaVuSans-73" transform="translate(725.777344 0)"/>
      <use xlink:href="#DejaVuSans-e9" transform="translate(777.876953 0)"/>
      <use xlink:href="#DejaVuSans-65" transform="translate(839.400391 0)"/>
     </g>
    </g>
    <g id="line2d_39">
     <path d="M 382.557187 69.862031 
L 390.557187 69.862031 
L 398.557187 69.862031 
" style="fill: none; stroke-dasharray: 14.08,3.52,2.2,3.52; stroke-dashoffset: 0; stroke: #616161; stroke-width: 2.2"/>
    </g>
    <g id="text_29">
     <!-- utilité initiale $U_0$ -->
     <g transform="translate(404.957187 72.662031) scale(0.08 -0.08)">
      <defs>
       <path id="DejaVuSans-Oblique-55" d="M 991 4666 
L 1625 4666 
L 1075 1831 
Q 1041 1641 1027 1517 
Q 1013 1394 1013 1300 
Q 1013 869 1253 645 
Q 1494 422 1959 422 
Q 2563 422 2898 753 
Q 3234 1084 3378 1831 
L 3928 4666 
L 4563 4666 
L 4000 1753 
Q 3816 809 3300 359 
Q 2784 -91 1888 -91 
Q 1188 -91 780 261 
Q 372 613 372 1216 
Q 372 1325 387 1461 
Q 403 1597 434 1753 
L 991 4666 
z
" transform="scale(0.015625)"/>
      </defs>
      <use xlink:href="#DejaVuSans-75" transform="translate(0 0.015625)"/>
      <use xlink:href="#DejaVuSans-74" transform="translate(63.378906 0.015625)"/>
      <use xlink:href="#DejaVuSans-69" transform="translate(102.587891 0.015625)"/>
      <use xlink:href="#DejaVuSans-6c" transform="translate(130.371094 0.015625)"/>
      <use xlink:href="#DejaVuSans-69" transform="translate(158.154297 0.015625)"/>
      <use xlink:href="#DejaVuSans-74" transform="translate(185.9375 0.015625)"/>
      <use xlink:href="#DejaVuSans-e9" transform="translate(225.146484 0.015625)"/>
      <use xlink:href="#DejaVuSans-20" transform="translate(286.669922 0.015625)"/>
      <use xlink:href="#DejaVuSans-69" transform="translate(318.457031 0.015625)"/>
      <use xlink:href="#DejaVuSans-6e" transform="translate(346.240234 0.015625)"/>
      <use xlink:href="#DejaVuSans-69" transform="translate(409.619141 0.015625)"/>
      <use xlink:href="#DejaVuSans-74" transform="translate(437.402344 0.015625)"/>
      <use xlink:href="#DejaVuSans-69" transform="translate(476.611328 0.015625)"/>
      <use xlink:href="#DejaVuSans-61" transform="translate(504.394531 0.015625)"/>
      <use xlink:href="#DejaVuSans-6c" transform="translate(565.673828 0.015625)"/>
      <use xlink:href="#DejaVuSans-65" transform="translate(593.457031 0.015625)"/>
      <use xlink:href="#DejaVuSans-20" transform="translate(654.980469 0.015625)"/>
      <use xlink:href="#DejaVuSans-Oblique-55" transform="translate(686.767578 0.015625)"/>
      <use xlink:href="#DejaVuSans-30" transform="translate(759.960938 -16.390625) scale(0.7)"/>
     </g>
    </g>
    <g id="line2d_40">
     <path d="M 382.557187 81.622031 
L 390.557187 81.622031 
L 398.557187 81.622031 
" style="fill: none; stroke-dasharray: 2.8,4.62; stroke-dashoffset: 0; stroke: #1f77b4; stroke-width: 2.8"/>
    </g>
    <g id="text_30">
     <!-- utilité finale $U_1$ -->
     <g transform="translate(404.957187 84.422031) scale(0.08 -0.08)">
      <use xlink:href="#DejaVuSans-75" transform="translate(0 0.015625)"/>
      <use xlink:href="#DejaVuSans-74" transform="translate(63.378906 0.015625)"/>
      <use xlink:href="#DejaVuSans-69" transform="translate(102.587891 0.015625)"/>
      <use xlink:href="#DejaVuSans-6c" transform="translate(130.371094 0.015625)"/>
      <use xlink:href="#DejaVuSans-69" transform="translate(158.154297 0.015625)"/>
      <use xlink:href="#DejaVuSans-74" transform="translate(185.9375 0.015625)"/>
      <use xlink:href="#DejaVuSans-e9" transform="translate(225.146484 0.015625)"/>
      <use xlink:href="#DejaVuSans-20" transform="translate(286.669922 0.015625)"/>
      <use xlink:href="#DejaVuSans-66" transform="translate(318.457031 0.015625)"/>
      <use xlink:href="#DejaVuSans-69" transform="translate(353.662109 0.015625)"/>
      <use xlink:href="#DejaVuSans-6e" transform="translate(381.445312 0.015625)"/>
      <use xlink:href="#DejaVuSans-61" transform="translate(444.824219 0.015625)"/>
      <use xlink:href="#DejaVuSans-6c" transform="translate(506.103516 0.015625)"/>
      <use xlink:href="#DejaVuSans-65" transform="translate(533.886719 0.015625)"/>
      <use xlink:href="#DejaVuSans-20" transform="translate(595.410156 0.015625)"/>
      <use xlink:href="#DejaVuSans-Oblique-55" transform="translate(627.197266 0.015625)"/>
      <use xlink:href="#DejaVuSans-31" transform="translate(700.390625 -16.390625) scale(0.7)"/>
     </g>
    </g>
   </g>
   <g id="PathCollection_1">
    <defs>
     <path id="m4b6f9cff02" d="M 0 5 
C 1.326016 5 2.597899 4.473168 3.535534 3.535534 
C 4.473168 2.597899 5 1.326016 5 0 
C 5 -1.326016 4.473168 -2.597899 3.535534 -3.535534 
C 2.597899 -4.473168 1.326016 -5 0 -5 
C -1.326016 -5 -2.597899 -4.473168 -3.535534 -3.535534 
C -4.473168 -2.597899 -5 -1.326016 -5 0 
C -5 1.326016 -4.473168 2.597899 -3.535534 3.535534 
C -2.597899 4.473168 -1.326016 5 0 5 
z
" style="stroke: #ffffff; stroke-width: 1.4"/>
    </defs>
    <g clip-path="url(#p37b98cfa0d)">
     <use xlink:href="#m4b6f9cff02" x="387.933097" y="338.039017" style="stroke: #ffffff; stroke-width: 1.4"/>
    </g>
   </g>
   <g id="PathCollection_2">
    <defs>
     <path id="mc012a6ef19" d="M 0 7.071068 
L 7.071068 0 
L 0 -7.071068 
L -7.071068 0 
z
" style="stroke: #ffffff; stroke-width: 1.4"/>
    </defs>
    <g clip-path="url(#p37b98cfa0d)">
     <use xlink:href="#mc012a6ef19" x="300.995434" y="292.731111" style="fill: #404040; stroke: #ffffff; stroke-width: 1.4"/>
    </g>
   </g>
   <g id="PathCollection_3">
    <defs>
     <path id="mb5580bd196" d="M -5 5 
L 5 5 
L 5 -5 
L -5 -5 
z
" style="stroke: #ffffff; stroke-width: 1.4"/>
    </defs>
    <g clip-path="url(#p37b98cfa0d)">
     <use xlink:href="#mb5580bd196" x="214.873371" y="216.168586" style="fill: #2ca02c; stroke: #ffffff; stroke-width: 1.4"/>
    </g>
   </g>
   <g id="PathCollection_4">
    <defs>
     <path id="mca9478d06e" d="M 0 -5 
L -5 5 
L 5 5 
z
" style="stroke: #ffffff; stroke-width: 1.4"/>
    </defs>
    <g clip-path="url(#p37b98cfa0d)">
     <use xlink:href="#mca9478d06e" x="269.601278" y="161.841605" style="fill: #1f77b4; stroke: #ffffff; stroke-width: 1.4"/>
    </g>
   </g>
  </g>
 </g>
 <defs>
  <clipPath id="p37b98cfa0d">
   <rect x="49.842188" y="23.400781" width="464.875" height="356.59"/>
  </clipPath>
 </defs>
</svg>
