<?xml version="1.0" encoding="utf-8" standalone="no"?>
<!DOCTYPE svg PUBLIC "-//W3C//DTD SVG 1.1//EN"
  "http://www.w3.org/Graphics/SVG/1.1/DTD/svg11.dtd">
<svg xmlns:xlink="http://www.w3.org/1999/xlink" width="422.521562pt" height="311.576975pt" viewBox="0 0 422.521562 311.576975" xmlns="http://www.w3.org/2000/svg" version="1.1">
 <metadata>
  <rdf:RDF xmlns:dc="http://purl.org/dc/elements/1.1/" xmlns:cc="http://creativecommons.org/ns#" xmlns:rdf="http://www.w3.org/1999/02/22-rdf-syntax-ns#">
   <cc:Work>
    <dc:type rdf:resource="http://purl.org/dc/dcmitype/StillImage"/>
    <dc:date>2026-05-18T14:57:19.673465</dc:date>
    <dc:format>image/svg+xml</dc:format>
    <dc:creator>
     <cc:Agent>
      <dc:title>Matplotlib v3.10.9, https://matplotlib.org/</dc:title>
     </cc:Agent>
    </dc:creator>
   </cc:Work>
  </rdf:RDF>
 </metadata>
 <defs>
  <style type="text/css">*{stroke-linejoin: round; stroke-linecap: butt}</style>
 </defs>
 <g id="figure_1">
  <g id="patch_1">
   <path d="M 0 311.576975 
L 422.521562 311.576975 
L 422.521562 0 
L 0 0 
z
" style="fill: #ffffff"/>
  </g>
  <g id="axes_1">
   <g id="patch_2">
    <path d="M 35.844688 272.0851 
L 411.822187 272.0851 
L 411.822187 40.3161 
L 35.844688 40.3161 
z
" style="fill: #ffffff"/>
   </g>
   <g id="matplotlib.axis_1">
    <g id="xtick_1">
     <g id="line2d_1">
      <path d="M 35.844688 272.0851 
L 35.844688 40.3161 
" clip-path="url(#p58f709f6b4)" style="fill: none; stroke: #b0b0b0; stroke-opacity: 0.25; stroke-width: 0.8; stroke-linecap: square"/>
     </g>
     <g id="line2d_2">
      <defs>
       <path id="mb901254950" d="M 0 0 
L 0 3.5 
" style="stroke: #000000; stroke-width: 0.8"/>
      </defs>
      <g>
       <use xlink:href="#mb901254950" x="35.844688" y="272.0851" style="stroke: #000000; stroke-width: 0.8"/>
      </g>
     </g>
     <g id="text_1">
      <!-- 0 -->
      <g transform="translate(32.345313 287.443381) scale(0.11 -0.11)">
       <defs>
        <path id="DejaVuSans-30" d="M 2034 4250 
Q 1547 4250 1301 3770 
Q 1056 3291 1056 2328 
Q 1056 1369 1301 889 
Q 1547 409 2034 409 
Q 2525 409 2770 889 
Q 3016 1369 3016 2328 
Q 3016 3291 2770 3770 
Q 2525 4250 2034 4250 
z
M 2034 4750 
Q 2819 4750 3233 4129 
Q 3647 3509 3647 2328 
Q 3647 1150 3233 529 
Q 2819 -91 2034 -91 
Q 1250 -91 836 529 
Q 422 1150 422 2328 
Q 422 3509 836 4129 
Q 1250 4750 2034 4750 
z
" transform="scale(0.015625)"/>
       </defs>
       <use xlink:href="#DejaVuSans-30"/>
      </g>
     </g>
    </g>
    <g id="xtick_2">
     <g id="line2d_3">
      <path d="M 82.841875 272.0851 
L 82.841875 40.3161 
" clip-path="url(#p58f709f6b4)" style="fill: none; stroke: #b0b0b0; stroke-opacity: 0.25; stroke-width: 0.8; stroke-linecap: square"/>
     </g>
     <g id="line2d_4">
      <g>
       <use xlink:href="#mb901254950" x="82.841875" y="272.0851" style="stroke: #000000; stroke-width: 0.8"/>
      </g>
     </g>
     <g id="text_2">
      <!-- 1 -->
      <g transform="translate(79.3425 287.443381) scale(0.11 -0.11)">
       <defs>
        <path id="DejaVuSans-31" d="M 794 531 
L 1825 531 
L 1825 4091 
L 703 3866 
L 703 4441 
L 1819 4666 
L 2450 4666 
L 2450 531 
L 3481 531 
L 3481 0 
L 794 0 
L 794 531 
z
" transform="scale(0.015625)"/>
       </defs>
       <use xlink:href="#DejaVuSans-31"/>
      </g>
     </g>
    </g>
    <g id="xtick_3">
     <g id="line2d_5">
      <path d="M 129.839063 272.0851 
L 129.839063 40.3161 
" clip-path="url(#p58f709f6b4)" style="fill: none; stroke: #b0b0b0; stroke-opacity: 0.25; stroke-width: 0.8; stroke-linecap: square"/>
     </g>
     <g id="line2d_6">
      <g>
       <use xlink:href="#mb901254950" x="129.839063" y="272.0851" style="stroke: #000000; stroke-width: 0.8"/>
      </g>
     </g>
     <g id="text_3">
      <!-- 2 -->
      <g transform="translate(126.339688 287.443381) scale(0.11 -0.11)">
       <defs>
        <path id="DejaVuSans-32" d="M 1228 531 
L 3431 531 
L 3431 0 
L 469 0 
L 469 531 
Q 828 903 1448 1529 
Q 2069 2156 2228 2338 
Q 2531 2678 2651 2914 
Q 2772 3150 2772 3378 
Q 2772 3750 2511 3984 
Q 2250 4219 1831 4219 
Q 1534 4219 1204 4116 
Q 875 4013 500 3803 
L 500 4441 
Q 881 4594 1212 4672 
Q 1544 4750 1819 4750 
Q 2544 4750 2975 4387 
Q 3406 4025 3406 3419 
Q 3406 3131 3298 2873 
Q 3191 2616 2906 2266 
Q 2828 2175 2409 1742 
Q 1991 1309 1228 531 
z
" transform="scale(0.015625)"/>
       </defs>
       <use xlink:href="#DejaVuSans-32"/>
      </g>
     </g>
    </g>
    <g id="xtick_4">
     <g id="line2d_7">
      <path d="M 176.83625 272.0851 
L 176.83625 40.3161 
" clip-path="url(#p58f709f6b4)" style="fill: none; stroke: #b0b0b0; stroke-opacity: 0.25; stroke-width: 0.8; stroke-linecap: square"/>
     </g>
     <g id="line2d_8">
      <g>
       <use xlink:href="#mb901254950" x="176.83625" y="272.0851" style="stroke: #000000; stroke-width: 0.8"/>
      </g>
     </g>
     <g id="text_4">
      <!-- 3 -->
      <g transform="translate(173.336875 287.443381) scale(0.11 -0.11)">
       <defs>
        <path id="DejaVuSans-33" d="M 2597 2516 
Q 3050 2419 3304 2112 
Q 3559 1806 3559 1356 
Q 3559 666 3084 287 
Q 2609 -91 1734 -91 
Q 1441 -91 1130 -33 
Q 819 25 488 141 
L 488 750 
Q 750 597 1062 519 
Q 1375 441 1716 441 
Q 2309 441 2620 675 
Q 2931 909 2931 1356 
Q 2931 1769 2642 2001 
Q 2353 2234 1838 2234 
L 1294 2234 
L 1294 2753 
L 1863 2753 
Q 2328 2753 2575 2939 
Q 2822 3125 2822 3475 
Q 2822 3834 2567 4026 
Q 2313 4219 1838 4219 
Q 1578 4219 1281 4162 
Q 984 4106 628 3988 
L 628 4550 
Q 988 4650 1302 4700 
Q 1616 4750 1894 4750 
Q 2613 4750 3031 4423 
Q 3450 4097 3450 3541 
Q 3450 3153 3228 2886 
Q 3006 2619 2597 2516 
z
" transform="scale(0.015625)"/>
       </defs>
       <use xlink:href="#DejaVuSans-33"/>
      </g>
     </g>
    </g>
    <g id="xtick_5">
     <g id="line2d_9">
      <path d="M 223.833438 272.0851 
L 223.833438 40.3161 
" clip-path="url(#p58f709f6b4)" style="fill: none; stroke: #b0b0b0; stroke-opacity: 0.25; stroke-width: 0.8; stroke-linecap: square"/>
     </g>
     <g id="line2d_10">
      <g>
       <use xlink:href="#mb901254950" x="223.833438" y="272.0851" style="stroke: #000000; stroke-width: 0.8"/>
      </g>
     </g>
     <g id="text_5">
      <!-- 4 -->
      <g transform="translate(220.334063 287.443381) scale(0.11 -0.11)">
       <defs>
        <path id="DejaVuSans-34" d="M 2419 4116 
L 825 1625 
L 2419 1625 
L 2419 4116 
z
M 2253 4666 
L 3047 4666 
L 3047 1625 
L 3713 1625 
L 3713 1100 
L 3047 1100 
L 3047 0 
L 2419 0 
L 2419 1100 
L 313 1100 
L 313 1709 
L 2253 4666 
z
" transform="scale(0.015625)"/>
       </defs>
       <use xlink:href="#DejaVuSans-34"/>
      </g>
     </g>
    </g>
    <g id="xtick_6">
     <g id="line2d_11">
      <path d="M 270.830625 272.0851 
L 270.830625 40.3161 
" clip-path="url(#p58f709f6b4)" style="fill: none; stroke: #b0b0b0; stroke-opacity: 0.25; stroke-width: 0.8; stroke-linecap: square"/>
     </g>
     <g id="line2d_12">
      <g>
       <use xlink:href="#mb901254950" x="270.830625" y="272.0851" style="stroke: #000000; stroke-width: 0.8"/>
      </g>
     </g>
     <g id="text_6">
      <!-- 5 -->
      <g transform="translate(267.33125 287.443381) scale(0.11 -0.11)">
       <defs>
        <path id="DejaVuSans-35" d="M 691 4666 
L 3169 4666 
L 3169 4134 
L 1269 4134 
L 1269 2991 
Q 1406 3038 1543 3061 
Q 1681 3084 1819 3084 
Q 2600 3084 3056 2656 
Q 3513 2228 3513 1497 
Q 3513 744 3044 326 
Q 2575 -91 1722 -91 
Q 1428 -91 1123 -41 
Q 819 9 494 109 
L 494 744 
Q 775 591 1075 516 
Q 1375 441 1709 441 
Q 2250 441 2565 725 
Q 2881 1009 2881 1497 
Q 2881 1984 2565 2268 
Q 2250 2553 1709 2553 
Q 1456 2553 1204 2497 
Q 953 2441 691 2322 
L 691 4666 
z
" transform="scale(0.015625)"/>
       </defs>
       <use xlink:href="#DejaVuSans-35"/>
      </g>
     </g>
    </g>
    <g id="xtick_7">
     <g id="line2d_13">
      <path d="M 317.827812 272.0851 
L 317.827812 40.3161 
" clip-path="url(#p58f709f6b4)" style="fill: none; stroke: #b0b0b0; stroke-opacity: 0.25; stroke-width: 0.8; stroke-linecap: square"/>
     </g>
     <g id="line2d_14">
      <g>
       <use xlink:href="#mb901254950" x="317.827812" y="272.0851" style="stroke: #000000; stroke-width: 0.8"/>
      </g>
     </g>
     <g id="text_7">
      <!-- 6 -->
      <g transform="translate(314.328438 287.443381) scale(0.11 -0.11)">
       <defs>
        <path id="DejaVuSans-36" d="M 2113 2584 
Q 1688 2584 1439 2293 
Q 1191 2003 1191 1497 
Q 1191 994 1439 701 
Q 1688 409 2113 409 
Q 2538 409 2786 701 
Q 3034 994 3034 1497 
Q 3034 2003 2786 2293 
Q 2538 2584 2113 2584 
z
M 3366 4563 
L 3366 3988 
Q 3128 4100 2886 4159 
Q 2644 4219 2406 4219 
Q 1781 4219 1451 3797 
Q 1122 3375 1075 2522 
Q 1259 2794 1537 2939 
Q 1816 3084 2150 3084 
Q 2853 3084 3261 2657 
Q 3669 2231 3669 1497 
Q 3669 778 3244 343 
Q 2819 -91 2113 -91 
Q 1303 -91 875 529 
Q 447 1150 447 2328 
Q 447 3434 972 4092 
Q 1497 4750 2381 4750 
Q 2619 4750 2861 4703 
Q 3103 4656 3366 4563 
z
" transform="scale(0.015625)"/>
       </defs>
       <use xlink:href="#DejaVuSans-36"/>
      </g>
     </g>
    </g>
    <g id="xtick_8">
     <g id="line2d_15">
      <path d="M 364.825 272.0851 
L 364.825 40.3161 
" clip-path="url(#p58f709f6b4)" style="fill: none; stroke: #b0b0b0; stroke-opacity: 0.25; stroke-width: 0.8; stroke-linecap: square"/>
     </g>
     <g id="line2d_16">
      <g>
       <use xlink:href="#mb901254950" x="364.825" y="272.0851" style="stroke: #000000; stroke-width: 0.8"/>
      </g>
     </g>
     <g id="text_8">
      <!-- 7 -->
      <g transform="translate(361.325625 287.443381) scale(0.11 -0.11)">
       <defs>
        <path id="DejaVuSans-37" d="M 525 4666 
L 3525 4666 
L 3525 4397 
L 1831 0 
L 1172 0 
L 2766 4134 
L 525 4134 
L 525 4666 
z
" transform="scale(0.015625)"/>
       </defs>
       <use xlink:href="#DejaVuSans-37"/>
      </g>
     </g>
    </g>
    <g id="xtick_9">
     <g id="line2d_17">
      <path d="M 411.822187 272.0851 
L 411.822187 40.3161 
" clip-path="url(#p58f709f6b4)" style="fill: none; stroke: #b0b0b0; stroke-opacity: 0.25; stroke-width: 0.8; stroke-linecap: square"/>
     </g>
     <g id="line2d_18">
      <g>
       <use xlink:href="#mb901254950" x="411.822187" y="272.0851" style="stroke: #000000; stroke-width: 0.8"/>
      </g>
     </g>
     <g id="text_9">
      <!-- 8 -->
      <g transform="translate(408.322812 287.443381) scale(0.11 -0.11)">
       <defs>
        <path id="DejaVuSans-38" d="M 2034 2216 
Q 1584 2216 1326 1975 
Q 1069 1734 1069 1313 
Q 1069 891 1326 650 
Q 1584 409 2034 409 
Q 2484 409 2743 651 
Q 3003 894 3003 1313 
Q 3003 1734 2745 1975 
Q 2488 2216 2034 2216 
z
M 1403 2484 
Q 997 2584 770 2862 
Q 544 3141 544 3541 
Q 544 4100 942 4425 
Q 1341 4750 2034 4750 
Q 2731 4750 3128 4425 
Q 3525 4100 3525 3541 
Q 3525 3141 3298 2862 
Q 3072 2584 2669 2484 
Q 3125 2378 3379 2068 
Q 3634 1759 3634 1313 
Q 3634 634 3220 271 
Q 2806 -91 2034 -91 
Q 1263 -91 848 271 
Q 434 634 434 1313 
Q 434 1759 690 2068 
Q 947 2378 1403 2484 
z
M 1172 3481 
Q 1172 3119 1398 2916 
Q 1625 2713 2034 2713 
Q 2441 2713 2670 2916 
Q 2900 3119 2900 3481 
Q 2900 3844 2670 4047 
Q 2441 4250 2034 4250 
Q 1625 4250 1398 4047 
Q 1172 3844 1172 3481 
z
" transform="scale(0.015625)"/>
       </defs>
       <use xlink:href="#DejaVuSans-38"/>
      </g>
     </g>
    </g>
    <g id="text_10">
     <!-- Quantité du bien 1 -->
     <g transform="translate(172.327656 302.089319) scale(0.11 -0.11)">
      <defs>
       <path id="DejaVuSans-51" d="M 2522 4238 
Q 1834 4238 1429 3725 
Q 1025 3213 1025 2328 
Q 1025 1447 1429 934 
Q 1834 422 2522 422 
Q 3209 422 3611 934 
Q 4013 1447 4013 2328 
Q 4013 3213 3611 3725 
Q 3209 4238 2522 4238 
z
M 3406 84 
L 4238 -825 
L 3475 -825 
L 2784 -78 
Q 2681 -84 2626 -87 
Q 2572 -91 2522 -91 
Q 1538 -91 948 567 
Q 359 1225 359 2328 
Q 359 3434 948 4092 
Q 1538 4750 2522 4750 
Q 3503 4750 4090 4092 
Q 4678 3434 4678 2328 
Q 4678 1516 4351 937 
Q 4025 359 3406 84 
z
" transform="scale(0.015625)"/>
       <path id="DejaVuSans-75" d="M 544 1381 
L 544 3500 
L 1119 3500 
L 1119 1403 
Q 1119 906 1312 657 
Q 1506 409 1894 409 
Q 2359 409 2629 706 
Q 2900 1003 2900 1516 
L 2900 3500 
L 3475 3500 
L 3475 0 
L 2900 0 
L 2900 538 
Q 2691 219 2414 64 
Q 2138 -91 1772 -91 
Q 1169 -91 856 284 
Q 544 659 544 1381 
z
M 1991 3584 
L 1991 3584 
z
" transform="scale(0.015625)"/>
       <path id="DejaVuSans-61" d="M 2194 1759 
Q 1497 1759 1228 1600 
Q 959 1441 959 1056 
Q 959 750 1161 570 
Q 1363 391 1709 391 
Q 2188 391 2477 730 
Q 2766 1069 2766 1631 
L 2766 1759 
L 2194 1759 
z
M 3341 1997 
L 3341 0 
L 2766 0 
L 2766 531 
Q 2569 213 2275 61 
Q 1981 -91 1556 -91 
Q 1019 -91 701 211 
Q 384 513 384 1019 
Q 384 1609 779 1909 
Q 1175 2209 1959 2209 
L 2766 2209 
L 2766 2266 
Q 2766 2663 2505 2880 
Q 2244 3097 1772 3097 
Q 1472 3097 1187 3025 
Q 903 2953 641 2809 
L 641 3341 
Q 956 3463 1253 3523 
Q 1550 3584 1831 3584 
Q 2591 3584 2966 3190 
Q 3341 2797 3341 1997 
z
" transform="scale(0.015625)"/>
       <path id="DejaVuSans-6e" d="M 3513 2113 
L 3513 0 
L 2938 0 
L 2938 2094 
Q 2938 2591 2744 2837 
Q 2550 3084 2163 3084 
Q 1697 3084 1428 2787 
Q 1159 2491 1159 1978 
L 1159 0 
L 581 0 
L 581 3500 
L 1159 3500 
L 1159 2956 
Q 1366 3272 1645 3428 
Q 1925 3584 2291 3584 
Q 2894 3584 3203 3211 
Q 3513 2838 3513 2113 
z
" transform="scale(0.015625)"/>
       <path id="DejaVuSans-74" d="M 1172 4494 
L 1172 3500 
L 2356 3500 
L 2356 3053 
L 1172 3053 
L 1172 1153 
Q 1172 725 1289 603 
Q 1406 481 1766 481 
L 2356 481 
L 2356 0 
L 1766 0 
Q 1100 0 847 248 
Q 594 497 594 1153 
L 594 3053 
L 172 3053 
L 172 3500 
L 594 3500 
L 594 4494 
L 1172 4494 
z
" transform="scale(0.015625)"/>
       <path id="DejaVuSans-69" d="M 603 3500 
L 1178 3500 
L 1178 0 
L 603 0 
L 603 3500 
z
M 603 4863 
L 1178 4863 
L 1178 4134 
L 603 4134 
L 603 4863 
z
" transform="scale(0.015625)"/>
       <path id="DejaVuSans-e9" d="M 3597 1894 
L 3597 1613 
L 953 1613 
Q 991 1019 1311 708 
Q 1631 397 2203 397 
Q 2534 397 2845 478 
Q 3156 559 3463 722 
L 3463 178 
Q 3153 47 2828 -22 
Q 2503 -91 2169 -91 
Q 1331 -91 842 396 
Q 353 884 353 1716 
Q 353 2575 817 3079 
Q 1281 3584 2069 3584 
Q 2775 3584 3186 3129 
Q 3597 2675 3597 1894 
z
M 3022 2063 
Q 3016 2534 2758 2815 
Q 2500 3097 2075 3097 
Q 1594 3097 1305 2825 
Q 1016 2553 972 2059 
L 3022 2063 
z
M 2469 5119 
L 3091 5119 
L 2072 3944 
L 1594 3944 
L 2469 5119 
z
" transform="scale(0.015625)"/>
       <path id="DejaVuSans-20" transform="scale(0.015625)"/>
       <path id="DejaVuSans-64" d="M 2906 2969 
L 2906 4863 
L 3481 4863 
L 3481 0 
L 2906 0 
L 2906 525 
Q 2725 213 2448 61 
Q 2172 -91 1784 -91 
Q 1150 -91 751 415 
Q 353 922 353 1747 
Q 353 2572 751 3078 
Q 1150 3584 1784 3584 
Q 2172 3584 2448 3432 
Q 2725 3281 2906 2969 
z
M 947 1747 
Q 947 1113 1208 752 
Q 1469 391 1925 391 
Q 2381 391 2643 752 
Q 2906 1113 2906 1747 
Q 2906 2381 2643 2742 
Q 2381 3103 1925 3103 
Q 1469 3103 1208 2742 
Q 947 2381 947 1747 
z
" transform="scale(0.015625)"/>
       <path id="DejaVuSans-62" d="M 3116 1747 
Q 3116 2381 2855 2742 
Q 2594 3103 2138 3103 
Q 1681 3103 1420 2742 
Q 1159 2381 1159 1747 
Q 1159 1113 1420 752 
Q 1681 391 2138 391 
Q 2594 391 2855 752 
Q 3116 1113 3116 1747 
z
M 1159 2969 
Q 1341 3281 1617 3432 
Q 1894 3584 2278 3584 
Q 2916 3584 3314 3078 
Q 3713 2572 3713 1747 
Q 3713 922 3314 415 
Q 2916 -91 2278 -91 
Q 1894 -91 1617 61 
Q 1341 213 1159 525 
L 1159 0 
L 581 0 
L 581 4863 
L 1159 4863 
L 1159 2969 
z
" transform="scale(0.015625)"/>
       <path id="DejaVuSans-65" d="M 3597 1894 
L 3597 1613 
L 953 1613 
Q 991 1019 1311 708 
Q 1631 397 2203 397 
Q 2534 397 2845 478 
Q 3156 559 3463 722 
L 3463 178 
Q 3153 47 2828 -22 
Q 2503 -91 2169 -91 
Q 1331 -91 842 396 
Q 353 884 353 1716 
Q 353 2575 817 3079 
Q 1281 3584 2069 3584 
Q 2775 3584 3186 3129 
Q 3597 2675 3597 1894 
z
M 3022 2063 
Q 3016 2534 2758 2815 
Q 2500 3097 2075 3097 
Q 1594 3097 1305 2825 
Q 1016 2553 972 2059 
L 3022 2063 
z
" transform="scale(0.015625)"/>
      </defs>
      <use xlink:href="#DejaVuSans-51"/>
      <use xlink:href="#DejaVuSans-75" transform="translate(78.710938 0)"/>
      <use xlink:href="#DejaVuSans-61" transform="translate(142.089844 0)"/>
      <use xlink:href="#DejaVuSans-6e" transform="translate(203.369141 0)"/>
      <use xlink:href="#DejaVuSans-74" transform="translate(266.748047 0)"/>
      <use xlink:href="#DejaVuSans-69" transform="translate(305.957031 0)"/>
      <use xlink:href="#DejaVuSans-74" transform="translate(333.740234 0)"/>
      <use xlink:href="#DejaVuSans-e9" transform="translate(372.949219 0)"/>
      <use xlink:href="#DejaVuSans-20" transform="translate(434.472656 0)"/>
      <use xlink:href="#DejaVuSans-64" transform="translate(466.259766 0)"/>
      <use xlink:href="#DejaVuSans-75" transform="translate(529.736328 0)"/>
      <use xlink:href="#DejaVuSans-20" transform="translate(593.115234 0)"/>
      <use xlink:href="#DejaVuSans-62" transform="translate(624.902344 0)"/>
      <use xlink:href="#DejaVuSans-69" transform="translate(688.378906 0)"/>
      <use xlink:href="#DejaVuSans-65" transform="translate(716.162109 0)"/>
      <use xlink:href="#DejaVuSans-6e" transform="translate(777.685547 0)"/>
      <use xlink:href="#DejaVuSans-20" transform="translate(841.064453 0)"/>
      <use xlink:href="#DejaVuSans-31" transform="translate(872.851562 0)"/>
     </g>
    </g>
   </g>
   <g id="matplotlib.axis_2">
    <g id="ytick_1">
     <g id="line2d_19">
      <path d="M 35.844688 272.0851 
L 411.822187 272.0851 
" clip-path="url(#p58f709f6b4)" style="fill: none; stroke: #b0b0b0; stroke-opacity: 0.25; stroke-width: 0.8; stroke-linecap: square"/>
     </g>
     <g id="line2d_20">
      <defs>
       <path id="ma2ec808a6a" d="M 0 0 
L -3.5 0 
" style="stroke: #000000; stroke-width: 0.8"/>
      </defs>
      <g>
       <use xlink:href="#ma2ec808a6a" x="35.844688" y="272.0851" style="stroke: #000000; stroke-width: 0.8"/>
      </g>
     </g>
     <g id="text_11">
      <!-- 0 -->
      <g transform="translate(21.845938 276.264241) scale(0.11 -0.11)">
       <use xlink:href="#DejaVuSans-30"/>
      </g>
     </g>
    </g>
    <g id="ytick_2">
     <g id="line2d_21">
      <path d="M 35.844688 243.113975 
L 411.822187 243.113975 
" clip-path="url(#p58f709f6b4)" style="fill: none; stroke: #b0b0b0; stroke-opacity: 0.25; stroke-width: 0.8; stroke-linecap: square"/>
     </g>
     <g id="line2d_22">
      <g>
       <use xlink:href="#ma2ec808a6a" x="35.844688" y="243.113975" style="stroke: #000000; stroke-width: 0.8"/>
      </g>
     </g>
     <g id="text_12">
      <!-- 1 -->
      <g transform="translate(21.845938 247.293116) scale(0.11 -0.11)">
       <use xlink:href="#DejaVuSans-31"/>
      </g>
     </g>
    </g>
    <g id="ytick_3">
     <g id="line2d_23">
      <path d="M 35.844688 214.14285 
L 411.822187 214.14285 
" clip-path="url(#p58f709f6b4)" style="fill: none; stroke: #b0b0b0; stroke-opacity: 0.25; stroke-width: 0.8; stroke-linecap: square"/>
     </g>
     <g id="line2d_24">
      <g>
       <use xlink:href="#ma2ec808a6a" x="35.844688" y="214.14285" style="stroke: #000000; stroke-width: 0.8"/>
      </g>
     </g>
     <g id="text_13">
      <!-- 2 -->
      <g transform="translate(21.845938 218.321991) scale(0.11 -0.11)">
       <use xlink:href="#DejaVuSans-32"/>
      </g>
     </g>
    </g>
    <g id="ytick_4">
     <g id="line2d_25">
      <path d="M 35.844688 185.171725 
L 411.822187 185.171725 
" clip-path="url(#p58f709f6b4)" style="fill: none; stroke: #b0b0b0; stroke-opacity: 0.25; stroke-width: 0.8; stroke-linecap: square"/>
     </g>
     <g id="line2d_26">
      <g>
       <use xlink:href="#ma2ec808a6a" x="35.844688" y="185.171725" style="stroke: #000000; stroke-width: 0.8"/>
      </g>
     </g>
     <g id="text_14">
      <!-- 3 -->
      <g transform="translate(21.845938 189.350866) scale(0.11 -0.11)">
       <use xlink:href="#DejaVuSans-33"/>
      </g>
     </g>
    </g>
    <g id="ytick_5">
     <g id="line2d_27">
      <path d="M 35.844688 156.2006 
L 411.822187 156.2006 
" clip-path="url(#p58f709f6b4)" style="fill: none; stroke: #b0b0b0; stroke-opacity: 0.25; stroke-width: 0.8; stroke-linecap: square"/>
     </g>
     <g id="line2d_28">
      <g>
       <use xlink:href="#ma2ec808a6a" x="35.844688" y="156.2006" style="stroke: #000000; stroke-width: 0.8"/>
      </g>
     </g>
     <g id="text_15">
      <!-- 4 -->
      <g transform="translate(21.845938 160.379741) scale(0.11 -0.11)">
       <use xlink:href="#DejaVuSans-34"/>
      </g>
     </g>
    </g>
    <g id="ytick_6">
     <g id="line2d_29">
      <path d="M 35.844688 127.229475 
L 411.822187 127.229475 
" clip-path="url(#p58f709f6b4)" style="fill: none; stroke: #b0b0b0; stroke-opacity: 0.25; stroke-width: 0.8; stroke-linecap: square"/>
     </g>
     <g id="line2d_30">
      <g>
       <use xlink:href="#ma2ec808a6a" x="35.844688" y="127.229475" style="stroke: #000000; stroke-width: 0.8"/>
      </g>
     </g>
     <g id="text_16">
      <!-- 5 -->
      <g transform="translate(21.845938 131.408616) scale(0.11 -0.11)">
       <use xlink:href="#DejaVuSans-35"/>
      </g>
     </g>
    </g>
    <g id="ytick_7">
     <g id="line2d_31">
      <path d="M 35.844688 98.25835 
L 411.822187 98.25835 
" clip-path="url(#p58f709f6b4)" style="fill: none; stroke: #b0b0b0; stroke-opacity: 0.25; stroke-width: 0.8; stroke-linecap: square"/>
     </g>
     <g id="line2d_32">
      <g>
       <use xlink:href="#ma2ec808a6a" x="35.844688" y="98.25835" style="stroke: #000000; stroke-width: 0.8"/>
      </g>
     </g>
     <g id="text_17">
      <!-- 6 -->
      <g transform="translate(21.845938 102.437491) scale(0.11 -0.11)">
       <use xlink:href="#DejaVuSans-36"/>
      </g>
     </g>
    </g>
    <g id="ytick_8">
     <g id="line2d_33">
      <path d="M 35.844688 69.287225 
L 411.822187 69.287225 
" clip-path="url(#p58f709f6b4)" style="fill: none; stroke: #b0b0b0; stroke-opacity: 0.25; stroke-width: 0.8; stroke-linecap: square"/>
     </g>
     <g id="line2d_34">
      <g>
       <use xlink:href="#ma2ec808a6a" x="35.844688" y="69.287225" style="stroke: #000000; stroke-width: 0.8"/>
      </g>
     </g>
     <g id="text_18">
      <!-- 7 -->
      <g transform="translate(21.845938 73.466366) scale(0.11 -0.11)">
       <use xlink:href="#DejaVuSans-37"/>
      </g>
     </g>
    </g>
    <g id="ytick_9">
     <g id="line2d_35">
      <path d="M 35.844688 40.3161 
L 411.822187 40.3161 
" clip-path="url(#p58f709f6b4)" style="fill: none; stroke: #b0b0b0; stroke-opacity: 0.25; stroke-width: 0.8; stroke-linecap: square"/>
     </g>
     <g id="line2d_36">
      <g>
       <use xlink:href="#ma2ec808a6a" x="35.844688" y="40.3161" style="stroke: #000000; stroke-width: 0.8"/>
      </g>
     </g>
     <g id="text_19">
      <!-- 8 -->
      <g transform="translate(21.845938 44.495241) scale(0.11 -0.11)">
       <use xlink:href="#DejaVuSans-38"/>
      </g>
     </g>
    </g>
    <g id="text_20">
     <!-- Quantité du bien 2 -->
     <g transform="translate(15.558281 207.706381) rotate(-90) scale(0.11 -0.11)">
      <use xlink:href="#DejaVuSans-51"/>
      <use xlink:href="#DejaVuSans-75" transform="translate(78.710938 0)"/>
      <use xlink:href="#DejaVuSans-61" transform="translate(142.089844 0)"/>
      <use xlink:href="#DejaVuSans-6e" transform="translate(203.369141 0)"/>
      <use xlink:href="#DejaVuSans-74" transform="translate(266.748047 0)"/>
      <use xlink:href="#DejaVuSans-69" transform="translate(305.957031 0)"/>
      <use xlink:href="#DejaVuSans-74" transform="translate(333.740234 0)"/>
      <use xlink:href="#DejaVuSans-e9" transform="translate(372.949219 0)"/>
      <use xlink:href="#DejaVuSans-20" transform="translate(434.472656 0)"/>
      <use xlink:href="#DejaVuSans-64" transform="translate(466.259766 0)"/>
      <use xlink:href="#DejaVuSans-75" transform="translate(529.736328 0)"/>
      <use xlink:href="#DejaVuSans-20" transform="translate(593.115234 0)"/>
      <use xlink:href="#DejaVuSans-62" transform="translate(624.902344 0)"/>
      <use xlink:href="#DejaVuSans-69" transform="translate(688.378906 0)"/>
      <use xlink:href="#DejaVuSans-65" transform="translate(716.162109 0)"/>
      <use xlink:href="#DejaVuSans-6e" transform="translate(777.685547 0)"/>
      <use xlink:href="#DejaVuSans-20" transform="translate(841.064453 0)"/>
      <use xlink:href="#DejaVuSans-32" transform="translate(872.851562 0)"/>
     </g>
    </g>
   </g>
   <g id="QuadContourSet_1">
    <path d="M 321.227109 57.081441 
L 314.765339 54.775316 
L 307.226943 52.342883 
L 299.688547 50.169147 
L 292.150151 48.239496 
L 284.611755 46.540142 
L 276.532799 44.963097 
L 269.534963 43.79274 
L 261.054268 42.610333 
L 252.573572 41.678723 
L 244.092877 40.99122 
L 235.612181 40.544144 
L 227.131486 40.333979 
L 218.65079 40.360249 
L 210.170095 40.622957 
L 201.689399 41.123237 
L 193.208704 41.864485 
L 184.728008 42.851469 
L 177.189612 43.940171 
L 169.651216 45.234147 
L 162.11282 46.740095 
L 154.574424 48.467577 
L 147.036028 50.427548 
L 139.497632 52.632357 
L 132.718176 54.837967 
L 126.225027 57.161466 
L 119.709343 59.716352 
L 113.113246 62.548537 
L 107.247622 65.293712 
L 101.523869 68.198085 
L 96.151855 71.14672 
L 90.372806 74.587707 
L 84.844261 78.173199 
L 80.034993 81.558203 
L 75.421266 85.072614 
L 70.709769 88.974996 
L 66.693006 92.594822 
L 63.122467 96.08007 
L 59.300541 100.146193 
L 55.824216 104.212316 
L 52.806078 108.097352 
L 50.215395 111.763686 
L 47.621542 115.829809 
L 45.267682 119.972055 
L 43.26591 123.962055 
L 41.48452 128.028178 
L 39.957583 132.094301 
L 38.671586 136.179643 
L 37.639459 140.226546 
L 36.839932 144.292669 
L 36.27618 148.358792 
L 35.944718 152.424915 
L 35.845279 156.491037 
L 35.977864 160.55716 
L 36.342473 164.623283 
L 36.939873 168.689406 
L 37.772934 172.755529 
L 38.845262 176.821651 
L 40.16054 180.887774 
L 41.723684 184.953897 
L 43.541572 189.02002 
L 45.622291 193.086143 
L 47.974274 197.152265 
L 50.215395 200.637514 
L 53.103475 204.703636 
L 56.30066 208.769759 
L 59.402175 212.368038 
L 63.171373 216.3707 
L 66.940571 220.038068 
L 70.709769 223.426204 
L 74.730197 226.776874 
L 79.246664 230.262123 
L 84.138333 233.747371 
L 89.555759 237.302635 
L 95.217351 240.717867 
L 100.863353 243.852571 
L 106.51715 246.749562 
L 112.179931 249.430987 
L 118.861486 252.335361 
L 125.36314 254.914701 
L 131.959236 257.302423 
L 138.555333 259.475143 
L 146.093729 261.711939 
L 153.632125 263.701273 
L 161.170521 265.457181 
L 168.708917 266.990662 
L 176.247313 268.310543 
L 183.785709 269.424619 
L 192.266404 270.439411 
L 200.7471 271.207554 
L 209.227795 271.734459 
L 217.708491 272.023437 
L 226.189186 272.075978 
L 234.669882 271.892083 
L 243.150577 271.471588 
L 251.631273 270.810935 
L 260.111968 269.906449 
L 267.650364 268.892909 
L 275.18876 267.67673 
L 282.727156 266.251382 
L 290.582417 264.533729 
L 297.803948 262.736747 
L 305.342344 260.62533 
L 311.938441 258.56945 
L 318.534537 256.3065 
L 325.130634 253.821691 
L 331.72673 251.098329 
L 338.322827 248.114369 
L 343.976624 245.330221 
L 349.630421 242.314782 
L 355.397798 238.975243 
L 360.938015 235.48519 
L 366.023156 232.004747 
L 370.722677 228.519498 
L 375.072507 225.028712 
L 379.080849 221.549002 
L 382.794205 218.063754 
L 386.380101 214.415135 
L 389.896993 210.512383 
L 392.976198 206.772585 
L 395.838497 202.961012 
L 398.629995 198.846152 
L 401.070325 194.828767 
L 403.26648 190.762644 
L 405.226091 186.628101 
L 406.867222 182.630398 
L 408.287963 178.564275 
L 409.463449 174.498153 
L 410.398625 170.43203 
L 411.097114 166.365907 
L 411.561161 162.299784 
L 411.793185 158.233661 
L 411.793185 154.167539 
L 411.561161 150.101416 
L 411.097114 146.035293 
L 410.398625 141.96917 
L 409.463449 137.903047 
L 408.287963 133.836925 
L 406.867222 129.770802 
L 405.196031 125.704679 
L 403.26648 121.638556 
L 401.070325 117.572433 
L 398.598797 113.506311 
L 395.803096 109.390885 
L 392.775498 105.374065 
L 389.393719 101.307942 
L 386.226019 97.822694 
L 382.610903 94.158976 
L 378.841705 90.63694 
L 375.065882 87.36695 
L 370.36101 83.603463 
L 365.649512 80.130958 
L 362.649191 78.056048 
L 362.649191 78.056048 
" clip-path="url(#p58f709f6b4)" style="fill: none; stroke-dasharray: 5.55,2.4; stroke-dashoffset: 0; stroke: #d62728; stroke-width: 1.5"/>
    <path d="M 317.54277 221.138072 
L 321.901177 218.644629 
L 326.544691 215.740255 
L 330.784431 212.833309 
L 334.65401 209.931509 
L 338.322827 206.924115 
L 342.092025 203.524463 
L 345.558593 200.056639 
L 348.192488 197.152265 
L 351.051341 193.667017 
L 353.601532 190.181769 
L 355.860167 186.696521 
L 357.842828 183.211273 
L 359.561016 179.726025 
L 361.025599 176.240777 
L 362.242941 172.755529 
L 363.220992 169.27028 
L 363.964569 165.785032 
L 364.476825 162.299784 
L 364.761051 158.814536 
L 364.817589 155.329288 
L 364.647578 151.84404 
L 364.249156 148.358792 
L 363.622106 144.873544 
L 362.762167 141.388295 
L 361.664555 137.903047 
L 360.324352 134.417799 
L 358.734288 130.932551 
L 356.88526 127.447303 
L 354.766091 123.962055 
L 352.364269 120.476807 
L 349.630421 116.952518 
L 346.640941 113.506311 
L 343.275985 110.021062 
L 340.188812 107.116689 
L 336.438228 103.898835 
L 332.66903 100.949816 
L 328.899832 98.24342 
L 324.188334 95.153048 
L 319.476837 92.343618 
L 314.594256 89.690448 
L 309.111542 86.988306 
L 303.457745 84.474051 
L 297.803948 82.20965 
L 292.150151 80.172217 
L 286.496354 78.34358 
L 279.900258 76.455111 
L 273.304161 74.813541 
L 266.708065 73.40333 
L 260.111968 72.213851 
L 253.515872 71.235462 
L 246.919775 70.460473 
L 239.381379 69.817633 
L 231.842983 69.427784 
L 224.304587 69.287921 
L 216.766191 69.396596 
L 209.227795 69.755257 
L 202.631699 70.276006 
L 195.169619 71.102458 
L 189.439506 71.913398 
L 182.843409 73.041807 
L 176.247313 74.387612 
L 169.651216 75.961726 
L 163.05512 77.777912 
L 156.570901 79.815579 
L 150.805226 81.855128 
L 145.151429 84.080462 
L 139.497632 86.550964 
L 134.205179 89.109574 
L 129.132338 91.812105 
L 124.42084 94.569958 
L 119.709343 97.600867 
L 115.940145 100.251656 
L 112.170947 103.136291 
L 108.129246 106.535814 
L 104.632551 109.784572 
L 101.562319 112.925436 
L 98.485851 116.410684 
L 95.732184 119.895932 
L 93.280416 123.38118 
L 91.115764 126.866428 
L 89.222526 130.351676 
L 87.58947 133.836925 
L 86.208851 137.322173 
L 85.071373 140.807421 
L 84.172107 144.292669 
L 83.506257 147.777917 
L 83.069891 151.263165 
L 82.86185 154.748413 
L 82.880696 158.233661 
L 83.126808 161.71891 
L 83.60112 165.204158 
L 84.305812 168.689406 
L 85.244448 172.174654 
L 86.421837 175.659902 
L 87.844109 179.14515 
L 89.555759 182.700739 
L 91.456711 186.115646 
L 93.669304 189.600894 
L 96.168815 193.086143 
L 98.978754 196.576123 
L 102.108282 200.056639 
L 105.57485 203.524463 
L 108.791256 206.44626 
L 112.278191 209.350634 
L 116.084215 212.255007 
L 120.651642 215.430286 
L 125.36314 218.403432 
L 130.074637 221.111118 
L 135.361837 223.872501 
L 140.439932 226.280348 
L 146.093729 228.708029 
L 151.747526 230.895097 
L 157.401323 232.860966 
L 163.05512 234.623288 
L 169.651216 236.439474 
L 176.247313 238.013588 
L 182.843409 239.359393 
L 189.439506 240.487802 
L 196.035602 241.407686 
L 202.631699 242.125194 
L 210.170095 242.704421 
L 217.708491 243.031894 
L 225.246887 243.109407 
L 232.785283 242.93833 
L 240.323679 242.517293 
L 247.506651 241.879616 
L 253.515872 241.165738 
L 260.415686 240.136992 
L 266.822171 238.975243 
L 273.304161 237.587659 
L 279.473014 236.059512 
L 279.473014 236.059512 
" clip-path="url(#p58f709f6b4)" style="fill: none; stroke-dasharray: 5.55,2.4; stroke-dashoffset: 0; stroke: #2ca02c; stroke-width: 1.5"/>
    <path d="M 259.884364 102.69093 
L 254.458171 101.420525 
L 248.804374 100.341141 
L 243.150577 99.495487 
L 237.49678 98.874246 
L 231.842983 98.469394 
L 226.189186 98.277047 
L 220.535389 98.294473 
L 214.881592 98.522201 
L 209.005103 98.984443 
L 203.573998 99.620524 
L 197.920201 100.504512 
L 192.266404 101.624449 
L 186.612607 102.995123 
L 181.90111 104.344277 
L 177.024121 105.95494 
L 172.413332 107.697564 
L 167.766617 109.695909 
L 163.514767 111.763686 
L 159.275253 114.087185 
L 155.506639 116.410684 
L 151.747526 119.017529 
L 148.39316 121.638556 
L 145.732916 123.962055 
L 143.26683 126.356383 
L 140.677849 129.189927 
L 138.555333 131.834549 
L 136.670734 134.515429 
L 134.968768 137.322173 
L 133.482805 140.226546 
L 132.262509 143.13092 
L 131.297884 146.035293 
L 130.581183 148.939666 
L 130.105274 151.84404 
L 129.869393 154.748413 
L 129.869393 157.652787 
L 130.105274 160.55716 
L 130.581183 163.461534 
L 131.297884 166.365907 
L 132.262509 169.27028 
L 133.482805 172.174654 
L 134.968768 175.079027 
L 136.734429 177.983401 
L 138.798433 180.887774 
L 141.181123 183.792148 
L 143.335771 186.115646 
L 146.372038 189.02002 
L 149.102154 191.343519 
L 152.689825 194.067206 
L 155.516724 195.997093 
L 159.285922 198.320231 
L 163.514767 200.637514 
L 167.766617 202.705291 
L 172.478115 204.729784 
L 177.189612 206.50489 
L 182.334112 208.188884 
L 187.554907 209.652318 
L 193.208704 210.980675 
L 198.862501 212.060059 
L 204.516298 212.905713 
L 210.170095 213.526954 
L 215.823892 213.931806 
L 221.477689 214.124153 
L 227.131486 214.106727 
L 232.785283 213.878999 
L 238.661772 213.416757 
L 244.092877 212.780676 
L 249.746674 211.896688 
L 255.400471 210.776751 
L 261.054268 209.406077 
L 265.765765 208.056923 
L 270.642754 206.44626 
L 275.253543 204.703636 
L 279.900258 202.705291 
L 284.152108 200.637514 
L 288.391622 198.314015 
L 292.160236 195.990516 
L 295.919349 193.383671 
L 299.273715 190.762644 
L 301.933959 188.439145 
L 304.400045 186.044817 
L 306.989026 183.211273 
L 309.111542 180.566651 
L 310.996141 177.885771 
L 312.698107 175.079027 
L 314.18407 172.174654 
L 315.404366 169.27028 
L 316.368991 166.365907 
L 317.085692 163.461534 
L 317.561601 160.55716 
L 317.797482 157.652787 
L 317.797482 154.748413 
L 317.561601 151.84404 
L 317.085692 148.939666 
L 316.368991 146.035293 
L 315.404366 143.13092 
L 314.18407 140.226546 
L 312.698107 137.322173 
L 310.932446 134.417799 
L 308.868442 131.513426 
L 306.485752 128.609052 
L 304.331104 126.285554 
L 301.294837 123.38118 
L 298.564721 121.057681 
L 296.55994 119.495448 
L 296.55994 119.495448 
" clip-path="url(#p58f709f6b4)" style="fill: none; stroke-dasharray: 5.55,2.4; stroke-dashoffset: 0; stroke: #ff7f0e; stroke-width: 1.5"/>
    <path d="M 239.599964 183.490146 
L 243.150577 182.611137 
L 246.919775 181.434983 
L 250.688973 179.97407 
L 253.707506 178.564275 
L 256.841053 176.821651 
L 259.479829 175.079027 
L 261.996567 173.106213 
L 263.881166 171.35937 
L 265.776399 169.27028 
L 267.087193 167.527656 
L 268.181817 165.785032 
L 269.073782 164.042408 
L 269.775496 162.299784 
L 270.429336 159.976285 
L 270.712985 158.233661 
L 270.826061 156.491037 
L 270.769523 154.748413 
L 270.477263 152.666189 
L 270.140877 151.263165 
L 269.534963 149.447554 
L 268.5026 147.197042 
L 267.476404 145.454418 
L 266.237079 143.711794 
L 264.768852 141.96917 
L 262.938867 140.133029 
L 261.018214 138.483922 
L 258.227369 136.459269 
L 255.400471 134.739513 
L 252.526703 133.25605 
L 249.746674 132.031956 
L 245.977476 130.648611 
L 242.208278 129.53709 
L 238.156881 128.609052 
L 234.669882 128.010303 
L 230.900684 127.559829 
L 227.131486 127.301994 
L 223.362288 127.232289 
L 219.59309 127.348464 
L 215.823892 127.654666 
L 212.054694 128.155149 
L 208.285496 128.862316 
L 204.516298 129.790063 
L 200.7471 130.966217 
L 196.977902 132.42713 
L 193.959369 133.836925 
L 190.825822 135.579549 
L 188.187046 137.322173 
L 185.670308 139.294987 
L 183.785709 141.04183 
L 181.890476 143.13092 
L 180.579682 144.873544 
L 179.485058 146.616168 
L 178.593093 148.358792 
L 177.891379 150.101416 
L 177.237539 152.424915 
L 176.95389 154.167539 
L 176.840814 155.910163 
L 176.897352 157.652787 
L 177.189612 159.735011 
L 177.525998 161.138035 
L 178.131912 162.953646 
L 179.164275 165.204158 
L 180.190471 166.946782 
L 181.429796 168.689406 
L 182.898023 170.43203 
L 184.728008 172.268171 
L 186.648661 173.917278 
L 189.439506 175.941931 
L 192.266404 177.661687 
L 195.140172 179.14515 
L 198.340701 180.535882 
L 198.340701 180.535882 
" clip-path="url(#p58f709f6b4)" style="fill: none; stroke-dasharray: 5.55,2.4; stroke-dashoffset: 0; stroke: #1f77b4; stroke-width: 1.5"/>
   </g>
   <g id="line2d_37">
    <defs>
     <path id="m07e7cb94c8" d="M 0 3.5 
C 0.928211 3.5 1.81853 3.131218 2.474874 2.474874 
C 3.131218 1.81853 3.5 0.928211 3.5 0 
C 3.5 -0.928211 3.131218 -1.81853 2.474874 -2.474874 
C 1.81853 -3.131218 0.928211 -3.5 0 -3.5 
C -0.928211 -3.5 -1.81853 -3.131218 -2.474874 -2.474874 
C -3.131218 -1.81853 -3.5 -0.928211 -3.5 0 
C -3.5 0.928211 -3.131218 1.81853 -2.474874 2.474874 
C -1.81853 3.131218 -0.928211 3.5 0 3.5 
z
" style="stroke: #000000"/>
    </defs>
    <g clip-path="url(#p58f709f6b4)">
     <use xlink:href="#m07e7cb94c8" x="223.833438" y="156.2006" style="stroke: #000000"/>
    </g>
   </g>
   <g id="patch_3">
    <path d="M 35.844688 272.0851 
L 35.844688 40.3161 
" style="fill: none; stroke: #000000; stroke-width: 0.8; stroke-linejoin: miter; stroke-linecap: square"/>
   </g>
   <g id="patch_4">
    <path d="M 411.822187 272.0851 
L 411.822187 40.3161 
" style="fill: none; stroke: #000000; stroke-width: 0.8; stroke-linejoin: miter; stroke-linecap: square"/>
   </g>
   <g id="patch_5">
    <path d="M 35.844688 272.0851 
L 411.822187 272.0851 
" style="fill: none; stroke: #000000; stroke-width: 0.8; stroke-linejoin: miter; stroke-linecap: square"/>
   </g>
   <g id="patch_6">
    <path d="M 35.844688 40.3161 
L 411.822187 40.3161 
" style="fill: none; stroke: #000000; stroke-width: 0.8; stroke-linejoin: miter; stroke-linecap: square"/>
   </g>
   <g id="text_21">
    <!-- utilité décroissante -->
    <g transform="translate(284.214281 180.455919) scale(0.09 -0.09)">
     <defs>
      <path id="DejaVuSans-6c" d="M 603 4863 
L 1178 4863 
L 1178 0 
L 603 0 
L 603 4863 
z
" transform="scale(0.015625)"/>
      <path id="DejaVuSans-63" d="M 3122 3366 
L 3122 2828 
Q 2878 2963 2633 3030 
Q 2388 3097 2138 3097 
Q 1578 3097 1268 2742 
Q 959 2388 959 1747 
Q 959 1106 1268 751 
Q 1578 397 2138 397 
Q 2388 397 2633 464 
Q 2878 531 3122 666 
L 3122 134 
Q 2881 22 2623 -34 
Q 2366 -91 2075 -91 
Q 1284 -91 818 406 
Q 353 903 353 1747 
Q 353 2603 823 3093 
Q 1294 3584 2113 3584 
Q 2378 3584 2631 3529 
Q 2884 3475 3122 3366 
z
" transform="scale(0.015625)"/>
      <path id="DejaVuSans-72" d="M 2631 2963 
Q 2534 3019 2420 3045 
Q 2306 3072 2169 3072 
Q 1681 3072 1420 2755 
Q 1159 2438 1159 1844 
L 1159 0 
L 581 0 
L 581 3500 
L 1159 3500 
L 1159 2956 
Q 1341 3275 1631 3429 
Q 1922 3584 2338 3584 
Q 2397 3584 2469 3576 
Q 2541 3569 2628 3553 
L 2631 2963 
z
" transform="scale(0.015625)"/>
      <path id="DejaVuSans-6f" d="M 1959 3097 
Q 1497 3097 1228 2736 
Q 959 2375 959 1747 
Q 959 1119 1226 758 
Q 1494 397 1959 397 
Q 2419 397 2687 759 
Q 2956 1122 2956 1747 
Q 2956 2369 2687 2733 
Q 2419 3097 1959 3097 
z
M 1959 3584 
Q 2709 3584 3137 3096 
Q 3566 2609 3566 1747 
Q 3566 888 3137 398 
Q 2709 -91 1959 -91 
Q 1206 -91 779 398 
Q 353 888 353 1747 
Q 353 2609 779 3096 
Q 1206 3584 1959 3584 
z
" transform="scale(0.015625)"/>
      <path id="DejaVuSans-73" d="M 2834 3397 
L 2834 2853 
Q 2591 2978 2328 3040 
Q 2066 3103 1784 3103 
Q 1356 3103 1142 2972 
Q 928 2841 928 2578 
Q 928 2378 1081 2264 
Q 1234 2150 1697 2047 
L 1894 2003 
Q 2506 1872 2764 1633 
Q 3022 1394 3022 966 
Q 3022 478 2636 193 
Q 2250 -91 1575 -91 
Q 1294 -91 989 -36 
Q 684 19 347 128 
L 347 722 
Q 666 556 975 473 
Q 1284 391 1588 391 
Q 1994 391 2212 530 
Q 2431 669 2431 922 
Q 2431 1156 2273 1281 
Q 2116 1406 1581 1522 
L 1381 1569 
Q 847 1681 609 1914 
Q 372 2147 372 2553 
Q 372 3047 722 3315 
Q 1072 3584 1716 3584 
Q 2034 3584 2315 3537 
Q 2597 3491 2834 3397 
z
" transform="scale(0.015625)"/>
     </defs>
     <use xlink:href="#DejaVuSans-75"/>
     <use xlink:href="#DejaVuSans-74" transform="translate(63.378906 0)"/>
     <use xlink:href="#DejaVuSans-69" transform="translate(102.587891 0)"/>
     <use xlink:href="#DejaVuSans-6c" transform="translate(130.371094 0)"/>
     <use xlink:href="#DejaVuSans-69" transform="translate(158.154297 0)"/>
     <use xlink:href="#DejaVuSans-74" transform="translate(185.9375 0)"/>
     <use xlink:href="#DejaVuSans-e9" transform="translate(225.146484 0)"/>
     <use xlink:href="#DejaVuSans-20" transform="translate(286.669922 0)"/>
     <use xlink:href="#DejaVuSans-64" transform="translate(318.457031 0)"/>
     <use xlink:href="#DejaVuSans-e9" transform="translate(381.933594 0)"/>
     <use xlink:href="#DejaVuSans-63" transform="translate(443.457031 0)"/>
     <use xlink:href="#DejaVuSans-72" transform="translate(498.4375 0)"/>
     <use xlink:href="#DejaVuSans-6f" transform="translate(537.300781 0)"/>
     <use xlink:href="#DejaVuSans-69" transform="translate(598.482422 0)"/>
     <use xlink:href="#DejaVuSans-73" transform="translate(626.265625 0)"/>
     <use xlink:href="#DejaVuSans-73" transform="translate(678.365234 0)"/>
     <use xlink:href="#DejaVuSans-61" transform="translate(730.464844 0)"/>
     <use xlink:href="#DejaVuSans-6e" transform="translate(791.744141 0)"/>
     <use xlink:href="#DejaVuSans-74" transform="translate(855.123047 0)"/>
     <use xlink:href="#DejaVuSans-65" transform="translate(894.332031 0)"/>
    </g>
    <!-- en s'éloignant du centre -->
    <g transform="translate(272.544516 190.96595) scale(0.09 -0.09)">
     <defs>
      <path id="DejaVuSans-27" d="M 1147 4666 
L 1147 2931 
L 616 2931 
L 616 4666 
L 1147 4666 
z
" transform="scale(0.015625)"/>
      <path id="DejaVuSans-67" d="M 2906 1791 
Q 2906 2416 2648 2759 
Q 2391 3103 1925 3103 
Q 1463 3103 1205 2759 
Q 947 2416 947 1791 
Q 947 1169 1205 825 
Q 1463 481 1925 481 
Q 2391 481 2648 825 
Q 2906 1169 2906 1791 
z
M 3481 434 
Q 3481 -459 3084 -895 
Q 2688 -1331 1869 -1331 
Q 1566 -1331 1297 -1286 
Q 1028 -1241 775 -1147 
L 775 -588 
Q 1028 -725 1275 -790 
Q 1522 -856 1778 -856 
Q 2344 -856 2625 -561 
Q 2906 -266 2906 331 
L 2906 616 
Q 2728 306 2450 153 
Q 2172 0 1784 0 
Q 1141 0 747 490 
Q 353 981 353 1791 
Q 353 2603 747 3093 
Q 1141 3584 1784 3584 
Q 2172 3584 2450 3431 
Q 2728 3278 2906 2969 
L 2906 3500 
L 3481 3500 
L 3481 434 
z
" transform="scale(0.015625)"/>
     </defs>
     <use xlink:href="#DejaVuSans-65"/>
     <use xlink:href="#DejaVuSans-6e" transform="translate(61.523438 0)"/>
     <use xlink:href="#DejaVuSans-20" transform="translate(124.902344 0)"/>
     <use xlink:href="#DejaVuSans-73" transform="translate(156.689453 0)"/>
     <use xlink:href="#DejaVuSans-27" transform="translate(208.789062 0)"/>
     <use xlink:href="#DejaVuSans-e9" transform="translate(236.279297 0)"/>
     <use xlink:href="#DejaVuSans-6c" transform="translate(297.802734 0)"/>
     <use xlink:href="#DejaVuSans-6f" transform="translate(325.585938 0)"/>
     <use xlink:href="#DejaVuSans-69" transform="translate(386.767578 0)"/>
     <use xlink:href="#DejaVuSans-67" transform="translate(414.550781 0)"/>
     <use xlink:href="#DejaVuSans-6e" transform="translate(478.027344 0)"/>
     <use xlink:href="#DejaVuSans-61" transform="translate(541.40625 0)"/>
     <use xlink:href="#DejaVuSans-6e" transform="translate(602.685547 0)"/>
     <use xlink:href="#DejaVuSans-74" transform="translate(666.064453 0)"/>
     <use xlink:href="#DejaVuSans-20" transform="translate(705.273438 0)"/>
     <use xlink:href="#DejaVuSans-64" transform="translate(737.060547 0)"/>
     <use xlink:href="#DejaVuSans-75" transform="translate(800.537109 0)"/>
     <use xlink:href="#DejaVuSans-20" transform="translate(863.916016 0)"/>
     <use xlink:href="#DejaVuSans-63" transform="translate(895.703125 0)"/>
     <use xlink:href="#DejaVuSans-65" transform="translate(950.683594 0)"/>
     <use xlink:href="#DejaVuSans-6e" transform="translate(1012.207031 0)"/>
     <use xlink:href="#DejaVuSans-74" transform="translate(1075.585938 0)"/>
     <use xlink:href="#DejaVuSans-72" transform="translate(1114.794922 0)"/>
     <use xlink:href="#DejaVuSans-65" transform="translate(1153.658203 0)"/>
    </g>
   </g>
   <g id="text_22">
    <!-- Satiété : bliss point et cercles d'indifférence -->
    <g transform="translate(78.978906 17.757938) scale(0.132 -0.132)">
     <defs>
      <path id="DejaVuSans-53" d="M 3425 4513 
L 3425 3897 
Q 3066 4069 2747 4153 
Q 2428 4238 2131 4238 
Q 1616 4238 1336 4038 
Q 1056 3838 1056 3469 
Q 1056 3159 1242 3001 
Q 1428 2844 1947 2747 
L 2328 2669 
Q 3034 2534 3370 2195 
Q 3706 1856 3706 1288 
Q 3706 609 3251 259 
Q 2797 -91 1919 -91 
Q 1588 -91 1214 -16 
Q 841 59 441 206 
L 441 856 
Q 825 641 1194 531 
Q 1563 422 1919 422 
Q 2459 422 2753 634 
Q 3047 847 3047 1241 
Q 3047 1584 2836 1778 
Q 2625 1972 2144 2069 
L 1759 2144 
Q 1053 2284 737 2584 
Q 422 2884 422 3419 
Q 422 4038 858 4394 
Q 1294 4750 2059 4750 
Q 2388 4750 2728 4690 
Q 3069 4631 3425 4513 
z
" transform="scale(0.015625)"/>
      <path id="DejaVuSans-3a" d="M 750 794 
L 1409 794 
L 1409 0 
L 750 0 
L 750 794 
z
M 750 3309 
L 1409 3309 
L 1409 2516 
L 750 2516 
L 750 3309 
z
" transform="scale(0.015625)"/>
      <path id="DejaVuSans-70" d="M 1159 525 
L 1159 -1331 
L 581 -1331 
L 581 3500 
L 1159 3500 
L 1159 2969 
Q 1341 3281 1617 3432 
Q 1894 3584 2278 3584 
Q 2916 3584 3314 3078 
Q 3713 2572 3713 1747 
Q 3713 922 3314 415 
Q 2916 -91 2278 -91 
Q 1894 -91 1617 61 
Q 1341 213 1159 525 
z
M 3116 1747 
Q 3116 2381 2855 2742 
Q 2594 3103 2138 3103 
Q 1681 3103 1420 2742 
Q 1159 2381 1159 1747 
Q 1159 1113 1420 752 
Q 1681 391 2138 391 
Q 2594 391 2855 752 
Q 3116 1113 3116 1747 
z
" transform="scale(0.015625)"/>
      <path id="DejaVuSans-66" d="M 2375 4863 
L 2375 4384 
L 1825 4384 
Q 1516 4384 1395 4259 
Q 1275 4134 1275 3809 
L 1275 3500 
L 2222 3500 
L 2222 3053 
L 1275 3053 
L 1275 0 
L 697 0 
L 697 3053 
L 147 3053 
L 147 3500 
L 697 3500 
L 697 3744 
Q 697 4328 969 4595 
Q 1241 4863 1831 4863 
L 2375 4863 
z
" transform="scale(0.015625)"/>
     </defs>
     <use xlink:href="#DejaVuSans-53"/>
     <use xlink:href="#DejaVuSans-61" transform="translate(63.476562 0)"/>
     <use xlink:href="#DejaVuSans-74" transform="translate(124.755859 0)"/>
     <use xlink:href="#DejaVuSans-69" transform="translate(163.964844 0)"/>
     <use xlink:href="#DejaVuSans-e9" transform="translate(191.748047 0)"/>
     <use xlink:href="#DejaVuSans-74" transform="translate(253.271484 0)"/>
     <use xlink:href="#DejaVuSans-e9" transform="translate(292.480469 0)"/>
     <use xlink:href="#DejaVuSans-20" transform="translate(354.003906 0)"/>
     <use xlink:href="#DejaVuSans-3a" transform="translate(385.791016 0)"/>
     <use xlink:href="#DejaVuSans-20" transform="translate(419.482422 0)"/>
     <use xlink:href="#DejaVuSans-62" transform="translate(451.269531 0)"/>
     <use xlink:href="#DejaVuSans-6c" transform="translate(514.746094 0)"/>
     <use xlink:href="#DejaVuSans-69" transform="translate(542.529297 0)"/>
     <use xlink:href="#DejaVuSans-73" transform="translate(570.3125 0)"/>
     <use xlink:href="#DejaVuSans-73" transform="translate(622.412109 0)"/>
     <use xlink:href="#DejaVuSans-20" transform="translate(674.511719 0)"/>
     <use xlink:href="#DejaVuSans-70" transform="translate(706.298828 0)"/>
     <use xlink:href="#DejaVuSans-6f" transform="translate(769.775391 0)"/>
     <use xlink:href="#DejaVuSans-69" transform="translate(830.957031 0)"/>
     <use xlink:href="#DejaVuSans-6e" transform="translate(858.740234 0)"/>
     <use xlink:href="#DejaVuSans-74" transform="translate(922.119141 0)"/>
     <use xlink:href="#DejaVuSans-20" transform="translate(961.328125 0)"/>
     <use xlink:href="#DejaVuSans-65" transform="translate(993.115234 0)"/>
     <use xlink:href="#DejaVuSans-74" transform="translate(1054.638672 0)"/>
     <use xlink:href="#DejaVuSans-20" transform="translate(1093.847656 0)"/>
     <use xlink:href="#DejaVuSans-63" transform="translate(1125.634766 0)"/>
     <use xlink:href="#DejaVuSans-65" transform="translate(1180.615234 0)"/>
     <use xlink:href="#DejaVuSans-72" transform="translate(1242.138672 0)"/>
     <use xlink:href="#DejaVuSans-63" transform="translate(1281.001953 0)"/>
     <use xlink:href="#DejaVuSans-6c" transform="translate(1335.982422 0)"/>
     <use xlink:href="#DejaVuSans-65" transform="translate(1363.765625 0)"/>
     <use xlink:href="#DejaVuSans-73" transform="translate(1425.289062 0)"/>
     <use xlink:href="#DejaVuSans-20" transform="translate(1477.388672 0)"/>
     <use xlink:href="#DejaVuSans-64" transform="translate(1509.175781 0)"/>
     <use xlink:href="#DejaVuSans-27" transform="translate(1572.652344 0)"/>
     <use xlink:href="#DejaVuSans-69" transform="translate(1600.142578 0)"/>
     <use xlink:href="#DejaVuSans-6e" transform="translate(1627.925781 0)"/>
     <use xlink:href="#DejaVuSans-64" transform="translate(1691.304688 0)"/>
     <use xlink:href="#DejaVuSans-69" transform="translate(1754.78125 0)"/>
     <use xlink:href="#DejaVuSans-66" transform="translate(1782.564453 0)"/>
     <use xlink:href="#DejaVuSans-66" transform="translate(1817.769531 0)"/>
     <use xlink:href="#DejaVuSans-e9" transform="translate(1852.974609 0)"/>
     <use xlink:href="#DejaVuSans-72" transform="translate(1914.498047 0)"/>
     <use xlink:href="#DejaVuSans-65" transform="translate(1953.361328 0)"/>
     <use xlink:href="#DejaVuSans-6e" transform="translate(2014.884766 0)"/>
     <use xlink:href="#DejaVuSans-63" transform="translate(2078.263672 0)"/>
     <use xlink:href="#DejaVuSans-65" transform="translate(2133.244141 0)"/>
    </g>
    <!-- $U(x_1,x_2)=-(x_1-4)^2-(x_2-4)^2$ -->
    <g transform="translate(119.355437 34.3161) scale(0.132 -0.132)">
     <defs>
      <path id="DejaVuSans-Oblique-55" d="M 991 4666 
L 1625 4666 
L 1075 1831 
Q 1041 1641 1027 1517 
Q 1013 1394 1013 1300 
Q 1013 869 1253 645 
Q 1494 422 1959 422 
Q 2563 422 2898 753 
Q 3234 1084 3378 1831 
L 3928 4666 
L 4563 4666 
L 4000 1753 
Q 3816 809 3300 359 
Q 2784 -91 1888 -91 
Q 1188 -91 780 261 
Q 372 613 372 1216 
Q 372 1325 387 1461 
Q 403 1597 434 1753 
L 991 4666 
z
" transform="scale(0.015625)"/>
      <path id="DejaVuSans-28" d="M 1984 4856 
Q 1566 4138 1362 3434 
Q 1159 2731 1159 2009 
Q 1159 1288 1364 580 
Q 1569 -128 1984 -844 
L 1484 -844 
Q 1016 -109 783 600 
Q 550 1309 550 2009 
Q 550 2706 781 3412 
Q 1013 4119 1484 4856 
L 1984 4856 
z
" transform="scale(0.015625)"/>
      <path id="DejaVuSans-Oblique-78" d="M 3841 3500 
L 2234 1784 
L 3219 0 
L 2559 0 
L 1819 1388 
L 531 0 
L -166 0 
L 1556 1844 
L 641 3500 
L 1300 3500 
L 1972 2234 
L 3144 3500 
L 3841 3500 
z
" transform="scale(0.015625)"/>
      <path id="DejaVuSans-2c" d="M 750 794 
L 1409 794 
L 1409 256 
L 897 -744 
L 494 -744 
L 750 256 
L 750 794 
z
" transform="scale(0.015625)"/>
      <path id="DejaVuSans-29" d="M 513 4856 
L 1013 4856 
Q 1481 4119 1714 3412 
Q 1947 2706 1947 2009 
Q 1947 1309 1714 600 
Q 1481 -109 1013 -844 
L 513 -844 
Q 928 -128 1133 580 
Q 1338 1288 1338 2009 
Q 1338 2731 1133 3434 
Q 928 4138 513 4856 
z
" transform="scale(0.015625)"/>
      <path id="DejaVuSans-3d" d="M 678 2906 
L 4684 2906 
L 4684 2381 
L 678 2381 
L 678 2906 
z
M 678 1631 
L 4684 1631 
L 4684 1100 
L 678 1100 
L 678 1631 
z
" transform="scale(0.015625)"/>
      <path id="DejaVuSans-2212" d="M 678 2272 
L 4684 2272 
L 4684 1741 
L 678 1741 
L 678 2272 
z
" transform="scale(0.015625)"/>
     </defs>
     <use xlink:href="#DejaVuSans-Oblique-55" transform="translate(0 0.765625)"/>
     <use xlink:href="#DejaVuSans-28" transform="translate(73.193359 0.765625)"/>
     <use xlink:href="#DejaVuSans-Oblique-78" transform="translate(112.207031 0.765625)"/>
     <use xlink:href="#DejaVuSans-31" transform="translate(171.386719 -15.640625) scale(0.7)"/>
     <use xlink:href="#DejaVuSans-2c" transform="translate(218.657227 0.765625)"/>
     <use xlink:href="#DejaVuSans-Oblique-78" transform="translate(269.926758 0.765625)"/>
     <use xlink:href="#DejaVuSans-32" transform="translate(329.106445 -15.640625) scale(0.7)"/>
     <use xlink:href="#DejaVuSans-29" transform="translate(376.376953 0.765625)"/>
     <use xlink:href="#DejaVuSans-3d" transform="translate(434.873047 0.765625)"/>
     <use xlink:href="#DejaVuSans-2212" transform="translate(538.144531 0.765625)"/>
     <use xlink:href="#DejaVuSans-28" transform="translate(621.933594 0.765625)"/>
     <use xlink:href="#DejaVuSans-Oblique-78" transform="translate(660.947266 0.765625)"/>
     <use xlink:href="#DejaVuSans-31" transform="translate(720.126953 -15.640625) scale(0.7)"/>
     <use xlink:href="#DejaVuSans-2212" transform="translate(786.879883 0.765625)"/>
     <use xlink:href="#DejaVuSans-34" transform="translate(890.151367 0.765625)"/>
     <use xlink:href="#DejaVuSans-29" transform="translate(953.774414 0.765625)"/>
     <use xlink:href="#DejaVuSans-32" transform="translate(993.745117 39.046875) scale(0.7)"/>
     <use xlink:href="#DejaVuSans-2212" transform="translate(1060.498047 0.765625)"/>
     <use xlink:href="#DejaVuSans-28" transform="translate(1163.769531 0.765625)"/>
     <use xlink:href="#DejaVuSans-Oblique-78" transform="translate(1202.783203 0.765625)"/>
     <use xlink:href="#DejaVuSans-32" transform="translate(1261.962891 -15.640625) scale(0.7)"/>
     <use xlink:href="#DejaVuSans-2212" transform="translate(1328.71582 0.765625)"/>
     <use xlink:href="#DejaVuSans-34" transform="translate(1431.987305 0.765625)"/>
     <use xlink:href="#DejaVuSans-29" transform="translate(1495.610352 0.765625)"/>
     <use xlink:href="#DejaVuSans-32" transform="translate(1535.581055 39.046875) scale(0.7)"/>
    </g>
   </g>
   <g id="text_23">
    <g clip-path="url(#p58f709f6b4)">
     <!-- U = −16 -->
     <g style="fill: #d62728" transform="translate(324.898857 58.442876) rotate(-328.556959) scale(0.09 -0.09)">
      <defs>
       <path id="DejaVuSans-55" d="M 556 4666 
L 1191 4666 
L 1191 1831 
Q 1191 1081 1462 751 
Q 1734 422 2344 422 
Q 2950 422 3222 751 
Q 3494 1081 3494 1831 
L 3494 4666 
L 4128 4666 
L 4128 1753 
Q 4128 841 3676 375 
Q 3225 -91 2344 -91 
Q 1459 -91 1007 375 
Q 556 841 556 1753 
L 556 4666 
z
" transform="scale(0.015625)"/>
      </defs>
      <use xlink:href="#DejaVuSans-55"/>
      <use xlink:href="#DejaVuSans-20" transform="translate(73.193359 0)"/>
      <use xlink:href="#DejaVuSans-3d" transform="translate(104.980469 0)"/>
      <use xlink:href="#DejaVuSans-20" transform="translate(188.769531 0)"/>
      <use xlink:href="#DejaVuSans-2212" transform="translate(220.556641 0)"/>
      <use xlink:href="#DejaVuSans-31" transform="translate(304.345703 0)"/>
      <use xlink:href="#DejaVuSans-36" transform="translate(367.96875 0)"/>
     </g>
    </g>
   </g>
   <g id="text_24">
    <g clip-path="url(#p58f709f6b4)">
     <!-- U = −9 -->
     <g style="fill: #2ca02c" transform="translate(285.224023 239.007634) rotate(-25.319399) scale(0.09 -0.09)">
      <defs>
       <path id="DejaVuSans-39" d="M 703 97 
L 703 672 
Q 941 559 1184 500 
Q 1428 441 1663 441 
Q 2288 441 2617 861 
Q 2947 1281 2994 2138 
Q 2813 1869 2534 1725 
Q 2256 1581 1919 1581 
Q 1219 1581 811 2004 
Q 403 2428 403 3163 
Q 403 3881 828 4315 
Q 1253 4750 1959 4750 
Q 2769 4750 3195 4129 
Q 3622 3509 3622 2328 
Q 3622 1225 3098 567 
Q 2575 -91 1691 -91 
Q 1453 -91 1209 -44 
Q 966 3 703 97 
z
M 1959 2075 
Q 2384 2075 2632 2365 
Q 2881 2656 2881 3163 
Q 2881 3666 2632 3958 
Q 2384 4250 1959 4250 
Q 1534 4250 1286 3958 
Q 1038 3666 1038 3163 
Q 1038 2656 1286 2365 
Q 1534 2075 1959 2075 
z
" transform="scale(0.015625)"/>
      </defs>
      <use xlink:href="#DejaVuSans-55"/>
      <use xlink:href="#DejaVuSans-20" transform="translate(73.193359 0)"/>
      <use xlink:href="#DejaVuSans-3d" transform="translate(104.980469 0)"/>
      <use xlink:href="#DejaVuSans-20" transform="translate(188.769531 0)"/>
      <use xlink:href="#DejaVuSans-2212" transform="translate(220.556641 0)"/>
      <use xlink:href="#DejaVuSans-39" transform="translate(304.345703 0)"/>
     </g>
    </g>
   </g>
   <g id="text_25">
    <g clip-path="url(#p58f709f6b4)">
     <!-- U = −4 -->
     <g style="fill: #ff7f0e" transform="translate(263.640523 103.613452) rotate(-331.105767) scale(0.09 -0.09)">
      <use xlink:href="#DejaVuSans-55"/>
      <use xlink:href="#DejaVuSans-20" transform="translate(73.193359 0)"/>
      <use xlink:href="#DejaVuSans-3d" transform="translate(104.980469 0)"/>
      <use xlink:href="#DejaVuSans-20" transform="translate(188.769531 0)"/>
      <use xlink:href="#DejaVuSans-2212" transform="translate(220.556641 0)"/>
      <use xlink:href="#DejaVuSans-34" transform="translate(304.345703 0)"/>
     </g>
    </g>
   </g>
   <g id="text_26">
    <g clip-path="url(#p58f709f6b4)">
     <!-- U = −1 -->
     <g style="fill: #1f77b4" transform="translate(201.940713 186.056632) rotate(-355.106877) scale(0.09 -0.09)">
      <use xlink:href="#DejaVuSans-55"/>
      <use xlink:href="#DejaVuSans-20" transform="translate(73.193359 0)"/>
      <use xlink:href="#DejaVuSans-3d" transform="translate(104.980469 0)"/>
      <use xlink:href="#DejaVuSans-20" transform="translate(188.769531 0)"/>
      <use xlink:href="#DejaVuSans-2212" transform="translate(220.556641 0)"/>
      <use xlink:href="#DejaVuSans-31" transform="translate(304.345703 0)"/>
     </g>
    </g>
   </g>
   <g id="legend_1">
    <g id="patch_7">
     <path d="M 43.544688 65.262038 
L 167.918594 65.262038 
Q 170.118594 65.262038 170.118594 63.062038 
L 170.118594 48.0161 
Q 170.118594 45.8161 167.918594 45.8161 
L 43.544688 45.8161 
Q 41.344688 45.8161 41.344688 48.0161 
L 41.344688 63.062038 
Q 41.344688 65.262038 43.544688 65.262038 
z
" style="fill: #ffffff; opacity: 0.8; stroke: #cccccc; stroke-linejoin: miter"/>
    </g>
    <g id="line2d_38">
     <g>
      <use xlink:href="#m07e7cb94c8" x="56.744688" y="54.724381" style="stroke: #000000"/>
     </g>
    </g>
    <g id="text_27">
     <!-- bliss point (4, 4) -->
     <g transform="translate(76.544688 58.574381) scale(0.11 -0.11)">
      <use xlink:href="#DejaVuSans-62"/>
      <use xlink:href="#DejaVuSans-6c" transform="translate(63.476562 0)"/>
      <use xlink:href="#DejaVuSans-69" transform="translate(91.259766 0)"/>
      <use xlink:href="#DejaVuSans-73" transform="translate(119.042969 0)"/>
      <use xlink:href="#DejaVuSans-73" transform="translate(171.142578 0)"/>
      <use xlink:href="#DejaVuSans-20" transform="translate(223.242188 0)"/>
      <use xlink:href="#DejaVuSans-70" transform="translate(255.029297 0)"/>
      <use xlink:href="#DejaVuSans-6f" transform="translate(318.505859 0)"/>
      <use xlink:href="#DejaVuSans-69" transform="translate(379.6875 0)"/>
      <use xlink:href="#DejaVuSans-6e" transform="translate(407.470703 0)"/>
      <use xlink:href="#DejaVuSans-74" transform="translate(470.849609 0)"/>
      <use xlink:href="#DejaVuSans-20" transform="translate(510.058594 0)"/>
      <use xlink:href="#DejaVuSans-28" transform="translate(541.845703 0)"/>
      <use xlink:href="#DejaVuSans-34" transform="translate(580.859375 0)"/>
      <use xlink:href="#DejaVuSans-2c" transform="translate(644.482422 0)"/>
      <use xlink:href="#DejaVuSans-20" transform="translate(676.269531 0)"/>
      <use xlink:href="#DejaVuSans-34" transform="translate(708.056641 0)"/>
      <use xlink:href="#DejaVuSans-29" transform="translate(771.679688 0)"/>
     </g>
    </g>
   </g>
  </g>
 </g>
 <defs>
  <clipPath id="p58f709f6b4">
   <rect x="35.844688" y="40.3161" width="375.9775" height="231.769"/>
  </clipPath>
 </defs>
</svg>
