<?xml version="1.0" encoding="utf-8" standalone="no"?>
<!DOCTYPE svg PUBLIC "-//W3C//DTD SVG 1.1//EN"
  "http://www.w3.org/Graphics/SVG/1.1/DTD/svg11.dtd">
<svg xmlns:xlink="http://www.w3.org/1999/xlink" width="449.5575pt" height="335.611812pt" viewBox="0 0 449.5575 335.611812" xmlns="http://www.w3.org/2000/svg" version="1.1">
 <metadata>
  <rdf:RDF xmlns:dc="http://purl.org/dc/elements/1.1/" xmlns:cc="http://creativecommons.org/ns#" xmlns:rdf="http://www.w3.org/1999/02/22-rdf-syntax-ns#">
   <cc:Work>
    <dc:type rdf:resource="http://purl.org/dc/dcmitype/StillImage"/>
    <dc:date>2026-05-17T22:25:16.665952</dc:date>
    <dc:format>image/svg+xml</dc:format>
    <dc:creator>
     <cc:Agent>
      <dc:title>Matplotlib v3.10.9, https://matplotlib.org/</dc:title>
     </cc:Agent>
    </dc:creator>
   </cc:Work>
  </rdf:RDF>
 </metadata>
 <defs>
  <style type="text/css">*{stroke-linejoin: round; stroke-linecap: butt}</style>
 </defs>
 <g id="figure_1">
  <g id="patch_1">
   <path d="M 0 335.611812 
L 449.5575 335.611812 
L 449.5575 0 
L 0 0 
z
" style="fill: #ffffff"/>
  </g>
  <g id="axes_1">
   <g id="patch_2">
    <path d="M 42.8675 296.119937 
L 442.3575 296.119937 
L 442.3575 23.229938 
L 42.8675 23.229938 
z
" style="fill: #ffffff"/>
   </g>
   <g id="matplotlib.axis_1">
    <g id="xtick_1">
     <g id="line2d_1">
      <path d="M 42.8675 296.119937 
L 42.8675 23.229938 
" clip-path="url(#p863eee8b37)" style="fill: none; stroke: #b0b0b0; stroke-opacity: 0.25; stroke-width: 0.8; stroke-linecap: square"/>
     </g>
     <g id="line2d_2">
      <defs>
       <path id="m87c671d0a5" d="M 0 0 
L 0 3.5 
" style="stroke: #000000; stroke-width: 0.8"/>
      </defs>
      <g>
       <use xlink:href="#m87c671d0a5" x="42.8675" y="296.119937" style="stroke: #000000; stroke-width: 0.8"/>
      </g>
     </g>
     <g id="text_1">
      <!-- 0 -->
      <g transform="translate(39.368125 311.478219) scale(0.11 -0.11)">
       <defs>
        <path id="DejaVuSans-30" d="M 2034 4250 
Q 1547 4250 1301 3770 
Q 1056 3291 1056 2328 
Q 1056 1369 1301 889 
Q 1547 409 2034 409 
Q 2525 409 2770 889 
Q 3016 1369 3016 2328 
Q 3016 3291 2770 3770 
Q 2525 4250 2034 4250 
z
M 2034 4750 
Q 2819 4750 3233 4129 
Q 3647 3509 3647 2328 
Q 3647 1150 3233 529 
Q 2819 -91 2034 -91 
Q 1250 -91 836 529 
Q 422 1150 422 2328 
Q 422 3509 836 4129 
Q 1250 4750 2034 4750 
z
" transform="scale(0.015625)"/>
       </defs>
       <use xlink:href="#DejaVuSans-30"/>
      </g>
     </g>
    </g>
    <g id="xtick_2">
     <g id="line2d_3">
      <path d="M 115.502045 296.119937 
L 115.502045 23.229938 
" clip-path="url(#p863eee8b37)" style="fill: none; stroke: #b0b0b0; stroke-opacity: 0.25; stroke-width: 0.8; stroke-linecap: square"/>
     </g>
     <g id="line2d_4">
      <g>
       <use xlink:href="#m87c671d0a5" x="115.502045" y="296.119937" style="stroke: #000000; stroke-width: 0.8"/>
      </g>
     </g>
     <g id="text_2">
      <!-- 2 -->
      <g transform="translate(112.00267 311.478219) scale(0.11 -0.11)">
       <defs>
        <path id="DejaVuSans-32" d="M 1228 531 
L 3431 531 
L 3431 0 
L 469 0 
L 469 531 
Q 828 903 1448 1529 
Q 2069 2156 2228 2338 
Q 2531 2678 2651 2914 
Q 2772 3150 2772 3378 
Q 2772 3750 2511 3984 
Q 2250 4219 1831 4219 
Q 1534 4219 1204 4116 
Q 875 4013 500 3803 
L 500 4441 
Q 881 4594 1212 4672 
Q 1544 4750 1819 4750 
Q 2544 4750 2975 4387 
Q 3406 4025 3406 3419 
Q 3406 3131 3298 2873 
Q 3191 2616 2906 2266 
Q 2828 2175 2409 1742 
Q 1991 1309 1228 531 
z
" transform="scale(0.015625)"/>
       </defs>
       <use xlink:href="#DejaVuSans-32"/>
      </g>
     </g>
    </g>
    <g id="xtick_3">
     <g id="line2d_5">
      <path d="M 188.136591 296.119937 
L 188.136591 23.229938 
" clip-path="url(#p863eee8b37)" style="fill: none; stroke: #b0b0b0; stroke-opacity: 0.25; stroke-width: 0.8; stroke-linecap: square"/>
     </g>
     <g id="line2d_6">
      <g>
       <use xlink:href="#m87c671d0a5" x="188.136591" y="296.119937" style="stroke: #000000; stroke-width: 0.8"/>
      </g>
     </g>
     <g id="text_3">
      <!-- 4 -->
      <g transform="translate(184.637216 311.478219) scale(0.11 -0.11)">
       <defs>
        <path id="DejaVuSans-34" d="M 2419 4116 
L 825 1625 
L 2419 1625 
L 2419 4116 
z
M 2253 4666 
L 3047 4666 
L 3047 1625 
L 3713 1625 
L 3713 1100 
L 3047 1100 
L 3047 0 
L 2419 0 
L 2419 1100 
L 313 1100 
L 313 1709 
L 2253 4666 
z
" transform="scale(0.015625)"/>
       </defs>
       <use xlink:href="#DejaVuSans-34"/>
      </g>
     </g>
    </g>
    <g id="xtick_4">
     <g id="line2d_7">
      <path d="M 260.771136 296.119937 
L 260.771136 23.229938 
" clip-path="url(#p863eee8b37)" style="fill: none; stroke: #b0b0b0; stroke-opacity: 0.25; stroke-width: 0.8; stroke-linecap: square"/>
     </g>
     <g id="line2d_8">
      <g>
       <use xlink:href="#m87c671d0a5" x="260.771136" y="296.119937" style="stroke: #000000; stroke-width: 0.8"/>
      </g>
     </g>
     <g id="text_4">
      <!-- 6 -->
      <g transform="translate(257.271761 311.478219) scale(0.11 -0.11)">
       <defs>
        <path id="DejaVuSans-36" d="M 2113 2584 
Q 1688 2584 1439 2293 
Q 1191 2003 1191 1497 
Q 1191 994 1439 701 
Q 1688 409 2113 409 
Q 2538 409 2786 701 
Q 3034 994 3034 1497 
Q 3034 2003 2786 2293 
Q 2538 2584 2113 2584 
z
M 3366 4563 
L 3366 3988 
Q 3128 4100 2886 4159 
Q 2644 4219 2406 4219 
Q 1781 4219 1451 3797 
Q 1122 3375 1075 2522 
Q 1259 2794 1537 2939 
Q 1816 3084 2150 3084 
Q 2853 3084 3261 2657 
Q 3669 2231 3669 1497 
Q 3669 778 3244 343 
Q 2819 -91 2113 -91 
Q 1303 -91 875 529 
Q 447 1150 447 2328 
Q 447 3434 972 4092 
Q 1497 4750 2381 4750 
Q 2619 4750 2861 4703 
Q 3103 4656 3366 4563 
z
" transform="scale(0.015625)"/>
       </defs>
       <use xlink:href="#DejaVuSans-36"/>
      </g>
     </g>
    </g>
    <g id="xtick_5">
     <g id="line2d_9">
      <path d="M 333.405682 296.119937 
L 333.405682 23.229938 
" clip-path="url(#p863eee8b37)" style="fill: none; stroke: #b0b0b0; stroke-opacity: 0.25; stroke-width: 0.8; stroke-linecap: square"/>
     </g>
     <g id="line2d_10">
      <g>
       <use xlink:href="#m87c671d0a5" x="333.405682" y="296.119937" style="stroke: #000000; stroke-width: 0.8"/>
      </g>
     </g>
     <g id="text_5">
      <!-- 8 -->
      <g transform="translate(329.906307 311.478219) scale(0.11 -0.11)">
       <defs>
        <path id="DejaVuSans-38" d="M 2034 2216 
Q 1584 2216 1326 1975 
Q 1069 1734 1069 1313 
Q 1069 891 1326 650 
Q 1584 409 2034 409 
Q 2484 409 2743 651 
Q 3003 894 3003 1313 
Q 3003 1734 2745 1975 
Q 2488 2216 2034 2216 
z
M 1403 2484 
Q 997 2584 770 2862 
Q 544 3141 544 3541 
Q 544 4100 942 4425 
Q 1341 4750 2034 4750 
Q 2731 4750 3128 4425 
Q 3525 4100 3525 3541 
Q 3525 3141 3298 2862 
Q 3072 2584 2669 2484 
Q 3125 2378 3379 2068 
Q 3634 1759 3634 1313 
Q 3634 634 3220 271 
Q 2806 -91 2034 -91 
Q 1263 -91 848 271 
Q 434 634 434 1313 
Q 434 1759 690 2068 
Q 947 2378 1403 2484 
z
M 1172 3481 
Q 1172 3119 1398 2916 
Q 1625 2713 2034 2713 
Q 2441 2713 2670 2916 
Q 2900 3119 2900 3481 
Q 2900 3844 2670 4047 
Q 2441 4250 2034 4250 
Q 1625 4250 1398 4047 
Q 1172 3844 1172 3481 
z
" transform="scale(0.015625)"/>
       </defs>
       <use xlink:href="#DejaVuSans-38"/>
      </g>
     </g>
    </g>
    <g id="xtick_6">
     <g id="line2d_11">
      <path d="M 406.040227 296.119937 
L 406.040227 23.229938 
" clip-path="url(#p863eee8b37)" style="fill: none; stroke: #b0b0b0; stroke-opacity: 0.25; stroke-width: 0.8; stroke-linecap: square"/>
     </g>
     <g id="line2d_12">
      <g>
       <use xlink:href="#m87c671d0a5" x="406.040227" y="296.119937" style="stroke: #000000; stroke-width: 0.8"/>
      </g>
     </g>
     <g id="text_6">
      <!-- 10 -->
      <g transform="translate(399.041477 311.478219) scale(0.11 -0.11)">
       <defs>
        <path id="DejaVuSans-31" d="M 794 531 
L 1825 531 
L 1825 4091 
L 703 3866 
L 703 4441 
L 1819 4666 
L 2450 4666 
L 2450 531 
L 3481 531 
L 3481 0 
L 794 0 
L 794 531 
z
" transform="scale(0.015625)"/>
       </defs>
       <use xlink:href="#DejaVuSans-31"/>
       <use xlink:href="#DejaVuSans-30" transform="translate(63.623047 0)"/>
      </g>
     </g>
    </g>
    <g id="text_7">
     <!-- achats marchands $x$ -->
     <g transform="translate(186.8425 326.124156) scale(0.11 -0.11)">
      <defs>
       <path id="DejaVuSans-61" d="M 2194 1759 
Q 1497 1759 1228 1600 
Q 959 1441 959 1056 
Q 959 750 1161 570 
Q 1363 391 1709 391 
Q 2188 391 2477 730 
Q 2766 1069 2766 1631 
L 2766 1759 
L 2194 1759 
z
M 3341 1997 
L 3341 0 
L 2766 0 
L 2766 531 
Q 2569 213 2275 61 
Q 1981 -91 1556 -91 
Q 1019 -91 701 211 
Q 384 513 384 1019 
Q 384 1609 779 1909 
Q 1175 2209 1959 2209 
L 2766 2209 
L 2766 2266 
Q 2766 2663 2505 2880 
Q 2244 3097 1772 3097 
Q 1472 3097 1187 3025 
Q 903 2953 641 2809 
L 641 3341 
Q 956 3463 1253 3523 
Q 1550 3584 1831 3584 
Q 2591 3584 2966 3190 
Q 3341 2797 3341 1997 
z
" transform="scale(0.015625)"/>
       <path id="DejaVuSans-63" d="M 3122 3366 
L 3122 2828 
Q 2878 2963 2633 3030 
Q 2388 3097 2138 3097 
Q 1578 3097 1268 2742 
Q 959 2388 959 1747 
Q 959 1106 1268 751 
Q 1578 397 2138 397 
Q 2388 397 2633 464 
Q 2878 531 3122 666 
L 3122 134 
Q 2881 22 2623 -34 
Q 2366 -91 2075 -91 
Q 1284 -91 818 406 
Q 353 903 353 1747 
Q 353 2603 823 3093 
Q 1294 3584 2113 3584 
Q 2378 3584 2631 3529 
Q 2884 3475 3122 3366 
z
" transform="scale(0.015625)"/>
       <path id="DejaVuSans-68" d="M 3513 2113 
L 3513 0 
L 2938 0 
L 2938 2094 
Q 2938 2591 2744 2837 
Q 2550 3084 2163 3084 
Q 1697 3084 1428 2787 
Q 1159 2491 1159 1978 
L 1159 0 
L 581 0 
L 581 4863 
L 1159 4863 
L 1159 2956 
Q 1366 3272 1645 3428 
Q 1925 3584 2291 3584 
Q 2894 3584 3203 3211 
Q 3513 2838 3513 2113 
z
" transform="scale(0.015625)"/>
       <path id="DejaVuSans-74" d="M 1172 4494 
L 1172 3500 
L 2356 3500 
L 2356 3053 
L 1172 3053 
L 1172 1153 
Q 1172 725 1289 603 
Q 1406 481 1766 481 
L 2356 481 
L 2356 0 
L 1766 0 
Q 1100 0 847 248 
Q 594 497 594 1153 
L 594 3053 
L 172 3053 
L 172 3500 
L 594 3500 
L 594 4494 
L 1172 4494 
z
" transform="scale(0.015625)"/>
       <path id="DejaVuSans-73" d="M 2834 3397 
L 2834 2853 
Q 2591 2978 2328 3040 
Q 2066 3103 1784 3103 
Q 1356 3103 1142 2972 
Q 928 2841 928 2578 
Q 928 2378 1081 2264 
Q 1234 2150 1697 2047 
L 1894 2003 
Q 2506 1872 2764 1633 
Q 3022 1394 3022 966 
Q 3022 478 2636 193 
Q 2250 -91 1575 -91 
Q 1294 -91 989 -36 
Q 684 19 347 128 
L 347 722 
Q 666 556 975 473 
Q 1284 391 1588 391 
Q 1994 391 2212 530 
Q 2431 669 2431 922 
Q 2431 1156 2273 1281 
Q 2116 1406 1581 1522 
L 1381 1569 
Q 847 1681 609 1914 
Q 372 2147 372 2553 
Q 372 3047 722 3315 
Q 1072 3584 1716 3584 
Q 2034 3584 2315 3537 
Q 2597 3491 2834 3397 
z
" transform="scale(0.015625)"/>
       <path id="DejaVuSans-20" transform="scale(0.015625)"/>
       <path id="DejaVuSans-6d" d="M 3328 2828 
Q 3544 3216 3844 3400 
Q 4144 3584 4550 3584 
Q 5097 3584 5394 3201 
Q 5691 2819 5691 2113 
L 5691 0 
L 5113 0 
L 5113 2094 
Q 5113 2597 4934 2840 
Q 4756 3084 4391 3084 
Q 3944 3084 3684 2787 
Q 3425 2491 3425 1978 
L 3425 0 
L 2847 0 
L 2847 2094 
Q 2847 2600 2669 2842 
Q 2491 3084 2119 3084 
Q 1678 3084 1418 2786 
Q 1159 2488 1159 1978 
L 1159 0 
L 581 0 
L 581 3500 
L 1159 3500 
L 1159 2956 
Q 1356 3278 1631 3431 
Q 1906 3584 2284 3584 
Q 2666 3584 2933 3390 
Q 3200 3197 3328 2828 
z
" transform="scale(0.015625)"/>
       <path id="DejaVuSans-72" d="M 2631 2963 
Q 2534 3019 2420 3045 
Q 2306 3072 2169 3072 
Q 1681 3072 1420 2755 
Q 1159 2438 1159 1844 
L 1159 0 
L 581 0 
L 581 3500 
L 1159 3500 
L 1159 2956 
Q 1341 3275 1631 3429 
Q 1922 3584 2338 3584 
Q 2397 3584 2469 3576 
Q 2541 3569 2628 3553 
L 2631 2963 
z
" transform="scale(0.015625)"/>
       <path id="DejaVuSans-6e" d="M 3513 2113 
L 3513 0 
L 2938 0 
L 2938 2094 
Q 2938 2591 2744 2837 
Q 2550 3084 2163 3084 
Q 1697 3084 1428 2787 
Q 1159 2491 1159 1978 
L 1159 0 
L 581 0 
L 581 3500 
L 1159 3500 
L 1159 2956 
Q 1366 3272 1645 3428 
Q 1925 3584 2291 3584 
Q 2894 3584 3203 3211 
Q 3513 2838 3513 2113 
z
" transform="scale(0.015625)"/>
       <path id="DejaVuSans-64" d="M 2906 2969 
L 2906 4863 
L 3481 4863 
L 3481 0 
L 2906 0 
L 2906 525 
Q 2725 213 2448 61 
Q 2172 -91 1784 -91 
Q 1150 -91 751 415 
Q 353 922 353 1747 
Q 353 2572 751 3078 
Q 1150 3584 1784 3584 
Q 2172 3584 2448 3432 
Q 2725 3281 2906 2969 
z
M 947 1747 
Q 947 1113 1208 752 
Q 1469 391 1925 391 
Q 2381 391 2643 752 
Q 2906 1113 2906 1747 
Q 2906 2381 2643 2742 
Q 2381 3103 1925 3103 
Q 1469 3103 1208 2742 
Q 947 2381 947 1747 
z
" transform="scale(0.015625)"/>
       <path id="DejaVuSans-Oblique-78" d="M 3841 3500 
L 2234 1784 
L 3219 0 
L 2559 0 
L 1819 1388 
L 531 0 
L -166 0 
L 1556 1844 
L 641 3500 
L 1300 3500 
L 1972 2234 
L 3144 3500 
L 3841 3500 
z
" transform="scale(0.015625)"/>
      </defs>
      <use xlink:href="#DejaVuSans-61" transform="translate(0 0.015625)"/>
      <use xlink:href="#DejaVuSans-63" transform="translate(61.279297 0.015625)"/>
      <use xlink:href="#DejaVuSans-68" transform="translate(116.259766 0.015625)"/>
      <use xlink:href="#DejaVuSans-61" transform="translate(179.638672 0.015625)"/>
      <use xlink:href="#DejaVuSans-74" transform="translate(240.917969 0.015625)"/>
      <use xlink:href="#DejaVuSans-73" transform="translate(280.126953 0.015625)"/>
      <use xlink:href="#DejaVuSans-20" transform="translate(332.226562 0.015625)"/>
      <use xlink:href="#DejaVuSans-6d" transform="translate(364.013672 0.015625)"/>
      <use xlink:href="#DejaVuSans-61" transform="translate(461.425781 0.015625)"/>
      <use xlink:href="#DejaVuSans-72" transform="translate(522.705078 0.015625)"/>
      <use xlink:href="#DejaVuSans-63" transform="translate(563.818359 0.015625)"/>
      <use xlink:href="#DejaVuSans-68" transform="translate(618.798828 0.015625)"/>
      <use xlink:href="#DejaVuSans-61" transform="translate(682.177734 0.015625)"/>
      <use xlink:href="#DejaVuSans-6e" transform="translate(743.457031 0.015625)"/>
      <use xlink:href="#DejaVuSans-64" transform="translate(806.835938 0.015625)"/>
      <use xlink:href="#DejaVuSans-73" transform="translate(870.3125 0.015625)"/>
      <use xlink:href="#DejaVuSans-20" transform="translate(922.412109 0.015625)"/>
      <use xlink:href="#DejaVuSans-Oblique-78" transform="translate(954.199219 0.015625)"/>
     </g>
    </g>
   </g>
   <g id="matplotlib.axis_2">
    <g id="ytick_1">
     <g id="line2d_13">
      <path d="M 42.8675 296.119937 
L 442.3575 296.119937 
" clip-path="url(#p863eee8b37)" style="fill: none; stroke: #b0b0b0; stroke-opacity: 0.25; stroke-width: 0.8; stroke-linecap: square"/>
     </g>
     <g id="line2d_14">
      <defs>
       <path id="md955c19ac4" d="M 0 0 
L -3.5 0 
" style="stroke: #000000; stroke-width: 0.8"/>
      </defs>
      <g>
       <use xlink:href="#md955c19ac4" x="42.8675" y="296.119937" style="stroke: #000000; stroke-width: 0.8"/>
      </g>
     </g>
     <g id="text_8">
      <!-- 0 -->
      <g transform="translate(28.86875 300.299078) scale(0.11 -0.11)">
       <use xlink:href="#DejaVuSans-30"/>
      </g>
     </g>
    </g>
    <g id="ytick_2">
     <g id="line2d_15">
      <path d="M 42.8675 241.541937 
L 442.3575 241.541937 
" clip-path="url(#p863eee8b37)" style="fill: none; stroke: #b0b0b0; stroke-opacity: 0.25; stroke-width: 0.8; stroke-linecap: square"/>
     </g>
     <g id="line2d_16">
      <g>
       <use xlink:href="#md955c19ac4" x="42.8675" y="241.541937" style="stroke: #000000; stroke-width: 0.8"/>
      </g>
     </g>
     <g id="text_9">
      <!-- 2 -->
      <g transform="translate(28.86875 245.721078) scale(0.11 -0.11)">
       <use xlink:href="#DejaVuSans-32"/>
      </g>
     </g>
    </g>
    <g id="ytick_3">
     <g id="line2d_17">
      <path d="M 42.8675 186.963937 
L 442.3575 186.963937 
" clip-path="url(#p863eee8b37)" style="fill: none; stroke: #b0b0b0; stroke-opacity: 0.25; stroke-width: 0.8; stroke-linecap: square"/>
     </g>
     <g id="line2d_18">
      <g>
       <use xlink:href="#md955c19ac4" x="42.8675" y="186.963937" style="stroke: #000000; stroke-width: 0.8"/>
      </g>
     </g>
     <g id="text_10">
      <!-- 4 -->
      <g transform="translate(28.86875 191.143078) scale(0.11 -0.11)">
       <use xlink:href="#DejaVuSans-34"/>
      </g>
     </g>
    </g>
    <g id="ytick_4">
     <g id="line2d_19">
      <path d="M 42.8675 132.385937 
L 442.3575 132.385937 
" clip-path="url(#p863eee8b37)" style="fill: none; stroke: #b0b0b0; stroke-opacity: 0.25; stroke-width: 0.8; stroke-linecap: square"/>
     </g>
     <g id="line2d_20">
      <g>
       <use xlink:href="#md955c19ac4" x="42.8675" y="132.385937" style="stroke: #000000; stroke-width: 0.8"/>
      </g>
     </g>
     <g id="text_11">
      <!-- 6 -->
      <g transform="translate(28.86875 136.565078) scale(0.11 -0.11)">
       <use xlink:href="#DejaVuSans-36"/>
      </g>
     </g>
    </g>
    <g id="ytick_5">
     <g id="line2d_21">
      <path d="M 42.8675 77.807937 
L 442.3575 77.807937 
" clip-path="url(#p863eee8b37)" style="fill: none; stroke: #b0b0b0; stroke-opacity: 0.25; stroke-width: 0.8; stroke-linecap: square"/>
     </g>
     <g id="line2d_22">
      <g>
       <use xlink:href="#md955c19ac4" x="42.8675" y="77.807937" style="stroke: #000000; stroke-width: 0.8"/>
      </g>
     </g>
     <g id="text_12">
      <!-- 8 -->
      <g transform="translate(28.86875 81.987078) scale(0.11 -0.11)">
       <use xlink:href="#DejaVuSans-38"/>
      </g>
     </g>
    </g>
    <g id="ytick_6">
     <g id="line2d_23">
      <path d="M 42.8675 23.229938 
L 442.3575 23.229938 
" clip-path="url(#p863eee8b37)" style="fill: none; stroke: #b0b0b0; stroke-opacity: 0.25; stroke-width: 0.8; stroke-linecap: square"/>
     </g>
     <g id="line2d_24">
      <g>
       <use xlink:href="#md955c19ac4" x="42.8675" y="23.229938" style="stroke: #000000; stroke-width: 0.8"/>
      </g>
     </g>
     <g id="text_13">
      <!-- 10 -->
      <g transform="translate(21.87 27.409078) scale(0.11 -0.11)">
       <use xlink:href="#DejaVuSans-31"/>
       <use xlink:href="#DejaVuSans-30" transform="translate(63.623047 0)"/>
      </g>
     </g>
    </g>
    <g id="text_14">
     <!-- temps domestique $t_d$ -->
     <g transform="translate(15.56 217.699938) rotate(-90) scale(0.11 -0.11)">
      <defs>
       <path id="DejaVuSans-65" d="M 3597 1894 
L 3597 1613 
L 953 1613 
Q 991 1019 1311 708 
Q 1631 397 2203 397 
Q 2534 397 2845 478 
Q 3156 559 3463 722 
L 3463 178 
Q 3153 47 2828 -22 
Q 2503 -91 2169 -91 
Q 1331 -91 842 396 
Q 353 884 353 1716 
Q 353 2575 817 3079 
Q 1281 3584 2069 3584 
Q 2775 3584 3186 3129 
Q 3597 2675 3597 1894 
z
M 3022 2063 
Q 3016 2534 2758 2815 
Q 2500 3097 2075 3097 
Q 1594 3097 1305 2825 
Q 1016 2553 972 2059 
L 3022 2063 
z
" transform="scale(0.015625)"/>
       <path id="DejaVuSans-70" d="M 1159 525 
L 1159 -1331 
L 581 -1331 
L 581 3500 
L 1159 3500 
L 1159 2969 
Q 1341 3281 1617 3432 
Q 1894 3584 2278 3584 
Q 2916 3584 3314 3078 
Q 3713 2572 3713 1747 
Q 3713 922 3314 415 
Q 2916 -91 2278 -91 
Q 1894 -91 1617 61 
Q 1341 213 1159 525 
z
M 3116 1747 
Q 3116 2381 2855 2742 
Q 2594 3103 2138 3103 
Q 1681 3103 1420 2742 
Q 1159 2381 1159 1747 
Q 1159 1113 1420 752 
Q 1681 391 2138 391 
Q 2594 391 2855 752 
Q 3116 1113 3116 1747 
z
" transform="scale(0.015625)"/>
       <path id="DejaVuSans-6f" d="M 1959 3097 
Q 1497 3097 1228 2736 
Q 959 2375 959 1747 
Q 959 1119 1226 758 
Q 1494 397 1959 397 
Q 2419 397 2687 759 
Q 2956 1122 2956 1747 
Q 2956 2369 2687 2733 
Q 2419 3097 1959 3097 
z
M 1959 3584 
Q 2709 3584 3137 3096 
Q 3566 2609 3566 1747 
Q 3566 888 3137 398 
Q 2709 -91 1959 -91 
Q 1206 -91 779 398 
Q 353 888 353 1747 
Q 353 2609 779 3096 
Q 1206 3584 1959 3584 
z
" transform="scale(0.015625)"/>
       <path id="DejaVuSans-69" d="M 603 3500 
L 1178 3500 
L 1178 0 
L 603 0 
L 603 3500 
z
M 603 4863 
L 1178 4863 
L 1178 4134 
L 603 4134 
L 603 4863 
z
" transform="scale(0.015625)"/>
       <path id="DejaVuSans-71" d="M 947 1747 
Q 947 1113 1208 752 
Q 1469 391 1925 391 
Q 2381 391 2643 752 
Q 2906 1113 2906 1747 
Q 2906 2381 2643 2742 
Q 2381 3103 1925 3103 
Q 1469 3103 1208 2742 
Q 947 2381 947 1747 
z
M 2906 525 
Q 2725 213 2448 61 
Q 2172 -91 1784 -91 
Q 1150 -91 751 415 
Q 353 922 353 1747 
Q 353 2572 751 3078 
Q 1150 3584 1784 3584 
Q 2172 3584 2448 3432 
Q 2725 3281 2906 2969 
L 2906 3500 
L 3481 3500 
L 3481 -1331 
L 2906 -1331 
L 2906 525 
z
" transform="scale(0.015625)"/>
       <path id="DejaVuSans-75" d="M 544 1381 
L 544 3500 
L 1119 3500 
L 1119 1403 
Q 1119 906 1312 657 
Q 1506 409 1894 409 
Q 2359 409 2629 706 
Q 2900 1003 2900 1516 
L 2900 3500 
L 3475 3500 
L 3475 0 
L 2900 0 
L 2900 538 
Q 2691 219 2414 64 
Q 2138 -91 1772 -91 
Q 1169 -91 856 284 
Q 544 659 544 1381 
z
M 1991 3584 
L 1991 3584 
z
" transform="scale(0.015625)"/>
       <path id="DejaVuSans-Oblique-74" d="M 2706 3500 
L 2619 3053 
L 1472 3053 
L 1100 1153 
Q 1081 1047 1072 975 
Q 1063 903 1063 863 
Q 1063 663 1183 572 
Q 1303 481 1569 481 
L 2150 481 
L 2053 0 
L 1503 0 
Q 991 0 739 200 
Q 488 400 488 806 
Q 488 878 497 964 
Q 506 1050 525 1153 
L 897 3053 
L 409 3053 
L 500 3500 
L 978 3500 
L 1172 4494 
L 1747 4494 
L 1556 3500 
L 2706 3500 
z
" transform="scale(0.015625)"/>
       <path id="DejaVuSans-Oblique-64" d="M 2675 525 
Q 2444 222 2128 65 
Q 1813 -91 1428 -91 
Q 903 -91 598 267 
Q 294 625 294 1247 
Q 294 1766 478 2236 
Q 663 2706 1013 3078 
Q 1244 3325 1534 3454 
Q 1825 3584 2144 3584 
Q 2481 3584 2739 3421 
Q 2997 3259 3138 2956 
L 3513 4863 
L 4091 4863 
L 3144 0 
L 2566 0 
L 2675 525 
z
M 891 1350 
Q 891 897 1095 644 
Q 1300 391 1663 391 
Q 1931 391 2161 520 
Q 2391 650 2566 903 
Q 2750 1166 2856 1509 
Q 2963 1853 2963 2188 
Q 2963 2622 2758 2865 
Q 2553 3109 2194 3109 
Q 1922 3109 1687 2981 
Q 1453 2853 1288 2613 
Q 1106 2353 998 2009 
Q 891 1666 891 1350 
z
" transform="scale(0.015625)"/>
      </defs>
      <use xlink:href="#DejaVuSans-74" transform="translate(0 0.015625)"/>
      <use xlink:href="#DejaVuSans-65" transform="translate(39.208984 0.015625)"/>
      <use xlink:href="#DejaVuSans-6d" transform="translate(100.732422 0.015625)"/>
      <use xlink:href="#DejaVuSans-70" transform="translate(198.144531 0.015625)"/>
      <use xlink:href="#DejaVuSans-73" transform="translate(261.621094 0.015625)"/>
      <use xlink:href="#DejaVuSans-20" transform="translate(313.720703 0.015625)"/>
      <use xlink:href="#DejaVuSans-64" transform="translate(345.507812 0.015625)"/>
      <use xlink:href="#DejaVuSans-6f" transform="translate(408.984375 0.015625)"/>
      <use xlink:href="#DejaVuSans-6d" transform="translate(470.166016 0.015625)"/>
      <use xlink:href="#DejaVuSans-65" transform="translate(567.578125 0.015625)"/>
      <use xlink:href="#DejaVuSans-73" transform="translate(629.101562 0.015625)"/>
      <use xlink:href="#DejaVuSans-74" transform="translate(681.201172 0.015625)"/>
      <use xlink:href="#DejaVuSans-69" transform="translate(720.410156 0.015625)"/>
      <use xlink:href="#DejaVuSans-71" transform="translate(748.193359 0.015625)"/>
      <use xlink:href="#DejaVuSans-75" transform="translate(811.669922 0.015625)"/>
      <use xlink:href="#DejaVuSans-65" transform="translate(875.048828 0.015625)"/>
      <use xlink:href="#DejaVuSans-20" transform="translate(936.572266 0.015625)"/>
      <use xlink:href="#DejaVuSans-Oblique-74" transform="translate(968.359375 0.015625)"/>
      <use xlink:href="#DejaVuSans-Oblique-64" transform="translate(1007.568359 -16.390625) scale(0.7)"/>
     </g>
    </g>
   </g>
   <g id="line2d_25">
    <path d="M 101.666894 26.440408 
L 104.260985 37.835318 
L 106.855076 48.306316 
L 109.449167 57.961392 
L 112.043258 66.892337 
L 114.637348 75.177672 
L 117.231439 82.884961 
L 120.690227 92.362071 
L 124.149015 101.032618 
L 127.607803 108.995366 
L 131.066591 116.333585 
L 134.525379 123.117975 
L 137.984167 129.408956 
L 141.442955 135.258464 
L 144.901742 140.711395 
L 148.36053 145.806757 
L 151.819318 150.578604 
L 156.142803 156.133617 
L 160.466288 161.280173 
L 164.789773 166.061725 
L 169.113258 170.515773 
L 173.436742 174.674851 
L 177.760227 178.567322 
L 182.948409 182.921123 
L 188.136591 186.963937 
L 193.324773 190.727937 
L 198.512955 194.241004 
L 204.565833 198.054654 
L 210.618712 201.593092 
L 216.671591 204.885072 
L 223.589167 208.377315 
L 230.506742 211.612067 
L 237.424318 214.616791 
L 245.206591 217.751527 
L 252.988864 220.654061 
L 261.635833 223.636902 
L 270.282803 226.392911 
L 279.79447 229.192171 
L 290.170833 232.000329 
L 300.547197 234.582327 
L 311.788258 237.154638 
L 323.894015 239.694682 
L 336.86447 242.184032 
L 350.699621 244.608117 
L 365.39947 246.955841 
L 380.964015 249.21915 
L 398.257955 251.501427 
L 416.416591 253.670382 
L 424.198864 254.536699 
L 424.198864 254.536699 
" clip-path="url(#p863eee8b37)" style="fill: none; stroke: #1f77b4; stroke-width: 2.5; stroke-linecap: square"/>
   </g>
   <g id="line2d_26">
    <path d="M 79.184773 155.394542 
L 424.198864 285.017292 
L 424.198864 285.017292 
" clip-path="url(#p863eee8b37)" style="fill: none; stroke-dasharray: 7.4,3.2; stroke-dashoffset: 0; stroke: #ff7f0e; stroke-width: 2"/>
   </g>
   <g id="patch_3">
    <path d="M 42.8675 296.119937 
L 42.8675 23.229938 
" style="fill: none; stroke: #000000; stroke-width: 0.8; stroke-linejoin: miter; stroke-linecap: square"/>
   </g>
   <g id="patch_4">
    <path d="M 442.3575 296.119937 
L 442.3575 23.229938 
" style="fill: none; stroke: #000000; stroke-width: 0.8; stroke-linejoin: miter; stroke-linecap: square"/>
   </g>
   <g id="patch_5">
    <path d="M 42.8675 296.119937 
L 442.3575 296.119937 
" style="fill: none; stroke: #000000; stroke-width: 0.8; stroke-linejoin: miter; stroke-linecap: square"/>
   </g>
   <g id="patch_6">
    <path d="M 42.8675 23.229938 
L 442.3575 23.229938 
" style="fill: none; stroke: #000000; stroke-width: 0.8; stroke-linejoin: miter; stroke-linecap: square"/>
   </g>
   <g id="patch_7">
    <path d="M 323.678997 167.405431 
Q 286.818597 192.606448 250.881143 217.176459 
" style="fill: none; stroke: #000000; stroke-linecap: round"/>
    <path d="M 254.868875 216.630569 
L 250.881143 217.176459 
L 252.83707 213.658739 
" style="fill: none; stroke: #000000; stroke-linecap: round"/>
   </g>
   <g id="text_15">
    <!-- tangence : combinaison la -->
    <g transform="translate(282.5615 152.325806) scale(0.09 -0.09)">
     <defs>
      <path id="DejaVuSans-67" d="M 2906 1791 
Q 2906 2416 2648 2759 
Q 2391 3103 1925 3103 
Q 1463 3103 1205 2759 
Q 947 2416 947 1791 
Q 947 1169 1205 825 
Q 1463 481 1925 481 
Q 2391 481 2648 825 
Q 2906 1169 2906 1791 
z
M 3481 434 
Q 3481 -459 3084 -895 
Q 2688 -1331 1869 -1331 
Q 1566 -1331 1297 -1286 
Q 1028 -1241 775 -1147 
L 775 -588 
Q 1028 -725 1275 -790 
Q 1522 -856 1778 -856 
Q 2344 -856 2625 -561 
Q 2906 -266 2906 331 
L 2906 616 
Q 2728 306 2450 153 
Q 2172 0 1784 0 
Q 1141 0 747 490 
Q 353 981 353 1791 
Q 353 2603 747 3093 
Q 1141 3584 1784 3584 
Q 2172 3584 2450 3431 
Q 2728 3278 2906 2969 
L 2906 3500 
L 3481 3500 
L 3481 434 
z
" transform="scale(0.015625)"/>
      <path id="DejaVuSans-3a" d="M 750 794 
L 1409 794 
L 1409 0 
L 750 0 
L 750 794 
z
M 750 3309 
L 1409 3309 
L 1409 2516 
L 750 2516 
L 750 3309 
z
" transform="scale(0.015625)"/>
      <path id="DejaVuSans-62" d="M 3116 1747 
Q 3116 2381 2855 2742 
Q 2594 3103 2138 3103 
Q 1681 3103 1420 2742 
Q 1159 2381 1159 1747 
Q 1159 1113 1420 752 
Q 1681 391 2138 391 
Q 2594 391 2855 752 
Q 3116 1113 3116 1747 
z
M 1159 2969 
Q 1341 3281 1617 3432 
Q 1894 3584 2278 3584 
Q 2916 3584 3314 3078 
Q 3713 2572 3713 1747 
Q 3713 922 3314 415 
Q 2916 -91 2278 -91 
Q 1894 -91 1617 61 
Q 1341 213 1159 525 
L 1159 0 
L 581 0 
L 581 4863 
L 1159 4863 
L 1159 2969 
z
" transform="scale(0.015625)"/>
      <path id="DejaVuSans-6c" d="M 603 4863 
L 1178 4863 
L 1178 0 
L 603 0 
L 603 4863 
z
" transform="scale(0.015625)"/>
     </defs>
     <use xlink:href="#DejaVuSans-74"/>
     <use xlink:href="#DejaVuSans-61" transform="translate(39.208984 0)"/>
     <use xlink:href="#DejaVuSans-6e" transform="translate(100.488281 0)"/>
     <use xlink:href="#DejaVuSans-67" transform="translate(163.867188 0)"/>
     <use xlink:href="#DejaVuSans-65" transform="translate(227.34375 0)"/>
     <use xlink:href="#DejaVuSans-6e" transform="translate(288.867188 0)"/>
     <use xlink:href="#DejaVuSans-63" transform="translate(352.246094 0)"/>
     <use xlink:href="#DejaVuSans-65" transform="translate(407.226562 0)"/>
     <use xlink:href="#DejaVuSans-20" transform="translate(468.75 0)"/>
     <use xlink:href="#DejaVuSans-3a" transform="translate(500.537109 0)"/>
     <use xlink:href="#DejaVuSans-20" transform="translate(534.228516 0)"/>
     <use xlink:href="#DejaVuSans-63" transform="translate(566.015625 0)"/>
     <use xlink:href="#DejaVuSans-6f" transform="translate(620.996094 0)"/>
     <use xlink:href="#DejaVuSans-6d" transform="translate(682.177734 0)"/>
     <use xlink:href="#DejaVuSans-62" transform="translate(779.589844 0)"/>
     <use xlink:href="#DejaVuSans-69" transform="translate(843.066406 0)"/>
     <use xlink:href="#DejaVuSans-6e" transform="translate(870.849609 0)"/>
     <use xlink:href="#DejaVuSans-61" transform="translate(934.228516 0)"/>
     <use xlink:href="#DejaVuSans-69" transform="translate(995.507812 0)"/>
     <use xlink:href="#DejaVuSans-73" transform="translate(1023.291016 0)"/>
     <use xlink:href="#DejaVuSans-6f" transform="translate(1075.390625 0)"/>
     <use xlink:href="#DejaVuSans-6e" transform="translate(1136.572266 0)"/>
     <use xlink:href="#DejaVuSans-20" transform="translate(1199.951172 0)"/>
     <use xlink:href="#DejaVuSans-6c" transform="translate(1231.738281 0)"/>
     <use xlink:href="#DejaVuSans-61" transform="translate(1259.521484 0)"/>
    </g>
    <!-- moins couteuse -->
    <g transform="translate(282.5615 162.403837) scale(0.09 -0.09)">
     <use xlink:href="#DejaVuSans-6d"/>
     <use xlink:href="#DejaVuSans-6f" transform="translate(97.412109 0)"/>
     <use xlink:href="#DejaVuSans-69" transform="translate(158.59375 0)"/>
     <use xlink:href="#DejaVuSans-6e" transform="translate(186.376953 0)"/>
     <use xlink:href="#DejaVuSans-73" transform="translate(249.755859 0)"/>
     <use xlink:href="#DejaVuSans-20" transform="translate(301.855469 0)"/>
     <use xlink:href="#DejaVuSans-63" transform="translate(333.642578 0)"/>
     <use xlink:href="#DejaVuSans-6f" transform="translate(388.623047 0)"/>
     <use xlink:href="#DejaVuSans-75" transform="translate(449.804688 0)"/>
     <use xlink:href="#DejaVuSans-74" transform="translate(513.183594 0)"/>
     <use xlink:href="#DejaVuSans-65" transform="translate(552.392578 0)"/>
     <use xlink:href="#DejaVuSans-75" transform="translate(613.916016 0)"/>
     <use xlink:href="#DejaVuSans-73" transform="translate(677.294922 0)"/>
     <use xlink:href="#DejaVuSans-65" transform="translate(729.394531 0)"/>
    </g>
   </g>
   <g id="text_16">
    <g id="patch_8">
     <path d="M 71.921318 52.380037 
L 156.611318 52.380037 
Q 159.311318 52.380037 159.311318 49.680037 
L 159.311318 38.070037 
Q 159.311318 35.370037 156.611318 35.370037 
L 71.921318 35.370037 
Q 69.221318 35.370037 69.221318 38.070037 
L 69.221318 49.680037 
Q 69.221318 52.380037 71.921318 52.380037 
z
" style="fill: #ffffff; opacity: 0.95; stroke: #666666; stroke-linejoin: miter"/>
    </g>
    <!-- $Z = \sqrt{x\,t_d}$ ;  $w/p = 2$ -->
    <g transform="translate(71.921318 47.790037) scale(0.09 -0.09)">
     <defs>
      <path id="DejaVuSans-Oblique-5a" d="M 838 4666 
L 4500 4666 
L 4409 4184 
L 794 531 
L 3769 531 
L 3669 0 
L -141 0 
L -50 481 
L 3566 4134 
L 738 4134 
L 838 4666 
z
" transform="scale(0.015625)"/>
      <path id="DejaVuSans-3d" d="M 678 2906 
L 4684 2906 
L 4684 2381 
L 678 2381 
L 678 2906 
z
M 678 1631 
L 4684 1631 
L 4684 1100 
L 678 1100 
L 678 1631 
z
" transform="scale(0.015625)"/>
      <path id="STIXSizeOneSym-Regular-221a" d="M 6970 9933 
L 3373 -1888 
L 3104 -1888 
L 1626 2918 
Q 1555 3149 1465 3251 
Q 1376 3354 1229 3354 
Q 1011 3354 794 3181 
L 717 3309 
L 1766 4115 
L 1926 4115 
L 3379 -602 
L 3405 -602 
L 6605 9933 
L 6970 9933 
z
" transform="scale(0.015625)"/>
      <path id="DejaVuSans-3b" d="M 750 3309 
L 1409 3309 
L 1409 2516 
L 750 2516 
L 750 3309 
z
M 750 794 
L 1409 794 
L 1409 256 
L 897 -744 
L 494 -744 
L 750 256 
L 750 794 
z
" transform="scale(0.015625)"/>
      <path id="DejaVuSans-Oblique-77" d="M 544 3500 
L 1113 3500 
L 1259 684 
L 2566 3500 
L 3231 3500 
L 3425 684 
L 4666 3500 
L 5241 3500 
L 3641 0 
L 2969 0 
L 2797 2900 
L 1459 0 
L 781 0 
L 544 3500 
z
" transform="scale(0.015625)"/>
      <path id="DejaVuSans-2f" d="M 1625 4666 
L 2156 4666 
L 531 -594 
L 0 -594 
L 1625 4666 
z
" transform="scale(0.015625)"/>
      <path id="DejaVuSans-Oblique-70" d="M 3175 2156 
Q 3175 2616 2975 2859 
Q 2775 3103 2400 3103 
Q 2144 3103 1911 2972 
Q 1678 2841 1497 2591 
Q 1319 2344 1212 1994 
Q 1106 1644 1106 1300 
Q 1106 863 1306 627 
Q 1506 391 1875 391 
Q 2147 391 2380 519 
Q 2613 647 2778 891 
Q 2956 1147 3065 1494 
Q 3175 1841 3175 2156 
z
M 1394 2969 
Q 1625 3272 1939 3428 
Q 2253 3584 2638 3584 
Q 3175 3584 3472 3232 
Q 3769 2881 3769 2247 
Q 3769 1728 3584 1258 
Q 3400 788 3053 416 
Q 2822 169 2531 39 
Q 2241 -91 1919 -91 
Q 1547 -91 1294 64 
Q 1041 219 916 525 
L 556 -1331 
L -19 -1331 
L 922 3500 
L 1497 3500 
L 1394 2969 
z
" transform="scale(0.015625)"/>
     </defs>
     <use xlink:href="#DejaVuSans-Oblique-5a" transform="translate(0 0.557812)"/>
     <use xlink:href="#DejaVuSans-3d" transform="translate(87.988281 0.557812)"/>
     <use xlink:href="#STIXSizeOneSym-Regular-221a" transform="translate(191.259766 2.140625) scale(0.643575)"/>
     <use xlink:href="#DejaVuSans-Oblique-78" transform="translate(271.771103 0.53125)"/>
     <use xlink:href="#DejaVuSans-Oblique-74" transform="translate(347.186467 0.53125)"/>
     <use xlink:href="#DejaVuSans-Oblique-64" transform="translate(386.395451 -15.875) scale(0.7)"/>
     <use xlink:href="#DejaVuSans-20" transform="translate(446.06342 0.557812)"/>
     <use xlink:href="#DejaVuSans-3b" transform="translate(477.850529 0.557812)"/>
     <use xlink:href="#DejaVuSans-20" transform="translate(511.541935 0.557812)"/>
     <use xlink:href="#DejaVuSans-20" transform="translate(543.329045 0.557812)"/>
     <use xlink:href="#DejaVuSans-Oblique-77" transform="translate(575.116154 0.557812)"/>
     <use xlink:href="#DejaVuSans-2f" transform="translate(656.903264 0.557812)"/>
     <use xlink:href="#DejaVuSans-Oblique-70" transform="translate(690.59467 0.557812)"/>
     <use xlink:href="#DejaVuSans-3d" transform="translate(773.553654 0.557812)"/>
     <use xlink:href="#DejaVuSans-32" transform="translate(876.825139 0.557812)"/>
     <path d="M 259.271103 95.5 
L 259.271103 101.75 
L 446.06342 101.75 
L 446.06342 95.5 
L 259.271103 95.5 
z
"/>
    </g>
   </g>
   <g id="text_17">
    <!-- Becker : production domestique et arbitrage cout/temps -->
    <g transform="translate(56.388344 17.229938) scale(0.132 -0.132)">
     <defs>
      <path id="DejaVuSans-42" d="M 1259 2228 
L 1259 519 
L 2272 519 
Q 2781 519 3026 730 
Q 3272 941 3272 1375 
Q 3272 1813 3026 2020 
Q 2781 2228 2272 2228 
L 1259 2228 
z
M 1259 4147 
L 1259 2741 
L 2194 2741 
Q 2656 2741 2882 2914 
Q 3109 3088 3109 3444 
Q 3109 3797 2882 3972 
Q 2656 4147 2194 4147 
L 1259 4147 
z
M 628 4666 
L 2241 4666 
Q 2963 4666 3353 4366 
Q 3744 4066 3744 3513 
Q 3744 3084 3544 2831 
Q 3344 2578 2956 2516 
Q 3422 2416 3680 2098 
Q 3938 1781 3938 1306 
Q 3938 681 3513 340 
Q 3088 0 2303 0 
L 628 0 
L 628 4666 
z
" transform="scale(0.015625)"/>
      <path id="DejaVuSans-6b" d="M 581 4863 
L 1159 4863 
L 1159 1991 
L 2875 3500 
L 3609 3500 
L 1753 1863 
L 3688 0 
L 2938 0 
L 1159 1709 
L 1159 0 
L 581 0 
L 581 4863 
z
" transform="scale(0.015625)"/>
     </defs>
     <use xlink:href="#DejaVuSans-42"/>
     <use xlink:href="#DejaVuSans-65" transform="translate(68.603516 0)"/>
     <use xlink:href="#DejaVuSans-63" transform="translate(130.126953 0)"/>
     <use xlink:href="#DejaVuSans-6b" transform="translate(185.107422 0)"/>
     <use xlink:href="#DejaVuSans-65" transform="translate(239.392578 0)"/>
     <use xlink:href="#DejaVuSans-72" transform="translate(300.916016 0)"/>
     <use xlink:href="#DejaVuSans-20" transform="translate(342.029297 0)"/>
     <use xlink:href="#DejaVuSans-3a" transform="translate(373.816406 0)"/>
     <use xlink:href="#DejaVuSans-20" transform="translate(407.507812 0)"/>
     <use xlink:href="#DejaVuSans-70" transform="translate(439.294922 0)"/>
     <use xlink:href="#DejaVuSans-72" transform="translate(502.771484 0)"/>
     <use xlink:href="#DejaVuSans-6f" transform="translate(541.634766 0)"/>
     <use xlink:href="#DejaVuSans-64" transform="translate(602.816406 0)"/>
     <use xlink:href="#DejaVuSans-75" transform="translate(666.292969 0)"/>
     <use xlink:href="#DejaVuSans-63" transform="translate(729.671875 0)"/>
     <use xlink:href="#DejaVuSans-74" transform="translate(784.652344 0)"/>
     <use xlink:href="#DejaVuSans-69" transform="translate(823.861328 0)"/>
     <use xlink:href="#DejaVuSans-6f" transform="translate(851.644531 0)"/>
     <use xlink:href="#DejaVuSans-6e" transform="translate(912.826172 0)"/>
     <use xlink:href="#DejaVuSans-20" transform="translate(976.205078 0)"/>
     <use xlink:href="#DejaVuSans-64" transform="translate(1007.992188 0)"/>
     <use xlink:href="#DejaVuSans-6f" transform="translate(1071.46875 0)"/>
     <use xlink:href="#DejaVuSans-6d" transform="translate(1132.650391 0)"/>
     <use xlink:href="#DejaVuSans-65" transform="translate(1230.0625 0)"/>
     <use xlink:href="#DejaVuSans-73" transform="translate(1291.585938 0)"/>
     <use xlink:href="#DejaVuSans-74" transform="translate(1343.685547 0)"/>
     <use xlink:href="#DejaVuSans-69" transform="translate(1382.894531 0)"/>
     <use xlink:href="#DejaVuSans-71" transform="translate(1410.677734 0)"/>
     <use xlink:href="#DejaVuSans-75" transform="translate(1474.154297 0)"/>
     <use xlink:href="#DejaVuSans-65" transform="translate(1537.533203 0)"/>
     <use xlink:href="#DejaVuSans-20" transform="translate(1599.056641 0)"/>
     <use xlink:href="#DejaVuSans-65" transform="translate(1630.84375 0)"/>
     <use xlink:href="#DejaVuSans-74" transform="translate(1692.367188 0)"/>
     <use xlink:href="#DejaVuSans-20" transform="translate(1731.576172 0)"/>
     <use xlink:href="#DejaVuSans-61" transform="translate(1763.363281 0)"/>
     <use xlink:href="#DejaVuSans-72" transform="translate(1824.642578 0)"/>
     <use xlink:href="#DejaVuSans-62" transform="translate(1865.755859 0)"/>
     <use xlink:href="#DejaVuSans-69" transform="translate(1929.232422 0)"/>
     <use xlink:href="#DejaVuSans-74" transform="translate(1957.015625 0)"/>
     <use xlink:href="#DejaVuSans-72" transform="translate(1996.224609 0)"/>
     <use xlink:href="#DejaVuSans-61" transform="translate(2037.337891 0)"/>
     <use xlink:href="#DejaVuSans-67" transform="translate(2098.617188 0)"/>
     <use xlink:href="#DejaVuSans-65" transform="translate(2162.09375 0)"/>
     <use xlink:href="#DejaVuSans-20" transform="translate(2223.617188 0)"/>
     <use xlink:href="#DejaVuSans-63" transform="translate(2255.404297 0)"/>
     <use xlink:href="#DejaVuSans-6f" transform="translate(2310.384766 0)"/>
     <use xlink:href="#DejaVuSans-75" transform="translate(2371.566406 0)"/>
     <use xlink:href="#DejaVuSans-74" transform="translate(2434.945312 0)"/>
     <use xlink:href="#DejaVuSans-2f" transform="translate(2474.154297 0)"/>
     <use xlink:href="#DejaVuSans-74" transform="translate(2507.845703 0)"/>
     <use xlink:href="#DejaVuSans-65" transform="translate(2547.054688 0)"/>
     <use xlink:href="#DejaVuSans-6d" transform="translate(2608.578125 0)"/>
     <use xlink:href="#DejaVuSans-70" transform="translate(2705.990234 0)"/>
     <use xlink:href="#DejaVuSans-73" transform="translate(2769.466797 0)"/>
    </g>
   </g>
   <g id="PathCollection_1">
    <defs>
     <path id="m8254a3b0e5" d="M 0 3.354102 
C 0.889518 3.354102 1.742724 3.000693 2.371708 2.371708 
C 3.000693 1.742724 3.354102 0.889518 3.354102 0 
C 3.354102 -0.889518 3.000693 -1.742724 2.371708 -2.371708 
C 1.742724 -3.000693 0.889518 -3.354102 0 -3.354102 
C -0.889518 -3.354102 -1.742724 -3.000693 -2.371708 -2.371708 
C -3.000693 -1.742724 -3.354102 -0.889518 -3.354102 0 
C -3.354102 0.889518 -3.000693 1.742724 -2.371708 2.371708 
C -1.742724 3.000693 -0.889518 3.354102 0 3.354102 
z
" style="stroke: #000000"/>
    </defs>
    <g clip-path="url(#p863eee8b37)">
     <use xlink:href="#m8254a3b0e5" x="248.309019" y="218.93499" style="stroke: #000000"/>
    </g>
   </g>
   <g id="legend_1">
    <g id="patch_9">
     <path d="M 251.7975 53.132437 
L 436.7575 53.132437 
Q 438.3575 53.132437 438.3575 51.532437 
L 438.3575 28.829937 
Q 438.3575 27.229937 436.7575 27.229937 
L 251.7975 27.229937 
Q 250.1975 27.229937 250.1975 28.829937 
L 250.1975 51.532437 
Q 250.1975 53.132437 251.7975 53.132437 
z
" style="fill: #ffffff; opacity: 0.8; stroke: #cccccc; stroke-linejoin: miter"/>
    </g>
    <g id="line2d_27">
     <path d="M 253.3975 33.709937 
L 261.3975 33.709937 
L 269.3975 33.709937 
" style="fill: none; stroke: #1f77b4; stroke-width: 2.5; stroke-linecap: square"/>
    </g>
    <g id="text_18">
     <!-- isoquante de production domestique $Z_0$ -->
     <g transform="translate(275.7975 36.509937) scale(0.08 -0.08)">
      <use xlink:href="#DejaVuSans-69" transform="translate(0 0.015625)"/>
      <use xlink:href="#DejaVuSans-73" transform="translate(27.783203 0.015625)"/>
      <use xlink:href="#DejaVuSans-6f" transform="translate(79.882812 0.015625)"/>
      <use xlink:href="#DejaVuSans-71" transform="translate(141.064453 0.015625)"/>
      <use xlink:href="#DejaVuSans-75" transform="translate(204.541016 0.015625)"/>
      <use xlink:href="#DejaVuSans-61" transform="translate(267.919922 0.015625)"/>
      <use xlink:href="#DejaVuSans-6e" transform="translate(329.199219 0.015625)"/>
      <use xlink:href="#DejaVuSans-74" transform="translate(392.578125 0.015625)"/>
      <use xlink:href="#DejaVuSans-65" transform="translate(431.787109 0.015625)"/>
      <use xlink:href="#DejaVuSans-20" transform="translate(493.310547 0.015625)"/>
      <use xlink:href="#DejaVuSans-64" transform="translate(525.097656 0.015625)"/>
      <use xlink:href="#DejaVuSans-65" transform="translate(588.574219 0.015625)"/>
      <use xlink:href="#DejaVuSans-20" transform="translate(650.097656 0.015625)"/>
      <use xlink:href="#DejaVuSans-70" transform="translate(681.884766 0.015625)"/>
      <use xlink:href="#DejaVuSans-72" transform="translate(745.361328 0.015625)"/>
      <use xlink:href="#DejaVuSans-6f" transform="translate(786.474609 0.015625)"/>
      <use xlink:href="#DejaVuSans-64" transform="translate(847.65625 0.015625)"/>
      <use xlink:href="#DejaVuSans-75" transform="translate(911.132812 0.015625)"/>
      <use xlink:href="#DejaVuSans-63" transform="translate(974.511719 0.015625)"/>
      <use xlink:href="#DejaVuSans-74" transform="translate(1029.492188 0.015625)"/>
      <use xlink:href="#DejaVuSans-69" transform="translate(1068.701172 0.015625)"/>
      <use xlink:href="#DejaVuSans-6f" transform="translate(1096.484375 0.015625)"/>
      <use xlink:href="#DejaVuSans-6e" transform="translate(1157.666016 0.015625)"/>
      <use xlink:href="#DejaVuSans-20" transform="translate(1221.044922 0.015625)"/>
      <use xlink:href="#DejaVuSans-64" transform="translate(1252.832031 0.015625)"/>
      <use xlink:href="#DejaVuSans-6f" transform="translate(1316.308594 0.015625)"/>
      <use xlink:href="#DejaVuSans-6d" transform="translate(1377.490234 0.015625)"/>
      <use xlink:href="#DejaVuSans-65" transform="translate(1474.902344 0.015625)"/>
      <use xlink:href="#DejaVuSans-73" transform="translate(1536.425781 0.015625)"/>
      <use xlink:href="#DejaVuSans-74" transform="translate(1588.525391 0.015625)"/>
      <use xlink:href="#DejaVuSans-69" transform="translate(1627.734375 0.015625)"/>
      <use xlink:href="#DejaVuSans-71" transform="translate(1655.517578 0.015625)"/>
      <use xlink:href="#DejaVuSans-75" transform="translate(1718.994141 0.015625)"/>
      <use xlink:href="#DejaVuSans-65" transform="translate(1782.373047 0.015625)"/>
      <use xlink:href="#DejaVuSans-20" transform="translate(1843.896484 0.015625)"/>
      <use xlink:href="#DejaVuSans-Oblique-5a" transform="translate(1875.683594 0.015625)"/>
      <use xlink:href="#DejaVuSans-30" transform="translate(1944.189453 -16.390625) scale(0.7)"/>
     </g>
    </g>
    <g id="line2d_28">
     <path d="M 253.3975 45.468688 
L 261.3975 45.468688 
L 269.3975 45.468688 
" style="fill: none; stroke-dasharray: 7.4,3.2; stroke-dashoffset: 0; stroke: #ff7f0e; stroke-width: 2"/>
    </g>
    <g id="text_19">
     <!-- droite d'isocout -->
     <g transform="translate(275.7975 48.268687) scale(0.08 -0.08)">
      <defs>
       <path id="DejaVuSans-27" d="M 1147 4666 
L 1147 2931 
L 616 2931 
L 616 4666 
L 1147 4666 
z
" transform="scale(0.015625)"/>
      </defs>
      <use xlink:href="#DejaVuSans-64"/>
      <use xlink:href="#DejaVuSans-72" transform="translate(63.476562 0)"/>
      <use xlink:href="#DejaVuSans-6f" transform="translate(102.339844 0)"/>
      <use xlink:href="#DejaVuSans-69" transform="translate(163.521484 0)"/>
      <use xlink:href="#DejaVuSans-74" transform="translate(191.304688 0)"/>
      <use xlink:href="#DejaVuSans-65" transform="translate(230.513672 0)"/>
      <use xlink:href="#DejaVuSans-20" transform="translate(292.037109 0)"/>
      <use xlink:href="#DejaVuSans-64" transform="translate(323.824219 0)"/>
      <use xlink:href="#DejaVuSans-27" transform="translate(387.300781 0)"/>
      <use xlink:href="#DejaVuSans-69" transform="translate(414.791016 0)"/>
      <use xlink:href="#DejaVuSans-73" transform="translate(442.574219 0)"/>
      <use xlink:href="#DejaVuSans-6f" transform="translate(494.673828 0)"/>
      <use xlink:href="#DejaVuSans-63" transform="translate(555.855469 0)"/>
      <use xlink:href="#DejaVuSans-6f" transform="translate(610.835938 0)"/>
      <use xlink:href="#DejaVuSans-75" transform="translate(672.017578 0)"/>
      <use xlink:href="#DejaVuSans-74" transform="translate(735.396484 0)"/>
     </g>
    </g>
   </g>
  </g>
 </g>
 <defs>
  <clipPath id="p863eee8b37">
   <rect x="42.8675" y="23.229938" width="399.49" height="272.89"/>
  </clipPath>
 </defs>
</svg>
