<?xml version="1.0" encoding="utf-8" standalone="no"?>
<!DOCTYPE svg PUBLIC "-//W3C//DTD SVG 1.1//EN"
  "http://www.w3.org/Graphics/SVG/1.1/DTD/svg11.dtd">
<svg xmlns:xlink="http://www.w3.org/1999/xlink" width="855.595625pt" height="404.26825pt" viewBox="0 0 855.595625 404.26825" xmlns="http://www.w3.org/2000/svg" version="1.1">
 <metadata>
  <rdf:RDF xmlns:dc="http://purl.org/dc/elements/1.1/" xmlns:cc="http://creativecommons.org/ns#" xmlns:rdf="http://www.w3.org/1999/02/22-rdf-syntax-ns#">
   <cc:Work>
    <dc:type rdf:resource="http://purl.org/dc/dcmitype/StillImage"/>
    <dc:date>2026-05-18T19:47:06.456674</dc:date>
    <dc:format>image/svg+xml</dc:format>
    <dc:creator>
     <cc:Agent>
      <dc:title>Matplotlib v3.10.9, https://matplotlib.org/</dc:title>
     </cc:Agent>
    </dc:creator>
   </cc:Work>
  </rdf:RDF>
 </metadata>
 <defs>
  <style type="text/css">*{stroke-linejoin: round; stroke-linecap: butt}</style>
 </defs>
 <g id="figure_1">
  <g id="patch_1">
   <path d="M 0 404.26825 
L 855.595625 404.26825 
L 855.595625 0 
L 0 0 
z
" style="fill: #ffffff"/>
  </g>
  <g id="axes_1">
   <g id="patch_2">
    <path d="M 40.603125 366.712 
L 415.433125 366.712 
L 415.433125 68.352 
L 40.603125 68.352 
z
" style="fill: #ffffff"/>
   </g>
   <g id="matplotlib.axis_1">
    <g id="xtick_1">
     <g id="line2d_1">
      <path d="M 40.603125 366.712 
L 40.603125 68.352 
" clip-path="url(#p6264ec4020)" style="fill: none; stroke: #b0b0b0; stroke-opacity: 0.25; stroke-width: 0.8; stroke-linecap: square"/>
     </g>
     <g id="line2d_2">
      <defs>
       <path id="m017eb671b6" d="M 0 0 
L 0 3.5 
" style="stroke: #000000; stroke-width: 0.8"/>
      </defs>
      <g>
       <use xlink:href="#m017eb671b6" x="40.603125" y="366.712" style="stroke: #000000; stroke-width: 0.8"/>
      </g>
     </g>
     <g id="text_1">
      <!-- 0 -->
      <g transform="translate(37.421875 381.310437) scale(0.1 -0.1)">
       <defs>
        <path id="DejaVuSans-30" d="M 2034 4250 
Q 1547 4250 1301 3770 
Q 1056 3291 1056 2328 
Q 1056 1369 1301 889 
Q 1547 409 2034 409 
Q 2525 409 2770 889 
Q 3016 1369 3016 2328 
Q 3016 3291 2770 3770 
Q 2525 4250 2034 4250 
z
M 2034 4750 
Q 2819 4750 3233 4129 
Q 3647 3509 3647 2328 
Q 3647 1150 3233 529 
Q 2819 -91 2034 -91 
Q 1250 -91 836 529 
Q 422 1150 422 2328 
Q 422 3509 836 4129 
Q 1250 4750 2034 4750 
z
" transform="scale(0.015625)"/>
       </defs>
       <use xlink:href="#DejaVuSans-30"/>
      </g>
     </g>
    </g>
    <g id="xtick_2">
     <g id="line2d_3">
      <path d="M 87.456875 366.712 
L 87.456875 68.352 
" clip-path="url(#p6264ec4020)" style="fill: none; stroke: #b0b0b0; stroke-opacity: 0.25; stroke-width: 0.8; stroke-linecap: square"/>
     </g>
     <g id="line2d_4">
      <g>
       <use xlink:href="#m017eb671b6" x="87.456875" y="366.712" style="stroke: #000000; stroke-width: 0.8"/>
      </g>
     </g>
     <g id="text_2">
      <!-- 2 -->
      <g transform="translate(84.275625 381.310437) scale(0.1 -0.1)">
       <defs>
        <path id="DejaVuSans-32" d="M 1228 531 
L 3431 531 
L 3431 0 
L 469 0 
L 469 531 
Q 828 903 1448 1529 
Q 2069 2156 2228 2338 
Q 2531 2678 2651 2914 
Q 2772 3150 2772 3378 
Q 2772 3750 2511 3984 
Q 2250 4219 1831 4219 
Q 1534 4219 1204 4116 
Q 875 4013 500 3803 
L 500 4441 
Q 881 4594 1212 4672 
Q 1544 4750 1819 4750 
Q 2544 4750 2975 4387 
Q 3406 4025 3406 3419 
Q 3406 3131 3298 2873 
Q 3191 2616 2906 2266 
Q 2828 2175 2409 1742 
Q 1991 1309 1228 531 
z
" transform="scale(0.015625)"/>
       </defs>
       <use xlink:href="#DejaVuSans-32"/>
      </g>
     </g>
    </g>
    <g id="xtick_3">
     <g id="line2d_5">
      <path d="M 134.310625 366.712 
L 134.310625 68.352 
" clip-path="url(#p6264ec4020)" style="fill: none; stroke: #b0b0b0; stroke-opacity: 0.25; stroke-width: 0.8; stroke-linecap: square"/>
     </g>
     <g id="line2d_6">
      <g>
       <use xlink:href="#m017eb671b6" x="134.310625" y="366.712" style="stroke: #000000; stroke-width: 0.8"/>
      </g>
     </g>
     <g id="text_3">
      <!-- 4 -->
      <g transform="translate(131.129375 381.310437) scale(0.1 -0.1)">
       <defs>
        <path id="DejaVuSans-34" d="M 2419 4116 
L 825 1625 
L 2419 1625 
L 2419 4116 
z
M 2253 4666 
L 3047 4666 
L 3047 1625 
L 3713 1625 
L 3713 1100 
L 3047 1100 
L 3047 0 
L 2419 0 
L 2419 1100 
L 313 1100 
L 313 1709 
L 2253 4666 
z
" transform="scale(0.015625)"/>
       </defs>
       <use xlink:href="#DejaVuSans-34"/>
      </g>
     </g>
    </g>
    <g id="xtick_4">
     <g id="line2d_7">
      <path d="M 181.164375 366.712 
L 181.164375 68.352 
" clip-path="url(#p6264ec4020)" style="fill: none; stroke: #b0b0b0; stroke-opacity: 0.25; stroke-width: 0.8; stroke-linecap: square"/>
     </g>
     <g id="line2d_8">
      <g>
       <use xlink:href="#m017eb671b6" x="181.164375" y="366.712" style="stroke: #000000; stroke-width: 0.8"/>
      </g>
     </g>
     <g id="text_4">
      <!-- 6 -->
      <g transform="translate(177.983125 381.310437) scale(0.1 -0.1)">
       <defs>
        <path id="DejaVuSans-36" d="M 2113 2584 
Q 1688 2584 1439 2293 
Q 1191 2003 1191 1497 
Q 1191 994 1439 701 
Q 1688 409 2113 409 
Q 2538 409 2786 701 
Q 3034 994 3034 1497 
Q 3034 2003 2786 2293 
Q 2538 2584 2113 2584 
z
M 3366 4563 
L 3366 3988 
Q 3128 4100 2886 4159 
Q 2644 4219 2406 4219 
Q 1781 4219 1451 3797 
Q 1122 3375 1075 2522 
Q 1259 2794 1537 2939 
Q 1816 3084 2150 3084 
Q 2853 3084 3261 2657 
Q 3669 2231 3669 1497 
Q 3669 778 3244 343 
Q 2819 -91 2113 -91 
Q 1303 -91 875 529 
Q 447 1150 447 2328 
Q 447 3434 972 4092 
Q 1497 4750 2381 4750 
Q 2619 4750 2861 4703 
Q 3103 4656 3366 4563 
z
" transform="scale(0.015625)"/>
       </defs>
       <use xlink:href="#DejaVuSans-36"/>
      </g>
     </g>
    </g>
    <g id="xtick_5">
     <g id="line2d_9">
      <path d="M 228.018125 366.712 
L 228.018125 68.352 
" clip-path="url(#p6264ec4020)" style="fill: none; stroke: #b0b0b0; stroke-opacity: 0.25; stroke-width: 0.8; stroke-linecap: square"/>
     </g>
     <g id="line2d_10">
      <g>
       <use xlink:href="#m017eb671b6" x="228.018125" y="366.712" style="stroke: #000000; stroke-width: 0.8"/>
      </g>
     </g>
     <g id="text_5">
      <!-- 8 -->
      <g transform="translate(224.836875 381.310437) scale(0.1 -0.1)">
       <defs>
        <path id="DejaVuSans-38" d="M 2034 2216 
Q 1584 2216 1326 1975 
Q 1069 1734 1069 1313 
Q 1069 891 1326 650 
Q 1584 409 2034 409 
Q 2484 409 2743 651 
Q 3003 894 3003 1313 
Q 3003 1734 2745 1975 
Q 2488 2216 2034 2216 
z
M 1403 2484 
Q 997 2584 770 2862 
Q 544 3141 544 3541 
Q 544 4100 942 4425 
Q 1341 4750 2034 4750 
Q 2731 4750 3128 4425 
Q 3525 4100 3525 3541 
Q 3525 3141 3298 2862 
Q 3072 2584 2669 2484 
Q 3125 2378 3379 2068 
Q 3634 1759 3634 1313 
Q 3634 634 3220 271 
Q 2806 -91 2034 -91 
Q 1263 -91 848 271 
Q 434 634 434 1313 
Q 434 1759 690 2068 
Q 947 2378 1403 2484 
z
M 1172 3481 
Q 1172 3119 1398 2916 
Q 1625 2713 2034 2713 
Q 2441 2713 2670 2916 
Q 2900 3119 2900 3481 
Q 2900 3844 2670 4047 
Q 2441 4250 2034 4250 
Q 1625 4250 1398 4047 
Q 1172 3844 1172 3481 
z
" transform="scale(0.015625)"/>
       </defs>
       <use xlink:href="#DejaVuSans-38"/>
      </g>
     </g>
    </g>
    <g id="xtick_6">
     <g id="line2d_11">
      <path d="M 274.871875 366.712 
L 274.871875 68.352 
" clip-path="url(#p6264ec4020)" style="fill: none; stroke: #b0b0b0; stroke-opacity: 0.25; stroke-width: 0.8; stroke-linecap: square"/>
     </g>
     <g id="line2d_12">
      <g>
       <use xlink:href="#m017eb671b6" x="274.871875" y="366.712" style="stroke: #000000; stroke-width: 0.8"/>
      </g>
     </g>
     <g id="text_6">
      <!-- 10 -->
      <g transform="translate(268.509375 381.310437) scale(0.1 -0.1)">
       <defs>
        <path id="DejaVuSans-31" d="M 794 531 
L 1825 531 
L 1825 4091 
L 703 3866 
L 703 4441 
L 1819 4666 
L 2450 4666 
L 2450 531 
L 3481 531 
L 3481 0 
L 794 0 
L 794 531 
z
" transform="scale(0.015625)"/>
       </defs>
       <use xlink:href="#DejaVuSans-31"/>
       <use xlink:href="#DejaVuSans-30" transform="translate(63.623047 0)"/>
      </g>
     </g>
    </g>
    <g id="xtick_7">
     <g id="line2d_13">
      <path d="M 321.725625 366.712 
L 321.725625 68.352 
" clip-path="url(#p6264ec4020)" style="fill: none; stroke: #b0b0b0; stroke-opacity: 0.25; stroke-width: 0.8; stroke-linecap: square"/>
     </g>
     <g id="line2d_14">
      <g>
       <use xlink:href="#m017eb671b6" x="321.725625" y="366.712" style="stroke: #000000; stroke-width: 0.8"/>
      </g>
     </g>
     <g id="text_7">
      <!-- 12 -->
      <g transform="translate(315.363125 381.310437) scale(0.1 -0.1)">
       <use xlink:href="#DejaVuSans-31"/>
       <use xlink:href="#DejaVuSans-32" transform="translate(63.623047 0)"/>
      </g>
     </g>
    </g>
    <g id="xtick_8">
     <g id="line2d_15">
      <path d="M 368.579375 366.712 
L 368.579375 68.352 
" clip-path="url(#p6264ec4020)" style="fill: none; stroke: #b0b0b0; stroke-opacity: 0.25; stroke-width: 0.8; stroke-linecap: square"/>
     </g>
     <g id="line2d_16">
      <g>
       <use xlink:href="#m017eb671b6" x="368.579375" y="366.712" style="stroke: #000000; stroke-width: 0.8"/>
      </g>
     </g>
     <g id="text_8">
      <!-- 14 -->
      <g transform="translate(362.216875 381.310437) scale(0.1 -0.1)">
       <use xlink:href="#DejaVuSans-31"/>
       <use xlink:href="#DejaVuSans-34" transform="translate(63.623047 0)"/>
      </g>
     </g>
    </g>
    <g id="xtick_9">
     <g id="line2d_17">
      <path d="M 415.433125 366.712 
L 415.433125 68.352 
" clip-path="url(#p6264ec4020)" style="fill: none; stroke: #b0b0b0; stroke-opacity: 0.25; stroke-width: 0.8; stroke-linecap: square"/>
     </g>
     <g id="line2d_18">
      <g>
       <use xlink:href="#m017eb671b6" x="415.433125" y="366.712" style="stroke: #000000; stroke-width: 0.8"/>
      </g>
     </g>
     <g id="text_9">
      <!-- 16 -->
      <g transform="translate(409.070625 381.310437) scale(0.1 -0.1)">
       <use xlink:href="#DejaVuSans-31"/>
       <use xlink:href="#DejaVuSans-36" transform="translate(63.623047 0)"/>
      </g>
     </g>
    </g>
    <g id="text_10">
     <!-- loisir $L_e$ -->
     <g transform="translate(209.418125 394.988562) scale(0.1 -0.1)">
      <defs>
       <path id="DejaVuSans-6c" d="M 603 4863 
L 1178 4863 
L 1178 0 
L 603 0 
L 603 4863 
z
" transform="scale(0.015625)"/>
       <path id="DejaVuSans-6f" d="M 1959 3097 
Q 1497 3097 1228 2736 
Q 959 2375 959 1747 
Q 959 1119 1226 758 
Q 1494 397 1959 397 
Q 2419 397 2687 759 
Q 2956 1122 2956 1747 
Q 2956 2369 2687 2733 
Q 2419 3097 1959 3097 
z
M 1959 3584 
Q 2709 3584 3137 3096 
Q 3566 2609 3566 1747 
Q 3566 888 3137 398 
Q 2709 -91 1959 -91 
Q 1206 -91 779 398 
Q 353 888 353 1747 
Q 353 2609 779 3096 
Q 1206 3584 1959 3584 
z
" transform="scale(0.015625)"/>
       <path id="DejaVuSans-69" d="M 603 3500 
L 1178 3500 
L 1178 0 
L 603 0 
L 603 3500 
z
M 603 4863 
L 1178 4863 
L 1178 4134 
L 603 4134 
L 603 4863 
z
" transform="scale(0.015625)"/>
       <path id="DejaVuSans-73" d="M 2834 3397 
L 2834 2853 
Q 2591 2978 2328 3040 
Q 2066 3103 1784 3103 
Q 1356 3103 1142 2972 
Q 928 2841 928 2578 
Q 928 2378 1081 2264 
Q 1234 2150 1697 2047 
L 1894 2003 
Q 2506 1872 2764 1633 
Q 3022 1394 3022 966 
Q 3022 478 2636 193 
Q 2250 -91 1575 -91 
Q 1294 -91 989 -36 
Q 684 19 347 128 
L 347 722 
Q 666 556 975 473 
Q 1284 391 1588 391 
Q 1994 391 2212 530 
Q 2431 669 2431 922 
Q 2431 1156 2273 1281 
Q 2116 1406 1581 1522 
L 1381 1569 
Q 847 1681 609 1914 
Q 372 2147 372 2553 
Q 372 3047 722 3315 
Q 1072 3584 1716 3584 
Q 2034 3584 2315 3537 
Q 2597 3491 2834 3397 
z
" transform="scale(0.015625)"/>
       <path id="DejaVuSans-72" d="M 2631 2963 
Q 2534 3019 2420 3045 
Q 2306 3072 2169 3072 
Q 1681 3072 1420 2755 
Q 1159 2438 1159 1844 
L 1159 0 
L 581 0 
L 581 3500 
L 1159 3500 
L 1159 2956 
Q 1341 3275 1631 3429 
Q 1922 3584 2338 3584 
Q 2397 3584 2469 3576 
Q 2541 3569 2628 3553 
L 2631 2963 
z
" transform="scale(0.015625)"/>
       <path id="DejaVuSans-20" transform="scale(0.015625)"/>
       <path id="DejaVuSans-Oblique-4c" d="M 1075 4666 
L 1709 4666 
L 909 525 
L 3181 525 
L 3078 0 
L 172 0 
L 1075 4666 
z
" transform="scale(0.015625)"/>
       <path id="DejaVuSans-Oblique-65" d="M 3078 2063 
Q 3088 2113 3092 2166 
Q 3097 2219 3097 2272 
Q 3097 2653 2873 2875 
Q 2650 3097 2266 3097 
Q 1838 3097 1509 2826 
Q 1181 2556 1013 2059 
L 3078 2063 
z
M 3578 1613 
L 903 1613 
Q 884 1494 878 1425 
Q 872 1356 872 1306 
Q 872 872 1139 634 
Q 1406 397 1894 397 
Q 2269 397 2603 481 
Q 2938 566 3225 728 
L 3116 159 
Q 2806 34 2476 -28 
Q 2147 -91 1806 -91 
Q 1078 -91 686 257 
Q 294 606 294 1247 
Q 294 1794 489 2264 
Q 684 2734 1063 3103 
Q 1306 3334 1642 3459 
Q 1978 3584 2356 3584 
Q 2950 3584 3301 3228 
Q 3653 2872 3653 2272 
Q 3653 2128 3634 1964 
Q 3616 1800 3578 1613 
z
" transform="scale(0.015625)"/>
      </defs>
      <use xlink:href="#DejaVuSans-6c" transform="translate(0 0.015625)"/>
      <use xlink:href="#DejaVuSans-6f" transform="translate(27.783203 0.015625)"/>
      <use xlink:href="#DejaVuSans-69" transform="translate(88.964844 0.015625)"/>
      <use xlink:href="#DejaVuSans-73" transform="translate(116.748047 0.015625)"/>
      <use xlink:href="#DejaVuSans-69" transform="translate(168.847656 0.015625)"/>
      <use xlink:href="#DejaVuSans-72" transform="translate(196.630859 0.015625)"/>
      <use xlink:href="#DejaVuSans-20" transform="translate(237.744141 0.015625)"/>
      <use xlink:href="#DejaVuSans-Oblique-4c" transform="translate(269.53125 0.015625)"/>
      <use xlink:href="#DejaVuSans-Oblique-65" transform="translate(325.244141 -16.390625) scale(0.7)"/>
     </g>
    </g>
   </g>
   <g id="matplotlib.axis_2">
    <g id="ytick_1">
     <g id="line2d_19">
      <path d="M 40.603125 366.712 
L 415.433125 366.712 
" clip-path="url(#p6264ec4020)" style="fill: none; stroke: #b0b0b0; stroke-opacity: 0.25; stroke-width: 0.8; stroke-linecap: square"/>
     </g>
     <g id="line2d_20">
      <defs>
       <path id="m45f6e1838e" d="M 0 0 
L -3.5 0 
" style="stroke: #000000; stroke-width: 0.8"/>
      </defs>
      <g>
       <use xlink:href="#m45f6e1838e" x="40.603125" y="366.712" style="stroke: #000000; stroke-width: 0.8"/>
      </g>
     </g>
     <g id="text_11">
      <!-- 0 -->
      <g transform="translate(27.240625 370.511219) scale(0.1 -0.1)">
       <use xlink:href="#DejaVuSans-30"/>
      </g>
     </g>
    </g>
    <g id="ytick_2">
     <g id="line2d_21">
      <path d="M 40.603125 315.892719 
L 415.433125 315.892719 
" clip-path="url(#p6264ec4020)" style="fill: none; stroke: #b0b0b0; stroke-opacity: 0.25; stroke-width: 0.8; stroke-linecap: square"/>
     </g>
     <g id="line2d_22">
      <g>
       <use xlink:href="#m45f6e1838e" x="40.603125" y="315.892719" style="stroke: #000000; stroke-width: 0.8"/>
      </g>
     </g>
     <g id="text_12">
      <!-- 5 -->
      <g transform="translate(27.240625 319.691938) scale(0.1 -0.1)">
       <defs>
        <path id="DejaVuSans-35" d="M 691 4666 
L 3169 4666 
L 3169 4134 
L 1269 4134 
L 1269 2991 
Q 1406 3038 1543 3061 
Q 1681 3084 1819 3084 
Q 2600 3084 3056 2656 
Q 3513 2228 3513 1497 
Q 3513 744 3044 326 
Q 2575 -91 1722 -91 
Q 1428 -91 1123 -41 
Q 819 9 494 109 
L 494 744 
Q 775 591 1075 516 
Q 1375 441 1709 441 
Q 2250 441 2565 725 
Q 2881 1009 2881 1497 
Q 2881 1984 2565 2268 
Q 2250 2553 1709 2553 
Q 1456 2553 1204 2497 
Q 953 2441 691 2322 
L 691 4666 
z
" transform="scale(0.015625)"/>
       </defs>
       <use xlink:href="#DejaVuSans-35"/>
      </g>
     </g>
    </g>
    <g id="ytick_3">
     <g id="line2d_23">
      <path d="M 40.603125 265.073438 
L 415.433125 265.073438 
" clip-path="url(#p6264ec4020)" style="fill: none; stroke: #b0b0b0; stroke-opacity: 0.25; stroke-width: 0.8; stroke-linecap: square"/>
     </g>
     <g id="line2d_24">
      <g>
       <use xlink:href="#m45f6e1838e" x="40.603125" y="265.073438" style="stroke: #000000; stroke-width: 0.8"/>
      </g>
     </g>
     <g id="text_13">
      <!-- 10 -->
      <g transform="translate(20.878125 268.872656) scale(0.1 -0.1)">
       <use xlink:href="#DejaVuSans-31"/>
       <use xlink:href="#DejaVuSans-30" transform="translate(63.623047 0)"/>
      </g>
     </g>
    </g>
    <g id="ytick_4">
     <g id="line2d_25">
      <path d="M 40.603125 214.254156 
L 415.433125 214.254156 
" clip-path="url(#p6264ec4020)" style="fill: none; stroke: #b0b0b0; stroke-opacity: 0.25; stroke-width: 0.8; stroke-linecap: square"/>
     </g>
     <g id="line2d_26">
      <g>
       <use xlink:href="#m45f6e1838e" x="40.603125" y="214.254156" style="stroke: #000000; stroke-width: 0.8"/>
      </g>
     </g>
     <g id="text_14">
      <!-- 15 -->
      <g transform="translate(20.878125 218.053375) scale(0.1 -0.1)">
       <use xlink:href="#DejaVuSans-31"/>
       <use xlink:href="#DejaVuSans-35" transform="translate(63.623047 0)"/>
      </g>
     </g>
    </g>
    <g id="ytick_5">
     <g id="line2d_27">
      <path d="M 40.603125 163.434875 
L 415.433125 163.434875 
" clip-path="url(#p6264ec4020)" style="fill: none; stroke: #b0b0b0; stroke-opacity: 0.25; stroke-width: 0.8; stroke-linecap: square"/>
     </g>
     <g id="line2d_28">
      <g>
       <use xlink:href="#m45f6e1838e" x="40.603125" y="163.434875" style="stroke: #000000; stroke-width: 0.8"/>
      </g>
     </g>
     <g id="text_15">
      <!-- 20 -->
      <g transform="translate(20.878125 167.234094) scale(0.1 -0.1)">
       <use xlink:href="#DejaVuSans-32"/>
       <use xlink:href="#DejaVuSans-30" transform="translate(63.623047 0)"/>
      </g>
     </g>
    </g>
    <g id="ytick_6">
     <g id="line2d_29">
      <path d="M 40.603125 112.615594 
L 415.433125 112.615594 
" clip-path="url(#p6264ec4020)" style="fill: none; stroke: #b0b0b0; stroke-opacity: 0.25; stroke-width: 0.8; stroke-linecap: square"/>
     </g>
     <g id="line2d_30">
      <g>
       <use xlink:href="#m45f6e1838e" x="40.603125" y="112.615594" style="stroke: #000000; stroke-width: 0.8"/>
      </g>
     </g>
     <g id="text_16">
      <!-- 25 -->
      <g transform="translate(20.878125 116.414813) scale(0.1 -0.1)">
       <use xlink:href="#DejaVuSans-32"/>
       <use xlink:href="#DejaVuSans-35" transform="translate(63.623047 0)"/>
      </g>
     </g>
    </g>
    <g id="text_17">
     <!-- service total $Z + x$ -->
     <g transform="translate(14.798438 262.582) rotate(-90) scale(0.1 -0.1)">
      <defs>
       <path id="DejaVuSans-65" d="M 3597 1894 
L 3597 1613 
L 953 1613 
Q 991 1019 1311 708 
Q 1631 397 2203 397 
Q 2534 397 2845 478 
Q 3156 559 3463 722 
L 3463 178 
Q 3153 47 2828 -22 
Q 2503 -91 2169 -91 
Q 1331 -91 842 396 
Q 353 884 353 1716 
Q 353 2575 817 3079 
Q 1281 3584 2069 3584 
Q 2775 3584 3186 3129 
Q 3597 2675 3597 1894 
z
M 3022 2063 
Q 3016 2534 2758 2815 
Q 2500 3097 2075 3097 
Q 1594 3097 1305 2825 
Q 1016 2553 972 2059 
L 3022 2063 
z
" transform="scale(0.015625)"/>
       <path id="DejaVuSans-76" d="M 191 3500 
L 800 3500 
L 1894 563 
L 2988 3500 
L 3597 3500 
L 2284 0 
L 1503 0 
L 191 3500 
z
" transform="scale(0.015625)"/>
       <path id="DejaVuSans-63" d="M 3122 3366 
L 3122 2828 
Q 2878 2963 2633 3030 
Q 2388 3097 2138 3097 
Q 1578 3097 1268 2742 
Q 959 2388 959 1747 
Q 959 1106 1268 751 
Q 1578 397 2138 397 
Q 2388 397 2633 464 
Q 2878 531 3122 666 
L 3122 134 
Q 2881 22 2623 -34 
Q 2366 -91 2075 -91 
Q 1284 -91 818 406 
Q 353 903 353 1747 
Q 353 2603 823 3093 
Q 1294 3584 2113 3584 
Q 2378 3584 2631 3529 
Q 2884 3475 3122 3366 
z
" transform="scale(0.015625)"/>
       <path id="DejaVuSans-74" d="M 1172 4494 
L 1172 3500 
L 2356 3500 
L 2356 3053 
L 1172 3053 
L 1172 1153 
Q 1172 725 1289 603 
Q 1406 481 1766 481 
L 2356 481 
L 2356 0 
L 1766 0 
Q 1100 0 847 248 
Q 594 497 594 1153 
L 594 3053 
L 172 3053 
L 172 3500 
L 594 3500 
L 594 4494 
L 1172 4494 
z
" transform="scale(0.015625)"/>
       <path id="DejaVuSans-61" d="M 2194 1759 
Q 1497 1759 1228 1600 
Q 959 1441 959 1056 
Q 959 750 1161 570 
Q 1363 391 1709 391 
Q 2188 391 2477 730 
Q 2766 1069 2766 1631 
L 2766 1759 
L 2194 1759 
z
M 3341 1997 
L 3341 0 
L 2766 0 
L 2766 531 
Q 2569 213 2275 61 
Q 1981 -91 1556 -91 
Q 1019 -91 701 211 
Q 384 513 384 1019 
Q 384 1609 779 1909 
Q 1175 2209 1959 2209 
L 2766 2209 
L 2766 2266 
Q 2766 2663 2505 2880 
Q 2244 3097 1772 3097 
Q 1472 3097 1187 3025 
Q 903 2953 641 2809 
L 641 3341 
Q 956 3463 1253 3523 
Q 1550 3584 1831 3584 
Q 2591 3584 2966 3190 
Q 3341 2797 3341 1997 
z
" transform="scale(0.015625)"/>
       <path id="DejaVuSans-Oblique-5a" d="M 838 4666 
L 4500 4666 
L 4409 4184 
L 794 531 
L 3769 531 
L 3669 0 
L -141 0 
L -50 481 
L 3566 4134 
L 738 4134 
L 838 4666 
z
" transform="scale(0.015625)"/>
       <path id="DejaVuSans-2b" d="M 2944 4013 
L 2944 2272 
L 4684 2272 
L 4684 1741 
L 2944 1741 
L 2944 0 
L 2419 0 
L 2419 1741 
L 678 1741 
L 678 2272 
L 2419 2272 
L 2419 4013 
L 2944 4013 
z
" transform="scale(0.015625)"/>
       <path id="DejaVuSans-Oblique-78" d="M 3841 3500 
L 2234 1784 
L 3219 0 
L 2559 0 
L 1819 1388 
L 531 0 
L -166 0 
L 1556 1844 
L 641 3500 
L 1300 3500 
L 1972 2234 
L 3144 3500 
L 3841 3500 
z
" transform="scale(0.015625)"/>
      </defs>
      <use xlink:href="#DejaVuSans-73" transform="translate(0 0.015625)"/>
      <use xlink:href="#DejaVuSans-65" transform="translate(52.099609 0.015625)"/>
      <use xlink:href="#DejaVuSans-72" transform="translate(113.623047 0.015625)"/>
      <use xlink:href="#DejaVuSans-76" transform="translate(154.736328 0.015625)"/>
      <use xlink:href="#DejaVuSans-69" transform="translate(213.916016 0.015625)"/>
      <use xlink:href="#DejaVuSans-63" transform="translate(241.699219 0.015625)"/>
      <use xlink:href="#DejaVuSans-65" transform="translate(296.679688 0.015625)"/>
      <use xlink:href="#DejaVuSans-20" transform="translate(358.203125 0.015625)"/>
      <use xlink:href="#DejaVuSans-74" transform="translate(389.990234 0.015625)"/>
      <use xlink:href="#DejaVuSans-6f" transform="translate(429.199219 0.015625)"/>
      <use xlink:href="#DejaVuSans-74" transform="translate(490.380859 0.015625)"/>
      <use xlink:href="#DejaVuSans-61" transform="translate(529.589844 0.015625)"/>
      <use xlink:href="#DejaVuSans-6c" transform="translate(590.869141 0.015625)"/>
      <use xlink:href="#DejaVuSans-20" transform="translate(618.652344 0.015625)"/>
      <use xlink:href="#DejaVuSans-Oblique-5a" transform="translate(650.439453 0.015625)"/>
      <use xlink:href="#DejaVuSans-2b" transform="translate(738.427734 0.015625)"/>
      <use xlink:href="#DejaVuSans-Oblique-78" transform="translate(841.699219 0.015625)"/>
     </g>
    </g>
   </g>
   <g id="line2d_31">
    <path d="M 155.496821 163.576394 
L 173.02125 170.543383 
L 189.799957 177.454084 
L 205.460085 184.139925 
L 220.374491 190.743402 
L 234.543178 197.254888 
L 247.966144 203.663361 
L 260.64339 209.956184 
L 272.574916 216.118861 
L 284.133581 222.339594 
L 294.946526 228.412071 
L 305.013751 234.31589 
L 314.708115 240.261298 
L 323.656759 246.009015 
L 332.232543 251.786668 
L 340.062607 257.328117 
L 347.51981 262.88028 
L 354.231293 268.144261 
L 360.569916 273.388034 
L 366.535679 278.607991 
L 372.128582 283.799633 
L 377.348624 288.957288 
L 382.195806 294.073716 
L 386.670128 299.139553 
L 390.77159 304.142507 
L 394.500192 309.066206 
L 397.855934 313.888482 
L 400.838815 318.578841 
L 403.448836 323.094706 
L 405.685997 327.375935 
L 407.923158 332.183987 
L 409.787459 336.77487 
L 411.2789 341.031848 
L 412.39748 344.7598 
L 413.516061 349.267003 
L 414.261781 353.075756 
L 414.261781 353.075756 
" clip-path="url(#p6264ec4020)" style="fill: none; stroke: #000000; stroke-width: 2.5; stroke-linecap: square"/>
   </g>
   <g id="line2d_32">
    <path d="M 41.774469 119.171281 
L 155.123961 163.430755 
L 155.123961 163.430755 
" clip-path="url(#p6264ec4020)" style="fill: none; stroke-dasharray: 9.25,4; stroke-dashoffset: 0; stroke: #1f77b4; stroke-width: 2.5"/>
   </g>
   <g id="line2d_33">
    <path d="M 42.945813 109.637608 
L 44.057358 111.366536 
L 45.539418 113.274468 
L 47.391994 115.282563 
L 49.615085 117.34861 
L 52.208691 119.448884 
L 55.172812 121.569308 
L 58.877964 123.924673 
L 62.95363 126.242327 
L 67.770327 128.710769 
L 73.328054 131.286604 
L 79.256296 133.789333 
L 86.296084 136.508064 
L 94.076902 139.262646 
L 102.59875 142.041294 
L 112.232144 144.94271 
L 122.977083 147.937101 
L 134.833567 151.001162 
L 147.801597 154.116641 
L 161.881172 157.269178 
L 177.442808 160.522353 
L 194.486505 163.852833 
L 213.012262 167.24164 
L 233.020079 170.673317 
L 254.880473 174.193103 
L 278.593442 177.780372 
L 304.158986 181.417969 
L 331.577107 185.091613 
L 361.218318 188.834854 
L 393.08262 192.6301 
L 413.090437 194.906033 
L 413.090437 194.906033 
" clip-path="url(#p6264ec4020)" style="fill: none; stroke: #d62728; stroke-opacity: 0.9; stroke-width: 2; stroke-linecap: square"/>
   </g>
   <g id="line2d_34">
    <path d="M 81.670507 366.712 
L 81.670507 68.352 
" clip-path="url(#p6264ec4020)" style="fill: none; stroke-dasharray: 1.1,1.815; stroke-dashoffset: 0; stroke: #8b0000; stroke-opacity: 0.5; stroke-width: 1.1"/>
   </g>
   <g id="patch_3">
    <path d="M 40.603125 366.712 
L 40.603125 68.352 
" style="fill: none; stroke: #000000; stroke-width: 0.8; stroke-linejoin: miter; stroke-linecap: square"/>
   </g>
   <g id="patch_4">
    <path d="M 40.603125 366.712 
L 415.433125 366.712 
" style="fill: none; stroke: #000000; stroke-width: 0.8; stroke-linejoin: miter; stroke-linecap: square"/>
   </g>
   <g id="patch_5">
    <path d="M 196.801527 199.779226 
Q 176.722065 182.264771 157.485154 165.485238 
" style="fill: none; stroke: #808080; stroke-linecap: round"/>
    <path d="M 158.844941 168.794464 
L 157.485154 165.485238 
L 160.948407 166.382944 
" style="fill: none; stroke: #808080; stroke-linecap: round"/>
   </g>
   <g id="text_18">
    <!-- bascule : $pMg_H = w$ -->
    <g style="fill: #808080" transform="translate(166.847951 209.172228) scale(0.08 -0.08)">
     <defs>
      <path id="DejaVuSans-62" d="M 3116 1747 
Q 3116 2381 2855 2742 
Q 2594 3103 2138 3103 
Q 1681 3103 1420 2742 
Q 1159 2381 1159 1747 
Q 1159 1113 1420 752 
Q 1681 391 2138 391 
Q 2594 391 2855 752 
Q 3116 1113 3116 1747 
z
M 1159 2969 
Q 1341 3281 1617 3432 
Q 1894 3584 2278 3584 
Q 2916 3584 3314 3078 
Q 3713 2572 3713 1747 
Q 3713 922 3314 415 
Q 2916 -91 2278 -91 
Q 1894 -91 1617 61 
Q 1341 213 1159 525 
L 1159 0 
L 581 0 
L 581 4863 
L 1159 4863 
L 1159 2969 
z
" transform="scale(0.015625)"/>
      <path id="DejaVuSans-75" d="M 544 1381 
L 544 3500 
L 1119 3500 
L 1119 1403 
Q 1119 906 1312 657 
Q 1506 409 1894 409 
Q 2359 409 2629 706 
Q 2900 1003 2900 1516 
L 2900 3500 
L 3475 3500 
L 3475 0 
L 2900 0 
L 2900 538 
Q 2691 219 2414 64 
Q 2138 -91 1772 -91 
Q 1169 -91 856 284 
Q 544 659 544 1381 
z
M 1991 3584 
L 1991 3584 
z
" transform="scale(0.015625)"/>
      <path id="DejaVuSans-3a" d="M 750 794 
L 1409 794 
L 1409 0 
L 750 0 
L 750 794 
z
M 750 3309 
L 1409 3309 
L 1409 2516 
L 750 2516 
L 750 3309 
z
" transform="scale(0.015625)"/>
      <path id="DejaVuSans-Oblique-70" d="M 3175 2156 
Q 3175 2616 2975 2859 
Q 2775 3103 2400 3103 
Q 2144 3103 1911 2972 
Q 1678 2841 1497 2591 
Q 1319 2344 1212 1994 
Q 1106 1644 1106 1300 
Q 1106 863 1306 627 
Q 1506 391 1875 391 
Q 2147 391 2380 519 
Q 2613 647 2778 891 
Q 2956 1147 3065 1494 
Q 3175 1841 3175 2156 
z
M 1394 2969 
Q 1625 3272 1939 3428 
Q 2253 3584 2638 3584 
Q 3175 3584 3472 3232 
Q 3769 2881 3769 2247 
Q 3769 1728 3584 1258 
Q 3400 788 3053 416 
Q 2822 169 2531 39 
Q 2241 -91 1919 -91 
Q 1547 -91 1294 64 
Q 1041 219 916 525 
L 556 -1331 
L -19 -1331 
L 922 3500 
L 1497 3500 
L 1394 2969 
z
" transform="scale(0.015625)"/>
      <path id="DejaVuSans-Oblique-4d" d="M 1081 4666 
L 2028 4666 
L 2572 1522 
L 4378 4666 
L 5350 4666 
L 4441 0 
L 3828 0 
L 4622 4091 
L 2791 897 
L 2175 897 
L 1581 4103 
L 788 0 
L 172 0 
L 1081 4666 
z
" transform="scale(0.015625)"/>
      <path id="DejaVuSans-Oblique-67" d="M 3816 3500 
L 3219 434 
Q 3047 -456 2561 -893 
Q 2075 -1331 1253 -1331 
Q 950 -1331 690 -1286 
Q 431 -1241 206 -1147 
L 313 -588 
Q 525 -725 762 -790 
Q 1000 -856 1269 -856 
Q 1816 -856 2167 -557 
Q 2519 -259 2631 300 
L 2681 563 
Q 2441 288 2122 144 
Q 1803 0 1434 0 
Q 903 0 598 351 
Q 294 703 294 1319 
Q 294 1803 478 2267 
Q 663 2731 997 3091 
Q 1219 3328 1514 3456 
Q 1809 3584 2131 3584 
Q 2484 3584 2746 3420 
Q 3009 3256 3138 2956 
L 3238 3500 
L 3816 3500 
z
M 2950 2216 
Q 2950 2641 2750 2872 
Q 2550 3103 2181 3103 
Q 1953 3103 1747 3012 
Q 1541 2922 1394 2759 
Q 1156 2491 1023 2127 
Q 891 1763 891 1375 
Q 891 944 1092 712 
Q 1294 481 1672 481 
Q 2219 481 2584 976 
Q 2950 1472 2950 2216 
z
" transform="scale(0.015625)"/>
      <path id="DejaVuSans-Oblique-48" d="M 1081 4666 
L 1716 4666 
L 1344 2753 
L 3634 2753 
L 4006 4666 
L 4641 4666 
L 3731 0 
L 3097 0 
L 3531 2222 
L 1241 2222 
L 806 0 
L 172 0 
L 1081 4666 
z
" transform="scale(0.015625)"/>
      <path id="DejaVuSans-3d" d="M 678 2906 
L 4684 2906 
L 4684 2381 
L 678 2381 
L 678 2906 
z
M 678 1631 
L 4684 1631 
L 4684 1100 
L 678 1100 
L 678 1631 
z
" transform="scale(0.015625)"/>
      <path id="DejaVuSans-Oblique-77" d="M 544 3500 
L 1113 3500 
L 1259 684 
L 2566 3500 
L 3231 3500 
L 3425 684 
L 4666 3500 
L 5241 3500 
L 3641 0 
L 2969 0 
L 2797 2900 
L 1459 0 
L 781 0 
L 544 3500 
z
" transform="scale(0.015625)"/>
     </defs>
     <use xlink:href="#DejaVuSans-62" transform="translate(0 0.015625)"/>
     <use xlink:href="#DejaVuSans-61" transform="translate(63.476562 0.015625)"/>
     <use xlink:href="#DejaVuSans-73" transform="translate(124.755859 0.015625)"/>
     <use xlink:href="#DejaVuSans-63" transform="translate(176.855469 0.015625)"/>
     <use xlink:href="#DejaVuSans-75" transform="translate(231.835938 0.015625)"/>
     <use xlink:href="#DejaVuSans-6c" transform="translate(295.214844 0.015625)"/>
     <use xlink:href="#DejaVuSans-65" transform="translate(322.998047 0.015625)"/>
     <use xlink:href="#DejaVuSans-20" transform="translate(384.521484 0.015625)"/>
     <use xlink:href="#DejaVuSans-3a" transform="translate(416.308594 0.015625)"/>
     <use xlink:href="#DejaVuSans-20" transform="translate(450 0.015625)"/>
     <use xlink:href="#DejaVuSans-Oblique-70" transform="translate(481.787109 0.015625)"/>
     <use xlink:href="#DejaVuSans-Oblique-4d" transform="translate(545.263672 0.015625)"/>
     <use xlink:href="#DejaVuSans-Oblique-67" transform="translate(631.542969 0.015625)"/>
     <use xlink:href="#DejaVuSans-Oblique-48" transform="translate(695.019531 -16.390625) scale(0.7)"/>
     <use xlink:href="#DejaVuSans-3d" transform="translate(769.873047 0.015625)"/>
     <use xlink:href="#DejaVuSans-Oblique-77" transform="translate(873.144531 0.015625)"/>
    </g>
   </g>
   <g id="patch_6">
    <path d="M 137.731505 160.729421 
Q 110.609465 148.160437 84.501826 136.06155 
" style="fill: none; stroke: #8b0000; stroke-linecap: round"/>
    <path d="M 87.011292 139.208387 
L 84.501826 136.06155 
L 88.524975 135.942079 
" style="fill: none; stroke: #8b0000; stroke-linecap: round"/>
   </g>
   <g id="text_19">
    <!-- optimum -->
    <g style="fill: #8b0000" transform="translate(128.524257 170.408773) scale(0.09 -0.09)">
     <defs>
      <path id="DejaVuSans-70" d="M 1159 525 
L 1159 -1331 
L 581 -1331 
L 581 3500 
L 1159 3500 
L 1159 2969 
Q 1341 3281 1617 3432 
Q 1894 3584 2278 3584 
Q 2916 3584 3314 3078 
Q 3713 2572 3713 1747 
Q 3713 922 3314 415 
Q 2916 -91 2278 -91 
Q 1894 -91 1617 61 
Q 1341 213 1159 525 
z
M 3116 1747 
Q 3116 2381 2855 2742 
Q 2594 3103 2138 3103 
Q 1681 3103 1420 2742 
Q 1159 2381 1159 1747 
Q 1159 1113 1420 752 
Q 1681 391 2138 391 
Q 2594 391 2855 752 
Q 3116 1113 3116 1747 
z
" transform="scale(0.015625)"/>
      <path id="DejaVuSans-6d" d="M 3328 2828 
Q 3544 3216 3844 3400 
Q 4144 3584 4550 3584 
Q 5097 3584 5394 3201 
Q 5691 2819 5691 2113 
L 5691 0 
L 5113 0 
L 5113 2094 
Q 5113 2597 4934 2840 
Q 4756 3084 4391 3084 
Q 3944 3084 3684 2787 
Q 3425 2491 3425 1978 
L 3425 0 
L 2847 0 
L 2847 2094 
Q 2847 2600 2669 2842 
Q 2491 3084 2119 3084 
Q 1678 3084 1418 2786 
Q 1159 2488 1159 1978 
L 1159 0 
L 581 0 
L 581 3500 
L 1159 3500 
L 1159 2956 
Q 1356 3278 1631 3431 
Q 1906 3584 2284 3584 
Q 2666 3584 2933 3390 
Q 3200 3197 3328 2828 
z
" transform="scale(0.015625)"/>
     </defs>
     <use xlink:href="#DejaVuSans-6f"/>
     <use xlink:href="#DejaVuSans-70" transform="translate(61.181641 0)"/>
     <use xlink:href="#DejaVuSans-74" transform="translate(124.658203 0)"/>
     <use xlink:href="#DejaVuSans-69" transform="translate(163.867188 0)"/>
     <use xlink:href="#DejaVuSans-6d" transform="translate(191.650391 0)"/>
     <use xlink:href="#DejaVuSans-75" transform="translate(289.0625 0)"/>
     <use xlink:href="#DejaVuSans-6d" transform="translate(352.441406 0)"/>
    </g>
    <!-- $TMS_{L_e,\,Z+x} = w/p$ -->
    <g style="fill: #8b0000" transform="translate(128.524257 180.486804) scale(0.09 -0.09)">
     <defs>
      <path id="DejaVuSans-Oblique-54" d="M 378 4666 
L 4325 4666 
L 4225 4134 
L 2559 4134 
L 1759 0 
L 1125 0 
L 1925 4134 
L 275 4134 
L 378 4666 
z
" transform="scale(0.015625)"/>
      <path id="DejaVuSans-Oblique-53" d="M 3859 4513 
L 3738 3897 
Q 3422 4066 3111 4152 
Q 2800 4238 2509 4238 
Q 1944 4238 1609 3991 
Q 1275 3744 1275 3334 
Q 1275 3109 1398 2989 
Q 1522 2869 2034 2731 
L 2413 2638 
Q 3053 2472 3303 2217 
Q 3553 1963 3553 1503 
Q 3553 797 2998 353 
Q 2444 -91 1538 -91 
Q 1166 -91 791 -17 
Q 416 56 38 206 
L 166 856 
Q 513 641 861 531 
Q 1209 422 1556 422 
Q 2147 422 2503 684 
Q 2859 947 2859 1369 
Q 2859 1650 2717 1795 
Q 2575 1941 2106 2059 
L 1728 2156 
Q 1081 2325 845 2545 
Q 609 2766 609 3163 
Q 609 3859 1145 4304 
Q 1681 4750 2541 4750 
Q 2875 4750 3203 4690 
Q 3531 4631 3859 4513 
z
" transform="scale(0.015625)"/>
      <path id="DejaVuSans-2c" d="M 750 794 
L 1409 794 
L 1409 256 
L 897 -744 
L 494 -744 
L 750 256 
L 750 794 
z
" transform="scale(0.015625)"/>
      <path id="DejaVuSans-2f" d="M 1625 4666 
L 2156 4666 
L 531 -594 
L 0 -594 
L 1625 4666 
z
" transform="scale(0.015625)"/>
     </defs>
     <use xlink:href="#DejaVuSans-Oblique-54" transform="translate(0 0.78125)"/>
     <use xlink:href="#DejaVuSans-Oblique-4d" transform="translate(61.083984 0.78125)"/>
     <use xlink:href="#DejaVuSans-Oblique-53" transform="translate(147.363281 0.78125)"/>
     <use xlink:href="#DejaVuSans-Oblique-4c" transform="translate(210.839844 -15.625) scale(0.7)"/>
     <use xlink:href="#DejaVuSans-Oblique-65" transform="translate(249.838867 -27.109375) scale(0.49)"/>
     <use xlink:href="#DejaVuSans-2c" transform="translate(281.899414 -15.625) scale(0.7)"/>
     <use xlink:href="#DejaVuSans-Oblique-5a" transform="translate(329.153059 -15.625) scale(0.7)"/>
     <use xlink:href="#DejaVuSans-2b" transform="translate(390.744856 -15.625) scale(0.7)"/>
     <use xlink:href="#DejaVuSans-Oblique-78" transform="translate(463.034895 -15.625) scale(0.7)"/>
     <use xlink:href="#DejaVuSans-3d" transform="translate(526.677473 0.78125)"/>
     <use xlink:href="#DejaVuSans-Oblique-77" transform="translate(629.948958 0.78125)"/>
     <use xlink:href="#DejaVuSans-2f" transform="translate(711.736067 0.78125)"/>
     <use xlink:href="#DejaVuSans-Oblique-70" transform="translate(745.427473 0.78125)"/>
    </g>
   </g>
   <g id="text_20">
    <!-- $L_e^*$ -->
    <g style="fill: #8b0000" transform="translate(86.355882 360.613686) scale(0.09 -0.09)">
     <defs>
      <path id="DejaVuSans-2a" d="M 3009 3897 
L 1888 3291 
L 3009 2681 
L 2828 2375 
L 1778 3009 
L 1778 1831 
L 1422 1831 
L 1422 3009 
L 372 2375 
L 191 2681 
L 1313 3291 
L 191 3897 
L 372 4206 
L 1422 3572 
L 1422 4750 
L 1778 4750 
L 1778 3572 
L 2828 4206 
L 3009 3897 
z
" transform="scale(0.015625)"/>
     </defs>
     <use xlink:href="#DejaVuSans-Oblique-4c" transform="translate(0 0.765625)"/>
     <use xlink:href="#DejaVuSans-2a" transform="translate(76.367357 39.046875) scale(0.7)"/>
     <use xlink:href="#DejaVuSans-Oblique-65" transform="translate(55.712891 -26.578125) scale(0.7)"/>
    </g>
   </g>
   <g id="text_21">
    <!-- Cas 1 : tangence sur la droite salariale ($h_m^* &gt; 0$) -->
    <g transform="translate(103.803125 62.352) scale(0.105 -0.105)">
     <defs>
      <path id="DejaVuSans-43" d="M 4122 4306 
L 4122 3641 
Q 3803 3938 3442 4084 
Q 3081 4231 2675 4231 
Q 1875 4231 1450 3742 
Q 1025 3253 1025 2328 
Q 1025 1406 1450 917 
Q 1875 428 2675 428 
Q 3081 428 3442 575 
Q 3803 722 4122 1019 
L 4122 359 
Q 3791 134 3420 21 
Q 3050 -91 2638 -91 
Q 1578 -91 968 557 
Q 359 1206 359 2328 
Q 359 3453 968 4101 
Q 1578 4750 2638 4750 
Q 3056 4750 3426 4639 
Q 3797 4528 4122 4306 
z
" transform="scale(0.015625)"/>
      <path id="DejaVuSans-6e" d="M 3513 2113 
L 3513 0 
L 2938 0 
L 2938 2094 
Q 2938 2591 2744 2837 
Q 2550 3084 2163 3084 
Q 1697 3084 1428 2787 
Q 1159 2491 1159 1978 
L 1159 0 
L 581 0 
L 581 3500 
L 1159 3500 
L 1159 2956 
Q 1366 3272 1645 3428 
Q 1925 3584 2291 3584 
Q 2894 3584 3203 3211 
Q 3513 2838 3513 2113 
z
" transform="scale(0.015625)"/>
      <path id="DejaVuSans-67" d="M 2906 1791 
Q 2906 2416 2648 2759 
Q 2391 3103 1925 3103 
Q 1463 3103 1205 2759 
Q 947 2416 947 1791 
Q 947 1169 1205 825 
Q 1463 481 1925 481 
Q 2391 481 2648 825 
Q 2906 1169 2906 1791 
z
M 3481 434 
Q 3481 -459 3084 -895 
Q 2688 -1331 1869 -1331 
Q 1566 -1331 1297 -1286 
Q 1028 -1241 775 -1147 
L 775 -588 
Q 1028 -725 1275 -790 
Q 1522 -856 1778 -856 
Q 2344 -856 2625 -561 
Q 2906 -266 2906 331 
L 2906 616 
Q 2728 306 2450 153 
Q 2172 0 1784 0 
Q 1141 0 747 490 
Q 353 981 353 1791 
Q 353 2603 747 3093 
Q 1141 3584 1784 3584 
Q 2172 3584 2450 3431 
Q 2728 3278 2906 2969 
L 2906 3500 
L 3481 3500 
L 3481 434 
z
" transform="scale(0.015625)"/>
      <path id="DejaVuSans-64" d="M 2906 2969 
L 2906 4863 
L 3481 4863 
L 3481 0 
L 2906 0 
L 2906 525 
Q 2725 213 2448 61 
Q 2172 -91 1784 -91 
Q 1150 -91 751 415 
Q 353 922 353 1747 
Q 353 2572 751 3078 
Q 1150 3584 1784 3584 
Q 2172 3584 2448 3432 
Q 2725 3281 2906 2969 
z
M 947 1747 
Q 947 1113 1208 752 
Q 1469 391 1925 391 
Q 2381 391 2643 752 
Q 2906 1113 2906 1747 
Q 2906 2381 2643 2742 
Q 2381 3103 1925 3103 
Q 1469 3103 1208 2742 
Q 947 2381 947 1747 
z
" transform="scale(0.015625)"/>
      <path id="DejaVuSans-28" d="M 1984 4856 
Q 1566 4138 1362 3434 
Q 1159 2731 1159 2009 
Q 1159 1288 1364 580 
Q 1569 -128 1984 -844 
L 1484 -844 
Q 1016 -109 783 600 
Q 550 1309 550 2009 
Q 550 2706 781 3412 
Q 1013 4119 1484 4856 
L 1984 4856 
z
" transform="scale(0.015625)"/>
      <path id="DejaVuSans-Oblique-68" d="M 3566 2113 
L 3156 0 
L 2578 0 
L 2988 2091 
Q 3016 2238 3031 2350 
Q 3047 2463 3047 2528 
Q 3047 2791 2881 2937 
Q 2716 3084 2419 3084 
Q 1956 3084 1617 2771 
Q 1278 2459 1178 1941 
L 800 0 
L 225 0 
L 1172 4863 
L 1747 4863 
L 1375 2950 
Q 1594 3244 1934 3414 
Q 2275 3584 2650 3584 
Q 3113 3584 3367 3334 
Q 3622 3084 3622 2631 
Q 3622 2519 3608 2391 
Q 3594 2263 3566 2113 
z
" transform="scale(0.015625)"/>
      <path id="DejaVuSans-Oblique-6d" d="M 5747 2113 
L 5338 0 
L 4763 0 
L 5166 2094 
Q 5191 2228 5203 2325 
Q 5216 2422 5216 2491 
Q 5216 2772 5059 2928 
Q 4903 3084 4622 3084 
Q 4203 3084 3875 2770 
Q 3547 2456 3450 1953 
L 3066 0 
L 2491 0 
L 2900 2094 
Q 2925 2209 2937 2307 
Q 2950 2406 2950 2484 
Q 2950 2769 2794 2926 
Q 2638 3084 2363 3084 
Q 1938 3084 1609 2770 
Q 1281 2456 1184 1953 
L 800 0 
L 225 0 
L 909 3500 
L 1484 3500 
L 1375 2956 
Q 1609 3263 1923 3423 
Q 2238 3584 2597 3584 
Q 2978 3584 3223 3384 
Q 3469 3184 3519 2828 
Q 3781 3197 4126 3390 
Q 4472 3584 4856 3584 
Q 5306 3584 5551 3325 
Q 5797 3066 5797 2591 
Q 5797 2488 5784 2364 
Q 5772 2241 5747 2113 
z
" transform="scale(0.015625)"/>
      <path id="DejaVuSans-3e" d="M 678 3150 
L 678 3719 
L 4684 2266 
L 4684 1747 
L 678 294 
L 678 863 
L 3897 2003 
L 678 3150 
z
" transform="scale(0.015625)"/>
      <path id="DejaVuSans-29" d="M 513 4856 
L 1013 4856 
Q 1481 4119 1714 3412 
Q 1947 2706 1947 2009 
Q 1947 1309 1714 600 
Q 1481 -109 1013 -844 
L 513 -844 
Q 928 -128 1133 580 
Q 1338 1288 1338 2009 
Q 1338 2731 1133 3434 
Q 928 4138 513 4856 
z
" transform="scale(0.015625)"/>
     </defs>
     <use xlink:href="#DejaVuSans-43" transform="translate(0 0.765625)"/>
     <use xlink:href="#DejaVuSans-61" transform="translate(69.824219 0.765625)"/>
     <use xlink:href="#DejaVuSans-73" transform="translate(131.103516 0.765625)"/>
     <use xlink:href="#DejaVuSans-20" transform="translate(183.203125 0.765625)"/>
     <use xlink:href="#DejaVuSans-31" transform="translate(214.990234 0.765625)"/>
     <use xlink:href="#DejaVuSans-20" transform="translate(278.613281 0.765625)"/>
     <use xlink:href="#DejaVuSans-3a" transform="translate(310.400391 0.765625)"/>
     <use xlink:href="#DejaVuSans-20" transform="translate(344.091797 0.765625)"/>
     <use xlink:href="#DejaVuSans-74" transform="translate(375.878906 0.765625)"/>
     <use xlink:href="#DejaVuSans-61" transform="translate(415.087891 0.765625)"/>
     <use xlink:href="#DejaVuSans-6e" transform="translate(476.367188 0.765625)"/>
     <use xlink:href="#DejaVuSans-67" transform="translate(539.746094 0.765625)"/>
     <use xlink:href="#DejaVuSans-65" transform="translate(603.222656 0.765625)"/>
     <use xlink:href="#DejaVuSans-6e" transform="translate(664.746094 0.765625)"/>
     <use xlink:href="#DejaVuSans-63" transform="translate(728.125 0.765625)"/>
     <use xlink:href="#DejaVuSans-65" transform="translate(783.105469 0.765625)"/>
     <use xlink:href="#DejaVuSans-20" transform="translate(844.628906 0.765625)"/>
     <use xlink:href="#DejaVuSans-73" transform="translate(876.416016 0.765625)"/>
     <use xlink:href="#DejaVuSans-75" transform="translate(928.515625 0.765625)"/>
     <use xlink:href="#DejaVuSans-72" transform="translate(991.894531 0.765625)"/>
     <use xlink:href="#DejaVuSans-20" transform="translate(1033.007812 0.765625)"/>
     <use xlink:href="#DejaVuSans-6c" transform="translate(1064.794922 0.765625)"/>
     <use xlink:href="#DejaVuSans-61" transform="translate(1092.578125 0.765625)"/>
     <use xlink:href="#DejaVuSans-20" transform="translate(1153.857422 0.765625)"/>
     <use xlink:href="#DejaVuSans-64" transform="translate(1185.644531 0.765625)"/>
     <use xlink:href="#DejaVuSans-72" transform="translate(1249.121094 0.765625)"/>
     <use xlink:href="#DejaVuSans-6f" transform="translate(1290.234375 0.765625)"/>
     <use xlink:href="#DejaVuSans-69" transform="translate(1351.416016 0.765625)"/>
     <use xlink:href="#DejaVuSans-74" transform="translate(1379.199219 0.765625)"/>
     <use xlink:href="#DejaVuSans-65" transform="translate(1418.408203 0.765625)"/>
     <use xlink:href="#DejaVuSans-20" transform="translate(1479.931641 0.765625)"/>
     <use xlink:href="#DejaVuSans-73" transform="translate(1511.71875 0.765625)"/>
     <use xlink:href="#DejaVuSans-61" transform="translate(1563.818359 0.765625)"/>
     <use xlink:href="#DejaVuSans-6c" transform="translate(1625.097656 0.765625)"/>
     <use xlink:href="#DejaVuSans-61" transform="translate(1652.880859 0.765625)"/>
     <use xlink:href="#DejaVuSans-72" transform="translate(1714.160156 0.765625)"/>
     <use xlink:href="#DejaVuSans-69" transform="translate(1755.273438 0.765625)"/>
     <use xlink:href="#DejaVuSans-61" transform="translate(1783.056641 0.765625)"/>
     <use xlink:href="#DejaVuSans-6c" transform="translate(1844.335938 0.765625)"/>
     <use xlink:href="#DejaVuSans-65" transform="translate(1872.119141 0.765625)"/>
     <use xlink:href="#DejaVuSans-20" transform="translate(1933.642578 0.765625)"/>
     <use xlink:href="#DejaVuSans-28" transform="translate(1965.429688 0.765625)"/>
     <use xlink:href="#DejaVuSans-Oblique-68" transform="translate(2004.443359 0.765625)"/>
     <use xlink:href="#DejaVuSans-2a" transform="translate(2088.907669 39.046875) scale(0.7)"/>
     <use xlink:href="#DejaVuSans-Oblique-6d" transform="translate(2067.822266 -26.578125) scale(0.7)"/>
     <use xlink:href="#DejaVuSans-3e" transform="translate(2159.762161 0.765625)"/>
     <use xlink:href="#DejaVuSans-30" transform="translate(2263.033646 0.765625)"/>
     <use xlink:href="#DejaVuSans-29" transform="translate(2326.656693 0.765625)"/>
    </g>
   </g>
   <g id="PathCollection_1">
    <defs>
     <path id="m79be5a6de3" d="M 0 3.354102 
C 0.889518 3.354102 1.742724 3.000693 2.371708 2.371708 
C 3.000693 1.742724 3.354102 0.889518 3.354102 0 
C 3.354102 -0.889518 3.000693 -1.742724 2.371708 -2.371708 
C 1.742724 -3.000693 0.889518 -3.354102 0 -3.354102 
C -0.889518 -3.354102 -1.742724 -3.000693 -2.371708 -2.371708 
C -3.000693 -1.742724 -3.354102 -0.889518 -3.354102 0 
C -3.354102 0.889518 -3.000693 1.742724 -2.371708 2.371708 
C -1.742724 3.000693 -0.889518 3.354102 0 3.354102 
z
" style="stroke: #808080"/>
    </defs>
    <g clip-path="url(#p6264ec4020)">
     <use xlink:href="#m79be5a6de3" x="155.134514" y="163.434875" style="fill: #808080; stroke: #808080"/>
    </g>
   </g>
   <g id="legend_1">
    <g id="patch_7">
     <path d="M 251.850625 112.939813 
L 409.483125 112.939813 
Q 411.183125 112.939813 411.183125 111.239813 
L 411.183125 74.302 
Q 411.183125 72.602 409.483125 72.602 
L 251.850625 72.602 
Q 250.150625 72.602 250.150625 74.302 
L 250.150625 111.239813 
Q 250.150625 112.939813 251.850625 112.939813 
z
" style="fill: #ffffff; opacity: 0.8; stroke: #cccccc; stroke-linejoin: miter"/>
    </g>
    <g id="line2d_35">
     <path d="M 253.550625 79.485672 
L 262.050625 79.485672 
L 270.550625 79.485672 
" style="fill: none; stroke: #000000; stroke-width: 2.5; stroke-linecap: square"/>
    </g>
    <g id="text_22">
     <!-- arc domestique -->
     <g transform="translate(277.350625 82.460672) scale(0.085 -0.085)">
      <defs>
       <path id="DejaVuSans-71" d="M 947 1747 
Q 947 1113 1208 752 
Q 1469 391 1925 391 
Q 2381 391 2643 752 
Q 2906 1113 2906 1747 
Q 2906 2381 2643 2742 
Q 2381 3103 1925 3103 
Q 1469 3103 1208 2742 
Q 947 2381 947 1747 
z
M 2906 525 
Q 2725 213 2448 61 
Q 2172 -91 1784 -91 
Q 1150 -91 751 415 
Q 353 922 353 1747 
Q 353 2572 751 3078 
Q 1150 3584 1784 3584 
Q 2172 3584 2448 3432 
Q 2725 3281 2906 2969 
L 2906 3500 
L 3481 3500 
L 3481 -1331 
L 2906 -1331 
L 2906 525 
z
" transform="scale(0.015625)"/>
      </defs>
      <use xlink:href="#DejaVuSans-61"/>
      <use xlink:href="#DejaVuSans-72" transform="translate(61.279297 0)"/>
      <use xlink:href="#DejaVuSans-63" transform="translate(100.142578 0)"/>
      <use xlink:href="#DejaVuSans-20" transform="translate(155.123047 0)"/>
      <use xlink:href="#DejaVuSans-64" transform="translate(186.910156 0)"/>
      <use xlink:href="#DejaVuSans-6f" transform="translate(250.386719 0)"/>
      <use xlink:href="#DejaVuSans-6d" transform="translate(311.568359 0)"/>
      <use xlink:href="#DejaVuSans-65" transform="translate(408.980469 0)"/>
      <use xlink:href="#DejaVuSans-73" transform="translate(470.503906 0)"/>
      <use xlink:href="#DejaVuSans-74" transform="translate(522.603516 0)"/>
      <use xlink:href="#DejaVuSans-69" transform="translate(561.8125 0)"/>
      <use xlink:href="#DejaVuSans-71" transform="translate(589.595703 0)"/>
      <use xlink:href="#DejaVuSans-75" transform="translate(653.072266 0)"/>
      <use xlink:href="#DejaVuSans-65" transform="translate(716.451172 0)"/>
     </g>
    </g>
    <g id="line2d_36">
     <path d="M 253.550625 91.963406 
L 262.050625 91.963406 
L 270.550625 91.963406 
" style="fill: none; stroke-dasharray: 9.25,4; stroke-dashoffset: 0; stroke: #1f77b4; stroke-width: 2.5"/>
    </g>
    <g id="text_23">
     <!-- droite salariale (pente $-w/p$) -->
     <g transform="translate(277.350625 94.938406) scale(0.085 -0.085)">
      <defs>
       <path id="DejaVuSans-2212" d="M 678 2272 
L 4684 2272 
L 4684 1741 
L 678 1741 
L 678 2272 
z
" transform="scale(0.015625)"/>
      </defs>
      <use xlink:href="#DejaVuSans-64" transform="translate(0 0.015625)"/>
      <use xlink:href="#DejaVuSans-72" transform="translate(63.476562 0.015625)"/>
      <use xlink:href="#DejaVuSans-6f" transform="translate(104.589844 0.015625)"/>
      <use xlink:href="#DejaVuSans-69" transform="translate(165.771484 0.015625)"/>
      <use xlink:href="#DejaVuSans-74" transform="translate(193.554688 0.015625)"/>
      <use xlink:href="#DejaVuSans-65" transform="translate(232.763672 0.015625)"/>
      <use xlink:href="#DejaVuSans-20" transform="translate(294.287109 0.015625)"/>
      <use xlink:href="#DejaVuSans-73" transform="translate(326.074219 0.015625)"/>
      <use xlink:href="#DejaVuSans-61" transform="translate(378.173828 0.015625)"/>
      <use xlink:href="#DejaVuSans-6c" transform="translate(439.453125 0.015625)"/>
      <use xlink:href="#DejaVuSans-61" transform="translate(467.236328 0.015625)"/>
      <use xlink:href="#DejaVuSans-72" transform="translate(528.515625 0.015625)"/>
      <use xlink:href="#DejaVuSans-69" transform="translate(569.628906 0.015625)"/>
      <use xlink:href="#DejaVuSans-61" transform="translate(597.412109 0.015625)"/>
      <use xlink:href="#DejaVuSans-6c" transform="translate(658.691406 0.015625)"/>
      <use xlink:href="#DejaVuSans-65" transform="translate(686.474609 0.015625)"/>
      <use xlink:href="#DejaVuSans-20" transform="translate(747.998047 0.015625)"/>
      <use xlink:href="#DejaVuSans-28" transform="translate(779.785156 0.015625)"/>
      <use xlink:href="#DejaVuSans-70" transform="translate(818.798828 0.015625)"/>
      <use xlink:href="#DejaVuSans-65" transform="translate(882.275391 0.015625)"/>
      <use xlink:href="#DejaVuSans-6e" transform="translate(943.798828 0.015625)"/>
      <use xlink:href="#DejaVuSans-74" transform="translate(1007.177734 0.015625)"/>
      <use xlink:href="#DejaVuSans-65" transform="translate(1046.386719 0.015625)"/>
      <use xlink:href="#DejaVuSans-20" transform="translate(1107.910156 0.015625)"/>
      <use xlink:href="#DejaVuSans-2212" transform="translate(1139.697266 0.015625)"/>
      <use xlink:href="#DejaVuSans-Oblique-77" transform="translate(1223.486328 0.015625)"/>
      <use xlink:href="#DejaVuSans-2f" transform="translate(1305.273438 0.015625)"/>
      <use xlink:href="#DejaVuSans-Oblique-70" transform="translate(1338.964844 0.015625)"/>
      <use xlink:href="#DejaVuSans-29" transform="translate(1402.441406 0.015625)"/>
     </g>
    </g>
    <g id="line2d_37">
     <path d="M 253.550625 104.797078 
L 262.050625 104.797078 
L 270.550625 104.797078 
" style="fill: none; stroke: #d62728; stroke-opacity: 0.9; stroke-width: 2; stroke-linecap: square"/>
    </g>
    <g id="text_24">
     <!-- courbe d'indifférence optimale -->
     <g transform="translate(277.350625 107.772078) scale(0.085 -0.085)">
      <defs>
       <path id="DejaVuSans-27" d="M 1147 4666 
L 1147 2931 
L 616 2931 
L 616 4666 
L 1147 4666 
z
" transform="scale(0.015625)"/>
       <path id="DejaVuSans-66" d="M 2375 4863 
L 2375 4384 
L 1825 4384 
Q 1516 4384 1395 4259 
Q 1275 4134 1275 3809 
L 1275 3500 
L 2222 3500 
L 2222 3053 
L 1275 3053 
L 1275 0 
L 697 0 
L 697 3053 
L 147 3053 
L 147 3500 
L 697 3500 
L 697 3744 
Q 697 4328 969 4595 
Q 1241 4863 1831 4863 
L 2375 4863 
z
" transform="scale(0.015625)"/>
       <path id="DejaVuSans-e9" d="M 3597 1894 
L 3597 1613 
L 953 1613 
Q 991 1019 1311 708 
Q 1631 397 2203 397 
Q 2534 397 2845 478 
Q 3156 559 3463 722 
L 3463 178 
Q 3153 47 2828 -22 
Q 2503 -91 2169 -91 
Q 1331 -91 842 396 
Q 353 884 353 1716 
Q 353 2575 817 3079 
Q 1281 3584 2069 3584 
Q 2775 3584 3186 3129 
Q 3597 2675 3597 1894 
z
M 3022 2063 
Q 3016 2534 2758 2815 
Q 2500 3097 2075 3097 
Q 1594 3097 1305 2825 
Q 1016 2553 972 2059 
L 3022 2063 
z
M 2469 5119 
L 3091 5119 
L 2072 3944 
L 1594 3944 
L 2469 5119 
z
" transform="scale(0.015625)"/>
      </defs>
      <use xlink:href="#DejaVuSans-63"/>
      <use xlink:href="#DejaVuSans-6f" transform="translate(54.980469 0)"/>
      <use xlink:href="#DejaVuSans-75" transform="translate(116.162109 0)"/>
      <use xlink:href="#DejaVuSans-72" transform="translate(179.541016 0)"/>
      <use xlink:href="#DejaVuSans-62" transform="translate(220.654297 0)"/>
      <use xlink:href="#DejaVuSans-65" transform="translate(284.130859 0)"/>
      <use xlink:href="#DejaVuSans-20" transform="translate(345.654297 0)"/>
      <use xlink:href="#DejaVuSans-64" transform="translate(377.441406 0)"/>
      <use xlink:href="#DejaVuSans-27" transform="translate(440.917969 0)"/>
      <use xlink:href="#DejaVuSans-69" transform="translate(468.408203 0)"/>
      <use xlink:href="#DejaVuSans-6e" transform="translate(496.191406 0)"/>
      <use xlink:href="#DejaVuSans-64" transform="translate(559.570312 0)"/>
      <use xlink:href="#DejaVuSans-69" transform="translate(623.046875 0)"/>
      <use xlink:href="#DejaVuSans-66" transform="translate(650.830078 0)"/>
      <use xlink:href="#DejaVuSans-66" transform="translate(686.035156 0)"/>
      <use xlink:href="#DejaVuSans-e9" transform="translate(721.240234 0)"/>
      <use xlink:href="#DejaVuSans-72" transform="translate(782.763672 0)"/>
      <use xlink:href="#DejaVuSans-65" transform="translate(821.626953 0)"/>
      <use xlink:href="#DejaVuSans-6e" transform="translate(883.150391 0)"/>
      <use xlink:href="#DejaVuSans-63" transform="translate(946.529297 0)"/>
      <use xlink:href="#DejaVuSans-65" transform="translate(1001.509766 0)"/>
      <use xlink:href="#DejaVuSans-20" transform="translate(1063.033203 0)"/>
      <use xlink:href="#DejaVuSans-6f" transform="translate(1094.820312 0)"/>
      <use xlink:href="#DejaVuSans-70" transform="translate(1156.001953 0)"/>
      <use xlink:href="#DejaVuSans-74" transform="translate(1219.478516 0)"/>
      <use xlink:href="#DejaVuSans-69" transform="translate(1258.6875 0)"/>
      <use xlink:href="#DejaVuSans-6d" transform="translate(1286.470703 0)"/>
      <use xlink:href="#DejaVuSans-61" transform="translate(1383.882812 0)"/>
      <use xlink:href="#DejaVuSans-6c" transform="translate(1445.162109 0)"/>
      <use xlink:href="#DejaVuSans-65" transform="translate(1472.945312 0)"/>
     </g>
    </g>
   </g>
   <g id="PathCollection_2">
    <defs>
     <path id="mcd3b15ae8c" d="M 0 4.1833 
C 1.109424 4.1833 2.173559 3.742521 2.95804 2.95804 
C 3.742521 2.173559 4.1833 1.109424 4.1833 0 
C 4.1833 -1.109424 3.742521 -2.173559 2.95804 -2.95804 
C 2.173559 -3.742521 1.109424 -4.1833 0 -4.1833 
C -1.109424 -4.1833 -2.173559 -3.742521 -2.95804 -2.95804 
C -3.742521 -2.173559 -4.1833 -1.109424 -4.1833 0 
C -4.1833 1.109424 -3.742521 2.173559 -2.95804 2.95804 
C -2.173559 3.742521 -1.109424 4.1833 0 4.1833 
z
" style="stroke: #8b0000"/>
    </defs>
    <g clip-path="url(#p6264ec4020)">
     <use xlink:href="#mcd3b15ae8c" x="81.670507" y="134.749451" style="fill: #8b0000; stroke: #8b0000"/>
    </g>
   </g>
  </g>
  <g id="axes_2">
   <g id="patch_8">
    <path d="M 467.203125 366.712 
L 842.033125 366.712 
L 842.033125 68.352 
L 467.203125 68.352 
z
" style="fill: #ffffff"/>
   </g>
   <g id="matplotlib.axis_3">
    <g id="xtick_10">
     <g id="line2d_38">
      <path d="M 467.203125 366.712 
L 467.203125 68.352 
" clip-path="url(#p7e3488e8b8)" style="fill: none; stroke: #b0b0b0; stroke-opacity: 0.25; stroke-width: 0.8; stroke-linecap: square"/>
     </g>
     <g id="line2d_39">
      <g>
       <use xlink:href="#m017eb671b6" x="467.203125" y="366.712" style="stroke: #000000; stroke-width: 0.8"/>
      </g>
     </g>
     <g id="text_25">
      <!-- 0 -->
      <g transform="translate(464.021875 381.310437) scale(0.1 -0.1)">
       <use xlink:href="#DejaVuSans-30"/>
      </g>
     </g>
    </g>
    <g id="xtick_11">
     <g id="line2d_40">
      <path d="M 514.056875 366.712 
L 514.056875 68.352 
" clip-path="url(#p7e3488e8b8)" style="fill: none; stroke: #b0b0b0; stroke-opacity: 0.25; stroke-width: 0.8; stroke-linecap: square"/>
     </g>
     <g id="line2d_41">
      <g>
       <use xlink:href="#m017eb671b6" x="514.056875" y="366.712" style="stroke: #000000; stroke-width: 0.8"/>
      </g>
     </g>
     <g id="text_26">
      <!-- 2 -->
      <g transform="translate(510.875625 381.310437) scale(0.1 -0.1)">
       <use xlink:href="#DejaVuSans-32"/>
      </g>
     </g>
    </g>
    <g id="xtick_12">
     <g id="line2d_42">
      <path d="M 560.910625 366.712 
L 560.910625 68.352 
" clip-path="url(#p7e3488e8b8)" style="fill: none; stroke: #b0b0b0; stroke-opacity: 0.25; stroke-width: 0.8; stroke-linecap: square"/>
     </g>
     <g id="line2d_43">
      <g>
       <use xlink:href="#m017eb671b6" x="560.910625" y="366.712" style="stroke: #000000; stroke-width: 0.8"/>
      </g>
     </g>
     <g id="text_27">
      <!-- 4 -->
      <g transform="translate(557.729375 381.310437) scale(0.1 -0.1)">
       <use xlink:href="#DejaVuSans-34"/>
      </g>
     </g>
    </g>
    <g id="xtick_13">
     <g id="line2d_44">
      <path d="M 607.764375 366.712 
L 607.764375 68.352 
" clip-path="url(#p7e3488e8b8)" style="fill: none; stroke: #b0b0b0; stroke-opacity: 0.25; stroke-width: 0.8; stroke-linecap: square"/>
     </g>
     <g id="line2d_45">
      <g>
       <use xlink:href="#m017eb671b6" x="607.764375" y="366.712" style="stroke: #000000; stroke-width: 0.8"/>
      </g>
     </g>
     <g id="text_28">
      <!-- 6 -->
      <g transform="translate(604.583125 381.310437) scale(0.1 -0.1)">
       <use xlink:href="#DejaVuSans-36"/>
      </g>
     </g>
    </g>
    <g id="xtick_14">
     <g id="line2d_46">
      <path d="M 654.618125 366.712 
L 654.618125 68.352 
" clip-path="url(#p7e3488e8b8)" style="fill: none; stroke: #b0b0b0; stroke-opacity: 0.25; stroke-width: 0.8; stroke-linecap: square"/>
     </g>
     <g id="line2d_47">
      <g>
       <use xlink:href="#m017eb671b6" x="654.618125" y="366.712" style="stroke: #000000; stroke-width: 0.8"/>
      </g>
     </g>
     <g id="text_29">
      <!-- 8 -->
      <g transform="translate(651.436875 381.310437) scale(0.1 -0.1)">
       <use xlink:href="#DejaVuSans-38"/>
      </g>
     </g>
    </g>
    <g id="xtick_15">
     <g id="line2d_48">
      <path d="M 701.471875 366.712 
L 701.471875 68.352 
" clip-path="url(#p7e3488e8b8)" style="fill: none; stroke: #b0b0b0; stroke-opacity: 0.25; stroke-width: 0.8; stroke-linecap: square"/>
     </g>
     <g id="line2d_49">
      <g>
       <use xlink:href="#m017eb671b6" x="701.471875" y="366.712" style="stroke: #000000; stroke-width: 0.8"/>
      </g>
     </g>
     <g id="text_30">
      <!-- 10 -->
      <g transform="translate(695.109375 381.310437) scale(0.1 -0.1)">
       <use xlink:href="#DejaVuSans-31"/>
       <use xlink:href="#DejaVuSans-30" transform="translate(63.623047 0)"/>
      </g>
     </g>
    </g>
    <g id="xtick_16">
     <g id="line2d_50">
      <path d="M 748.325625 366.712 
L 748.325625 68.352 
" clip-path="url(#p7e3488e8b8)" style="fill: none; stroke: #b0b0b0; stroke-opacity: 0.25; stroke-width: 0.8; stroke-linecap: square"/>
     </g>
     <g id="line2d_51">
      <g>
       <use xlink:href="#m017eb671b6" x="748.325625" y="366.712" style="stroke: #000000; stroke-width: 0.8"/>
      </g>
     </g>
     <g id="text_31">
      <!-- 12 -->
      <g transform="translate(741.963125 381.310437) scale(0.1 -0.1)">
       <use xlink:href="#DejaVuSans-31"/>
       <use xlink:href="#DejaVuSans-32" transform="translate(63.623047 0)"/>
      </g>
     </g>
    </g>
    <g id="xtick_17">
     <g id="line2d_52">
      <path d="M 795.179375 366.712 
L 795.179375 68.352 
" clip-path="url(#p7e3488e8b8)" style="fill: none; stroke: #b0b0b0; stroke-opacity: 0.25; stroke-width: 0.8; stroke-linecap: square"/>
     </g>
     <g id="line2d_53">
      <g>
       <use xlink:href="#m017eb671b6" x="795.179375" y="366.712" style="stroke: #000000; stroke-width: 0.8"/>
      </g>
     </g>
     <g id="text_32">
      <!-- 14 -->
      <g transform="translate(788.816875 381.310437) scale(0.1 -0.1)">
       <use xlink:href="#DejaVuSans-31"/>
       <use xlink:href="#DejaVuSans-34" transform="translate(63.623047 0)"/>
      </g>
     </g>
    </g>
    <g id="xtick_18">
     <g id="line2d_54">
      <path d="M 842.033125 366.712 
L 842.033125 68.352 
" clip-path="url(#p7e3488e8b8)" style="fill: none; stroke: #b0b0b0; stroke-opacity: 0.25; stroke-width: 0.8; stroke-linecap: square"/>
     </g>
     <g id="line2d_55">
      <g>
       <use xlink:href="#m017eb671b6" x="842.033125" y="366.712" style="stroke: #000000; stroke-width: 0.8"/>
      </g>
     </g>
     <g id="text_33">
      <!-- 16 -->
      <g transform="translate(835.670625 381.310437) scale(0.1 -0.1)">
       <use xlink:href="#DejaVuSans-31"/>
       <use xlink:href="#DejaVuSans-36" transform="translate(63.623047 0)"/>
      </g>
     </g>
    </g>
    <g id="text_34">
     <!-- loisir $L_e$ -->
     <g transform="translate(636.018125 394.988562) scale(0.1 -0.1)">
      <use xlink:href="#DejaVuSans-6c" transform="translate(0 0.015625)"/>
      <use xlink:href="#DejaVuSans-6f" transform="translate(27.783203 0.015625)"/>
      <use xlink:href="#DejaVuSans-69" transform="translate(88.964844 0.015625)"/>
      <use xlink:href="#DejaVuSans-73" transform="translate(116.748047 0.015625)"/>
      <use xlink:href="#DejaVuSans-69" transform="translate(168.847656 0.015625)"/>
      <use xlink:href="#DejaVuSans-72" transform="translate(196.630859 0.015625)"/>
      <use xlink:href="#DejaVuSans-20" transform="translate(237.744141 0.015625)"/>
      <use xlink:href="#DejaVuSans-Oblique-4c" transform="translate(269.53125 0.015625)"/>
      <use xlink:href="#DejaVuSans-Oblique-65" transform="translate(325.244141 -16.390625) scale(0.7)"/>
     </g>
    </g>
   </g>
   <g id="matplotlib.axis_4">
    <g id="ytick_7">
     <g id="line2d_56">
      <path d="M 467.203125 366.712 
L 842.033125 366.712 
" clip-path="url(#p7e3488e8b8)" style="fill: none; stroke: #b0b0b0; stroke-opacity: 0.25; stroke-width: 0.8; stroke-linecap: square"/>
     </g>
     <g id="line2d_57">
      <g>
       <use xlink:href="#m45f6e1838e" x="467.203125" y="366.712" style="stroke: #000000; stroke-width: 0.8"/>
      </g>
     </g>
     <g id="text_35">
      <!-- 0 -->
      <g transform="translate(453.840625 370.511219) scale(0.1 -0.1)">
       <use xlink:href="#DejaVuSans-30"/>
      </g>
     </g>
    </g>
    <g id="ytick_8">
     <g id="line2d_58">
      <path d="M 467.203125 315.892719 
L 842.033125 315.892719 
" clip-path="url(#p7e3488e8b8)" style="fill: none; stroke: #b0b0b0; stroke-opacity: 0.25; stroke-width: 0.8; stroke-linecap: square"/>
     </g>
     <g id="line2d_59">
      <g>
       <use xlink:href="#m45f6e1838e" x="467.203125" y="315.892719" style="stroke: #000000; stroke-width: 0.8"/>
      </g>
     </g>
     <g id="text_36">
      <!-- 5 -->
      <g transform="translate(453.840625 319.691938) scale(0.1 -0.1)">
       <use xlink:href="#DejaVuSans-35"/>
      </g>
     </g>
    </g>
    <g id="ytick_9">
     <g id="line2d_60">
      <path d="M 467.203125 265.073438 
L 842.033125 265.073438 
" clip-path="url(#p7e3488e8b8)" style="fill: none; stroke: #b0b0b0; stroke-opacity: 0.25; stroke-width: 0.8; stroke-linecap: square"/>
     </g>
     <g id="line2d_61">
      <g>
       <use xlink:href="#m45f6e1838e" x="467.203125" y="265.073438" style="stroke: #000000; stroke-width: 0.8"/>
      </g>
     </g>
     <g id="text_37">
      <!-- 10 -->
      <g transform="translate(447.478125 268.872656) scale(0.1 -0.1)">
       <use xlink:href="#DejaVuSans-31"/>
       <use xlink:href="#DejaVuSans-30" transform="translate(63.623047 0)"/>
      </g>
     </g>
    </g>
    <g id="ytick_10">
     <g id="line2d_62">
      <path d="M 467.203125 214.254156 
L 842.033125 214.254156 
" clip-path="url(#p7e3488e8b8)" style="fill: none; stroke: #b0b0b0; stroke-opacity: 0.25; stroke-width: 0.8; stroke-linecap: square"/>
     </g>
     <g id="line2d_63">
      <g>
       <use xlink:href="#m45f6e1838e" x="467.203125" y="214.254156" style="stroke: #000000; stroke-width: 0.8"/>
      </g>
     </g>
     <g id="text_38">
      <!-- 15 -->
      <g transform="translate(447.478125 218.053375) scale(0.1 -0.1)">
       <use xlink:href="#DejaVuSans-31"/>
       <use xlink:href="#DejaVuSans-35" transform="translate(63.623047 0)"/>
      </g>
     </g>
    </g>
    <g id="ytick_11">
     <g id="line2d_64">
      <path d="M 467.203125 163.434875 
L 842.033125 163.434875 
" clip-path="url(#p7e3488e8b8)" style="fill: none; stroke: #b0b0b0; stroke-opacity: 0.25; stroke-width: 0.8; stroke-linecap: square"/>
     </g>
     <g id="line2d_65">
      <g>
       <use xlink:href="#m45f6e1838e" x="467.203125" y="163.434875" style="stroke: #000000; stroke-width: 0.8"/>
      </g>
     </g>
     <g id="text_39">
      <!-- 20 -->
      <g transform="translate(447.478125 167.234094) scale(0.1 -0.1)">
       <use xlink:href="#DejaVuSans-32"/>
       <use xlink:href="#DejaVuSans-30" transform="translate(63.623047 0)"/>
      </g>
     </g>
    </g>
    <g id="ytick_12">
     <g id="line2d_66">
      <path d="M 467.203125 112.615594 
L 842.033125 112.615594 
" clip-path="url(#p7e3488e8b8)" style="fill: none; stroke: #b0b0b0; stroke-opacity: 0.25; stroke-width: 0.8; stroke-linecap: square"/>
     </g>
     <g id="line2d_67">
      <g>
       <use xlink:href="#m45f6e1838e" x="467.203125" y="112.615594" style="stroke: #000000; stroke-width: 0.8"/>
      </g>
     </g>
     <g id="text_40">
      <!-- 25 -->
      <g transform="translate(447.478125 116.414813) scale(0.1 -0.1)">
       <use xlink:href="#DejaVuSans-32"/>
       <use xlink:href="#DejaVuSans-35" transform="translate(63.623047 0)"/>
      </g>
     </g>
    </g>
    <g id="text_41">
     <!-- service total $Z + x$ -->
     <g transform="translate(441.398437 262.582) rotate(-90) scale(0.1 -0.1)">
      <use xlink:href="#DejaVuSans-73" transform="translate(0 0.015625)"/>
      <use xlink:href="#DejaVuSans-65" transform="translate(52.099609 0.015625)"/>
      <use xlink:href="#DejaVuSans-72" transform="translate(113.623047 0.015625)"/>
      <use xlink:href="#DejaVuSans-76" transform="translate(154.736328 0.015625)"/>
      <use xlink:href="#DejaVuSans-69" transform="translate(213.916016 0.015625)"/>
      <use xlink:href="#DejaVuSans-63" transform="translate(241.699219 0.015625)"/>
      <use xlink:href="#DejaVuSans-65" transform="translate(296.679688 0.015625)"/>
      <use xlink:href="#DejaVuSans-20" transform="translate(358.203125 0.015625)"/>
      <use xlink:href="#DejaVuSans-74" transform="translate(389.990234 0.015625)"/>
      <use xlink:href="#DejaVuSans-6f" transform="translate(429.199219 0.015625)"/>
      <use xlink:href="#DejaVuSans-74" transform="translate(490.380859 0.015625)"/>
      <use xlink:href="#DejaVuSans-61" transform="translate(529.589844 0.015625)"/>
      <use xlink:href="#DejaVuSans-6c" transform="translate(590.869141 0.015625)"/>
      <use xlink:href="#DejaVuSans-20" transform="translate(618.652344 0.015625)"/>
      <use xlink:href="#DejaVuSans-Oblique-5a" transform="translate(650.439453 0.015625)"/>
      <use xlink:href="#DejaVuSans-2b" transform="translate(738.427734 0.015625)"/>
      <use xlink:href="#DejaVuSans-Oblique-78" transform="translate(841.699219 0.015625)"/>
     </g>
    </g>
   </g>
   <g id="line2d_68">
    <path d="M 582.096821 163.576394 
L 599.62125 170.543383 
L 616.399957 177.454084 
L 632.060085 184.139925 
L 646.974491 190.743402 
L 661.143178 197.254888 
L 674.566144 203.663361 
L 687.24339 209.956184 
L 699.174916 216.118861 
L 710.733581 222.339594 
L 721.546526 228.412071 
L 731.613751 234.31589 
L 741.308115 240.261298 
L 750.256759 246.009015 
L 758.832543 251.786668 
L 766.662607 257.328117 
L 774.11981 262.88028 
L 780.831293 268.144261 
L 787.169916 273.388034 
L 793.135679 278.607991 
L 798.728582 283.799633 
L 803.948624 288.957288 
L 808.795806 294.073716 
L 813.270128 299.139553 
L 817.37159 304.142507 
L 821.100192 309.066206 
L 824.455934 313.888482 
L 827.438815 318.578841 
L 830.048836 323.094706 
L 832.285997 327.375935 
L 834.523158 332.183987 
L 836.387459 336.77487 
L 837.8789 341.031848 
L 838.99748 344.7598 
L 840.116061 349.267003 
L 840.861781 353.075756 
L 840.861781 353.075756 
" clip-path="url(#p7e3488e8b8)" style="fill: none; stroke: #000000; stroke-width: 2.5; stroke-linecap: square"/>
   </g>
   <g id="line2d_69">
    <path d="M 468.374469 119.171281 
L 581.723961 163.430755 
L 581.723961 163.430755 
" clip-path="url(#p7e3488e8b8)" style="fill: none; stroke-dasharray: 9.25,4; stroke-dashoffset: 0; stroke: #1f77b4; stroke-width: 2.5"/>
   </g>
   <g id="line2d_70">
    <path d="M 627.014747 58.311133 
L 633.313504 71.219393 
L 639.612262 83.616932 
L 645.911019 95.531498 
L 652.209777 106.98841 
L 658.879049 118.646166 
L 665.548322 129.842026 
L 672.217594 140.599103 
L 678.886867 150.93864 
L 685.556139 160.880222 
L 692.225412 170.441949 
L 699.265199 180.141296 
L 706.304987 189.454355 
L 713.344775 198.398067 
L 720.384562 206.988167 
L 727.42435 215.239306 
L 734.834653 223.573535 
L 742.244956 231.562188 
L 749.655258 239.219141 
L 757.065561 246.557365 
L 764.475864 253.589007 
L 771.886167 260.325463 
L 779.666985 267.092752 
L 787.447803 273.55804 
L 795.228621 279.732269 
L 803.009439 285.625736 
L 810.790257 291.248144 
L 818.94159 296.857529 
L 827.092923 302.189408 
L 835.244256 307.253156 
L 839.690437 309.905375 
L 839.690437 309.905375 
" clip-path="url(#p7e3488e8b8)" style="fill: none; stroke: #d62728; stroke-opacity: 0.9; stroke-width: 2; stroke-linecap: square"/>
   </g>
   <g id="line2d_71">
    <path d="M 784.187035 366.712 
L 784.187035 68.352 
" clip-path="url(#p7e3488e8b8)" style="fill: none; stroke-dasharray: 1.1,1.815; stroke-dashoffset: 0; stroke: #8b0000; stroke-opacity: 0.5; stroke-width: 1.1"/>
   </g>
   <g id="patch_9">
    <path d="M 467.203125 366.712 
L 467.203125 68.352 
" style="fill: none; stroke: #000000; stroke-width: 0.8; stroke-linejoin: miter; stroke-linecap: square"/>
   </g>
   <g id="patch_10">
    <path d="M 467.203125 366.712 
L 842.033125 366.712 
" style="fill: none; stroke: #000000; stroke-width: 0.8; stroke-linejoin: miter; stroke-linecap: square"/>
   </g>
   <g id="patch_11">
    <path d="M 623.401527 199.779226 
Q 603.322065 182.264771 584.085154 165.485238 
" style="fill: none; stroke: #808080; stroke-linecap: round"/>
    <path d="M 585.444941 168.794464 
L 584.085154 165.485238 
L 587.548407 166.382944 
" style="fill: none; stroke: #808080; stroke-linecap: round"/>
   </g>
   <g id="text_42">
    <!-- bascule : $pMg_H = w$ -->
    <g style="fill: #808080" transform="translate(593.447951 209.172228) scale(0.08 -0.08)">
     <use xlink:href="#DejaVuSans-62" transform="translate(0 0.015625)"/>
     <use xlink:href="#DejaVuSans-61" transform="translate(63.476562 0.015625)"/>
     <use xlink:href="#DejaVuSans-73" transform="translate(124.755859 0.015625)"/>
     <use xlink:href="#DejaVuSans-63" transform="translate(176.855469 0.015625)"/>
     <use xlink:href="#DejaVuSans-75" transform="translate(231.835938 0.015625)"/>
     <use xlink:href="#DejaVuSans-6c" transform="translate(295.214844 0.015625)"/>
     <use xlink:href="#DejaVuSans-65" transform="translate(322.998047 0.015625)"/>
     <use xlink:href="#DejaVuSans-20" transform="translate(384.521484 0.015625)"/>
     <use xlink:href="#DejaVuSans-3a" transform="translate(416.308594 0.015625)"/>
     <use xlink:href="#DejaVuSans-20" transform="translate(450 0.015625)"/>
     <use xlink:href="#DejaVuSans-Oblique-70" transform="translate(481.787109 0.015625)"/>
     <use xlink:href="#DejaVuSans-Oblique-4d" transform="translate(545.263672 0.015625)"/>
     <use xlink:href="#DejaVuSans-Oblique-67" transform="translate(631.542969 0.015625)"/>
     <use xlink:href="#DejaVuSans-Oblique-48" transform="translate(695.019531 -16.390625) scale(0.7)"/>
     <use xlink:href="#DejaVuSans-3d" transform="translate(769.873047 0.015625)"/>
     <use xlink:href="#DejaVuSans-Oblique-77" transform="translate(873.144531 0.015625)"/>
    </g>
   </g>
   <g id="patch_12">
    <path d="M 711.079439 250.121417 
Q 746.671647 260.229921 781.188356 270.032974 
" style="fill: none; stroke: #8b0000; stroke-linecap: round"/>
    <path d="M 778.217081 267.317918 
L 781.188356 270.032974 
L 777.233547 270.78096 
" style="fill: none; stroke: #8b0000; stroke-linecap: round"/>
   </g>
   <g id="text_43">
    <!-- optimum -->
    <g style="fill: #8b0000" transform="translate(631.912348 235.396954) scale(0.09 -0.09)">
     <use xlink:href="#DejaVuSans-6f"/>
     <use xlink:href="#DejaVuSans-70" transform="translate(61.181641 0)"/>
     <use xlink:href="#DejaVuSans-74" transform="translate(124.658203 0)"/>
     <use xlink:href="#DejaVuSans-69" transform="translate(163.867188 0)"/>
     <use xlink:href="#DejaVuSans-6d" transform="translate(191.650391 0)"/>
     <use xlink:href="#DejaVuSans-75" transform="translate(289.0625 0)"/>
     <use xlink:href="#DejaVuSans-6d" transform="translate(352.441406 0)"/>
    </g>
    <!-- $TMS_{L_e,\,Z+x} = Mg_H$ -->
    <g style="fill: #8b0000" transform="translate(631.912348 245.474985) scale(0.09 -0.09)">
     <use xlink:href="#DejaVuSans-Oblique-54" transform="translate(0 0.78125)"/>
     <use xlink:href="#DejaVuSans-Oblique-4d" transform="translate(61.083984 0.78125)"/>
     <use xlink:href="#DejaVuSans-Oblique-53" transform="translate(147.363281 0.78125)"/>
     <use xlink:href="#DejaVuSans-Oblique-4c" transform="translate(210.839844 -15.625) scale(0.7)"/>
     <use xlink:href="#DejaVuSans-Oblique-65" transform="translate(249.838867 -27.109375) scale(0.49)"/>
     <use xlink:href="#DejaVuSans-2c" transform="translate(281.899414 -15.625) scale(0.7)"/>
     <use xlink:href="#DejaVuSans-Oblique-5a" transform="translate(329.153059 -15.625) scale(0.7)"/>
     <use xlink:href="#DejaVuSans-2b" transform="translate(390.744856 -15.625) scale(0.7)"/>
     <use xlink:href="#DejaVuSans-Oblique-78" transform="translate(463.034895 -15.625) scale(0.7)"/>
     <use xlink:href="#DejaVuSans-3d" transform="translate(526.677473 0.78125)"/>
     <use xlink:href="#DejaVuSans-Oblique-4d" transform="translate(629.948958 0.78125)"/>
     <use xlink:href="#DejaVuSans-Oblique-67" transform="translate(716.228255 0.78125)"/>
     <use xlink:href="#DejaVuSans-Oblique-48" transform="translate(779.704817 -15.625) scale(0.7)"/>
    </g>
   </g>
   <g id="text_44">
    <!-- $L_e^*$ -->
    <g style="fill: #8b0000" transform="translate(788.87241 360.613686) scale(0.09 -0.09)">
     <use xlink:href="#DejaVuSans-Oblique-4c" transform="translate(0 0.765625)"/>
     <use xlink:href="#DejaVuSans-2a" transform="translate(76.367357 39.046875) scale(0.7)"/>
     <use xlink:href="#DejaVuSans-Oblique-65" transform="translate(55.712891 -26.578125) scale(0.7)"/>
    </g>
   </g>
   <g id="text_45">
    <!-- Cas 2 : tangence sur l'arc domestique ($h_m^* = 0$) -->
    <g transform="translate(532.135625 62.352) scale(0.105 -0.105)">
     <use xlink:href="#DejaVuSans-43" transform="translate(0 0.765625)"/>
     <use xlink:href="#DejaVuSans-61" transform="translate(69.824219 0.765625)"/>
     <use xlink:href="#DejaVuSans-73" transform="translate(131.103516 0.765625)"/>
     <use xlink:href="#DejaVuSans-20" transform="translate(183.203125 0.765625)"/>
     <use xlink:href="#DejaVuSans-32" transform="translate(214.990234 0.765625)"/>
     <use xlink:href="#DejaVuSans-20" transform="translate(278.613281 0.765625)"/>
     <use xlink:href="#DejaVuSans-3a" transform="translate(310.400391 0.765625)"/>
     <use xlink:href="#DejaVuSans-20" transform="translate(344.091797 0.765625)"/>
     <use xlink:href="#DejaVuSans-74" transform="translate(375.878906 0.765625)"/>
     <use xlink:href="#DejaVuSans-61" transform="translate(415.087891 0.765625)"/>
     <use xlink:href="#DejaVuSans-6e" transform="translate(476.367188 0.765625)"/>
     <use xlink:href="#DejaVuSans-67" transform="translate(539.746094 0.765625)"/>
     <use xlink:href="#DejaVuSans-65" transform="translate(603.222656 0.765625)"/>
     <use xlink:href="#DejaVuSans-6e" transform="translate(664.746094 0.765625)"/>
     <use xlink:href="#DejaVuSans-63" transform="translate(728.125 0.765625)"/>
     <use xlink:href="#DejaVuSans-65" transform="translate(783.105469 0.765625)"/>
     <use xlink:href="#DejaVuSans-20" transform="translate(844.628906 0.765625)"/>
     <use xlink:href="#DejaVuSans-73" transform="translate(876.416016 0.765625)"/>
     <use xlink:href="#DejaVuSans-75" transform="translate(928.515625 0.765625)"/>
     <use xlink:href="#DejaVuSans-72" transform="translate(991.894531 0.765625)"/>
     <use xlink:href="#DejaVuSans-20" transform="translate(1033.007812 0.765625)"/>
     <use xlink:href="#DejaVuSans-6c" transform="translate(1064.794922 0.765625)"/>
     <use xlink:href="#DejaVuSans-27" transform="translate(1092.578125 0.765625)"/>
     <use xlink:href="#DejaVuSans-61" transform="translate(1120.068359 0.765625)"/>
     <use xlink:href="#DejaVuSans-72" transform="translate(1181.347656 0.765625)"/>
     <use xlink:href="#DejaVuSans-63" transform="translate(1222.460938 0.765625)"/>
     <use xlink:href="#DejaVuSans-20" transform="translate(1277.441406 0.765625)"/>
     <use xlink:href="#DejaVuSans-64" transform="translate(1309.228516 0.765625)"/>
     <use xlink:href="#DejaVuSans-6f" transform="translate(1372.705078 0.765625)"/>
     <use xlink:href="#DejaVuSans-6d" transform="translate(1433.886719 0.765625)"/>
     <use xlink:href="#DejaVuSans-65" transform="translate(1531.298828 0.765625)"/>
     <use xlink:href="#DejaVuSans-73" transform="translate(1592.822266 0.765625)"/>
     <use xlink:href="#DejaVuSans-74" transform="translate(1644.921875 0.765625)"/>
     <use xlink:href="#DejaVuSans-69" transform="translate(1684.130859 0.765625)"/>
     <use xlink:href="#DejaVuSans-71" transform="translate(1711.914062 0.765625)"/>
     <use xlink:href="#DejaVuSans-75" transform="translate(1775.390625 0.765625)"/>
     <use xlink:href="#DejaVuSans-65" transform="translate(1838.769531 0.765625)"/>
     <use xlink:href="#DejaVuSans-20" transform="translate(1900.292969 0.765625)"/>
     <use xlink:href="#DejaVuSans-28" transform="translate(1932.080078 0.765625)"/>
     <use xlink:href="#DejaVuSans-Oblique-68" transform="translate(1971.09375 0.765625)"/>
     <use xlink:href="#DejaVuSans-2a" transform="translate(2055.55806 39.046875) scale(0.7)"/>
     <use xlink:href="#DejaVuSans-Oblique-6d" transform="translate(2034.472656 -26.578125) scale(0.7)"/>
     <use xlink:href="#DejaVuSans-3d" transform="translate(2126.412552 0.765625)"/>
     <use xlink:href="#DejaVuSans-30" transform="translate(2229.684036 0.765625)"/>
     <use xlink:href="#DejaVuSans-29" transform="translate(2293.307083 0.765625)"/>
    </g>
   </g>
   <g id="PathCollection_3">
    <g clip-path="url(#p7e3488e8b8)">
     <use xlink:href="#m79be5a6de3" x="581.734514" y="163.434875" style="fill: #808080; stroke: #808080"/>
    </g>
   </g>
   <g id="legend_2">
    <g id="patch_13">
     <path d="M 678.450625 112.939813 
L 836.083125 112.939813 
Q 837.783125 112.939813 837.783125 111.239813 
L 837.783125 74.302 
Q 837.783125 72.602 836.083125 72.602 
L 678.450625 72.602 
Q 676.750625 72.602 676.750625 74.302 
L 676.750625 111.239813 
Q 676.750625 112.939813 678.450625 112.939813 
z
" style="fill: #ffffff; opacity: 0.8; stroke: #cccccc; stroke-linejoin: miter"/>
    </g>
    <g id="line2d_72">
     <path d="M 680.150625 79.485672 
L 688.650625 79.485672 
L 697.150625 79.485672 
" style="fill: none; stroke: #000000; stroke-width: 2.5; stroke-linecap: square"/>
    </g>
    <g id="text_46">
     <!-- arc domestique -->
     <g transform="translate(703.950625 82.460672) scale(0.085 -0.085)">
      <use xlink:href="#DejaVuSans-61"/>
      <use xlink:href="#DejaVuSans-72" transform="translate(61.279297 0)"/>
      <use xlink:href="#DejaVuSans-63" transform="translate(100.142578 0)"/>
      <use xlink:href="#DejaVuSans-20" transform="translate(155.123047 0)"/>
      <use xlink:href="#DejaVuSans-64" transform="translate(186.910156 0)"/>
      <use xlink:href="#DejaVuSans-6f" transform="translate(250.386719 0)"/>
      <use xlink:href="#DejaVuSans-6d" transform="translate(311.568359 0)"/>
      <use xlink:href="#DejaVuSans-65" transform="translate(408.980469 0)"/>
      <use xlink:href="#DejaVuSans-73" transform="translate(470.503906 0)"/>
      <use xlink:href="#DejaVuSans-74" transform="translate(522.603516 0)"/>
      <use xlink:href="#DejaVuSans-69" transform="translate(561.8125 0)"/>
      <use xlink:href="#DejaVuSans-71" transform="translate(589.595703 0)"/>
      <use xlink:href="#DejaVuSans-75" transform="translate(653.072266 0)"/>
      <use xlink:href="#DejaVuSans-65" transform="translate(716.451172 0)"/>
     </g>
    </g>
    <g id="line2d_73">
     <path d="M 680.150625 91.963406 
L 688.650625 91.963406 
L 697.150625 91.963406 
" style="fill: none; stroke-dasharray: 9.25,4; stroke-dashoffset: 0; stroke: #1f77b4; stroke-width: 2.5"/>
    </g>
    <g id="text_47">
     <!-- droite salariale (pente $-w/p$) -->
     <g transform="translate(703.950625 94.938406) scale(0.085 -0.085)">
      <use xlink:href="#DejaVuSans-64" transform="translate(0 0.015625)"/>
      <use xlink:href="#DejaVuSans-72" transform="translate(63.476562 0.015625)"/>
      <use xlink:href="#DejaVuSans-6f" transform="translate(104.589844 0.015625)"/>
      <use xlink:href="#DejaVuSans-69" transform="translate(165.771484 0.015625)"/>
      <use xlink:href="#DejaVuSans-74" transform="translate(193.554688 0.015625)"/>
      <use xlink:href="#DejaVuSans-65" transform="translate(232.763672 0.015625)"/>
      <use xlink:href="#DejaVuSans-20" transform="translate(294.287109 0.015625)"/>
      <use xlink:href="#DejaVuSans-73" transform="translate(326.074219 0.015625)"/>
      <use xlink:href="#DejaVuSans-61" transform="translate(378.173828 0.015625)"/>
      <use xlink:href="#DejaVuSans-6c" transform="translate(439.453125 0.015625)"/>
      <use xlink:href="#DejaVuSans-61" transform="translate(467.236328 0.015625)"/>
      <use xlink:href="#DejaVuSans-72" transform="translate(528.515625 0.015625)"/>
      <use xlink:href="#DejaVuSans-69" transform="translate(569.628906 0.015625)"/>
      <use xlink:href="#DejaVuSans-61" transform="translate(597.412109 0.015625)"/>
      <use xlink:href="#DejaVuSans-6c" transform="translate(658.691406 0.015625)"/>
      <use xlink:href="#DejaVuSans-65" transform="translate(686.474609 0.015625)"/>
      <use xlink:href="#DejaVuSans-20" transform="translate(747.998047 0.015625)"/>
      <use xlink:href="#DejaVuSans-28" transform="translate(779.785156 0.015625)"/>
      <use xlink:href="#DejaVuSans-70" transform="translate(818.798828 0.015625)"/>
      <use xlink:href="#DejaVuSans-65" transform="translate(882.275391 0.015625)"/>
      <use xlink:href="#DejaVuSans-6e" transform="translate(943.798828 0.015625)"/>
      <use xlink:href="#DejaVuSans-74" transform="translate(1007.177734 0.015625)"/>
      <use xlink:href="#DejaVuSans-65" transform="translate(1046.386719 0.015625)"/>
      <use xlink:href="#DejaVuSans-20" transform="translate(1107.910156 0.015625)"/>
      <use xlink:href="#DejaVuSans-2212" transform="translate(1139.697266 0.015625)"/>
      <use xlink:href="#DejaVuSans-Oblique-77" transform="translate(1223.486328 0.015625)"/>
      <use xlink:href="#DejaVuSans-2f" transform="translate(1305.273438 0.015625)"/>
      <use xlink:href="#DejaVuSans-Oblique-70" transform="translate(1338.964844 0.015625)"/>
      <use xlink:href="#DejaVuSans-29" transform="translate(1402.441406 0.015625)"/>
     </g>
    </g>
    <g id="line2d_74">
     <path d="M 680.150625 104.797078 
L 688.650625 104.797078 
L 697.150625 104.797078 
" style="fill: none; stroke: #d62728; stroke-opacity: 0.9; stroke-width: 2; stroke-linecap: square"/>
    </g>
    <g id="text_48">
     <!-- courbe d'indifférence optimale -->
     <g transform="translate(703.950625 107.772078) scale(0.085 -0.085)">
      <use xlink:href="#DejaVuSans-63"/>
      <use xlink:href="#DejaVuSans-6f" transform="translate(54.980469 0)"/>
      <use xlink:href="#DejaVuSans-75" transform="translate(116.162109 0)"/>
      <use xlink:href="#DejaVuSans-72" transform="translate(179.541016 0)"/>
      <use xlink:href="#DejaVuSans-62" transform="translate(220.654297 0)"/>
      <use xlink:href="#DejaVuSans-65" transform="translate(284.130859 0)"/>
      <use xlink:href="#DejaVuSans-20" transform="translate(345.654297 0)"/>
      <use xlink:href="#DejaVuSans-64" transform="translate(377.441406 0)"/>
      <use xlink:href="#DejaVuSans-27" transform="translate(440.917969 0)"/>
      <use xlink:href="#DejaVuSans-69" transform="translate(468.408203 0)"/>
      <use xlink:href="#DejaVuSans-6e" transform="translate(496.191406 0)"/>
      <use xlink:href="#DejaVuSans-64" transform="translate(559.570312 0)"/>
      <use xlink:href="#DejaVuSans-69" transform="translate(623.046875 0)"/>
      <use xlink:href="#DejaVuSans-66" transform="translate(650.830078 0)"/>
      <use xlink:href="#DejaVuSans-66" transform="translate(686.035156 0)"/>
      <use xlink:href="#DejaVuSans-e9" transform="translate(721.240234 0)"/>
      <use xlink:href="#DejaVuSans-72" transform="translate(782.763672 0)"/>
      <use xlink:href="#DejaVuSans-65" transform="translate(821.626953 0)"/>
      <use xlink:href="#DejaVuSans-6e" transform="translate(883.150391 0)"/>
      <use xlink:href="#DejaVuSans-63" transform="translate(946.529297 0)"/>
      <use xlink:href="#DejaVuSans-65" transform="translate(1001.509766 0)"/>
      <use xlink:href="#DejaVuSans-20" transform="translate(1063.033203 0)"/>
      <use xlink:href="#DejaVuSans-6f" transform="translate(1094.820312 0)"/>
      <use xlink:href="#DejaVuSans-70" transform="translate(1156.001953 0)"/>
      <use xlink:href="#DejaVuSans-74" transform="translate(1219.478516 0)"/>
      <use xlink:href="#DejaVuSans-69" transform="translate(1258.6875 0)"/>
      <use xlink:href="#DejaVuSans-6d" transform="translate(1286.470703 0)"/>
      <use xlink:href="#DejaVuSans-61" transform="translate(1383.882812 0)"/>
      <use xlink:href="#DejaVuSans-6c" transform="translate(1445.162109 0)"/>
      <use xlink:href="#DejaVuSans-65" transform="translate(1472.945312 0)"/>
     </g>
    </g>
   </g>
   <g id="PathCollection_4">
    <g clip-path="url(#p7e3488e8b8)">
     <use xlink:href="#mcd3b15ae8c" x="784.187035" y="270.884626" style="fill: #8b0000; stroke: #8b0000"/>
    </g>
   </g>
  </g>
  <g id="text_49">
   <!-- Gronau : choix optimal de $L_e$ par tangence sur l'enveloppe supérieure -->
   <g transform="translate(217.403125 16.8) scale(0.12 -0.12)">
    <defs>
     <path id="DejaVuSans-47" d="M 3809 666 
L 3809 1919 
L 2778 1919 
L 2778 2438 
L 4434 2438 
L 4434 434 
Q 4069 175 3628 42 
Q 3188 -91 2688 -91 
Q 1594 -91 976 548 
Q 359 1188 359 2328 
Q 359 3472 976 4111 
Q 1594 4750 2688 4750 
Q 3144 4750 3555 4637 
Q 3966 4525 4313 4306 
L 4313 3634 
Q 3963 3931 3569 4081 
Q 3175 4231 2741 4231 
Q 1884 4231 1454 3753 
Q 1025 3275 1025 2328 
Q 1025 1384 1454 906 
Q 1884 428 2741 428 
Q 3075 428 3337 486 
Q 3600 544 3809 666 
z
" transform="scale(0.015625)"/>
     <path id="DejaVuSans-68" d="M 3513 2113 
L 3513 0 
L 2938 0 
L 2938 2094 
Q 2938 2591 2744 2837 
Q 2550 3084 2163 3084 
Q 1697 3084 1428 2787 
Q 1159 2491 1159 1978 
L 1159 0 
L 581 0 
L 581 4863 
L 1159 4863 
L 1159 2956 
Q 1366 3272 1645 3428 
Q 1925 3584 2291 3584 
Q 2894 3584 3203 3211 
Q 3513 2838 3513 2113 
z
" transform="scale(0.015625)"/>
     <path id="DejaVuSans-78" d="M 3513 3500 
L 2247 1797 
L 3578 0 
L 2900 0 
L 1881 1375 
L 863 0 
L 184 0 
L 1544 1831 
L 300 3500 
L 978 3500 
L 1906 2253 
L 2834 3500 
L 3513 3500 
z
" transform="scale(0.015625)"/>
    </defs>
    <use xlink:href="#DejaVuSans-47" transform="translate(0 0.015625)"/>
    <use xlink:href="#DejaVuSans-72" transform="translate(77.490234 0.015625)"/>
    <use xlink:href="#DejaVuSans-6f" transform="translate(118.603516 0.015625)"/>
    <use xlink:href="#DejaVuSans-6e" transform="translate(179.785156 0.015625)"/>
    <use xlink:href="#DejaVuSans-61" transform="translate(243.164062 0.015625)"/>
    <use xlink:href="#DejaVuSans-75" transform="translate(304.443359 0.015625)"/>
    <use xlink:href="#DejaVuSans-20" transform="translate(367.822266 0.015625)"/>
    <use xlink:href="#DejaVuSans-3a" transform="translate(399.609375 0.015625)"/>
    <use xlink:href="#DejaVuSans-20" transform="translate(433.300781 0.015625)"/>
    <use xlink:href="#DejaVuSans-63" transform="translate(465.087891 0.015625)"/>
    <use xlink:href="#DejaVuSans-68" transform="translate(520.068359 0.015625)"/>
    <use xlink:href="#DejaVuSans-6f" transform="translate(583.447266 0.015625)"/>
    <use xlink:href="#DejaVuSans-69" transform="translate(644.628906 0.015625)"/>
    <use xlink:href="#DejaVuSans-78" transform="translate(672.412109 0.015625)"/>
    <use xlink:href="#DejaVuSans-20" transform="translate(731.591797 0.015625)"/>
    <use xlink:href="#DejaVuSans-6f" transform="translate(763.378906 0.015625)"/>
    <use xlink:href="#DejaVuSans-70" transform="translate(824.560547 0.015625)"/>
    <use xlink:href="#DejaVuSans-74" transform="translate(888.037109 0.015625)"/>
    <use xlink:href="#DejaVuSans-69" transform="translate(927.246094 0.015625)"/>
    <use xlink:href="#DejaVuSans-6d" transform="translate(955.029297 0.015625)"/>
    <use xlink:href="#DejaVuSans-61" transform="translate(1052.441406 0.015625)"/>
    <use xlink:href="#DejaVuSans-6c" transform="translate(1113.720703 0.015625)"/>
    <use xlink:href="#DejaVuSans-20" transform="translate(1141.503906 0.015625)"/>
    <use xlink:href="#DejaVuSans-64" transform="translate(1173.291016 0.015625)"/>
    <use xlink:href="#DejaVuSans-65" transform="translate(1236.767578 0.015625)"/>
    <use xlink:href="#DejaVuSans-20" transform="translate(1298.291016 0.015625)"/>
    <use xlink:href="#DejaVuSans-Oblique-4c" transform="translate(1330.078125 0.015625)"/>
    <use xlink:href="#DejaVuSans-Oblique-65" transform="translate(1385.791016 -16.390625) scale(0.7)"/>
    <use xlink:href="#DejaVuSans-20" transform="translate(1431.591797 0.015625)"/>
    <use xlink:href="#DejaVuSans-70" transform="translate(1463.378906 0.015625)"/>
    <use xlink:href="#DejaVuSans-61" transform="translate(1526.855469 0.015625)"/>
    <use xlink:href="#DejaVuSans-72" transform="translate(1588.134766 0.015625)"/>
    <use xlink:href="#DejaVuSans-20" transform="translate(1629.248047 0.015625)"/>
    <use xlink:href="#DejaVuSans-74" transform="translate(1661.035156 0.015625)"/>
    <use xlink:href="#DejaVuSans-61" transform="translate(1700.244141 0.015625)"/>
    <use xlink:href="#DejaVuSans-6e" transform="translate(1761.523438 0.015625)"/>
    <use xlink:href="#DejaVuSans-67" transform="translate(1824.902344 0.015625)"/>
    <use xlink:href="#DejaVuSans-65" transform="translate(1888.378906 0.015625)"/>
    <use xlink:href="#DejaVuSans-6e" transform="translate(1949.902344 0.015625)"/>
    <use xlink:href="#DejaVuSans-63" transform="translate(2013.28125 0.015625)"/>
    <use xlink:href="#DejaVuSans-65" transform="translate(2068.261719 0.015625)"/>
    <use xlink:href="#DejaVuSans-20" transform="translate(2129.785156 0.015625)"/>
    <use xlink:href="#DejaVuSans-73" transform="translate(2161.572266 0.015625)"/>
    <use xlink:href="#DejaVuSans-75" transform="translate(2213.671875 0.015625)"/>
    <use xlink:href="#DejaVuSans-72" transform="translate(2277.050781 0.015625)"/>
    <use xlink:href="#DejaVuSans-20" transform="translate(2318.164062 0.015625)"/>
    <use xlink:href="#DejaVuSans-6c" transform="translate(2349.951172 0.015625)"/>
    <use xlink:href="#DejaVuSans-27" transform="translate(2377.734375 0.015625)"/>
    <use xlink:href="#DejaVuSans-65" transform="translate(2405.224609 0.015625)"/>
    <use xlink:href="#DejaVuSans-6e" transform="translate(2466.748047 0.015625)"/>
    <use xlink:href="#DejaVuSans-76" transform="translate(2530.126953 0.015625)"/>
    <use xlink:href="#DejaVuSans-65" transform="translate(2589.306641 0.015625)"/>
    <use xlink:href="#DejaVuSans-6c" transform="translate(2650.830078 0.015625)"/>
    <use xlink:href="#DejaVuSans-6f" transform="translate(2678.613281 0.015625)"/>
    <use xlink:href="#DejaVuSans-70" transform="translate(2739.794922 0.015625)"/>
    <use xlink:href="#DejaVuSans-70" transform="translate(2803.271484 0.015625)"/>
    <use xlink:href="#DejaVuSans-65" transform="translate(2866.748047 0.015625)"/>
    <use xlink:href="#DejaVuSans-20" transform="translate(2928.271484 0.015625)"/>
    <use xlink:href="#DejaVuSans-73" transform="translate(2960.058594 0.015625)"/>
    <use xlink:href="#DejaVuSans-75" transform="translate(3012.158203 0.015625)"/>
    <use xlink:href="#DejaVuSans-70" transform="translate(3075.537109 0.015625)"/>
    <use xlink:href="#DejaVuSans-e9" transform="translate(3139.013672 0.015625)"/>
    <use xlink:href="#DejaVuSans-72" transform="translate(3200.537109 0.015625)"/>
    <use xlink:href="#DejaVuSans-69" transform="translate(3241.650391 0.015625)"/>
    <use xlink:href="#DejaVuSans-65" transform="translate(3269.433594 0.015625)"/>
    <use xlink:href="#DejaVuSans-75" transform="translate(3330.957031 0.015625)"/>
    <use xlink:href="#DejaVuSans-72" transform="translate(3394.335938 0.015625)"/>
    <use xlink:href="#DejaVuSans-65" transform="translate(3435.449219 0.015625)"/>
   </g>
  </g>
 </g>
 <defs>
  <clipPath id="p6264ec4020">
   <rect x="40.603125" y="68.352" width="374.83" height="298.36"/>
  </clipPath>
  <clipPath id="p7e3488e8b8">
   <rect x="467.203125" y="68.352" width="374.83" height="298.36"/>
  </clipPath>
 </defs>
</svg>
